<?xml version="1.0" encoding="utf-8"?>
<!-- Generator: Adobe Illustrator 13.0.2, SVG Export Plug-In  -->
<!DOCTYPE svg PUBLIC "-//W3C//DTD SVG 1.1//EN" "http://www.w3.org/Graphics/SVG/1.1/DTD/svg11.dtd" [
	<!ENTITY ns_flows "http://ns.adobe.com/Flows/1.0/">
]>
<svg version="1.1"
	 xmlns="http://www.w3.org/2000/svg" xmlns:xlink="http://www.w3.org/1999/xlink" xmlns:a="http://ns.adobe.com/AdobeSVGViewerExtensions/3.0/"
	 x="0px" y="0px" width="470px" height="388px" viewBox="-7.411 -31.749 470 388" enable-background="new -7.411 -31.749 470 388"
	 xml:space="preserve">
<defs>
</defs>
<circle fill="#FFFFFF" stroke="#000000" cx="387.548" cy="58.215" r="9.715"/>
<path d="M381.555,61.122h1.469v-6.474c-0.585,0-1.144,0.039-1.638,0.104v-1.105c0.858-0.169,1.6-0.416,2.21-0.767h1.079v8.242h1.469
	v1.326h-4.589V61.122z"/>
<path d="M391.539,60.29h-4.213V58.6l4.03-5.603h1.756v5.928h1.352v1.365h-1.352v2.236h-1.573V60.29z M391.564,58.938v-4.095
	l-2.951,4.095H391.564z"/>
<circle fill="#FFFFFF" stroke="#000000" cx="356.215" cy="15.548" r="9.715"/>
<path d="M350.222,18.455h1.469V11.98c-0.585,0-1.144,0.039-1.638,0.104v-1.105c0.858-0.169,1.6-0.416,2.21-0.767h1.079v8.242h1.469
	v1.326h-4.589V18.455z"/>
<path d="M357.372,17.246c0.532,0.832,1.144,1.235,1.924,1.235c0.962,0,1.625-0.637,1.625-1.469c0-1.027-0.819-1.534-2.483-1.534
	c-0.104,0-0.208,0-0.312,0v-1.417c0.13,0.013,0.26,0.013,0.39,0.013c1.417,0,2.146-0.481,2.146-1.326
	c0-0.676-0.521-1.157-1.365-1.157c-0.702,0-1.3,0.312-1.742,0.936l-1.157-0.91c0.637-0.897,1.69-1.404,2.99-1.404
	c1.807,0,2.925,0.988,2.925,2.392c0,0.975-0.468,1.677-1.378,2.093c1.079,0.312,1.678,1.157,1.678,2.392
	c0,1.755-1.223,2.847-3.225,2.847c-1.547,0-2.678-0.624-3.367-1.859L357.372,17.246z"/>
<circle fill="#FFFFFF" stroke="#000000" cx="441.549" cy="32.215" r="9.715"/>
<path d="M435.556,35.122h1.469v-6.474c-0.585,0-1.144,0.039-1.638,0.104v-1.105c0.858-0.169,1.6-0.416,2.21-0.767h1.079v8.242h1.469
	v1.326h-4.589V35.122z"/>
<path d="M441.757,34.745c0.585-0.962,1.481-1.69,2.521-2.496c1.274-0.988,2.08-1.612,2.08-2.665c0-0.78-0.52-1.261-1.352-1.261
	c-0.858,0-1.482,0.572-1.586,1.469l-1.612-0.299c0.312-1.638,1.521-2.613,3.263-2.613c1.82,0,3.004,1.157,3.004,2.782
	c0,1.339-0.832,2.249-2.341,3.367c-1.131,0.845-1.976,1.352-2.262,1.924h4.55v1.495h-6.266V34.745z"/>
<circle fill="#FFFFFF" stroke="#000000" cx="402.215" cy="151.545" r="9.715"/>
<path d="M396.222,154.451h1.469v-6.475c-0.585,0-1.144,0.039-1.638,0.104v-1.105c0.858-0.169,1.6-0.416,2.21-0.767h1.079v8.242
	h1.469v1.326h-4.589V154.451z"/>
<path d="M403.449,154.451h1.47v-6.475c-0.585,0-1.145,0.039-1.639,0.104v-1.105c0.858-0.169,1.6-0.416,2.211-0.767h1.078v8.242h1.47
	v1.326h-4.59V154.451z"/>
<circle fill="#FFFFFF" stroke="#000000" cx="306.215" cy="307.545" r="9.715"/>
<path d="M300.222,310.451h1.469v-6.475c-0.585,0-1.144,0.039-1.638,0.104v-1.105c0.858-0.169,1.6-0.416,2.21-0.767h1.079v8.242
	h1.469v1.326h-4.589V310.451z"/>
<path d="M309.673,302.209c2.223,0,3.393,1.651,3.393,4.862s-1.17,4.862-3.393,4.862c-2.224,0-3.394-1.651-3.394-4.862
	S307.449,302.209,309.673,302.209z M309.673,310.478c1.118,0,1.703-1.145,1.703-3.406c0-2.263-0.585-3.419-1.703-3.419
	c-1.105,0-1.716,1.156-1.716,3.419C307.957,309.333,308.567,310.478,309.673,310.478z"/>
<circle fill="#FFFFFF" stroke="#000000" cx="173.548" cy="256.879" r="9.715"/>
<path d="M172.807,257.731c-1.664,0-2.86-1.235-2.86-2.978c0-2.015,1.235-3.211,3.276-3.211c2.093,0,3.328,1.547,3.328,4.368
	c0,3.38-1.56,5.356-3.926,5.356c-0.962,0-1.781-0.247-2.418-0.715l0.702-1.274c0.598,0.377,1.118,0.585,1.729,0.585
	c1.157,0,2.106-1.066,2.21-2.873C174.25,257.484,173.587,257.731,172.807,257.731z M173.171,252.947
	c-0.91,0-1.573,0.688-1.573,1.664c0,1.079,0.65,1.742,1.586,1.742c0.806,0,1.482-0.469,1.716-1.17
	C174.835,253.74,174.186,252.947,173.171,252.947z"/>
<circle fill="#FFFFFF" stroke="#000000" cx="84.882" cy="200.211" r="9.715"/>
<path d="M81.645,197.215c0-1.417,1.131-2.34,3.068-2.34c1.976,0,3.081,0.936,3.081,2.431c0,0.937-0.481,1.664-1.43,2.106
	c1.222,0.637,1.768,1.404,1.768,2.535c0,1.625-1.248,2.652-3.523,2.652c-2.119,0-3.341-1.015-3.341-2.613
	c0-1.131,0.598-1.938,1.833-2.535C82.087,198.879,81.645,198.216,81.645,197.215z M82.984,201.921c0,0.755,0.637,1.287,1.664,1.287
	c1.144,0,1.807-0.507,1.807-1.3c0-0.689-0.611-1.261-1.833-1.716C83.543,200.557,82.984,201.167,82.984,201.921z M86.169,197.28
	c0-0.663-0.52-1.079-1.404-1.079c-0.936,0-1.469,0.39-1.469,1.014c0,0.729,0.507,1.235,1.482,1.47
	C85.727,198.385,86.169,197.956,86.169,197.28z"/>
<circle fill="#FFFFFF" stroke="#000000" cx="10.215" cy="138.879" r="9.715"/>
<path d="M11.268,135.233h-4.42v-1.548h6.383v1.04l-3.757,8.464H7.628L11.268,135.233z"/>
<circle fill="#FFFFFF" stroke="#000000" cx="52.215" cy="119.545" r="9.715"/>
<path d="M52.514,117.732c1.664,0,2.86,1.248,2.86,2.991c0,2.015-1.235,3.211-3.276,3.211c-2.132,0-3.328-1.534-3.328-4.368
	c0-3.38,1.56-5.356,3.926-5.356c0.923,0,1.755,0.221,2.431,0.715l-0.715,1.274c-0.598-0.377-1.118-0.585-1.729-0.585
	c-1.157,0-2.106,1.053-2.21,2.86C51.071,117.979,51.734,117.732,52.514,117.732z M52.15,122.517c0.91,0,1.573-0.677,1.573-1.651
	c0-1.079-0.65-1.742-1.586-1.742c-0.806,0-1.482,0.455-1.716,1.157C50.486,121.724,51.136,122.517,52.15,122.517z"/>
<circle fill="#FFFFFF" stroke="#000000" cx="127.548" cy="80.215" r="9.715"/>
<path d="M125.572,82.107c0.351,0.689,0.923,1.053,1.664,1.053c0.949,0,1.677-0.78,1.677-1.989c0-1.014-0.637-1.677-1.586-1.677
	c-0.624,0-1.131,0.299-1.43,0.845l-1.339-0.312l0.39-5.005h5.044v1.508h-3.783l-0.104,2.106c0.364-0.351,0.871-0.533,1.599-0.533
	c1.716,0,2.925,1.248,2.925,3.146c0,2.054-1.287,3.354-3.367,3.354c-1.469,0-2.548-0.624-3.159-1.781L125.572,82.107z"/>
<circle fill="#FFFFFF" stroke="#000000" cx="142.881" cy="10.215" r="9.715"/>
<path d="M143.258,12.289h-4.212v-1.69l4.03-5.603h1.755v5.928h1.352v1.365h-1.352v2.236h-1.573V12.289z M143.284,10.937V6.842
	l-2.951,4.095H143.284z"/>
<circle fill="#FFFFFF" stroke="#000000" cx="220.215" cy="14.215" r="9.715"/>
<path d="M217.758,15.912c0.533,0.832,1.144,1.235,1.924,1.235c0.962,0,1.625-0.637,1.625-1.469c0-1.027-0.819-1.534-2.483-1.534
	c-0.104,0-0.208,0-0.312,0v-1.417c0.13,0.013,0.26,0.013,0.39,0.013c1.417,0,2.145-0.481,2.145-1.326
	c0-0.676-0.52-1.157-1.365-1.157c-0.702,0-1.3,0.312-1.742,0.936l-1.157-0.91c0.637-0.897,1.69-1.404,2.99-1.404
	c1.807,0,2.925,0.988,2.925,2.392c0,0.975-0.468,1.677-1.378,2.093c1.079,0.312,1.677,1.157,1.677,2.392
	c0,1.755-1.222,2.847-3.224,2.847c-1.547,0-2.678-0.624-3.367-1.859L217.758,15.912z"/>
<circle fill="#FFFFFF" stroke="#000000" cx="284.215" cy="54.881" r="9.715"/>
<path d="M280.809,57.411c0.585-0.962,1.482-1.69,2.522-2.496c1.273-0.988,2.08-1.612,2.08-2.665c0-0.78-0.521-1.261-1.353-1.261
	c-0.857,0-1.481,0.572-1.586,1.469l-1.612-0.299c0.312-1.638,1.521-2.613,3.264-2.613c1.82,0,3.003,1.157,3.003,2.782
	c0,1.339-0.832,2.249-2.34,3.367c-1.131,0.845-1.977,1.352-2.263,1.924h4.551v1.495h-6.267V57.411z"/>
<circle fill="#FFFFFF" stroke="#000000" cx="296.215" cy="137.545" r="9.715"/>
<path d="M293.836,140.451h1.469v-6.475c-0.585,0-1.144,0.039-1.638,0.104v-1.105c0.857-0.169,1.599-0.416,2.21-0.767h1.079v8.242
	h1.469v1.326h-4.589V140.451z"/>
<polygon fill="#D2232A" points="253.086,290.242 264.575,303.834 248.009,297.338 "/>
<polygon fill="#D2232A" points="98.749,92.278 80.978,91.332 97.061,83.719 "/>
<path fill="none" stroke="#000000" stroke-width="7" stroke-linecap="round" stroke-linejoin="round" d="M376.39,149.338
	c0,0,42.18-75.282,49.655-90.231s-4.271-27.23-21.356-30.968s-30.969-6.941-32.57-4.271s6.406,6.941,12.28,11.747
	s13.349,10.145,19.756,11.212s14.95,11.747,3.737,22.959S388.67,87.939,388.67,87.939s-54.46,24.025-67.809,29.364
	c-13.349,5.337-41.113-0.535-44.851-23.491c-3.737-22.959-4.806-32.57-18.688-40.579c-13.882-8.009-39.511-22.959-39.511-22.959
	l-47.52-1.602c0,0-6.941-2.67-11.747-4.271s-10.679,0-11.213,11.213s-2.669,56.597-2.669,56.597s-4.271,3.204-24.027,6.407
	s-40.579,2.136-51.792,27.228c-3.204,9.076-4.271,11.746-4.271,11.746s-24.027-0.533-31.502-0.533s-9.077,6.406-0.534,11.211
	c8.543,4.807,48.053,26.164,54.995,30.436s9.077,5.338,11.747,13.348s2.67,9.076,14.95,16.551
	c12.28,7.477,51.257,29.367,51.257,29.367s5.874,3.736,9.077-2.137c0,0,87.03,49.123,100.378,56.598s39.511-3.205,42.181-18.688
	c2.67-15.484,3.737-18.688,12.814-32.57c9.077-13.881,52.325-79.555,54.461-83.293S376.39,149.338,376.39,149.338z"/>
<path fill="none" stroke="#000000" stroke-width="4" stroke-linecap="round" stroke-linejoin="round" d="M275.513,89.809
	c0,0,25.219,21.652,35.663,19.869s73.619-29.294,73.619-29.294s17.068-16.559,19.36-19.615c5.985-5.986-13.756-19.615-13.756-19.615
	"/>
<polygon fill="#D2232A" points="384.275,75.248 366.647,77.692 380.996,67.165 "/>
<rect x="366.853" y="97.622" transform="matrix(-0.3854 -0.9228 0.9228 -0.3854 418.7782 476.906)" fill="#FFFFFF" width="2.724" height="2.726"/>
<rect x="365.795" y="95.088" transform="matrix(-0.3849 -0.923 0.923 -0.3849 419.4495 472.4471)" width="2.725" height="2.726"/>
<polygon fill="#FFFFFF" points="366.834,92.138 367.882,94.65 365.365,95.699 364.323,93.182 "/>
<rect x="363.687" y="90.023" transform="matrix(-0.385 -0.9229 0.9229 -0.385 421.2659 463.4719)" width="2.716" height="2.726"/>
<rect x="362.626" y="87.492" transform="matrix(-0.3848 -0.923 0.923 -0.3848 422.0262 459.0049)" fill="#FFFFFF" width="2.723" height="2.721"/>
<rect x="361.569" y="84.957" transform="matrix(-0.3853 -0.9228 0.9228 -0.3853 423.125 454.4835)" width="2.722" height="2.722"/>
<rect x="360.512" y="82.424" transform="matrix(-0.385 -0.9229 0.9229 -0.385 423.8554 450.0217)" fill="#FFFFFF" width="2.719" height="2.722"/>
<polygon points="361.548,79.473 362.596,81.98 360.082,83.033 359.036,80.52 "/>
<rect x="369.389" y="96.567" transform="matrix(-0.3846 -0.9231 0.9231 -0.3846 422.9399 477.8258)" width="2.722" height="2.723"/>
<polygon fill="#FFFFFF" points="370.423,93.616 371.474,96.127 368.959,97.173 367.907,94.661 "/>
<rect x="367.272" y="91.499" transform="matrix(-0.3864 -0.9223 0.9223 -0.3864 425.4124 468.7477)" width="2.722" height="2.725"/>
<rect x="366.217" y="88.969" transform="matrix(-0.3849 -0.923 0.923 -0.3849 425.6897 464.3567)" fill="#FFFFFF" width="2.72" height="2.722"/>
<polygon points="367.252,86.016 368.301,88.527 365.789,89.58 364.742,87.062 "/>
<rect x="364.101" y="83.901" transform="matrix(-0.3841 -0.9233 0.9233 -0.3841 427.116 455.4378)" fill="#FFFFFF" width="2.72" height="2.721"/>
<rect x="363.045" y="81.365" transform="matrix(-0.3852 -0.9228 0.9228 -0.3852 428.4318 450.881)" width="2.723" height="2.726"/>
<rect x="361.987" y="78.832" transform="matrix(-0.385 -0.9229 0.9229 -0.385 429.2325 446.4078)" fill="#FFFFFF" width="2.722" height="2.725"/>
<polygon fill="#FFFFFF" points="374.013,95.089 375.062,97.604 372.545,98.654 371.502,96.14 "/>
<polygon points="370,99.723 371.048,102.236 368.531,103.278 367.484,100.771 "/>
<polygon fill="#FFFFFF" points="372.53,98.668 373.58,101.18 371.067,102.224 370.02,99.718 "/>
<polygon points="375.064,97.607 376.108,100.121 373.602,101.171 372.549,98.657 "/>
<rect x="370.863" y="92.979" transform="matrix(-0.3866 -0.9223 0.9223 -0.3866 429.1099 474.0939)" width="2.718" height="2.722"/>
<rect x="369.805" y="90.445" transform="matrix(-0.385 -0.9229 0.9229 -0.385 429.3186 469.7082)" fill="#FFFFFF" width="2.722" height="2.721"/>
<rect x="368.752" y="87.909" transform="matrix(-0.384 -0.9233 0.9233 -0.384 429.8033 465.2877)" width="2.719" height="2.723"/>
<rect x="367.691" y="85.376" transform="matrix(-0.3853 -0.9228 0.9228 -0.3853 431.1891 460.7199)" fill="#FFFFFF" width="2.725" height="2.722"/>
<rect x="366.632" y="82.842" transform="matrix(-0.3863 -0.9224 0.9224 -0.3863 432.4858 456.1584)" width="2.723" height="2.724"/>
<rect x="365.579" y="80.312" transform="matrix(-0.3842 -0.9233 0.9233 -0.3842 432.5013 451.8299)" fill="#FFFFFF" width="2.72" height="2.72"/>
<rect x="364.518" y="77.777" transform="matrix(-0.3854 -0.9228 0.9228 -0.3854 433.8566 447.2555)" width="2.724" height="2.724"/>
<path fill="#FFFFFF" d="M410.563,58.076c0,1.543,1.254,2.797,2.799,2.797s2.799-1.254,2.799-2.797c0-1.549-1.254-2.799-2.799-2.799
	S410.563,56.527,410.563,58.076z"/>
<path fill="#FFFFFF" d="M370.591,24.611c0,1.543,1.254,2.797,2.799,2.797s2.799-1.254,2.799-2.797c0-1.549-1.254-2.799-2.799-2.799
	S370.591,23.062,370.591,24.611z"/>
<path fill="#FFFFFF" d="M424.507,44.365c0,1.543,1.254,2.797,2.799,2.797s2.799-1.254,2.799-2.797c0-1.549-1.254-2.799-2.799-2.799
	S424.507,42.816,424.507,44.365z"/>
<path fill="#FFFFFF" d="M378.027,151.961c0,1.543,1.254,2.797,2.799,2.797s2.799-1.254,2.799-2.797c0-1.549-1.254-2.799-2.799-2.799
	S378.027,150.412,378.027,151.961z"/>
<path fill="#FFFFFF" d="M297.361,291.295c0,1.543,1.254,2.797,2.799,2.797s2.799-1.254,2.799-2.797c0-1.549-1.254-2.799-2.799-2.799
	S297.361,289.746,297.361,291.295z"/>
<path fill="#FFFFFF" d="M171.361,236.295c0,1.543,1.254,2.797,2.799,2.797s2.799-1.254,2.799-2.797c0-1.549-1.254-2.799-2.799-2.799
	S171.361,234.746,171.361,236.295z"/>
<path fill="#FFFFFF" d="M96.694,192.627c0,1.543,1.254,2.797,2.799,2.797s2.799-1.254,2.799-2.797c0-1.549-1.254-2.799-2.799-2.799
	S96.694,191.078,96.694,192.627z"/>
<path fill="#FFFFFF" d="M23.694,140.961c0,1.543,1.254,2.797,2.799,2.797s2.799-1.254,2.799-2.797c0-1.549-1.254-2.799-2.799-2.799
	S23.694,139.412,23.694,140.961z"/>
<path fill="#FFFFFF" d="M61.028,137.295c0,1.543,1.254,2.797,2.799,2.797s2.799-1.254,2.799-2.797c0-1.549-1.254-2.799-2.799-2.799
	S61.028,135.746,61.028,137.295z"/>
<path fill="#FFFFFF" d="M141.361,92.297c0,1.543,1.254,2.797,2.799,2.797s2.799-1.254,2.799-2.797c0-1.549-1.254-2.799-2.799-2.799
	S141.361,90.749,141.361,92.297z"/>
<path fill="#FFFFFF" d="M150.028,24.63c0,1.543,1.254,2.797,2.799,2.797s2.799-1.254,2.799-2.797c0-1.549-1.254-2.799-2.799-2.799
	S150.028,23.082,150.028,24.63z"/>
<path fill="#FFFFFF" d="M298.083,118.264c0,1.542,1.254,2.796,2.799,2.796s2.799-1.254,2.799-2.796c0-1.548-1.254-2.798-2.799-2.798
	S298.083,116.716,298.083,118.264z"/>
<path fill="#FFFFFF" d="M264.851,62.26c0,1.543,1.254,2.797,2.799,2.797s2.799-1.254,2.799-2.797c0-1.549-1.254-2.799-2.799-2.799
	S264.851,60.711,264.851,62.26z"/>
<path fill="#FFFFFF" d="M214.421,30.421c0,1.543,1.254,2.797,2.799,2.797s2.799-1.254,2.799-2.797c0-1.549-1.254-2.799-2.799-2.799
	S214.421,28.873,214.421,30.421z"/>
</svg>
