<?xml version="1.0" encoding="UTF-8" standalone="no"?>
<!-- Created with Inkscape (http://www.inkscape.org/) -->
<svg
   xmlns:svg="http://www.w3.org/2000/svg"
   xmlns="http://www.w3.org/2000/svg"
   version="1.0"
   width="470"
   height="490"
   id="svg2443">
  <defs
     id="defs2446" />
  <g
     id="g3328">
    <text
       x="13.435971"
       y="312.82065"
       id="text3058"
       xml:space="preserve"
       style="font-size:10px;text-align:start;text-anchor:start;fill:#000000;stroke:none;stroke-width:1px;font-family:DejaVu Sans Condensed"><tspan
         x="13.435971"
         y="312.82065"
         id="tspan3060">Capelle</tspan></text>
    <text
       x="86.4776"
       y="193.89825"
       id="text3062"
       xml:space="preserve"
       style="font-size:10px;text-align:start;text-anchor:start;fill:#000000;stroke:none;stroke-width:1px;font-family:DejaVu Sans Condensed"><tspan
         x="86.4776"
         y="193.89825"
         id="tspan3064">Mulino</tspan></text>
    <text
       x="190.14664"
       y="68.074883"
       id="text3066"
       xml:space="preserve"
       style="font-size:10px;text-align:start;text-anchor:start;fill:#000000;stroke:none;stroke-width:1px;font-family:DejaVu Sans Condensed"><tspan
         x="190.14664"
         y="68.074883"
         id="tspan3068">Monte Silvano</tspan></text>
    <text
       x="310.4761"
       y="161.66425"
       id="text3070"
       xml:space="preserve"
       style="font-size:10px;text-align:start;text-anchor:start;fill:#000000;stroke:none;stroke-width:1px;font-family:DejaVu Sans Condensed"><tspan
         x="310.4761"
         y="161.66425"
         id="tspan3072">Madonna</tspan></text>
    <text
       x="416.50912"
       y="331.82571"
       id="text3074"
       xml:space="preserve"
       style="font-size:10px;text-align:start;text-anchor:start;fill:#000000;stroke:none;stroke-width:1px;font-family:DejaVu Sans Condensed"><tspan
         x="416.50912"
         y="331.82571"
         id="tspan3076">Pescara</tspan></text>
    <text
       x="296.71518"
       y="334.07697"
       id="text3078"
       xml:space="preserve"
       style="font-size:10px;text-align:start;text-anchor:start;fill:#000000;stroke:none;stroke-width:1px;font-family:DejaVu Sans Condensed"><tspan
         x="296.71518"
         y="334.07697"
         id="tspan3080">Montani</tspan></text>
    <text
       x="263.44815"
       y="384.85873"
       id="text3082"
       xml:space="preserve"
       style="font-size:10px;text-align:start;text-anchor:start;fill:#000000;stroke:none;stroke-width:1px;font-family:DejaVu Sans Condensed"><tspan
         x="263.44815"
         y="384.85873"
         id="tspan3084">Villa Raspa</tspan></text>
    <text
       x="143.36133"
       y="383.98868"
       id="text3086"
       xml:space="preserve"
       style="font-size:10px;text-align:start;text-anchor:start;fill:#000000;stroke:none;stroke-width:1px;font-family:DejaVu Sans Condensed"><tspan
         x="143.36133"
         y="383.98868"
         id="tspan3088">Spoltore</tspan></text>
    <text
       x="95.952171"
       y="332.23993"
       id="text3090"
       xml:space="preserve"
       style="font-size:10px;text-align:start;text-anchor:start;fill:#000000;stroke:none;stroke-width:1px;font-family:DejaVu Sans Condensed"><tspan
         x="95.952171"
         y="332.23993"
         id="tspan3092">Pomace</tspan></text>
    <text
       x="53.647083"
       y="364.77545"
       id="text3094"
       xml:space="preserve"
       style="font-size:10px;text-align:start;text-anchor:start;fill:#000000;stroke:none;stroke-width:1px;font-family:DejaVu Sans Condensed"><tspan
         x="53.647083"
         y="364.77545"
         id="tspan3096">Villa</tspan></text>
    <text
       x="43.543007"
       y="378.20187"
       id="text3098"
       xml:space="preserve"
       style="font-size:10px;text-align:start;text-anchor:start;fill:#000000;stroke:none;stroke-width:1px;font-family:DejaVu Sans Condensed"><tspan
         x="43.543007"
         y="378.20187"
         id="tspan3100">St. Maria</tspan></text>
    <g
       id="g3294">
      <path
         d="M 367.61161,218.47217 L 360.60457,225.21264 L 376.30213,234.51869 L 367.61161,218.47217 z"
         id="path2986"
         style="fill:#d2232a;stroke:none" />
      <path
         d="M 74.842713,251.42231 L 83.023791,256.67612 L 88.437804,239.24899 L 74.842713,251.42231 z"
         id="path2988"
         style="fill:#d2232a;stroke:none" />
      <g
         id="g3106">
        <path
           d="M 220.87121,82.46212 C 221.73675,81.223715 224.83808,85.977916 227.35371,88.493545 C 229.90868,91.048523 352.12122,223.52272 352.12122,223.52272 C 354.57197,226.06818 347.31439,228.79167 353.71212,235.7197 C 360.87121,243.14394 363.52273,235.71969 367.5,240.49242 C 367.5,240.49242 406.47727,282.38636 406.74242,283.97727 C 407.00757,285.56818 401.9697,289.2803 401.9697,290.87121 C 401.9697,292.80154 410.7197,308.63637 417.08334,313.14394 C 417.08334,315.53031 412.97349,316.59091 412.97349,316.59091 C 396.79925,326.66667 391.62877,334.5328 384.73485,340.98485 C 370.22271,343.37121 368.82575,355.83333 364.58333,355.56818 C 361.30109,355.74496 353.00514,344.96212 337.53788,345.49242 C 326.05723,345.5674 321.89404,350.7955 320.03788,350 C 298.19643,356.38844 313.14394,368.82576 287.15909,367.76515 C 255.51766,365.20202 256.75507,349.46968 246.94446,349.46968 C 244.5581,349.46968 211.32576,359.54545 211.32576,359.54545 C 210.26515,359.8106 198.86364,375.98485 192.5,375.7197 C 189.04584,375.57578 185.29561,367.87232 177.65152,368.29546 C 175.79546,368.03031 170.22727,359.54545 168.10606,359.54545 C 160.34387,359.54545 150.34091,350 146.89394,350.26515 C 143.98586,350.48885 139.02789,356.80555 131.51518,357.15907 C 122.67328,357.99502 119.31818,343.10606 112.15909,343.63636 C 108.8463,344.22116 103.67535,357.55903 94.052657,355.24448 C 88.986944,355.24448 84.848484,357.82196 84.848484,355.30303 C 86.175289,342.48226 66.464602,357.07073 60.984849,328.25758 C 60.984849,328.25758 60.454546,326.13636 55.94697,326.40151 C 53.473992,325.40219 59.128788,320.30303 59.128788,314.4697 C 65.891328,311.69149 61.25,304.12879 68.409091,298.5606 C 71.590909,295.37879 81.136364,294.31818 80.606061,278.40909 C 81.606061,262.47616 118.84848,217.70454 124.88636,199.65909 C 124.88636,191.96513 166.54829,147.88826 216.66193,86.638257 C 216.66193,86.638257 219.94316,81.313113 220.87121,82.46212 z"
           id="path2454"
           style="fill:none;stroke:#000000;stroke-width:7" />
        <path
           d="M 354.875,238.875 L 377.25,262.25 C 378.75,263.75 386.25,262.5 386.25,262.5"
           id="path2456"
           style="fill:none;stroke:#000000;stroke-width:3" />
      </g>
      <g
         transform="matrix(0.7359725,-0.6770115,0.6770115,0.7359725,-69.040149,69.244397)"
         id="g3024">
        <rect
           width="27"
           height="9"
           x="190"
           y="423.36218"
           id="rect3026"
           style="fill:#ffffff;stroke:none" />
        <rect
           width="3"
           height="3"
           x="190"
           y="429.36218"
           id="rect3028"
           style="fill:#000000;stroke:none" />
        <rect
           width="3"
           height="3"
           x="196"
           y="429.36218"
           id="rect3030"
           style="fill:#000000;stroke:none" />
        <rect
           width="3"
           height="3"
           x="202"
           y="429.36218"
           id="rect3032"
           style="fill:#000000;stroke:none" />
        <rect
           width="3"
           height="3"
           x="208"
           y="429.36218"
           id="rect3034"
           style="fill:#000000;stroke:none" />
        <rect
           width="3"
           height="3"
           x="214"
           y="429.36218"
           id="rect3036"
           style="fill:#000000;stroke:none" />
        <rect
           width="3"
           height="3"
           x="190"
           y="423.36218"
           id="rect3038"
           style="fill:#000000;stroke:none" />
        <rect
           width="3"
           height="3"
           x="196"
           y="423.36218"
           id="rect3040"
           style="fill:#000000;stroke:none" />
        <rect
           width="3"
           height="3"
           x="202"
           y="423.36218"
           id="rect3042"
           style="fill:#000000;stroke:none" />
        <rect
           width="3"
           height="3"
           x="208"
           y="423.36218"
           id="rect3044"
           style="fill:#000000;stroke:none" />
        <rect
           width="3"
           height="3"
           x="214"
           y="423.36218"
           id="rect3046"
           style="fill:#000000;stroke:none" />
        <rect
           width="3"
           height="3"
           x="193"
           y="426.36218"
           id="rect3048"
           style="fill:#000000;stroke:none" />
        <rect
           width="3"
           height="3"
           x="193"
           y="426.36218"
           id="rect3050"
           style="fill:#000000;stroke:none" />
        <rect
           width="3"
           height="3"
           x="199"
           y="426.36218"
           id="rect3052"
           style="fill:#000000;stroke:none" />
        <rect
           width="3"
           height="3"
           x="205"
           y="426.36218"
           id="rect3054"
           style="fill:#000000;stroke:none" />
        <rect
           width="3"
           height="3"
           x="211"
           y="426.36218"
           id="rect3056"
           style="fill:#000000;stroke:none" />
      </g>
      <path
         d="M 223.83829,83.192627 A 3,3 0 1 1 217.83829,83.192627 A 3,3 0 1 1 223.83829,83.192627 z"
         id="path2458"
         style="fill:#ffffff;stroke:none" />
      <path
         d="M 223.83829,83.192627 A 3,3 0 1 1 217.83829,83.192627 A 3,3 0 1 1 223.83829,83.192627 z"
         transform="translate(84.499261,89.537397)"
         id="path2460"
         style="fill:#ffffff;stroke:none" />
      <path
         d="M 223.83829,83.192627 A 3,3 0 1 1 217.83829,83.192627 A 3,3 0 1 1 223.83829,83.192627 z"
         transform="translate(-95.989745,116.58423)"
         id="path2462"
         style="fill:#ffffff;stroke:none" />
      <path
         d="M 223.83829,83.192627 A 3,3 0 1 1 217.83829,83.192627 A 3,3 0 1 1 223.83829,83.192627 z"
         transform="translate(-161.5739,231.66586)"
         id="path2464"
         style="fill:#ffffff;stroke:none" />
      <path
         d="M 223.83829,83.192627 A 3,3 0 1 1 217.83829,83.192627 A 3,3 0 1 1 223.83829,83.192627 z"
         transform="translate(-135.0574,272.85483)"
         id="path2466"
         style="fill:#ffffff;stroke:none" />
      <path
         d="M 223.83829,83.192627 A 3,3 0 1 1 217.83829,83.192627 A 3,3 0 1 1 223.83829,83.192627 z"
         transform="translate(-108.71767,260.65724)"
         id="path2468"
         style="fill:#ffffff;stroke:none" />
      <path
         d="M 223.83829,83.192627 A 3,3 0 1 1 217.83829,83.192627 A 3,3 0 1 1 223.83829,83.192627 z"
         transform="translate(-44.370953,284.16854)"
         id="path2470"
         style="fill:#ffffff;stroke:none" />
      <path
         d="M 223.83829,83.192627 A 3,3 0 1 1 217.83829,83.192627 A 3,3 0 1 1 223.83829,83.192627 z"
         transform="translate(66.821588,284.34532)"
         id="path2472"
         style="fill:#ffffff;stroke:none" />
      <path
         d="M 223.83829,83.192627 A 3,3 0 1 1 217.83829,83.192627 A 3,3 0 1 1 223.83829,83.192627 z"
         transform="translate(99.3485,267.0212)"
         id="path2474"
         style="fill:#ffffff;stroke:none" />
      <path
         d="M 223.83829,83.192627 A 3,3 0 1 1 217.83829,83.192627 A 3,3 0 1 1 223.83829,83.192627 z"
         transform="translate(195.16147,229.72132)"
         id="path2476"
         style="fill:#ffffff;stroke:none" />
    </g>
  </g>
</svg>
