<?xml version="1.0" encoding="UTF-8" standalone="no"?>
<!-- Created with Inkscape (http://www.inkscape.org/) -->
<svg
   xmlns:svg="http://www.w3.org/2000/svg"
   xmlns="http://www.w3.org/2000/svg"
   xmlns:xlink="http://www.w3.org/1999/xlink"
   version="1.0"
   width="470"
   height="490"
   id="svg2440">
  <defs
     id="defs2443" />
  <g
     id="g3265">
    <g
       id="g3154">
      <use
         transform="matrix(0.1765915,-0.9842842,0.9842842,0.1765915,107.66913,472.44675)"
         id="use2900"
         x="0"
         y="0"
         width="470"
         height="490"
         xlink:href="#arrow" />
      <use
         transform="matrix(-0.8801366,0.4747206,-0.4747206,-0.8801366,460.7734,376.48278)"
         id="use2898"
         x="0"
         y="0"
         width="470"
         height="490"
         xlink:href="#arrow" />
      <path
         d="M 90.654844,189.31629 L 100.22949,187.62557 L 92.38353,171.14962 L 90.654844,189.31629 z"
         id="arrow"
         style="fill:#d2232a;stroke:none" />
      <g
         id="g3123">
        <g
           id="g3119">
          <path
             d="M 121.17425,102.34848 C 154.66271,98.743549 174.11617,124.09091 174.11617,124.09091 C 174.11617,124.09091 290.20833,277.87876 298.0303,287.42424 C 298.0303,287.42424 303.06818,294.58334 303.33333,298.56061 C 303.46591,305.1894 316.59091,314.4697 316.59091,314.4697 C 340.98485,328.25758 350.66288,335.01894 353.71212,338.33333 C 359.67803,344.03409 364.05303,355.96591 364.05303,355.96591 C 374.75242,370.83418 374.19303,382.44303 372.55816,386.25774 C 370.83467,390.23501 350.46401,400.04735 340.05681,400.37879 L 172.87879,399.71591 C 153.39015,400.11364 133.63636,381.42045 129.92424,364.31818 L 121.96969,304.79167 C 120.77651,295.77652 124.09091,282.38637 137.87879,282.25379 L 231.875,279.73485 C 238.90151,280 239.81439,276.00758 236.76515,272.16288 L 202.95833,224.71591 C 200.04167,220.20833 193.42803,219.67803 189.98106,223.39015 C 189.98106,223.39015 147.82197,256.53409 144.24242,257.46212 C 132.62869,261.77528 123.69318,255.60606 120.64394,245.53031 C 120.64394,245.53031 98.238637,157.5 97.443182,147.02652 C 94.261364,110.03788 114.81061,103.27651 121.17425,102.34848 z"
             id="path2451"
             style="fill:none;stroke:#000000;stroke-width:7" />
          <path
             d="M 227.15805,398.60645 L 252.43712,386.76241 L 325.09234,386.76241 L 343.47712,398.96"
             id="path2453"
             style="fill:none;stroke:#000000;stroke-width:4" />
        </g>
        <g
           transform="matrix(0,-1,1,0,-139.61218,601.86218)"
           id="g2657">
          <rect
             width="27"
             height="9"
             x="190"
             y="423.36218"
             id="rect2655"
             style="fill:#ffffff;stroke:none" />
          <rect
             width="3"
             height="3"
             x="190"
             y="429.36218"
             id="rect2625"
             style="fill:#000000;stroke:none" />
          <rect
             width="3"
             height="3"
             x="196"
             y="429.36218"
             id="rect2627"
             style="fill:#000000;stroke:none" />
          <rect
             width="3"
             height="3"
             x="202"
             y="429.36218"
             id="rect2629"
             style="fill:#000000;stroke:none" />
          <rect
             width="3"
             height="3"
             x="208"
             y="429.36218"
             id="rect2631"
             style="fill:#000000;stroke:none" />
          <rect
             width="3"
             height="3"
             x="214"
             y="429.36218"
             id="rect2633"
             style="fill:#000000;stroke:none" />
          <rect
             width="3"
             height="3"
             x="190"
             y="423.36218"
             id="rect2635"
             style="fill:#000000;stroke:none" />
          <rect
             width="3"
             height="3"
             x="196"
             y="423.36218"
             id="rect2637"
             style="fill:#000000;stroke:none" />
          <rect
             width="3"
             height="3"
             x="202"
             y="423.36218"
             id="rect2639"
             style="fill:#000000;stroke:none" />
          <rect
             width="3"
             height="3"
             x="208"
             y="423.36218"
             id="rect2641"
             style="fill:#000000;stroke:none" />
          <rect
             width="3"
             height="3"
             x="214"
             y="423.36218"
             id="rect2643"
             style="fill:#000000;stroke:none" />
          <rect
             width="3"
             height="3"
             x="193"
             y="426.36218"
             id="rect2645"
             style="fill:#000000;stroke:none" />
          <rect
             width="3"
             height="3"
             x="193"
             y="426.36218"
             id="rect2647"
             style="fill:#000000;stroke:none" />
          <rect
             width="3"
             height="3"
             x="199"
             y="426.36218"
             id="rect2649"
             style="fill:#000000;stroke:none" />
          <rect
             width="3"
             height="3"
             x="205"
             y="426.36218"
             id="rect2651"
             style="fill:#000000;stroke:none" />
          <rect
             width="3"
             height="3"
             x="211"
             y="426.36218"
             id="rect2653"
             style="fill:#000000;stroke:none" />
        </g>
        <path
           d="M 241.04208,277.42303 C 241.04208,279.07988 239.69893,280.42303 238.04208,280.42303 C 236.38523,280.42303 235.04208,279.07988 235.04208,277.42303 C 235.04208,275.76618 236.38523,274.42303 238.04208,274.42303 C 239.69893,274.42303 241.04208,275.76618 241.04208,277.42303 z"
           id="path2689"
           style="fill:#ffffff;stroke:none" />
        <path
           d="M 128.9811,287.87116 C 128.9811,289.52801 127.63795,290.87116 125.9811,290.87116 C 124.32425,290.87116 122.9811,289.52801 122.9811,287.87116 C 122.9811,286.21431 124.32425,284.87116 125.9811,284.87116 C 127.63795,284.87116 128.9811,286.21431 128.9811,287.87116 z"
           id="path2691"
           style="fill:#ffffff;stroke:none" />
        <path
           d="M 232.59732,197.30245 C 232.59732,198.9593 231.25417,200.30245 229.59732,200.30245 C 227.94047,200.30245 226.59732,198.9593 226.59732,197.30245 C 226.59732,195.6456 227.94047,194.30245 229.59732,194.30245 C 231.25417,194.30245 232.59732,195.6456 232.59732,197.30245 z"
           id="path2693"
           style="fill:#ffffff;stroke:none" />
        <path
           d="M 121.40461,102.8794 C 121.40461,104.53625 120.06146,105.8794 118.40461,105.8794 C 116.74776,105.8794 115.40461,104.53625 115.40461,102.8794 C 115.40461,101.22255 116.74776,99.879394 118.40461,99.879394 C 120.06146,99.879394 121.40461,101.22255 121.40461,102.8794 z"
           id="path2695"
           style="fill:#ffffff;stroke:none" />
        <path
           d="M 306.21206,298.86744 C 306.21206,300.52429 304.86891,301.86744 303.21206,301.86744 C 301.55521,301.86744 300.21206,300.52429 300.21206,298.86744 C 300.21206,297.21059 301.55521,295.86744 303.21206,295.86744 C 304.86891,295.86744 306.21206,297.21059 306.21206,298.86744 z"
           id="path2697"
           style="fill:#ffffff;stroke:none" />
        <path
           d="M 376.30069,383.39181 C 376.30069,385.04866 374.95754,386.39181 373.30069,386.39181 C 371.64384,386.39181 370.30069,385.04866 370.30069,383.39181 C 370.30069,381.73496 371.64384,380.39181 373.30069,380.39181 C 374.95754,380.39181 376.30069,381.73496 376.30069,383.39181 z"
           id="path2701"
           style="fill:#ffffff;stroke:none" />
        <path
           d="M 150.97808,390.6032 C 150.97808,392.26005 149.63493,393.6032 147.97808,393.6032 C 146.32123,393.6032 144.97808,392.26005 144.97808,390.6032 C 144.97808,388.94635 146.32123,387.6032 147.97808,387.6032 C 149.63493,387.6032 150.97808,388.94635 150.97808,390.6032 z"
           id="path2699"
           style="fill:#ffffff;stroke:none" />
        <path
           d="M 198.92336,221.05431 C 198.92336,222.71116 197.58021,224.05431 195.92336,224.05431 C 194.26651,224.05431 192.92336,222.71116 192.92336,221.05431 C 192.92336,219.39746 194.26651,218.05431 195.92336,218.05431 C 197.58021,218.05431 198.92336,219.39746 198.92336,221.05431 z"
           id="path3035"
           style="fill:#ffffff;stroke:none" />
        <path
           d="M 135.52691,258.36497 C 135.52691,260.02182 134.18376,261.36497 132.52691,261.36497 C 130.87006,261.36497 129.52691,260.02182 129.52691,258.36497 C 129.52691,256.70812 130.87006,255.36497 132.52691,255.36497 C 134.18376,255.36497 135.52691,256.70812 135.52691,258.36497 z"
           id="path3037"
           style="fill:#ffffff;stroke:none" />
      </g>
    </g>
    <g
       id="g3189">
      <text
         x="112.41561"
         y="433.27301"
         id="text2460"
         xml:space="preserve"
         style="font-size:10px;text-align:start;text-anchor:start;fill:#000000;stroke:none;stroke-width:1px;font-family:DejaVu Sans Condensed"><tspan
           x="112.41561"
           y="433.27301"
           id="tspan2462">Waterway</tspan></text>
      <g
         transform="translate(-30.68567,-348.81494)"
         id="g2572">
        <path
           d="M 177.25,571.42468 C 177.25,576.94753 172.77285,581.42468 167.25,581.42468 C 161.72715,581.42468 157.25,576.94753 157.25,571.42468 C 157.25,565.90183 161.72715,561.42468 167.25,561.42468 C 172.77285,561.42468 177.25,565.90183 177.25,571.42468 z"
           transform="translate(106.06802,73.620112)"
           id="path2526"
           style="fill:#ffffff;stroke:#000000;stroke-width:1" />
        <text
           x="270.08954"
           y="648.93256"
           id="text2468"
           xml:space="preserve"
           style="font-size:12px;text-align:start;text-anchor:start;fill:#000000;stroke:none;stroke-width:1px;font-family:DejaVu Sans Condensed"><tspan
             x="270.08954"
             y="648.93256"
             id="tspan2470">3</tspan></text>
      </g>
      <g
         transform="translate(-31.891884,-162.43366)"
         id="g2577">
        <path
           d="M 177.25,571.42468 C 177.25,576.94753 172.77285,581.42468 167.25,581.42468 C 161.72715,581.42468 157.25,576.94753 157.25,571.42468 C 157.25,565.90183 161.72715,561.42468 167.25,561.42468 C 172.77285,561.42468 177.25,565.90183 177.25,571.42468 z"
           transform="translate(0.25,-0.1875)"
           id="path2524"
           style="fill:#ffffff;stroke:#000000;stroke-width:1" />
        <text
           x="163.90834"
           y="575.30176"
           id="text2492"
           xml:space="preserve"
           style="font-size:12px;text-align:start;text-anchor:start;fill:#000000;stroke:none;stroke-width:1px;font-family:DejaVu Sans Condensed"><tspan
             x="163.90834"
             y="575.30176"
             id="tspan2494">1</tspan></text>
      </g>
      <g
         transform="translate(-412,-36)"
         id="g3025">
        <path
           d="M 561.38287,336.85548 C 561.38287,342.37833 556.90572,346.85548 551.38287,346.85548 C 545.86002,346.85548 541.38287,342.37833 541.38287,336.85548 C 541.38287,331.33263 545.86002,326.85548 551.38287,326.85548 C 556.90572,326.85548 561.38287,331.33263 561.38287,336.85548 z"
           id="path2528"
           style="fill:#ffffff;stroke:#000000;stroke-width:1" />
        <text
           x="548.00842"
           y="340.52252"
           id="text2496"
           xml:space="preserve"
           style="font-size:12px;text-align:start;text-anchor:start;fill:#000000;stroke:none;stroke-width:1px;font-family:DejaVu Sans Condensed"><tspan
             x="548.00842"
             y="340.52252"
             id="tspan2498">2</tspan></text>
      </g>
      <g
         transform="translate(-205.84418,-383.93478)"
         id="g2582">
        <path
           d="M 177.25,571.42468 C 177.25,576.94753 172.77285,581.42468 167.25,581.42468 C 161.72715,581.42468 157.25,576.94753 157.25,571.42468 C 157.25,565.90183 161.72715,561.42468 167.25,561.42468 C 172.77285,561.42468 177.25,565.90183 177.25,571.42468 z"
           transform="translate(152.63151,-104.8393)"
           id="path2530"
           style="fill:#ffffff;stroke:#000000;stroke-width:1" />
        <text
           x="316.40601"
           y="470.25241"
           id="text2500"
           xml:space="preserve"
           style="font-size:12px;text-align:start;text-anchor:start;fill:#000000;stroke:none;stroke-width:1px;font-family:DejaVu Sans Condensed"><tspan
             x="316.40601"
             y="470.25241"
             id="tspan2502">6</tspan></text>
      </g>
      <g
         transform="translate(6.994958,-106.74892)"
         id="g2592">
        <path
           d="M 177.25,571.42468 C 177.25,576.94753 172.77285,581.42468 167.25,581.42468 C 161.72715,581.42468 157.25,576.94753 157.25,571.42468 C 157.25,565.90183 161.72715,561.42468 167.25,561.42468 C 172.77285,561.42468 177.25,565.90183 177.25,571.42468 z"
           transform="translate(150.15664,-170.60023)"
           id="path2532"
           style="fill:#ffffff;stroke:#000000;stroke-width:1" />
        <text
           x="313.37555"
           y="404.5925"
           id="text2504"
           xml:space="preserve"
           style="font-size:12px;text-align:start;text-anchor:start;fill:#000000;stroke:none;stroke-width:1px;font-family:DejaVu Sans Condensed"><tspan
             x="313.37555"
             y="404.5925"
             id="tspan2506">7</tspan></text>
      </g>
      <g
         transform="translate(-268.70058,226.98128)"
         id="g3030">
        <path
           d="M 673.4593,164.67499 C 673.4593,170.19784 668.98215,174.67499 663.4593,174.67499 C 657.93645,174.67499 653.4593,170.19784 653.4593,164.67499 C 653.4593,159.15214 657.93645,154.67499 663.4593,154.67499 C 668.98215,154.67499 673.4593,159.15214 673.4593,164.67499 z"
           id="path2534"
           style="fill:#ffffff;stroke:#000000;stroke-width:1" />
        <text
           x="660.13531"
           y="168.7966"
           id="text2508"
           xml:space="preserve"
           style="font-size:12px;text-align:start;text-anchor:start;fill:#000000;stroke:none;stroke-width:1px;font-family:DejaVu Sans Condensed"><tspan
             x="660.13531"
             y="168.7966"
             id="tspan2510">8</tspan></text>
      </g>
      <g
         transform="translate(-375.54981,-207.86519)"
         id="g2562">
        <path
           d="M 177.25,571.42468 C 177.25,576.94753 172.77285,581.42468 167.25,581.42468 C 161.72715,581.42468 157.25,576.94753 157.25,571.42468 C 157.25,565.90183 161.72715,561.42468 167.25,561.42468 C 172.77285,561.42468 177.25,565.90183 177.25,571.42468 z"
           transform="translate(311.37698,-107.66772)"
           id="path2550"
           style="fill:#ffffff;stroke:#000000;stroke-width:1" />
        <text
           x="475.29449"
           y="467.33459"
           id="text2540"
           xml:space="preserve"
           style="font-size:12px;text-align:start;text-anchor:start;fill:#000000;stroke:none;stroke-width:1px;font-family:DejaVu Sans Condensed"><tspan
             x="475.29449"
             y="467.33459"
             id="tspan2542">5</tspan></text>
      </g>
      <g
         transform="translate(-338.78026,-312.517)"
         id="g2567">
        <path
           d="M 177.25,571.42468 C 177.25,576.94753 172.77285,581.42468 167.25,581.42468 C 161.72715,581.42468 157.25,576.94753 157.25,571.42468 C 157.25,565.90183 161.72715,561.42468 167.25,561.42468 C 172.77285,561.42468 177.25,565.90183 177.25,571.42468 z"
           transform="translate(358.39958,-54.988265)"
           id="path2552"
           style="fill:#ffffff;stroke:#000000;stroke-width:1" />
        <text
           x="521.57507"
           y="520.50555"
           id="text2544"
           xml:space="preserve"
           style="font-size:12px;text-align:start;text-anchor:start;fill:#000000;stroke:none;stroke-width:1px;font-family:DejaVu Sans Condensed"><tspan
             x="521.57507"
             y="520.50555"
             id="tspan2546">4</tspan></text>
      </g>
      <text
         x="383.38574"
         y="417.50955"
         id="text3039"
         xml:space="preserve"
         style="font-size:10px;text-align:start;text-anchor:start;fill:#000000;stroke:none;stroke-width:1px;font-family:DejaVu Sans Condensed"><tspan
           x="383.38574"
           y="417.50955"
           id="tspan3041">Tatts</tspan></text>
      <text
         x="382.8584"
         y="430.8588"
         id="text3043"
         xml:space="preserve"
         style="font-size:10px;text-align:start;text-anchor:start;fill:#000000;stroke:none;stroke-width:1px;font-family:DejaVu Sans Condensed"><tspan
           x="382.8584"
           y="430.8588"
           id="tspan3045">Corner</tspan></text>
      <text
         x="339.68976"
         y="287.75977"
         id="text3047"
         xml:space="preserve"
         style="font-size:10px;text-align:start;text-anchor:start;fill:#000000;stroke:none;stroke-width:1px;font-family:DejaVu Sans Condensed"><tspan
           x="339.68976"
           y="287.75977"
           id="tspan3049">Melling Crossing</tspan></text>
      <text
         x="241.60902"
         y="183.81506"
         id="text3051"
         xml:space="preserve"
         style="font-size:10px;text-align:start;text-anchor:start;fill:#000000;stroke:none;stroke-width:1px;font-family:DejaVu Sans Condensed"><tspan
           x="241.60902"
           y="183.81506"
           id="tspan3053">Stefton Straight</tspan></text>
      <text
         x="241.56488"
         y="195.94858"
         id="text3055"
         xml:space="preserve"
         style="font-size:10px;text-align:start;text-anchor:start;fill:#000000;stroke:none;stroke-width:1px;font-family:DejaVu Sans Condensed"><tspan
           x="241.56488"
           y="195.94858"
           id="tspan3057">(Railways Straight)</tspan></text>
      <text
         x="146.93033"
         y="180.92166"
         id="text3059"
         xml:space="preserve"
         style="font-size:10px;text-align:start;text-anchor:start;fill:#000000;stroke:none;stroke-width:1px;font-family:DejaVu Sans Condensed"><tspan
           x="146.93033"
           y="180.92166"
           id="tspan3061">Country</tspan></text>
      <text
         x="146.63744"
         y="193.5638"
         id="text3063"
         xml:space="preserve"
         style="font-size:10px;text-align:start;text-anchor:start;fill:#000000;stroke:none;stroke-width:1px;font-family:DejaVu Sans Condensed"><tspan
           x="146.63744"
           y="193.5638"
           id="tspan3065">Corner</tspan></text>
      <text
         x="32.893742"
         y="179.71455"
         id="text3067"
         xml:space="preserve"
         style="font-size:10px;text-align:start;text-anchor:start;fill:#000000;stroke:none;stroke-width:1px;font-family:DejaVu Sans Condensed"><tspan
           x="32.893742"
           y="179.71455"
           id="tspan3069">Valentine's</tspan></text>
      <text
         x="33.47953"
         y="192.5638"
         id="text3071"
         xml:space="preserve"
         style="font-size:10px;text-align:start;text-anchor:start;fill:#000000;stroke:none;stroke-width:1px;font-family:DejaVu Sans Condensed"><tspan
           x="33.47953"
           y="192.5638"
           id="tspan3073">Way</tspan></text>
      <text
         x="58.349586"
         y="254.16788"
         id="text3075"
         xml:space="preserve"
         style="font-size:10px;text-align:start;text-anchor:start;fill:#000000;stroke:none;stroke-width:1px;font-family:DejaVu Sans Condensed"><tspan
           x="58.349586"
           y="254.16788"
           id="tspan3077">Village</tspan></text>
      <text
         x="58.142479"
         y="268.22421"
         id="text3079"
         xml:space="preserve"
         style="font-size:10px;text-align:start;text-anchor:start;fill:#000000;stroke:none;stroke-width:1px;font-family:DejaVu Sans Condensed"><tspan
           x="58.142479"
           y="268.22421"
           id="tspan3081">Corner</tspan></text>
      <text
         x="87.376503"
         y="343.05621"
         id="text3083"
         xml:space="preserve"
         style="font-size:10px;text-align:start;text-anchor:start;fill:#000000;stroke:none;stroke-width:1px;font-family:DejaVu Sans Condensed"><tspan
           x="87.376503"
           y="343.05621"
           id="tspan3085">Canal</tspan></text>
      <text
         x="87.962288"
         y="355.90546"
         id="text3087"
         xml:space="preserve"
         style="font-size:10px;text-align:start;text-anchor:start;fill:#000000;stroke:none;stroke-width:1px;font-family:DejaVu Sans Condensed"><tspan
           x="87.962288"
           y="355.90546"
           id="tspan3089">Side</tspan></text>
      <text
         x="149.41917"
         y="316.18616"
         id="text3091"
         xml:space="preserve"
         style="font-size:10px;text-align:start;text-anchor:start;fill:#000000;stroke:none;stroke-width:1px;font-family:DejaVu Sans Condensed"><tspan
           x="149.41917"
           y="316.18616"
           id="tspan3093">Anchor</tspan></text>
      <text
         x="148.60374"
         y="328.82831"
         id="text3095"
         xml:space="preserve"
         style="font-size:10px;text-align:start;text-anchor:start;fill:#000000;stroke:none;stroke-width:1px;font-family:DejaVu Sans Condensed"><tspan
           x="148.60374"
           y="328.82831"
           id="tspan3097">Bend</tspan></text>
      <text
         x="238.46436"
         y="319.22171"
         id="text3099"
         xml:space="preserve"
         style="font-size:10px;text-align:start;text-anchor:start;fill:#000000;stroke:none;stroke-width:1px;font-family:DejaVu Sans Condensed"><tspan
           x="238.46436"
           y="319.22171"
           id="tspan3101">Cottage</tspan></text>
      <text
         x="238.46436"
         y="331.65674"
         id="text3103"
         xml:space="preserve"
         style="font-size:10px;text-align:start;text-anchor:start;fill:#000000;stroke:none;stroke-width:1px;font-family:DejaVu Sans Condensed"><tspan
           x="238.46436"
           y="331.65674"
           id="tspan3105">Corner</tspan></text>
      <text
         x="170.21205"
         y="107.65464"
         id="text3107"
         xml:space="preserve"
         style="font-size:10px;text-align:start;text-anchor:start;fill:#000000;stroke:none;stroke-width:1px;font-family:DejaVu Sans Condensed"><tspan
           x="170.21205"
           y="107.65464"
           id="tspan3109">Bechers Bend</tspan></text>
      <text
         x="127.17043"
         y="77.698799"
         id="text3111"
         xml:space="preserve"
         style="font-size:10px;text-align:start;text-anchor:start;fill:#000000;stroke:none;stroke-width:1px;font-family:DejaVu Sans Condensed"><tspan
           x="127.17043"
           y="77.698799"
           id="tspan3113">Canal</tspan></text>
      <text
         x="126.67043"
         y="90.42672"
         id="text3115"
         xml:space="preserve"
         style="font-size:10px;text-align:start;text-anchor:start;fill:#000000;stroke:none;stroke-width:1px;font-family:DejaVu Sans Condensed"><tspan
           x="126.67043"
           y="90.42672"
           id="tspan3117">Curve</tspan></text>
    </g>
  </g>
</svg>
