<?xml version="1.0" encoding="utf-8"?>
<!-- Generator: Adobe Illustrator 13.0.2, SVG Export Plug-In . SVG Version: 6.00 Build 14948)  -->
<!DOCTYPE svg PUBLIC "-//W3C//DTD SVG 1.0//EN" "http://www.w3.org/TR/2001/REC-SVG-20010904/DTD/svg10.dtd">
<svg version="1.0" id="Layer_1" xmlns="http://www.w3.org/2000/svg" xmlns:xlink="http://www.w3.org/1999/xlink" x="0px" y="0px"
	 width="432.377px" height="766.147px" viewBox="0 0 432.377 766.147" style="enable-background:new 0 0 432.377 766.147;"
	 xml:space="preserve">
<style type="text/css">
<![CDATA[
	.st0{fill:#FFFFFF;stroke:#000000;stroke-width:3;}
	.st1{fill:#FFFFFF;stroke:#231F20;}
	.st2{fill:#231F20;}
	.st3{fill:none;stroke:#231F20;stroke-width:3;}
	.st4{fill:#FF2020;}
	.st5{fill:#FFFFFF;}
	.st6{fill:none;}
	.st7{fill:none;stroke:#000000;stroke-width:8;}
	.st8{fill:#3F3B3C;}
	.st9{fill:none;stroke:#B0ADB0;stroke-width:5;}
	.st10{fill:#FFFFFF;stroke:#231F20;stroke-width:0.5;}
	.st11{fill:url(#SVGID_1_);stroke:#231F20;stroke-width:0.5;}
]]>
</style>
<pattern  x="-90.506" y="781.861" width="60.799" height="60.8" patternUnits="userSpaceOnUse" id="Checkers" viewBox="37.999 -68.399 60.799 60.8" style="overflow:visible;">
	<g>
		<polygon class="st6" points="37.999,-7.6 37.999,-68.399 98.798,-68.399 98.798,-7.6 		"/>
		<line class="st5" x1="14.249" y1="-13.6" x2="20.249" y2="-7.6"/>
		<line class="st5" x1="14.249" y1="-7.6" x2="20.249" y2="-13.6"/>
		<polygon class="st2" points="60.798,0 60.798,-15.2 45.599,-15.2 45.599,0 		"/>
		<path class="st2" d="M53.198-7.6"/>
		<polygon class="st2" points="30.399,-15.2 30.399,-30.399 45.599,-30.399 45.599,-15.2 		"/>
		<path class="st2" d="M37.999-22.799"/>
		<polygon class="st2" points="91.198,0 91.198,-15.2 75.998,-15.2 75.998,0 		"/>
		<path class="st2" d="M83.598-7.6"/>
		<polygon class="st2" points="60.798,-15.2 60.798,-30.399 75.998,-30.399 75.998,-15.2 		"/>
		<path class="st2" d="M68.398-22.799"/>
		<polygon class="st2" points="91.198,-15.2 91.198,-30.399 106.398,-30.399 106.398,-15.2 		"/>
		<path class="st2" d="M98.798-22.799"/>
		<polygon class="st2" points="60.798,-30.399 60.798,-45.599 45.599,-45.599 45.599,-30.399 		"/>
		<path class="st2" d="M53.198-37.999"/>
		<polygon class="st2" points="30.399,-45.599 30.399,-60.799 45.599,-60.799 45.599,-45.599 		"/>
		<path class="st2" d="M37.999-53.199"/>
		<polygon class="st2" points="91.198,-30.399 91.198,-45.599 75.998,-45.599 75.998,-30.399 		"/>
		<path class="st2" d="M83.598-37.999"/>
		<polygon class="st2" points="60.798,-45.599 60.798,-60.799 75.998,-60.799 75.998,-45.599 		"/>
		<path class="st2" d="M68.398-53.199"/>
		<polygon class="st2" points="91.198,-45.599 91.198,-60.799 106.398,-60.799 106.398,-45.599 		"/>
		<path class="st2" d="M98.798-53.199"/>
		<polygon class="st2" points="60.798,-60.799 60.798,-75.999 45.599,-75.999 45.599,-60.799 		"/>
		<path class="st2" d="M53.198-68.399"/>
		<polygon class="st2" points="91.198,-60.799 91.198,-75.999 75.998,-75.999 75.998,-60.799 		"/>
		<path class="st2" d="M83.598-68.399"/>
		<polygon class="st2" points="0,-43.599 0,-58.799 15.2,-58.799 15.2,-43.599 		"/>
	</g>
</pattern>
<path class="st9" d="M122.808,687.522c0,0,0.369,8.849-4.608,18.987c-5.744,11.701-9.771,14.933-18.25,19.725
	s-16.038,4.608-23.042,0.737s-13.642-11.245-17.697-17.144c-3.597-5.231-6.636-10.508-6.636-18.987
	c0-8.53,7.004-18.987,10.691-24.518s17.602-28.359,17.602-28.359"/>
<path class="st9" d="M57.366,660.792c0,0,9.217-6.452,14.194-8.664c5.225-2.322,12.72-3.317,20.278-1.29s15.853,6.452,19.54,10.323
	s7.651,8.567,9.586,14.194c2.028,5.898,1.291,20.462,1.291,20.462"/>
<path class="st9" d="M370.238,418.319c0,0,6.338,17.546,6.58,22.176c0.244,4.63-1.85,14.83-1.385,19.645
	c0.377,3.893,13.357,48.3,13.357,48.3s2.951,12.579-8.387,21.432c-10.104,7.889-17.395,7.921-28.197,7.125
	c-14.215-1.047-21.344-6.349-31.283-11.939"/>
<path class="st3" d="M264.053,463.063l18.705-13.768c0,0,1.482-0.816,1.408-2.521l-0.84-2.149l-6.703-15.635
	c0,0-1.164-5.591-6.947-9.594c-4.301-2.977-7.277-9.263-7.277-9.263l-49.64-136.292c0,0-1.985-6.616-6.858-11.42
	c-4.352-4.289-8.473-10.494-10.338-15.935"/>
<path class="st9" d="M156.929,408.146l11.928,6.943c0,0,12.276,9.637,16.379,13.53c3.39,3.217,9.659,8.463,15,11.489
	s12.89,6.988,12.89,6.988s7.53,3.06,4.334,9.296c-2.16,4.216-8.054,2.901-10.546,2.189s-5.28-1.554-10.095-1.864
	c-4.8-0.31-11.958,1.405-11.958,1.405"/>
<path class="st9" d="M254.217,488.746l-13.895-7.833c0,0-8.193-4.985-4.096-12.106c4.096-7.121,12.604-1.942,15.674-1.78
	c3.385,0.179,6.59,1.068,13.711-7.299"/>
<g>
	<g>
		<line class="st6" x1="38.507" y1="237.86" x2="38.507" y2="94.222"/>
		<g>
			<polygon class="st8" points="39.898,113.037 49.165,126.733 38.521,94.382 38.521,94.222 38.504,94.301 38.494,94.25 
				38.494,94.354 27.85,126.706 37.115,112.989 37.115,206.587 32.243,212.68 32.243,233.562 37.115,228.691 37.115,237.86 
				39.898,237.86 39.898,229.385 44.075,233.562 44.075,212.68 39.898,207.459 			"/>
		</g>
	</g>
</g>
<path class="st7" d="M263.373,432.217l-96.534-264.13c0,0-3.417-11.104,5.765-14.521s21.996-0.428,35.662-8.969
	c13.669-8.542,22.763-17.174,31.185-41.849c6.197-18.151,7.266-35.234,7.479-39.718s1.281-19.646,1.281-19.646
	s0.004-7.479,7.906-8.76c7.9-1.281,9.182,6.406,10.463,11.531s55.951,203.083,63.426,230.63
	c7.473,27.546,77.729,271.621,77.729,271.621s3.623,9.178-5.98,14.521c-7.971,4.436-14.312-0.218-19.432-2.989
	c-9.154-4.957-178.966-99.081-178.966-99.081s-14.521-8.756-25.838,1.922s-22.635,21.566-22.635,21.566s-2.78,3.84-2.989,6.192
	c-0.286,3.216-0.641,5.766,0.213,8.328s3.416,5.765,4.911,6.833s3.844,3.204,3.844,6.834s-5.417,67.702-5.417,67.702
	s0,3.56-3.559,7.38c-3.055,3.279-5.209,4.254-7.466,5.556c-2.068,1.192-9.029,4.428-9.029,4.428s-8.855,3.3-9.336,10.597
	c-0.425,6.448-4.483,110.826-4.483,110.826s-0.681,7.065-7.625,14.013c-5.027,5.029-11.199,9.723-20.99,10.758
	c-8.561,0.905-17.246-1.054-26.906-7.046c-10.187-6.318-16.329-16.171-20.173-23.858s-6.859-15.976-7.587-24.401
	c-0.538-6.229,1.943-11.977,4.698-15.161c1.986-2.296,17.976-15.13,22.421-19.219c4.431-4.075,10.586-9.706,15.457-16.143
	c2.431-3.212,6.164-9.896,6.164-9.896l31.976-57.24c0,0,3.012-7.437,1.536-15.25c-1.604-8.487-7.207-13.804-7.207-13.804
	l-17.191-19.531c0,0-3.299-3.473-2.764-8.857c0.677-6.813,8.969-100.577,8.969-100.577s0.735-10.732,10.725-17.229
	c10.679-6.945,19.598-1.348,19.598-1.348l120.239,67.691c0,0,6.834,3.201,12.812-2.776c4.863-4.862,3.846-10.251,1.283-17.298
	C264.812,435.81,263.373,432.217,263.373,432.217z"/>
<g>
	
		<rect x="201.691" y="339.396" transform="matrix(0.9376 -0.3477 0.3477 0.9376 -106.2997 100.6074)" class="st10" width="50.932" height="14.148"/>
	<pattern  id="SVGID_1_" xlink:href="#Checkers" patternTransform="matrix(0.2848 -0.1057 0.1057 0.2848 -4737.9395 -7005.4038)">
	</pattern>
	<polygon class="st11" points="253.494,344.248 205.741,361.958 200.82,348.692 248.572,330.982 	"/>
</g>
<g>
	<g>
		<line class="st0" x1="202.607" y1="701.07" x2="392.846" y2="701.07"/>
		<line class="st0" x1="202.607" y1="692.595" x2="202.607" y2="710.595"/>
	</g>
	<line class="st0" x1="391.363" y1="701.286" x2="391.363" y2="692.286"/>
	<line class="st0" x1="323.576" y1="710.023" x2="323.576" y2="701.023"/>
</g>
<circle class="st1" cx="144.487" cy="143.915" r="14.173"/>
<g>
	<path d="M149.268,150.583c0,0.148-0.012,0.273-0.035,0.375s-0.055,0.184-0.094,0.246s-0.084,0.107-0.135,0.135
		s-0.104,0.041-0.158,0.041h-7.922c-0.055,0-0.105-0.014-0.152-0.041s-0.092-0.072-0.135-0.135s-0.076-0.145-0.1-0.246
		s-0.035-0.227-0.035-0.375c0-0.141,0.012-0.262,0.035-0.363s0.053-0.186,0.088-0.252s0.078-0.117,0.129-0.152
		s0.107-0.053,0.17-0.053h3.164v-11.531l-2.93,1.746c-0.148,0.078-0.268,0.125-0.357,0.141s-0.162-0.002-0.217-0.053
		s-0.092-0.135-0.111-0.252s-0.029-0.266-0.029-0.445c0-0.133,0.006-0.246,0.018-0.34s0.029-0.172,0.053-0.234
		s0.057-0.117,0.1-0.164s0.1-0.094,0.17-0.141l3.492-2.238c0.031-0.023,0.07-0.043,0.117-0.059s0.105-0.031,0.176-0.047
		s0.152-0.025,0.246-0.029s0.211-0.006,0.352-0.006c0.188,0,0.344,0.008,0.469,0.023s0.223,0.037,0.293,0.064
		s0.117,0.062,0.141,0.105s0.035,0.088,0.035,0.135v13.324h2.742c0.062,0,0.121,0.018,0.176,0.053s0.1,0.086,0.135,0.152
		s0.062,0.15,0.082,0.252S149.268,150.442,149.268,150.583z"/>
</g>
<ellipse class="st1" cx="233.701" cy="159.102" rx="14.18" ry="14.173"/>
<g>
	<path d="M238.447,165.699c0,0.141-0.01,0.266-0.029,0.375s-0.047,0.201-0.082,0.275s-0.082,0.129-0.141,0.164
		s-0.123,0.053-0.193,0.053h-8.379c-0.109,0-0.205-0.014-0.287-0.041s-0.152-0.072-0.211-0.135s-0.102-0.152-0.129-0.27
		s-0.041-0.262-0.041-0.434c0-0.156,0.006-0.293,0.018-0.41c0.013-0.117,0.039-0.221,0.079-0.311s0.091-0.18,0.151-0.27
		s0.139-0.186,0.234-0.287l3.031-3.117c0.701-0.719,1.262-1.363,1.686-1.934c0.422-0.57,0.748-1.09,0.978-1.559
		s0.38-0.895,0.452-1.277c0.073-0.383,0.109-0.742,0.109-1.078s-0.057-0.654-0.17-0.955c-0.112-0.301-0.275-0.564-0.489-0.791
		s-0.481-0.406-0.804-0.539s-0.693-0.199-1.113-0.199c-0.491,0-0.933,0.066-1.323,0.199c-0.392,0.133-0.733,0.277-1.028,0.434
		c-0.294,0.156-0.54,0.301-0.737,0.434s-0.345,0.199-0.441,0.199c-0.056,0-0.106-0.016-0.151-0.047
		c-0.044-0.031-0.08-0.082-0.108-0.152s-0.051-0.164-0.066-0.281c-0.017-0.117-0.024-0.258-0.024-0.422
		c0-0.117,0.004-0.219,0.012-0.305s0.021-0.16,0.041-0.223s0.045-0.121,0.076-0.176s0.094-0.123,0.188-0.205
		s0.256-0.193,0.486-0.334s0.52-0.279,0.867-0.416s0.73-0.252,1.148-0.346s0.857-0.141,1.318-0.141c0.734,0,1.377,0.104,1.928,0.311
		s1.008,0.49,1.371,0.85s0.635,0.777,0.814,1.254s0.27,0.984,0.27,1.523c0,0.484-0.043,0.967-0.129,1.447s-0.268,1-0.545,1.559
		s-0.678,1.18-1.201,1.863s-1.219,1.471-2.086,2.361l-2.402,2.508h6.598c0.062,0,0.123,0.018,0.182,0.053s0.109,0.088,0.152,0.158
		s0.074,0.158,0.094,0.264S238.447,165.559,238.447,165.699z"/>
</g>
<circle class="st1" cx="278.282" cy="14.673" r="14.173"/>
<g>
	<path d="M282.9,17.802c0,0.695-0.121,1.322-0.363,1.881s-0.59,1.037-1.043,1.436s-1.012,0.705-1.676,0.92s-1.414,0.322-2.25,0.322
		c-0.508,0-0.982-0.041-1.424-0.123s-0.834-0.18-1.178-0.293s-0.629-0.23-0.855-0.352s-0.369-0.209-0.428-0.264
		s-0.104-0.109-0.135-0.164s-0.059-0.121-0.082-0.199s-0.041-0.174-0.053-0.287s-0.018-0.252-0.018-0.416
		c0-0.281,0.027-0.477,0.084-0.586c0.056-0.109,0.136-0.164,0.24-0.164c0.072,0,0.215,0.062,0.427,0.188s0.485,0.26,0.817,0.404
		s0.721,0.279,1.166,0.404s0.939,0.188,1.484,0.188c0.529,0,0.994-0.066,1.395-0.199s0.738-0.32,1.01-0.562
		c0.273-0.242,0.477-0.529,0.613-0.861s0.205-0.693,0.205-1.084c0-0.43-0.088-0.816-0.261-1.16s-0.428-0.641-0.763-0.891
		c-0.334-0.25-0.746-0.441-1.234-0.574s-1.043-0.199-1.664-0.199h-1.488c-0.064,0-0.127-0.014-0.188-0.041s-0.113-0.072-0.158-0.135
		c-0.044-0.062-0.08-0.145-0.108-0.246s-0.042-0.234-0.042-0.398c0-0.148,0.012-0.271,0.035-0.369s0.057-0.176,0.1-0.234
		s0.092-0.102,0.146-0.129s0.117-0.041,0.188-0.041h1.324c0.516,0,0.979-0.066,1.389-0.199s0.758-0.324,1.043-0.574
		s0.504-0.549,0.656-0.896s0.229-0.736,0.229-1.166c0-0.312-0.051-0.611-0.152-0.896s-0.254-0.533-0.457-0.744
		s-0.463-0.377-0.779-0.498s-0.682-0.182-1.096-0.182c-0.453,0-0.869,0.068-1.248,0.205s-0.717,0.283-1.014,0.439
		s-0.543,0.303-0.738,0.439s-0.332,0.205-0.41,0.205c-0.055,0-0.104-0.01-0.146-0.029s-0.078-0.059-0.105-0.117
		s-0.047-0.141-0.059-0.246s-0.018-0.244-0.018-0.416c0-0.117,0.004-0.221,0.012-0.311s0.023-0.168,0.047-0.234
		s0.051-0.127,0.082-0.182s0.084-0.119,0.158-0.193s0.225-0.182,0.451-0.322s0.506-0.279,0.838-0.416s0.715-0.252,1.148-0.346
		s0.9-0.141,1.4-0.141c0.703,0,1.32,0.09,1.852,0.27s0.975,0.434,1.33,0.762s0.621,0.721,0.797,1.178s0.264,0.963,0.264,1.518
		c0,0.477-0.062,0.92-0.188,1.33s-0.309,0.773-0.551,1.09s-0.539,0.586-0.891,0.809s-0.758,0.377-1.219,0.463v0.023
		c0.523,0.055,1.002,0.186,1.436,0.393s0.807,0.467,1.119,0.779s0.557,0.678,0.732,1.096S282.9,17.326,282.9,17.802z"/>
</g>
<circle class="st1" cx="417.704" cy="582.266" r="14.173"/>
<g>
	<path d="M423.084,585.419c0,0.258-0.039,0.461-0.117,0.609s-0.188,0.223-0.328,0.223h-1.711v3.188c0,0.062-0.016,0.115-0.049,0.158
		c-0.031,0.043-0.088,0.08-0.168,0.111c-0.081,0.031-0.186,0.055-0.314,0.07s-0.293,0.023-0.494,0.023
		c-0.193,0-0.354-0.008-0.483-0.023s-0.231-0.039-0.308-0.07s-0.129-0.068-0.157-0.111s-0.042-0.096-0.042-0.158v-3.188h-6.203
		c-0.094,0-0.172-0.012-0.233-0.035s-0.118-0.066-0.169-0.129c-0.05-0.062-0.084-0.152-0.104-0.27s-0.029-0.27-0.029-0.457
		c0-0.148,0.004-0.281,0.012-0.398s0.023-0.225,0.047-0.322c0.022-0.098,0.054-0.191,0.092-0.281c0.039-0.09,0.086-0.186,0.14-0.287
		l5.405-9.211c0.039-0.062,0.098-0.117,0.174-0.164c0.075-0.047,0.173-0.086,0.292-0.117c0.12-0.031,0.267-0.053,0.442-0.064
		c0.175-0.012,0.383-0.018,0.621-0.018c0.263,0,0.492,0.01,0.688,0.029s0.352,0.045,0.471,0.076c0.12,0.031,0.212,0.072,0.275,0.123
		c0.064,0.051,0.096,0.111,0.096,0.182v9.68h1.711c0.133,0,0.24,0.068,0.322,0.205S423.084,585.138,423.084,585.419z
		 M418.912,576.267h-0.023l-4.875,8.32h4.898V576.267z"/>
</g>
<g>
	<path d="M49.974,81.905c0,0.312-0.053,0.578-0.157,0.797c-0.105,0.219-0.243,0.398-0.412,0.539c-0.17,0.141-0.36,0.242-0.57,0.305
		c-0.21,0.062-0.42,0.094-0.63,0.094h-1.333c-0.42,0-0.788-0.043-1.103-0.129c-0.315-0.086-0.614-0.242-0.897-0.469
		s-0.565-0.535-0.849-0.926c-0.282-0.391-0.583-0.891-0.9-1.5l-9.252-17.25c-0.484-0.891-0.971-1.824-1.462-2.801
		c-0.492-0.977-0.949-1.926-1.372-2.848h-0.047c0.031,1.125,0.055,2.273,0.07,3.445s0.023,2.336,0.023,3.492V82.96
		c0,0.109-0.033,0.215-0.099,0.316c-0.066,0.102-0.178,0.18-0.334,0.234c-0.157,0.055-0.363,0.102-0.618,0.141
		c-0.256,0.039-0.582,0.059-0.978,0.059s-0.721-0.02-0.977-0.059c-0.256-0.039-0.458-0.086-0.606-0.141
		c-0.149-0.055-0.255-0.133-0.322-0.234c-0.065-0.102-0.099-0.207-0.099-0.316V54.976c0-0.625,0.177-1.07,0.532-1.336
		c0.354-0.266,0.742-0.398,1.161-0.398h1.984c0.467,0,0.858,0.039,1.173,0.117s0.597,0.207,0.847,0.387s0.492,0.43,0.726,0.75
		c0.233,0.32,0.479,0.723,0.736,1.207l7.113,13.312c0.438,0.812,0.86,1.605,1.269,2.379c0.407,0.773,0.8,1.535,1.178,2.285
		c0.377,0.75,0.751,1.488,1.121,2.215s0.736,1.457,1.099,2.191h0.023c-0.031-1.234-0.051-2.52-0.059-3.855s-0.012-2.621-0.012-3.855
		V53.921c0-0.109,0.033-0.211,0.099-0.305c0.066-0.094,0.177-0.176,0.334-0.246s0.363-0.121,0.618-0.152
		c0.256-0.031,0.589-0.047,1.002-0.047c0.362,0,0.676,0.016,0.939,0.047s0.47,0.082,0.619,0.152c0.148,0.07,0.255,0.152,0.322,0.246
		c0.065,0.094,0.099,0.195,0.099,0.305V81.905z"/>
</g>
<circle class="st1" cx="191.65" cy="482.104" r="14.173"/>
<g>
	<path d="M196.331,484.696c0,0.812-0.137,1.535-0.41,2.168s-0.66,1.166-1.16,1.6s-1.096,0.764-1.787,0.99s-1.459,0.34-2.303,0.34
		c-0.469,0-0.914-0.033-1.336-0.1s-0.797-0.148-1.125-0.246s-0.598-0.193-0.809-0.287s-0.346-0.168-0.404-0.223
		s-0.1-0.105-0.123-0.152s-0.045-0.104-0.064-0.17s-0.033-0.15-0.041-0.252s-0.012-0.223-0.012-0.363
		c0-0.133,0.006-0.252,0.018-0.357s0.033-0.191,0.064-0.258s0.068-0.115,0.111-0.146s0.092-0.047,0.146-0.047
		c0.078,0,0.199,0.049,0.363,0.146s0.385,0.203,0.662,0.316s0.621,0.221,1.031,0.322s0.896,0.152,1.459,0.152
		c0.523,0,1.004-0.062,1.441-0.188s0.814-0.32,1.131-0.586s0.564-0.6,0.744-1.002s0.27-0.893,0.27-1.471
		c0-0.484-0.076-0.912-0.229-1.283s-0.387-0.68-0.703-0.926s-0.717-0.43-1.201-0.551s-1.062-0.182-1.734-0.182
		c-0.477,0-0.887,0.023-1.23,0.07s-0.664,0.07-0.961,0.07c-0.219,0-0.375-0.051-0.469-0.152s-0.141-0.297-0.141-0.586v-6.176
		c0-0.258,0.061-0.449,0.182-0.574s0.295-0.188,0.521-0.188h6.715c0.062,0,0.123,0.018,0.182,0.053s0.107,0.088,0.146,0.158
		s0.068,0.16,0.088,0.27s0.029,0.238,0.029,0.387c0,0.281-0.038,0.5-0.112,0.656s-0.18,0.234-0.314,0.234h-5.421v4.254
		c0.263-0.039,0.532-0.062,0.807-0.07s0.593-0.012,0.954-0.012c0.835,0,1.565,0.104,2.19,0.311c0.625,0.207,1.146,0.5,1.564,0.879
		c0.417,0.379,0.734,0.838,0.948,1.377S196.331,484.04,196.331,484.696z"/>
</g>
<g>
	<path d="M279.182,689.441c0,0.123-0.01,0.232-0.025,0.328c-0.018,0.096-0.041,0.176-0.072,0.241
		c-0.031,0.064-0.072,0.112-0.123,0.144c-0.051,0.03-0.107,0.046-0.17,0.046h-7.33c-0.096,0-0.18-0.012-0.252-0.036
		c-0.071-0.023-0.133-0.062-0.185-0.118c-0.051-0.054-0.089-0.133-0.112-0.235c-0.024-0.103-0.036-0.229-0.036-0.38
		c0-0.136,0.005-0.256,0.016-0.358s0.034-0.193,0.069-0.271c0.035-0.079,0.078-0.157,0.132-0.236
		c0.053-0.078,0.121-0.162,0.206-0.251l2.652-2.728c0.611-0.629,1.104-1.192,1.473-1.692c0.371-0.498,0.656-0.953,0.855-1.363
		c0.201-0.41,0.334-0.782,0.396-1.117c0.064-0.335,0.096-0.649,0.096-0.943s-0.049-0.573-0.148-0.836
		c-0.098-0.264-0.242-0.494-0.428-0.692c-0.188-0.198-0.422-0.355-0.705-0.472c-0.281-0.116-0.605-0.174-0.973-0.174
		c-0.43,0-0.816,0.058-1.158,0.174s-0.642,0.243-0.898,0.379c-0.258,0.138-0.473,0.264-0.646,0.38
		c-0.172,0.116-0.301,0.175-0.386,0.175c-0.05,0-0.093-0.014-0.132-0.041s-0.07-0.072-0.096-0.134
		c-0.024-0.062-0.044-0.144-0.059-0.246c-0.014-0.103-0.021-0.226-0.021-0.369c0-0.103,0.003-0.191,0.011-0.267
		c0.006-0.075,0.018-0.14,0.035-0.195c0.018-0.054,0.039-0.105,0.066-0.153s0.082-0.107,0.164-0.18
		c0.082-0.071,0.225-0.169,0.426-0.292s0.455-0.244,0.759-0.364c0.304-0.119,0.64-0.22,1.005-0.302s0.75-0.123,1.154-0.123
		c0.641,0,1.203,0.09,1.686,0.271c0.482,0.181,0.883,0.429,1.199,0.743c0.318,0.314,0.557,0.681,0.713,1.097
		c0.158,0.418,0.236,0.861,0.236,1.334c0,0.424-0.037,0.846-0.113,1.266c-0.074,0.421-0.234,0.875-0.477,1.364
		c-0.242,0.488-0.594,1.032-1.051,1.63c-0.459,0.599-1.066,1.287-1.824,2.066l-2.103,2.194h5.772c0.055,0,0.107,0.016,0.158,0.046
		c0.053,0.031,0.096,0.077,0.135,0.139c0.037,0.062,0.064,0.139,0.082,0.23C279.172,689.21,279.182,689.318,279.182,689.441z"/>
	<path d="M290.266,683.535c0,1.019-0.08,1.948-0.24,2.789c-0.162,0.841-0.428,1.563-0.801,2.169
		c-0.373,0.604-0.859,1.073-1.461,1.404c-0.602,0.332-1.344,0.498-2.225,0.498c-0.834,0-1.537-0.149-2.107-0.446
		c-0.57-0.298-1.031-0.735-1.379-1.312c-0.35-0.578-0.598-1.289-0.744-2.133c-0.146-0.845-0.221-1.813-0.221-2.907
		c0-1.012,0.082-1.939,0.246-2.784c0.164-0.844,0.432-1.568,0.801-2.174c0.369-0.604,0.854-1.073,1.455-1.404
		c0.602-0.332,1.34-0.497,2.215-0.497c0.842,0,1.547,0.148,2.117,0.445c0.572,0.298,1.031,0.735,1.379,1.312
		c0.35,0.578,0.598,1.289,0.744,2.133C290.191,681.472,290.266,682.441,290.266,683.535z M288.461,683.658
		c0-0.663-0.023-1.258-0.072-1.784c-0.047-0.526-0.117-0.991-0.209-1.395c-0.094-0.403-0.213-0.75-0.359-1.041
		c-0.146-0.29-0.324-0.529-0.529-0.718c-0.205-0.188-0.438-0.324-0.701-0.41c-0.264-0.085-0.559-0.128-0.887-0.128
		c-0.582,0-1.053,0.137-1.416,0.41c-0.361,0.273-0.646,0.649-0.855,1.128s-0.352,1.039-0.426,1.682
		c-0.076,0.643-0.113,1.333-0.113,2.071c0,0.991,0.051,1.834,0.154,2.527c0.102,0.694,0.266,1.26,0.486,1.697
		c0.223,0.438,0.506,0.756,0.852,0.953c0.346,0.199,0.764,0.298,1.256,0.298c0.383,0,0.721-0.062,1.01-0.185
		c0.291-0.123,0.541-0.299,0.75-0.528c0.207-0.229,0.381-0.504,0.518-0.825s0.246-0.677,0.328-1.066s0.139-0.812,0.168-1.267
		C288.445,684.624,288.461,684.15,288.461,683.658z"/>
	<path d="M300.91,683.535c0,1.019-0.082,1.948-0.242,2.789s-0.428,1.563-0.799,2.169c-0.373,0.604-0.861,1.073-1.461,1.404
		c-0.604,0.332-1.344,0.498-2.227,0.498c-0.834,0-1.535-0.149-2.107-0.446c-0.57-0.298-1.029-0.735-1.379-1.312
		c-0.348-0.578-0.596-1.289-0.742-2.133c-0.148-0.845-0.221-1.813-0.221-2.907c0-1.012,0.082-1.939,0.246-2.784
		c0.164-0.844,0.43-1.568,0.799-2.174c0.369-0.604,0.855-1.073,1.457-1.404c0.602-0.332,1.34-0.497,2.215-0.497
		c0.84,0,1.547,0.148,2.117,0.445c0.57,0.298,1.031,0.735,1.379,1.312c0.35,0.578,0.596,1.289,0.744,2.133
		C300.836,681.472,300.91,682.441,300.91,683.535z M299.105,683.658c0-0.663-0.025-1.258-0.072-1.784
		c-0.049-0.526-0.119-0.991-0.211-1.395s-0.211-0.75-0.359-1.041c-0.146-0.29-0.322-0.529-0.527-0.718
		c-0.205-0.188-0.439-0.324-0.703-0.41c-0.262-0.085-0.559-0.128-0.887-0.128c-0.58,0-1.053,0.137-1.414,0.41
		c-0.363,0.273-0.648,0.649-0.857,1.128c-0.207,0.479-0.35,1.039-0.424,1.682c-0.076,0.643-0.113,1.333-0.113,2.071
		c0,0.991,0.051,1.834,0.154,2.527c0.102,0.694,0.264,1.26,0.486,1.697s0.506,0.756,0.852,0.953
		c0.344,0.199,0.764,0.298,1.256,0.298c0.383,0,0.719-0.062,1.01-0.185s0.539-0.299,0.748-0.528
		c0.209-0.229,0.381-0.504,0.518-0.825s0.246-0.677,0.328-1.066s0.139-0.812,0.17-1.267
		C299.09,684.624,299.105,684.15,299.105,683.658z"/>
	<path d="M321.643,689.944c0,0.055-0.014,0.101-0.041,0.138c-0.027,0.038-0.072,0.07-0.133,0.098
		c-0.062,0.027-0.146,0.048-0.256,0.062s-0.246,0.021-0.41,0.021c-0.172,0-0.312-0.007-0.422-0.021s-0.195-0.034-0.26-0.062
		c-0.066-0.027-0.111-0.06-0.139-0.098c-0.027-0.037-0.041-0.083-0.041-0.138v-5.609c0-0.39-0.035-0.745-0.104-1.066
		s-0.178-0.598-0.328-0.83s-0.342-0.41-0.574-0.533s-0.506-0.186-0.82-0.186c-0.389,0-0.781,0.151-1.174,0.451
		c-0.393,0.302-0.826,0.742-1.297,1.323v6.45c0,0.055-0.014,0.101-0.041,0.138c-0.027,0.038-0.074,0.07-0.139,0.098
		s-0.152,0.048-0.262,0.062s-0.246,0.021-0.41,0.021c-0.156,0-0.291-0.007-0.404-0.021s-0.201-0.034-0.268-0.062
		c-0.064-0.027-0.109-0.06-0.133-0.098c-0.023-0.037-0.035-0.083-0.035-0.138v-5.609c0-0.39-0.039-0.745-0.113-1.066
		c-0.076-0.321-0.188-0.598-0.338-0.83s-0.34-0.41-0.57-0.533c-0.229-0.123-0.5-0.186-0.814-0.186c-0.391,0-0.783,0.151-1.18,0.451
		c-0.396,0.302-0.826,0.742-1.291,1.323v6.45c0,0.055-0.014,0.101-0.041,0.138c-0.027,0.038-0.072,0.07-0.135,0.098
		c-0.061,0.027-0.146,0.048-0.256,0.062s-0.25,0.021-0.42,0.021c-0.164,0-0.301-0.007-0.41-0.021s-0.197-0.034-0.262-0.062
		s-0.109-0.06-0.133-0.098c-0.023-0.037-0.037-0.083-0.037-0.138v-9.229c0-0.055,0.012-0.102,0.031-0.139
		c0.021-0.038,0.062-0.072,0.123-0.103c0.062-0.031,0.141-0.052,0.236-0.062c0.096-0.011,0.223-0.016,0.379-0.016
		c0.15,0,0.275,0.005,0.375,0.016c0.1,0.01,0.176,0.03,0.23,0.062c0.055,0.03,0.094,0.064,0.117,0.103
		c0.025,0.037,0.037,0.084,0.037,0.139v1.22c0.52-0.581,1.023-1.007,1.512-1.276c0.488-0.271,0.982-0.405,1.482-0.405
		c0.383,0,0.727,0.045,1.029,0.134c0.305,0.089,0.572,0.213,0.805,0.374c0.232,0.16,0.432,0.352,0.596,0.574
		c0.164,0.222,0.301,0.47,0.41,0.743c0.307-0.335,0.6-0.618,0.877-0.852c0.277-0.231,0.543-0.42,0.799-0.563
		c0.258-0.144,0.506-0.248,0.75-0.312c0.242-0.065,0.486-0.098,0.732-0.098c0.594,0,1.094,0.104,1.496,0.312
		c0.404,0.209,0.73,0.487,0.98,0.836s0.428,0.757,0.533,1.226c0.105,0.468,0.158,0.962,0.158,1.481V689.944z"/>
</g>
<g>
	<path d="M246.736,721.8c0,0.226-0.035,0.403-0.104,0.533s-0.164,0.195-0.287,0.195h-1.496v2.789c0,0.055-0.016,0.101-0.043,0.138
		c-0.029,0.038-0.078,0.07-0.148,0.098s-0.162,0.048-0.273,0.062c-0.113,0.014-0.258,0.021-0.434,0.021
		c-0.17,0-0.311-0.007-0.422-0.021c-0.113-0.014-0.203-0.034-0.27-0.062c-0.068-0.027-0.113-0.06-0.139-0.098
		c-0.023-0.037-0.035-0.083-0.035-0.138v-2.789h-5.43c-0.082,0-0.149-0.011-0.203-0.031c-0.055-0.021-0.104-0.058-0.148-0.113
		c-0.043-0.054-0.074-0.133-0.091-0.235s-0.025-0.235-0.025-0.399c0-0.13,0.003-0.246,0.011-0.35c0.006-0.102,0.02-0.196,0.04-0.281
		c0.021-0.086,0.048-0.168,0.081-0.246c0.033-0.079,0.074-0.162,0.122-0.252l4.729-8.059c0.035-0.055,0.086-0.104,0.152-0.145
		s0.15-0.074,0.256-0.102s0.234-0.047,0.387-0.057c0.154-0.011,0.334-0.016,0.543-0.016c0.23,0,0.432,0.009,0.602,0.025
		c0.172,0.018,0.309,0.04,0.414,0.066c0.104,0.028,0.184,0.063,0.24,0.108c0.055,0.044,0.084,0.097,0.084,0.159v8.469h1.496
		c0.115,0,0.211,0.061,0.281,0.18C246.699,721.372,246.736,721.554,246.736,721.8z M243.086,713.792h-0.021l-4.266,7.279h4.287
		V713.792z"/>
	<path d="M257.256,718.909c0,1.019-0.082,1.948-0.242,2.789s-0.428,1.563-0.799,2.169c-0.373,0.604-0.861,1.073-1.461,1.404
		c-0.604,0.332-1.344,0.498-2.227,0.498c-0.834,0-1.535-0.149-2.107-0.446c-0.57-0.298-1.029-0.735-1.379-1.312
		c-0.348-0.578-0.596-1.289-0.742-2.133c-0.148-0.845-0.221-1.813-0.221-2.907c0-1.012,0.082-1.939,0.246-2.784
		c0.164-0.844,0.43-1.568,0.799-2.174c0.369-0.604,0.855-1.073,1.457-1.404c0.602-0.332,1.34-0.497,2.215-0.497
		c0.84,0,1.547,0.148,2.117,0.445c0.57,0.298,1.031,0.735,1.379,1.312c0.35,0.578,0.596,1.289,0.744,2.133
		C257.182,716.846,257.256,717.815,257.256,718.909z M255.451,719.032c0-0.663-0.025-1.258-0.072-1.784
		c-0.049-0.526-0.119-0.991-0.211-1.395s-0.211-0.75-0.359-1.041c-0.146-0.29-0.322-0.529-0.527-0.718
		c-0.205-0.188-0.439-0.324-0.703-0.41c-0.262-0.085-0.559-0.128-0.887-0.128c-0.58,0-1.053,0.137-1.414,0.41
		c-0.363,0.273-0.648,0.649-0.857,1.128c-0.207,0.479-0.35,1.039-0.424,1.682c-0.076,0.643-0.113,1.333-0.113,2.071
		c0,0.991,0.051,1.834,0.154,2.527c0.102,0.694,0.264,1.26,0.486,1.697s0.506,0.756,0.852,0.953
		c0.344,0.199,0.764,0.298,1.256,0.298c0.383,0,0.719-0.062,1.01-0.185s0.539-0.299,0.748-0.528
		c0.209-0.229,0.381-0.504,0.518-0.825s0.246-0.677,0.328-1.066s0.139-0.812,0.17-1.267
		C255.436,719.998,255.451,719.524,255.451,719.032z"/>
	<path d="M267.898,718.909c0,1.019-0.08,1.948-0.24,2.789c-0.162,0.841-0.428,1.563-0.801,2.169
		c-0.373,0.604-0.859,1.073-1.461,1.404c-0.602,0.332-1.344,0.498-2.225,0.498c-0.834,0-1.537-0.149-2.107-0.446
		c-0.57-0.298-1.031-0.735-1.379-1.312c-0.35-0.578-0.598-1.289-0.744-2.133c-0.146-0.845-0.221-1.813-0.221-2.907
		c0-1.012,0.082-1.939,0.246-2.784c0.164-0.844,0.432-1.568,0.801-2.174c0.369-0.604,0.854-1.073,1.455-1.404
		c0.602-0.332,1.34-0.497,2.215-0.497c0.842,0,1.547,0.148,2.117,0.445c0.572,0.298,1.031,0.735,1.379,1.312
		c0.35,0.578,0.598,1.289,0.744,2.133C267.824,716.846,267.898,717.815,267.898,718.909z M266.094,719.032
		c0-0.663-0.023-1.258-0.072-1.784c-0.047-0.526-0.117-0.991-0.209-1.395c-0.094-0.403-0.213-0.75-0.359-1.041
		c-0.146-0.29-0.324-0.529-0.529-0.718c-0.205-0.188-0.438-0.324-0.701-0.41c-0.264-0.085-0.559-0.128-0.887-0.128
		c-0.582,0-1.053,0.137-1.416,0.41c-0.361,0.273-0.646,0.649-0.855,1.128s-0.352,1.039-0.426,1.682
		c-0.076,0.643-0.113,1.333-0.113,2.071c0,0.991,0.051,1.834,0.154,2.527c0.102,0.694,0.266,1.26,0.486,1.697
		c0.223,0.438,0.506,0.756,0.852,0.953c0.346,0.199,0.764,0.298,1.256,0.298c0.383,0,0.721-0.062,1.01-0.185
		c0.291-0.123,0.541-0.299,0.75-0.528c0.207-0.229,0.381-0.504,0.518-0.825s0.246-0.677,0.328-1.066s0.139-0.812,0.168-1.267
		C266.078,719.998,266.094,719.524,266.094,719.032z"/>
	<path d="M277.086,717.227v8.091c0,0.055-0.014,0.101-0.041,0.138c-0.027,0.038-0.072,0.07-0.139,0.098
		c-0.064,0.027-0.152,0.048-0.26,0.062c-0.111,0.014-0.246,0.021-0.41,0.021s-0.303-0.007-0.41-0.021
		c-0.111-0.014-0.197-0.034-0.262-0.062c-0.066-0.027-0.111-0.06-0.139-0.098c-0.027-0.037-0.041-0.083-0.041-0.138v-8.091h-1.303
		c-0.109,0-0.191-0.055-0.246-0.164s-0.082-0.287-0.082-0.533c0-0.13,0.006-0.239,0.021-0.328c0.012-0.089,0.033-0.162,0.061-0.221
		c0.027-0.058,0.062-0.099,0.104-0.123c0.041-0.023,0.088-0.036,0.143-0.036h1.303v-0.953c0-0.643,0.059-1.194,0.18-1.656
		c0.119-0.461,0.301-0.839,0.543-1.133s0.551-0.511,0.922-0.651c0.373-0.14,0.812-0.21,1.318-0.21c0.252,0,0.498,0.025,0.738,0.077
		c0.238,0.051,0.41,0.099,0.514,0.144c0.102,0.044,0.174,0.087,0.215,0.128s0.072,0.094,0.098,0.159
		c0.023,0.064,0.041,0.144,0.051,0.235c0.01,0.093,0.016,0.204,0.016,0.333c0,0.131-0.006,0.234-0.016,0.313
		c-0.01,0.078-0.025,0.142-0.047,0.189c-0.02,0.048-0.045,0.08-0.07,0.098c-0.029,0.017-0.059,0.025-0.094,0.025
		c-0.055,0-0.115-0.016-0.184-0.046c-0.068-0.031-0.154-0.065-0.256-0.103c-0.104-0.038-0.225-0.072-0.365-0.103
		c-0.141-0.031-0.303-0.047-0.486-0.047c-0.254,0-0.467,0.041-0.641,0.123c-0.176,0.082-0.316,0.211-0.426,0.385
		c-0.109,0.175-0.189,0.4-0.242,0.677c-0.051,0.277-0.076,0.614-0.076,1.011v1.004h4.164v-2.193c0-0.048,0.012-0.093,0.041-0.134
		c0.025-0.041,0.07-0.077,0.133-0.107c0.061-0.031,0.146-0.053,0.256-0.067c0.109-0.013,0.25-0.02,0.42-0.02
		c0.164,0,0.301,0.007,0.41,0.02c0.109,0.015,0.195,0.036,0.258,0.067c0.061,0.03,0.105,0.066,0.133,0.107s0.041,0.086,0.041,0.134
		v2.193h2.357c0.055,0,0.105,0.013,0.148,0.036c0.045,0.024,0.08,0.065,0.109,0.123c0.025,0.059,0.049,0.132,0.066,0.221
		c0.016,0.089,0.025,0.198,0.025,0.328c0,0.246-0.031,0.424-0.092,0.533c-0.062,0.109-0.145,0.164-0.246,0.164h-2.369v5.147
		c0,0.636,0.092,1.116,0.277,1.44c0.184,0.325,0.521,0.487,1.014,0.487c0.15,0,0.289-0.016,0.416-0.046
		c0.127-0.031,0.236-0.063,0.334-0.098c0.094-0.034,0.178-0.066,0.25-0.098c0.072-0.03,0.131-0.046,0.18-0.046
		c0.041,0,0.074,0.009,0.104,0.025c0.025,0.018,0.049,0.05,0.066,0.098c0.016,0.048,0.031,0.113,0.045,0.195
		s0.021,0.184,0.021,0.307c0,0.199-0.016,0.356-0.047,0.473s-0.074,0.201-0.127,0.256c-0.057,0.055-0.135,0.106-0.236,0.154
		c-0.104,0.048-0.225,0.087-0.365,0.117c-0.139,0.031-0.289,0.057-0.451,0.077c-0.16,0.021-0.316,0.03-0.465,0.03
		c-0.486,0-0.9-0.062-1.242-0.189c-0.342-0.126-0.621-0.317-0.84-0.574c-0.219-0.256-0.379-0.581-0.477-0.974
		c-0.1-0.394-0.148-0.856-0.148-1.39v-5.394H277.086z"/>
</g>
<circle class="st1" cx="129.685" cy="485.275" r="14.173"/>
<g>
	<path d="M134.824,487.828c0,0.664-0.102,1.307-0.305,1.928s-0.516,1.168-0.938,1.641s-0.957,0.852-1.605,1.137
		s-1.414,0.428-2.297,0.428c-0.633,0-1.191-0.078-1.676-0.234s-0.906-0.379-1.266-0.668s-0.658-0.645-0.896-1.066
		s-0.43-0.902-0.574-1.441s-0.248-1.129-0.311-1.77s-0.094-1.328-0.094-2.062c0-0.648,0.035-1.305,0.105-1.969
		s0.195-1.305,0.375-1.922s0.424-1.197,0.732-1.74s0.695-1.016,1.16-1.418s1.021-0.721,1.67-0.955s1.402-0.352,2.262-0.352
		c0.289,0,0.582,0.018,0.879,0.053s0.57,0.082,0.82,0.141s0.461,0.123,0.633,0.193s0.285,0.127,0.34,0.17s0.096,0.09,0.123,0.141
		s0.049,0.105,0.064,0.164s0.027,0.125,0.035,0.199s0.012,0.166,0.012,0.275c0,0.141-0.002,0.262-0.006,0.363
		s-0.02,0.184-0.047,0.246s-0.062,0.109-0.105,0.141s-0.1,0.047-0.17,0.047c-0.086,0-0.203-0.027-0.352-0.082
		s-0.328-0.115-0.539-0.182s-0.467-0.127-0.768-0.182s-0.65-0.082-1.049-0.082c-0.727,0-1.352,0.148-1.875,0.445
		s-0.951,0.695-1.283,1.195s-0.578,1.08-0.738,1.74s-0.252,1.35-0.275,2.068c0.203-0.117,0.432-0.234,0.686-0.352
		s0.531-0.223,0.832-0.316s0.619-0.17,0.955-0.229s0.695-0.088,1.078-0.088c0.82,0,1.512,0.111,2.074,0.334s1.018,0.531,1.365,0.926
		s0.596,0.859,0.744,1.395S134.824,487.203,134.824,487.828z M132.785,488.015c0-0.453-0.045-0.865-0.135-1.236
		s-0.24-0.686-0.451-0.943s-0.492-0.457-0.844-0.598s-0.785-0.211-1.301-0.211c-0.289,0-0.578,0.025-0.867,0.076
		s-0.568,0.121-0.838,0.211s-0.527,0.195-0.773,0.316s-0.471,0.252-0.674,0.393c0,1.008,0.064,1.852,0.193,2.531
		s0.316,1.225,0.562,1.635s0.553,0.703,0.92,0.879s0.797,0.264,1.289,0.264c0.5,0,0.934-0.094,1.301-0.281s0.672-0.439,0.914-0.756
		s0.42-0.672,0.533-1.066S132.785,488.429,132.785,488.015z"/>
</g>
<circle class="st1" cx="184.687" cy="517.266" r="14.173"/>
<g>
	<path d="M189.661,510.435c0,0.141-0.006,0.268-0.018,0.381s-0.027,0.223-0.047,0.328s-0.047,0.207-0.082,0.305
		s-0.076,0.201-0.123,0.311l-5.461,12.586c-0.039,0.094-0.088,0.17-0.146,0.229s-0.133,0.105-0.223,0.141s-0.205,0.059-0.346,0.07
		s-0.312,0.018-0.516,0.018c-0.266,0-0.473-0.012-0.621-0.035s-0.256-0.061-0.322-0.111s-0.096-0.113-0.088-0.188
		s0.035-0.162,0.082-0.264l5.742-12.867h-7.277c-0.148,0-0.26-0.078-0.334-0.234s-0.111-0.375-0.111-0.656
		c0-0.148,0.01-0.277,0.029-0.387s0.049-0.201,0.088-0.275s0.086-0.129,0.141-0.164s0.117-0.053,0.188-0.053h8.836
		c0.109,0,0.205,0.012,0.287,0.035s0.145,0.07,0.188,0.141s0.076,0.16,0.1,0.27S189.661,510.263,189.661,510.435z"/>
</g>
<circle class="st1" cx="176.687" cy="593.32" r="14.173"/>
<g>
	<path d="M181.789,596.876c0,0.656-0.117,1.24-0.352,1.752s-0.572,0.943-1.014,1.295s-0.986,0.617-1.635,0.797
		s-1.391,0.27-2.227,0.27c-0.781,0-1.48-0.082-2.098-0.246s-1.141-0.406-1.57-0.727s-0.758-0.715-0.984-1.184
		s-0.34-1.004-0.34-1.605c0-0.477,0.078-0.914,0.234-1.312s0.381-0.766,0.674-1.102s0.654-0.65,1.084-0.943s0.914-0.572,1.453-0.838
		c-0.469-0.242-0.883-0.498-1.242-0.768s-0.664-0.562-0.914-0.879s-0.439-0.654-0.568-1.014s-0.193-0.75-0.193-1.172
		c0-0.531,0.096-1.029,0.287-1.494s0.48-0.869,0.867-1.213s0.879-0.615,1.477-0.814s1.295-0.299,2.092-0.299
		c0.766,0,1.428,0.092,1.986,0.275s1.02,0.434,1.383,0.75s0.631,0.689,0.803,1.119s0.258,0.891,0.258,1.383
		c0,0.398-0.064,0.781-0.193,1.148s-0.318,0.715-0.568,1.043s-0.557,0.635-0.92,0.92s-0.779,0.553-1.248,0.803
		c0.555,0.273,1.049,0.555,1.482,0.844s0.797,0.6,1.09,0.932s0.516,0.684,0.668,1.055S181.789,596.431,181.789,596.876z
		 M179.75,597.087c0-0.359-0.066-0.686-0.199-0.979s-0.334-0.566-0.604-0.82s-0.605-0.5-1.008-0.738s-0.869-0.486-1.4-0.744
		c-0.492,0.242-0.924,0.484-1.295,0.727s-0.676,0.492-0.914,0.75s-0.418,0.529-0.539,0.814s-0.182,0.6-0.182,0.943
		c0,0.758,0.26,1.344,0.779,1.758s1.295,0.621,2.326,0.621c1,0,1.756-0.209,2.268-0.627S179.75,597.806,179.75,597.087z
		 M179.257,589.095c0-0.328-0.057-0.625-0.17-0.891s-0.279-0.492-0.498-0.68s-0.49-0.33-0.814-0.428s-0.693-0.146-1.107-0.146
		c-0.844,0-1.482,0.191-1.916,0.574s-0.65,0.906-0.65,1.57c0,0.305,0.053,0.588,0.158,0.85s0.27,0.51,0.492,0.744
		s0.504,0.463,0.844,0.686s0.744,0.455,1.213,0.697c0.789-0.406,1.395-0.855,1.816-1.348S179.257,589.689,179.257,589.095z"/>
</g>
<circle class="st1" cx="149.672" cy="618.345" r="14.173"/>
<g>
	<path d="M154.539,617.603c0,0.656-0.039,1.32-0.117,1.992s-0.211,1.318-0.398,1.939s-0.439,1.203-0.756,1.746
		s-0.715,1.018-1.195,1.424s-1.051,0.725-1.711,0.955s-1.428,0.346-2.303,0.346c-0.336,0-0.662-0.021-0.979-0.064
		s-0.602-0.096-0.855-0.158s-0.467-0.129-0.639-0.199s-0.297-0.141-0.375-0.211s-0.135-0.166-0.17-0.287s-0.053-0.283-0.053-0.486
		c0-0.172,0.006-0.309,0.018-0.41s0.029-0.18,0.053-0.234s0.057-0.092,0.1-0.111s0.096-0.029,0.158-0.029
		c0.086,0,0.207,0.029,0.363,0.088s0.354,0.123,0.592,0.193s0.518,0.135,0.838,0.193s0.68,0.088,1.078,0.088
		c0.758,0,1.408-0.146,1.951-0.439s0.986-0.686,1.33-1.178s0.602-1.062,0.773-1.711s0.266-1.332,0.281-2.051
		c-0.414,0.242-0.91,0.457-1.488,0.645s-1.242,0.281-1.992,0.281c-0.844,0-1.553-0.115-2.127-0.346s-1.035-0.545-1.383-0.943
		s-0.598-0.871-0.75-1.418s-0.229-1.145-0.229-1.793c0-0.672,0.098-1.311,0.293-1.916s0.5-1.139,0.914-1.6s0.941-0.828,1.582-1.102
		s1.406-0.41,2.297-0.41c0.633,0,1.193,0.08,1.682,0.24s0.912,0.391,1.271,0.691s0.664,0.664,0.914,1.09s0.451,0.908,0.604,1.447
		s0.262,1.123,0.328,1.752S154.539,616.908,154.539,617.603z M152.488,617.38c0-1-0.066-1.842-0.199-2.525s-0.328-1.236-0.586-1.658
		s-0.574-0.727-0.949-0.914s-0.809-0.281-1.301-0.281c-0.508,0-0.941,0.092-1.301,0.275s-0.654,0.43-0.885,0.738
		s-0.4,0.658-0.51,1.049s-0.164,0.793-0.164,1.207c0,0.461,0.049,0.883,0.146,1.266s0.256,0.707,0.475,0.973
		s0.504,0.471,0.855,0.615s0.785,0.217,1.301,0.217c0.586,0,1.152-0.088,1.699-0.264S152.089,617.669,152.488,617.38z"/>
</g>
<circle class="st1" cx="130.704" cy="751.474" r="14.173"/>
<g>
	<path d="M129.4,758.071c0,0.148-0.012,0.273-0.035,0.375s-0.055,0.184-0.094,0.246s-0.084,0.107-0.135,0.135
		s-0.104,0.041-0.158,0.041h-7.922c-0.055,0-0.105-0.014-0.152-0.041s-0.092-0.072-0.135-0.135s-0.076-0.145-0.1-0.246
		s-0.035-0.227-0.035-0.375c0-0.141,0.012-0.262,0.035-0.363s0.053-0.186,0.088-0.252s0.078-0.117,0.129-0.152
		s0.107-0.053,0.17-0.053h3.164v-11.531l-2.93,1.746c-0.148,0.078-0.268,0.125-0.357,0.141s-0.162-0.002-0.217-0.053
		s-0.092-0.135-0.111-0.252s-0.029-0.266-0.029-0.445c0-0.133,0.006-0.246,0.018-0.34s0.029-0.172,0.053-0.234
		s0.057-0.117,0.1-0.164s0.1-0.094,0.17-0.141l3.492-2.238c0.031-0.023,0.07-0.043,0.117-0.059s0.105-0.031,0.176-0.047
		s0.152-0.025,0.246-0.029s0.211-0.006,0.352-0.006c0.188,0,0.344,0.008,0.469,0.023s0.223,0.037,0.293,0.064
		s0.117,0.062,0.141,0.105s0.035,0.088,0.035,0.135v13.324h2.742c0.062,0,0.121,0.018,0.176,0.053s0.1,0.086,0.135,0.152
		s0.062,0.15,0.082,0.252S129.4,757.93,129.4,758.071z"/>
	<path d="M142.033,751.25c0,1.164-0.092,2.227-0.275,3.188s-0.488,1.787-0.914,2.479s-0.982,1.227-1.67,1.605
		s-1.535,0.568-2.543,0.568c-0.953,0-1.756-0.17-2.408-0.51s-1.178-0.84-1.576-1.5s-0.682-1.473-0.85-2.438
		s-0.252-2.072-0.252-3.322c0-1.156,0.094-2.217,0.281-3.182s0.492-1.793,0.914-2.484s0.977-1.227,1.664-1.605
		s1.531-0.568,2.531-0.568c0.961,0,1.768,0.17,2.42,0.51s1.178,0.84,1.576,1.5s0.682,1.473,0.85,2.438S142.033,750,142.033,751.25z
		 M139.971,751.391c0-0.758-0.027-1.438-0.082-2.039s-0.135-1.133-0.24-1.594s-0.242-0.857-0.41-1.189s-0.369-0.605-0.604-0.82
		s-0.502-0.371-0.803-0.469s-0.639-0.146-1.014-0.146c-0.664,0-1.203,0.156-1.617,0.469s-0.74,0.742-0.979,1.289
		s-0.4,1.188-0.486,1.922s-0.129,1.523-0.129,2.367c0,1.133,0.059,2.096,0.176,2.889s0.303,1.439,0.557,1.939
		s0.578,0.863,0.973,1.09s0.873,0.34,1.436,0.34c0.438,0,0.822-0.07,1.154-0.211s0.617-0.342,0.855-0.604s0.436-0.576,0.592-0.943
		s0.281-0.773,0.375-1.219s0.158-0.928,0.193-1.447S139.971,751.954,139.971,751.391z"/>
</g>
<circle class="st1" cx="14.673" cy="672.267" r="14.173"/>
<g>
	<path d="M13.363,678.935c0,0.148-0.012,0.273-0.035,0.375s-0.055,0.184-0.094,0.246s-0.084,0.107-0.135,0.135
		s-0.104,0.041-0.158,0.041H5.02c-0.055,0-0.105-0.014-0.152-0.041s-0.092-0.072-0.135-0.135s-0.076-0.145-0.1-0.246
		s-0.035-0.227-0.035-0.375c0-0.141,0.012-0.262,0.035-0.363s0.053-0.186,0.088-0.252s0.078-0.117,0.129-0.152
		s0.107-0.053,0.17-0.053h3.164v-11.531l-2.93,1.746c-0.148,0.078-0.268,0.125-0.357,0.141s-0.162-0.002-0.217-0.053
		s-0.092-0.135-0.111-0.252s-0.029-0.266-0.029-0.445c0-0.133,0.006-0.246,0.018-0.34s0.029-0.172,0.053-0.234
		s0.057-0.117,0.1-0.164s0.1-0.094,0.17-0.141l3.492-2.238c0.031-0.023,0.07-0.043,0.117-0.059s0.105-0.031,0.176-0.047
		s0.152-0.025,0.246-0.029s0.211-0.006,0.352-0.006c0.188,0,0.344,0.008,0.469,0.023s0.223,0.037,0.293,0.064
		s0.117,0.062,0.141,0.105s0.035,0.088,0.035,0.135v13.324h2.742c0.062,0,0.121,0.018,0.176,0.053s0.1,0.086,0.135,0.152
		s0.062,0.15,0.082,0.252S13.363,678.794,13.363,678.935z"/>
	<path d="M25.527,678.935c0,0.148-0.012,0.273-0.035,0.375s-0.055,0.184-0.094,0.246s-0.084,0.107-0.135,0.135
		s-0.104,0.041-0.158,0.041h-7.922c-0.055,0-0.105-0.014-0.152-0.041s-0.092-0.072-0.135-0.135s-0.076-0.145-0.1-0.246
		s-0.035-0.227-0.035-0.375c0-0.141,0.012-0.262,0.035-0.363s0.053-0.186,0.088-0.252s0.078-0.117,0.129-0.152
		s0.107-0.053,0.17-0.053h3.164v-11.531l-2.93,1.746c-0.148,0.078-0.268,0.125-0.357,0.141s-0.162-0.002-0.217-0.053
		s-0.092-0.135-0.111-0.252s-0.029-0.266-0.029-0.445c0-0.133,0.006-0.246,0.018-0.34s0.029-0.172,0.053-0.234
		s0.057-0.117,0.1-0.164s0.1-0.094,0.17-0.141l3.492-2.238c0.031-0.023,0.07-0.043,0.117-0.059s0.105-0.031,0.176-0.047
		s0.152-0.025,0.246-0.029s0.211-0.006,0.352-0.006c0.188,0,0.344,0.008,0.469,0.023s0.223,0.037,0.293,0.064
		s0.117,0.062,0.141,0.105s0.035,0.088,0.035,0.135v13.324h2.742c0.062,0,0.121,0.018,0.176,0.053s0.1,0.086,0.135,0.152
		s0.062,0.15,0.082,0.252S25.527,678.794,25.527,678.935z"/>
</g>
<circle class="st1" cx="56.727" cy="628.265" r="14.173"/>
<g>
	<path d="M55.433,634.934c0,0.148-0.012,0.273-0.035,0.375s-0.055,0.184-0.094,0.246s-0.084,0.107-0.135,0.135
		s-0.104,0.041-0.158,0.041h-7.922c-0.055,0-0.105-0.014-0.152-0.041s-0.092-0.072-0.135-0.135s-0.076-0.145-0.1-0.246
		s-0.035-0.227-0.035-0.375c0-0.141,0.012-0.262,0.035-0.363s0.053-0.186,0.088-0.252s0.078-0.117,0.129-0.152
		s0.107-0.053,0.17-0.053h3.164v-11.531l-2.93,1.746c-0.148,0.078-0.268,0.125-0.357,0.141s-0.162-0.002-0.217-0.053
		s-0.092-0.135-0.111-0.252s-0.029-0.266-0.029-0.445c0-0.133,0.006-0.246,0.018-0.34s0.029-0.172,0.053-0.234
		s0.057-0.117,0.1-0.164s0.1-0.094,0.17-0.141l3.492-2.238c0.031-0.023,0.07-0.043,0.117-0.059s0.105-0.031,0.176-0.047
		s0.152-0.025,0.246-0.029s0.211-0.006,0.352-0.006c0.188,0,0.344,0.008,0.469,0.023s0.223,0.037,0.293,0.064
		s0.117,0.062,0.141,0.105s0.035,0.088,0.035,0.135v13.324h2.742c0.062,0,0.121,0.018,0.176,0.053s0.1,0.086,0.135,0.152
		s0.062,0.15,0.082,0.252S55.433,634.793,55.433,634.934z"/>
	<path d="M67.562,634.864c0,0.141-0.01,0.266-0.029,0.375s-0.047,0.201-0.082,0.275s-0.082,0.129-0.141,0.164
		s-0.123,0.053-0.193,0.053h-8.379c-0.109,0-0.205-0.014-0.287-0.041s-0.152-0.072-0.211-0.135s-0.102-0.152-0.129-0.27
		s-0.041-0.262-0.041-0.434c0-0.156,0.006-0.293,0.018-0.41s0.038-0.221,0.079-0.311c0.04-0.09,0.09-0.18,0.151-0.27
		s0.139-0.186,0.235-0.287l3.031-3.117c0.7-0.719,1.262-1.363,1.685-1.934c0.422-0.57,0.749-1.09,0.978-1.559
		s0.38-0.895,0.453-1.277c0.073-0.383,0.109-0.742,0.109-1.078s-0.057-0.654-0.169-0.955s-0.276-0.564-0.49-0.791
		c-0.213-0.227-0.481-0.406-0.804-0.539c-0.322-0.133-0.693-0.199-1.112-0.199c-0.492,0-0.933,0.066-1.324,0.199
		c-0.391,0.133-0.734,0.277-1.028,0.434c-0.294,0.156-0.54,0.301-0.737,0.434s-0.345,0.199-0.441,0.199
		c-0.056,0-0.107-0.016-0.151-0.047c-0.044-0.031-0.081-0.082-0.108-0.152c-0.028-0.07-0.051-0.164-0.066-0.281
		c-0.017-0.117-0.024-0.258-0.024-0.422c0-0.117,0.004-0.219,0.012-0.305s0.021-0.16,0.041-0.223s0.045-0.121,0.076-0.176
		s0.094-0.123,0.188-0.205s0.256-0.193,0.486-0.334s0.52-0.279,0.867-0.416s0.73-0.252,1.148-0.346s0.857-0.141,1.318-0.141
		c0.734,0,1.377,0.104,1.928,0.311s1.008,0.49,1.371,0.85s0.635,0.777,0.814,1.254s0.27,0.984,0.27,1.523
		c0,0.484-0.043,0.967-0.129,1.447s-0.268,1-0.545,1.559s-0.678,1.18-1.201,1.863s-1.219,1.471-2.086,2.361l-2.402,2.508h6.598
		c0.062,0,0.123,0.018,0.182,0.053s0.109,0.088,0.152,0.158s0.074,0.158,0.094,0.264S67.562,634.723,67.562,634.864z"/>
</g>
<circle class="st1" cx="95.727" cy="560.267" r="14.173"/>
<g>
	<path d="M94.433,566.935c0,0.148-0.012,0.273-0.035,0.375s-0.055,0.184-0.094,0.246s-0.084,0.107-0.135,0.135
		s-0.104,0.041-0.158,0.041h-7.922c-0.055,0-0.105-0.014-0.152-0.041s-0.092-0.072-0.135-0.135s-0.076-0.145-0.1-0.246
		s-0.035-0.227-0.035-0.375c0-0.141,0.012-0.262,0.035-0.363s0.053-0.186,0.088-0.252s0.078-0.117,0.129-0.152
		s0.107-0.053,0.17-0.053h3.164v-11.531l-2.93,1.746c-0.148,0.078-0.268,0.125-0.357,0.141s-0.162-0.002-0.217-0.053
		s-0.092-0.135-0.111-0.252s-0.029-0.266-0.029-0.445c0-0.133,0.006-0.246,0.018-0.34s0.029-0.172,0.053-0.234
		s0.057-0.117,0.1-0.164s0.1-0.094,0.17-0.141l3.492-2.238c0.031-0.023,0.07-0.043,0.117-0.059s0.105-0.031,0.176-0.047
		s0.152-0.025,0.246-0.029s0.211-0.006,0.352-0.006c0.188,0,0.344,0.008,0.469,0.023s0.223,0.037,0.293,0.064
		s0.117,0.062,0.141,0.105s0.035,0.088,0.035,0.135v13.324h2.742c0.062,0,0.121,0.018,0.176,0.053s0.1,0.086,0.135,0.152
		s0.062,0.15,0.082,0.252S94.433,566.794,94.433,566.935z"/>
	<path d="M106.444,563.396c0,0.695-0.121,1.322-0.363,1.881s-0.59,1.037-1.043,1.436s-1.012,0.705-1.676,0.92
		s-1.414,0.322-2.25,0.322c-0.508,0-0.982-0.041-1.424-0.123s-0.834-0.18-1.178-0.293s-0.629-0.23-0.855-0.352
		s-0.369-0.209-0.428-0.264s-0.104-0.109-0.135-0.164s-0.059-0.121-0.082-0.199s-0.041-0.174-0.053-0.287s-0.018-0.252-0.018-0.416
		c0-0.281,0.028-0.477,0.084-0.586s0.136-0.164,0.241-0.164c0.072,0,0.214,0.062,0.427,0.188s0.485,0.26,0.817,0.404
		s0.721,0.279,1.166,0.404s0.94,0.188,1.485,0.188c0.529,0,0.994-0.066,1.395-0.199c0.4-0.133,0.737-0.32,1.01-0.562
		s0.477-0.529,0.613-0.861c0.136-0.332,0.204-0.693,0.204-1.084c0-0.43-0.087-0.816-0.26-1.16s-0.428-0.641-0.762-0.891
		c-0.335-0.25-0.747-0.441-1.235-0.574c-0.488-0.133-1.043-0.199-1.664-0.199h-1.489c-0.064,0-0.127-0.014-0.188-0.041
		s-0.113-0.072-0.157-0.135c-0.044-0.062-0.081-0.145-0.109-0.246c-0.028-0.102-0.042-0.234-0.042-0.398
		c0-0.148,0.012-0.271,0.035-0.369s0.057-0.176,0.1-0.234s0.092-0.102,0.146-0.129s0.117-0.041,0.188-0.041h1.324
		c0.516,0,0.979-0.066,1.389-0.199s0.758-0.324,1.043-0.574s0.504-0.549,0.656-0.896s0.229-0.736,0.229-1.166
		c0-0.312-0.051-0.611-0.152-0.896s-0.254-0.533-0.457-0.744s-0.463-0.377-0.779-0.498s-0.682-0.182-1.096-0.182
		c-0.453,0-0.869,0.068-1.248,0.205s-0.717,0.283-1.014,0.439s-0.543,0.303-0.738,0.439s-0.332,0.205-0.41,0.205
		c-0.055,0-0.104-0.01-0.146-0.029s-0.078-0.059-0.105-0.117s-0.047-0.141-0.059-0.246s-0.018-0.244-0.018-0.416
		c0-0.117,0.004-0.221,0.012-0.311s0.023-0.168,0.047-0.234s0.051-0.127,0.082-0.182s0.084-0.119,0.158-0.193
		s0.225-0.182,0.451-0.322s0.506-0.279,0.838-0.416s0.715-0.252,1.148-0.346s0.9-0.141,1.4-0.141c0.703,0,1.32,0.09,1.852,0.27
		s0.975,0.434,1.33,0.762s0.621,0.721,0.797,1.178s0.264,0.963,0.264,1.518c0,0.477-0.062,0.92-0.188,1.33s-0.309,0.773-0.551,1.09
		s-0.539,0.586-0.891,0.809s-0.758,0.377-1.219,0.463v0.023c0.523,0.055,1.002,0.186,1.436,0.393s0.807,0.467,1.119,0.779
		s0.557,0.678,0.732,1.096S106.444,562.919,106.444,563.396z"/>
</g>
<circle class="st1" cx="68.726" cy="523.266" r="14.173"/>
<g>
	<path d="M67.431,529.935c0,0.148-0.012,0.273-0.035,0.375s-0.055,0.184-0.094,0.246s-0.084,0.107-0.135,0.135
		s-0.104,0.041-0.158,0.041h-7.922c-0.055,0-0.105-0.014-0.152-0.041s-0.092-0.072-0.135-0.135s-0.076-0.145-0.1-0.246
		s-0.035-0.227-0.035-0.375c0-0.141,0.012-0.262,0.035-0.363s0.053-0.186,0.088-0.252s0.078-0.117,0.129-0.152
		s0.107-0.053,0.17-0.053h3.164v-11.531l-2.93,1.746c-0.148,0.078-0.268,0.125-0.357,0.141s-0.162-0.002-0.217-0.053
		s-0.092-0.135-0.111-0.252s-0.029-0.266-0.029-0.445c0-0.133,0.006-0.246,0.018-0.34s0.029-0.172,0.053-0.234
		s0.057-0.117,0.1-0.164s0.1-0.094,0.17-0.141l3.492-2.238c0.031-0.023,0.07-0.043,0.117-0.059s0.105-0.031,0.176-0.047
		s0.152-0.025,0.246-0.029s0.211-0.006,0.352-0.006c0.188,0,0.344,0.008,0.469,0.023s0.223,0.037,0.293,0.064
		s0.117,0.062,0.141,0.105s0.035,0.088,0.035,0.135v13.324h2.742c0.062,0,0.121,0.018,0.176,0.053s0.1,0.086,0.135,0.152
		s0.062,0.15,0.082,0.252S67.431,529.794,67.431,529.935z"/>
	<path d="M80.205,526.419c0,0.258-0.039,0.461-0.117,0.609s-0.188,0.223-0.328,0.223h-1.711v3.188c0,0.062-0.016,0.115-0.048,0.158
		s-0.088,0.08-0.169,0.111s-0.185,0.055-0.314,0.07s-0.293,0.023-0.495,0.023c-0.193,0-0.354-0.008-0.483-0.023
		s-0.231-0.039-0.308-0.07c-0.077-0.031-0.129-0.068-0.157-0.111s-0.042-0.096-0.042-0.158v-3.188h-6.204
		c-0.093,0-0.171-0.012-0.233-0.035c-0.062-0.023-0.118-0.066-0.168-0.129s-0.085-0.152-0.104-0.27
		c-0.019-0.117-0.029-0.27-0.029-0.457c0-0.148,0.004-0.281,0.012-0.398c0.007-0.117,0.023-0.225,0.046-0.322
		c0.023-0.098,0.054-0.191,0.093-0.281s0.085-0.186,0.139-0.287l5.405-9.211c0.04-0.062,0.098-0.117,0.173-0.164
		s0.173-0.086,0.292-0.117c0.12-0.031,0.267-0.053,0.442-0.064c0.175-0.012,0.382-0.018,0.621-0.018c0.263,0,0.492,0.01,0.687,0.029
		s0.353,0.045,0.472,0.076c0.12,0.031,0.211,0.072,0.275,0.123c0.064,0.051,0.096,0.111,0.096,0.182v9.68h1.711
		c0.133,0,0.24,0.068,0.322,0.205S80.205,526.138,80.205,526.419z M76.033,517.267H76.01l-4.875,8.32h4.898V517.267z"/>
</g>
<circle class="st1" cx="100.727" cy="373.267" r="14.173"/>
<g>
	<path d="M99.433,379.935c0,0.148-0.012,0.273-0.035,0.375s-0.055,0.184-0.094,0.246s-0.084,0.107-0.135,0.135
		s-0.104,0.041-0.158,0.041h-7.922c-0.055,0-0.105-0.014-0.152-0.041s-0.092-0.072-0.135-0.135s-0.076-0.145-0.1-0.246
		s-0.035-0.227-0.035-0.375c0-0.141,0.012-0.262,0.035-0.363s0.053-0.186,0.088-0.252s0.078-0.117,0.129-0.152
		s0.107-0.053,0.17-0.053h3.164v-11.531l-2.93,1.746c-0.148,0.078-0.268,0.125-0.357,0.141s-0.162-0.002-0.217-0.053
		s-0.092-0.135-0.111-0.252s-0.029-0.266-0.029-0.445c0-0.133,0.006-0.246,0.018-0.34s0.029-0.172,0.053-0.234
		s0.057-0.117,0.1-0.164s0.1-0.094,0.17-0.141l3.492-2.238c0.031-0.023,0.07-0.043,0.117-0.059s0.105-0.031,0.176-0.047
		s0.152-0.025,0.246-0.029s0.211-0.006,0.352-0.006c0.188,0,0.344,0.008,0.469,0.023s0.223,0.037,0.293,0.064
		s0.117,0.062,0.141,0.105s0.035,0.088,0.035,0.135v13.324h2.742c0.062,0,0.121,0.018,0.176,0.053s0.1,0.086,0.135,0.152
		s0.062,0.15,0.082,0.252S99.433,379.794,99.433,379.935z"/>
	<path d="M111.492,375.857c0,0.812-0.137,1.535-0.41,2.168s-0.66,1.166-1.16,1.6s-1.096,0.764-1.787,0.99s-1.459,0.34-2.303,0.34
		c-0.469,0-0.914-0.033-1.336-0.1s-0.797-0.148-1.125-0.246s-0.598-0.193-0.809-0.287s-0.346-0.168-0.404-0.223
		s-0.1-0.105-0.123-0.152s-0.045-0.104-0.064-0.17s-0.033-0.15-0.041-0.252s-0.012-0.223-0.012-0.363
		c0-0.133,0.006-0.252,0.018-0.357s0.033-0.191,0.064-0.258s0.068-0.115,0.111-0.146s0.092-0.047,0.146-0.047
		c0.078,0,0.199,0.049,0.363,0.146s0.385,0.203,0.662,0.316s0.621,0.221,1.031,0.322s0.896,0.152,1.459,0.152
		c0.523,0,1.004-0.062,1.441-0.188s0.814-0.32,1.131-0.586s0.564-0.6,0.744-1.002s0.27-0.893,0.27-1.471
		c0-0.484-0.076-0.912-0.229-1.283s-0.387-0.68-0.703-0.926s-0.717-0.43-1.201-0.551s-1.062-0.182-1.734-0.182
		c-0.477,0-0.887,0.023-1.23,0.07s-0.664,0.07-0.961,0.07c-0.219,0-0.375-0.051-0.469-0.152s-0.141-0.297-0.141-0.586v-6.176
		c0-0.258,0.061-0.449,0.182-0.574s0.295-0.188,0.521-0.188h6.715c0.062,0,0.123,0.018,0.182,0.053s0.107,0.088,0.146,0.158
		s0.068,0.16,0.088,0.27s0.029,0.238,0.029,0.387c0,0.281-0.038,0.5-0.112,0.656s-0.18,0.234-0.314,0.234h-5.421v4.254
		c0.263-0.039,0.532-0.062,0.807-0.07s0.593-0.012,0.954-0.012c0.835,0,1.565,0.104,2.19,0.311c0.625,0.207,1.146,0.5,1.564,0.879
		c0.417,0.379,0.734,0.838,0.948,1.377S111.492,375.201,111.492,375.857z"/>
</g>
<circle class="st1" cx="284.745" cy="473.267" r="14.173"/>
<g>
	<path d="M283.434,479.935c0,0.148-0.012,0.273-0.035,0.375s-0.055,0.184-0.094,0.246s-0.084,0.107-0.135,0.135
		s-0.104,0.041-0.158,0.041h-7.922c-0.055,0-0.105-0.014-0.152-0.041s-0.092-0.072-0.135-0.135s-0.076-0.145-0.1-0.246
		s-0.035-0.227-0.035-0.375c0-0.141,0.012-0.262,0.035-0.363s0.053-0.186,0.088-0.252s0.078-0.117,0.129-0.152
		s0.107-0.053,0.17-0.053h3.164v-11.531l-2.93,1.746c-0.148,0.078-0.268,0.125-0.357,0.141s-0.162-0.002-0.217-0.053
		s-0.092-0.135-0.111-0.252s-0.029-0.266-0.029-0.445c0-0.133,0.006-0.246,0.018-0.34s0.029-0.172,0.053-0.234
		s0.057-0.117,0.1-0.164s0.1-0.094,0.17-0.141l3.492-2.238c0.031-0.023,0.07-0.043,0.117-0.059s0.105-0.031,0.176-0.047
		s0.152-0.025,0.246-0.029s0.211-0.006,0.352-0.006c0.188,0,0.344,0.008,0.469,0.023s0.223,0.037,0.293,0.064
		s0.117,0.062,0.141,0.105s0.035,0.088,0.035,0.135v13.324h2.742c0.062,0,0.121,0.018,0.176,0.053s0.1,0.086,0.135,0.152
		s0.062,0.15,0.082,0.252S283.434,479.794,283.434,479.935z"/>
	<path d="M295.949,475.822c0,0.664-0.102,1.307-0.305,1.928s-0.516,1.168-0.938,1.641s-0.957,0.852-1.605,1.137
		s-1.414,0.428-2.297,0.428c-0.633,0-1.191-0.078-1.676-0.234s-0.906-0.379-1.266-0.668s-0.658-0.645-0.896-1.066
		s-0.43-0.902-0.574-1.441s-0.248-1.129-0.311-1.77s-0.094-1.328-0.094-2.062c0-0.648,0.035-1.305,0.105-1.969
		s0.195-1.305,0.375-1.922s0.424-1.197,0.732-1.74s0.695-1.016,1.16-1.418s1.021-0.721,1.67-0.955s1.402-0.352,2.262-0.352
		c0.289,0,0.582,0.018,0.879,0.053s0.57,0.082,0.82,0.141s0.461,0.123,0.633,0.193s0.285,0.127,0.34,0.17s0.096,0.09,0.123,0.141
		s0.049,0.105,0.064,0.164s0.027,0.125,0.035,0.199s0.012,0.166,0.012,0.275c0,0.141-0.002,0.262-0.006,0.363
		s-0.02,0.184-0.047,0.246s-0.062,0.109-0.105,0.141s-0.1,0.047-0.17,0.047c-0.086,0-0.203-0.027-0.352-0.082
		s-0.328-0.115-0.539-0.182s-0.467-0.127-0.768-0.182s-0.65-0.082-1.049-0.082c-0.727,0-1.352,0.148-1.875,0.445
		s-0.951,0.695-1.283,1.195s-0.578,1.08-0.738,1.74s-0.252,1.35-0.275,2.068c0.203-0.117,0.432-0.234,0.686-0.352
		s0.531-0.223,0.832-0.316s0.619-0.17,0.955-0.229s0.695-0.088,1.078-0.088c0.82,0,1.512,0.111,2.074,0.334s1.018,0.531,1.365,0.926
		s0.596,0.859,0.744,1.395S295.949,475.197,295.949,475.822z M293.91,476.009c0-0.453-0.045-0.865-0.135-1.236
		s-0.24-0.686-0.451-0.943s-0.492-0.457-0.844-0.598s-0.785-0.211-1.301-0.211c-0.289,0-0.578,0.025-0.867,0.076
		s-0.568,0.121-0.838,0.211s-0.527,0.195-0.773,0.316s-0.471,0.252-0.674,0.393c0,1.008,0.064,1.852,0.193,2.531
		s0.316,1.225,0.562,1.635s0.553,0.703,0.92,0.879s0.797,0.264,1.289,0.264c0.5,0,0.934-0.094,1.301-0.281s0.672-0.439,0.914-0.756
		s0.42-0.672,0.533-1.066S293.91,476.423,293.91,476.009z"/>
</g>
<g>
	<g>
		<line class="st6" x1="224.583" y1="384.953" x2="214.988" y2="359.232"/>
		<g>
			<g>
				<polygon class="st4" points="230.745,382.654 214.987,359.232 218.421,387.251 				"/>
			</g>
		</g>
	</g>
</g>
<g>
	<g>
		<line class="st6" x1="357.358" y1="300.8" x2="364.213" y2="327.383"/>
		<g>
			<g>
				<polygon class="st4" points="350.989,302.442 364.213,327.383 363.728,299.158 				"/>
			</g>
		</g>
	</g>
</g>
<g>
	<g>
		<line class="st6" x1="143.716" y1="665.532" x2="142.02" y2="692.932"/>
		<g>
			<g>
				<polygon class="st4" points="137.152,665.125 142.021,692.932 150.281,665.938 				"/>
			</g>
		</g>
	</g>
</g>
</svg>
