<?xml version="1.0" encoding="UTF-8" standalone="no"?>
<!-- Created with Inkscape (http://www.inkscape.org/) -->
<svg
   xmlns:dc="http://purl.org/dc/elements/1.1/"
   xmlns:cc="http://creativecommons.org/ns#"
   xmlns:rdf="http://www.w3.org/1999/02/22-rdf-syntax-ns#"
   xmlns:svg="http://www.w3.org/2000/svg"
   xmlns="http://www.w3.org/2000/svg"
   xmlns:xlink="http://www.w3.org/1999/xlink"
   xmlns:sodipodi="http://sodipodi.sourceforge.net/DTD/sodipodi-0.dtd"
   xmlns:inkscape="http://www.inkscape.org/namespaces/inkscape"
   width="1189.4849"
   height="604.737"
   id="svg4149"
   sodipodi:version="0.32"
   inkscape:version="0.46"
   version="1.0"
   sodipodi:docname="Indianapolis Motor Speedway - road course.svg"
   inkscape:output_extension="org.inkscape.output.svg.inkscape"
   inkscape:export-filename="D:\Images\Race Tracks\Indianapolis Motor Speedway - road course.png"
   inkscape:export-xdpi="200"
   inkscape:export-ydpi="200"
   style="display:inline">
  <defs
     id="defs4151">
    <pattern
       inkscape:collect="always"
       xlink:href="#pattern4166"
       id="pattern4792"
       patternTransform="matrix(0.444937,0,0,0.444937,1800.1588,-1266.8608)" />
    <pattern
       patternUnits="userSpaceOnUse"
       width="18.181098"
       height="18.137641"
       patternTransform="matrix(0.1737876,0,0,0.1737876,763.47719,1693.9071)"
       id="pattern4912">
      <g
         id="g4907"
         transform="translate(-1025.5348,-1215.2814)">
        <rect
           style="opacity:1;fill:#000000;fill-opacity:1;stroke:none;stroke-width:0.5;stroke-linecap:round;stroke-linejoin:round;stroke-miterlimit:4;stroke-dasharray:none;stroke-dashoffset:0;stroke-opacity:1"
           id="rect4899"
           width="18.172573"
           height="18.095789"
           x="1025.5348"
           y="1215.2814" />
        <rect
           style="opacity:1;fill:#ffffff;fill-opacity:1;stroke:none;stroke-width:0.5;stroke-linecap:round;stroke-linejoin:round;stroke-miterlimit:4;stroke-dasharray:none;stroke-dashoffset:0;stroke-opacity:1"
           id="rect4903"
           width="9.0746527"
           height="9.0746527"
           x="1025.5348"
           y="1215.2814" />
        <rect
           style="opacity:1;fill:#ffffff;fill-opacity:1;stroke:none;stroke-width:0.5;stroke-linecap:round;stroke-linejoin:round;stroke-miterlimit:4;stroke-dasharray:none;stroke-dashoffset:0;stroke-opacity:1"
           id="rect4905"
           width="9.0746527"
           height="9.0746527"
           x="1034.6412"
           y="1224.3444" />
      </g>
    </pattern>
    <pattern
       inkscape:collect="always"
       xlink:href="#pattern4912"
       id="pattern4166"
       patternTransform="matrix(0.444937,0,0,0.444937,-2176.4803,-1266.8703)" />
    <inkscape:perspective
       sodipodi:type="inkscape:persp3d"
       inkscape:vp_x="0 : 526.18109 : 1"
       inkscape:vp_y="0 : 1000 : 0"
       inkscape:vp_z="744.09448 : 526.18109 : 1"
       inkscape:persp3d-origin="372.04724 : 350.78739 : 1"
       id="perspective4157" />
    <inkscape:perspective
       id="perspective4203"
       inkscape:persp3d-origin="372.04724 : 350.78739 : 1"
       inkscape:vp_z="744.09448 : 526.18109 : 1"
       inkscape:vp_y="0 : 1000 : 0"
       inkscape:vp_x="0 : 526.18109 : 1"
       sodipodi:type="inkscape:persp3d" />
  </defs>
  <sodipodi:namedview
     id="base"
     pagecolor="#ffffff"
     bordercolor="#ffffff"
     borderopacity="0.0"
     inkscape:pageopacity="0.0"
     inkscape:pageshadow="0"
     inkscape:zoom="1.0609635"
     inkscape:cx="594.74243"
     inkscape:cy="302.3685"
     inkscape:document-units="px"
     inkscape:current-layer="layer1"
     showgrid="false"
     inkscape:window-width="1677"
     inkscape:window-height="1031"
     inkscape:window-x="1276"
     inkscape:window-y="-4" />
  <metadata
     id="metadata4154">
    <rdf:RDF>
      <cc:Work
         rdf:about="">
        <dc:format>image/svg+xml</dc:format>
        <dc:type
           rdf:resource="http://purl.org/dc/dcmitype/StillImage" />
        <cc:license
           rdf:resource="http://creativecommons.org/licenses/publicdomain/" />
        <dc:title>Indianapolis Motor Speedway Road Course Map</dc:title>
        <dc:date>6-24-2008</dc:date>
        <dc:creator>
          <cc:Agent>
            <dc:title>Will Pittenger</dc:title>
          </cc:Agent>
        </dc:creator>
        <dc:publisher>
          <cc:Agent>
            <dc:title>Will Pittenger</dc:title>
          </cc:Agent>
        </dc:publisher>
        <dc:subject>
          <rdf:Bag>
            <rdf:li>Indianpolis</rdf:li>
            <rdf:li>Speedway</rdf:li>
            <rdf:li>racing</rdf:li>
            <rdf:li>road course</rdf:li>
          </rdf:Bag>
        </dc:subject>
      </cc:Work>
      <cc:License
         rdf:about="http://creativecommons.org/licenses/publicdomain/">
        <cc:permits
           rdf:resource="http://creativecommons.org/ns#Reproduction" />
        <cc:permits
           rdf:resource="http://creativecommons.org/ns#Distribution" />
        <cc:permits
           rdf:resource="http://creativecommons.org/ns#DerivativeWorks" />
      </cc:License>
    </rdf:RDF>
  </metadata>
  <g
     inkscape:label="Track"
     inkscape:groupmode="layer"
     id="layer1"
     style="display:inline"
     transform="translate(-1250.3446,-768.22325)">
    <path
       style="fill:#000000;fill-opacity:1;fill-rule:evenodd;stroke:#ffffff;stroke-width:0.30000001;stroke-linecap:round;stroke-linejoin:round;stroke-miterlimit:4;stroke-dasharray:none;stroke-opacity:1"
       d="M 938.1875,24.84375 C 937.32024,24.846472 936.46137,24.880302 935.59375,24.90625 C 925.18225,25.217609 914.8501,27.1701 905.25,29.46875 C 897.06999,31.427319 889.7882,35.84388 883.5625,40.21875 C 880.53512,42.346171 877.9091,45.45353 875.6875,48.96875 C 873.46602,52.483971 871.57895,56.2263 871.65625,60.65625 C 872.40905,103.81611 880.0853,144.42104 883.9375,188 C 884.50982,194.47434 885.1692,200.76707 884.0625,205.5625 C 883.22812,209.17834 881.01095,212.56202 878.03125,215.3125 C 875.73055,217.43623 870.9539,218.91916 867.125,219.1875 C 863.28089,219.45688 857.8404,216.93674 854.625,213.21875 C 850.96869,208.99121 850.13115,203.29351 846.34375,195.71875 C 844.62335,192.27783 842.4311,187.1322 837.625,183.84375 C 835.07169,182.09678 832.5031,181.57733 829.8125,181.1875 C 827.12202,180.79767 824.5403,180.69901 822,181.1875 C 817.64039,182.02589 812.88005,183.49911 809.34375,187.625 C 806.08015,191.43246 803.65925,196.64562 803.78125,202.4375 C 804.26715,225.52153 809.5903,248.47415 809.8125,270.03125 C 809.85122,273.77854 808.3928,278.55655 807.1875,279.71875 C 803.22082,283.54384 796.39325,287.32115 791.34375,287.46875 C 656.16005,291.42144 519.4401,288.5107 383.375,290.8125 C 371.54719,291.0126 358.8081,291.4866 347,295.1875 C 338.31619,297.9093 329.89815,303.40315 323.96875,309.90625 C 319.26615,315.06394 317.6875,322.12805 317.6875,328.28125 C 317.68749,336.39904 319.98755,344.69985 323.09375,351.90625 C 327.56485,362.27924 334.75065,370.43525 339.03125,378.84375 C 342.21865,385.10474 345.4945,391.16405 346,396.21875 C 346.65289,402.74804 345.8542,410.155 344.0625,416.9375 C 342.42719,423.1287 336.98295,432.2129 334.65625,435 C 331.19885,439.14141 320.99805,446.6598 311.65625,449.9375 C 308.01315,451.2159 297.83275,451.2954 294.03125,450.25 C 288.80535,448.81281 282.83795,445.9547 279.84375,442.4375 C 266.77585,427.088 255.5796,409.26875 243.5,392.03125 C 230.84529,373.97354 218.77485,355.3363 206.03125,337.0625 C 204.25015,334.5086 202.34595,330.49885 198.15625,327.53125 C 194.11675,324.66984 188.82475,321.06695 182.15625,320.78125 C 147.94405,319.31504 112.64505,319.3382 78.34375,321.625 C 69.513847,322.21361 61.49715,326.00085 54.65625,329.71875 C 47.767551,333.46254 41.95445,338.79555 36.84375,343.90625 C 33.060551,347.68944 27.4877,352.29315 25.5625,359.46875 C 23.5716,366.88954 23.68465,375.6716 26.53125,383.3125 C 34.817151,405.5535 45.84655,427.6811 57.71875,448.1875 C 61.919251,455.4429 68.49455,460.26445 73.90625,464.59375 C 79.920047,469.40474 86.5314,473.21065 92.9375,476.71875 C 97.821,479.39304 103.6335,484.0259 111.5,484.8125 C 133.9695,487.0596 156.74685,484.75385 178.40625,485.65625 C 182.96365,485.84614 187.3227,486.272 189.4375,487.5 C 193.1594,489.66111 197.09195,494.1507 200.40625,498.625 C 202.03305,500.82111 203.3083,503.80105 203.625,506.28125 C 204.74429,515.04994 203.8815,524.8666 204.4375,535.0625 C 204.6877,539.64773 202.65505,547.0603 206.78125,554 C 210.81115,560.77751 217.63305,567.94985 226.40625,570.40625 C 241.59955,574.66047 258.3726,573.9862 273.5625,573.9375 C 431.52289,573.43133 589.50135,570.2823 747.40625,568.9375 C 817.53515,568.34043 887.84155,569.74335 958.15625,568.09375 C 982.71195,567.51767 1007.8072,566.43495 1032.1875,562.21875 C 1045.5912,559.90087 1058.4806,555.8097 1070.875,550.1875 C 1085.8827,543.38003 1102.1645,535.3091 1115.2812,524.5 C 1133.1974,509.73571 1149.3558,491.5569 1162.8125,472.75 C 1172.8835,458.67491 1181.6795,442.22855 1186.0625,425.28125 C 1190.474,408.22374 1189.7661,389.9253 1188.7188,372.9375 C 1184.7572,308.6713 1178.684,244.25215 1171.1875,180.3125 C 1169.2219,163.54671 1166.5208,145.95758 1160.0312,129.875 C 1153.29,113.16836 1143.858,96.09765 1131.625,82.59375 C 1121.0967,70.971591 1106.6034,63.42464 1093.625,56.5625 C 1082.1045,50.471161 1069.4681,45.49186 1056.5,42.75 C 1020.2275,35.080961 982.9974,28.49453 946,25.1875 C 943.39832,24.954947 940.78929,24.835583 938.1875,24.84375 z M 938.21875,34.875 C 940.55104,34.868266 942.8591,34.953713 945.125,35.15625 C 981.53939,38.411161 1018.3849,44.90869 1054.4375,52.53125 C 1066.2959,55.038461 1078.1053,59.67885 1088.9375,65.40625 C 1101.9044,72.262301 1115.3558,79.52866 1124.2188,89.3125 C 1135.3413,101.59046 1144.3722,117.7416 1150.7812,133.625 C 1156.6785,148.23965 1159.3152,164.96656 1161.25,181.46875 C 1165.5727,218.33838 1169.3891,255.35307 1172.625,292.40625 C 1173.9558,313.36665 1175.3723,334.31281 1174.4688,355.09375 C 1173.534,376.59494 1169.6386,398.3396 1164.3438,419.1875 C 1160.6459,433.7478 1154.6919,448.1527 1147.5,461.3125 C 1141.5016,472.2886 1133.4948,482.59545 1124.75,491.59375 C 1114.1048,502.54744 1102.4038,513.44635 1089.375,521.09375 C 1076.6179,528.58177 1061.8282,534.05235 1047.3125,537.09375 C 1032.3994,540.21837 1016.4673,539.36145 1000.9375,539.59375 C 903.54422,541.05107 803.8322,537.82875 708.625,542.15625 C 708.01919,542.18377 707.5096,542.4272 707.125,542.8125 C 706.74029,543.19793 706.47205,543.6933 706.28125,544.25 C 705.89965,545.36331 705.7654,546.74315 705.625,548.09375 C 705.48449,549.44437 705.35315,550.7531 705.03125,551.6875 C 704.87025,552.15483 704.6689,552.5195 704.4375,552.75 C 704.20622,552.98041 703.9434,553.1082 703.5625,553.125 C 592.08932,558.01891 475.99665,554.35125 362.28125,557.34375 C 330.45126,558.1814 298.72806,561.46577 267,563.96875 C 253.66793,564.0294 240.28129,563.91377 229.09375,560.78125 C 224.43945,559.47817 218.2618,553.76145 215.375,548.90625 C 214.20469,546.93817 214.76355,541.08125 214.40625,534.53125 C 213.90435,525.32927 214.8722,515.29015 213.5625,505.03125 C 212.9773,500.44694 211.0296,496.1868 208.4375,492.6875 C 204.8676,487.8682 200.4531,482.33665 194.4375,478.84375 C 189.08,475.73284 183.2656,475.84175 178.8125,475.65625 C 156.188,474.71364 133.6016,476.95395 112.5,474.84375 C 108.4225,474.43594 103.5181,471.12745 97.75,467.96875 C 91.491401,464.54154 85.37925,460.95965 80.15625,456.78125 C 74.598747,452.33524 69.1841,448.0396 66.375,443.1875 C 54.723401,423.0621 43.93735,401.3696 35.90625,379.8125 C 33.974151,374.6262 33.81585,367.2914 35.21875,362.0625 C 36.006451,359.1265 39.90005,354.97495 43.90625,350.96875 C 48.770951,346.10404 54.0146,341.4471 59.4375,338.5 C 65.822,335.03011 72.73995,332.01315 79.03125,331.59375 C 112.88155,329.33704 147.80435,329.32785 181.71875,330.78125 C 184.64485,330.90664 188.7275,333.1039 192.375,335.6875 C 193.82199,336.7125 195.55965,339.50585 197.84375,342.78125 C 210.45795,360.86944 222.5194,379.4945 235.3125,397.75 C 247.1934,414.70371 258.5397,432.8335 272.25,448.9375 C 277.45199,455.0481 285.0131,458.1255 291.375,459.875 C 298.19169,461.74951 307.73025,461.9148 314.96875,459.375 C 326.38915,455.36781 336.93335,447.88705 342.34375,441.40625 C 346.08095,436.92954 351.4597,428.1702 353.75,419.5 C 355.80479,411.72101 356.77305,403.26145 355.96875,395.21875 C 355.15565,387.08784 350.951,380.2318 347.9375,374.3125 C 342.87479,364.3678 335.89335,356.3175 332.28125,347.9375 C 329.59185,341.6982 327.6875,334.43905 327.6875,328.28125 C 327.68749,324.28344 329.3664,318.85915 331.375,316.65625 C 335.94419,311.64484 343.3455,306.8356 350,304.75 C 360.04879,301.60041 371.9231,301.0095 383.5625,300.8125 C 519.37079,298.515 656.13195,301.43145 791.65625,297.46875 C 800.69135,297.20464 808.7137,292.12435 814.125,286.90625 C 819.08589,282.12234 819.8689,275.4029 819.8125,269.9375 C 819.57462,246.8574 814.23675,223.85698 813.78125,202.21875 C 813.73435,199.99346 815.3853,195.9359 816.9375,194.125 C 818.57802,192.21104 820.1129,191.72347 823.875,191 C 824.49089,190.88156 826.5578,190.83047 828.375,191.09375 C 830.19209,191.35703 831.97635,192.09897 831.96875,192.09375 C 832.61915,192.53874 835.89785,197.17068 837.40625,200.1875 C 840.38265,206.14042 841.2972,213.0838 847.0625,219.75 C 852.19012,225.67892 859.81475,229.75016 867.84375,229.1875 C 873.26565,228.80753 879.84385,227.27156 884.84375,222.65625 C 888.99735,218.8221 892.4292,213.80694 893.8125,207.8125 C 895.48462,200.56725 894.45755,193.33115 893.90625,187.09375 C 889.99985,142.90204 882.39005,102.54127 881.65625,60.46875 C 881.64405,59.771861 882.4996,56.88429 884.125,54.3125 C 885.75029,51.740711 888.0687,49.28029 889.3125,48.40625 C 895.08472,44.350081 901.50025,40.64651 907.59375,39.1875 C 916.85015,36.971141 926.5132,35.19969 935.875,34.90625 C 936.65512,34.881798 937.44132,34.877245 938.21875,34.875 z M 1175.5312,327.5625 C 1176.7067,342.90223 1177.774,358.23693 1178.7188,373.5625 C 1179.7544,390.3612 1180.2775,407.69155 1176.375,422.78125 C 1172.4172,438.08444 1164.1802,453.627 1154.6562,466.9375 C 1141.6303,485.1426 1126.0178,502.70585 1108.9375,516.78125 C 1097.0943,526.54097 1081.5153,534.3649 1066.75,541.0625 C 1055.0676,546.36183 1042.9871,550.17885 1030.4688,552.34375 C 1006.9361,556.41337 982.3493,557.52105 957.9375,558.09375 C 887.91332,559.73657 817.6322,558.3387 747.3125,558.9375 C 591.50041,560.26446 435.71603,563.33656 280.03125,563.90625 C 307.45431,561.60957 334.84609,559.06659 362.3125,558.34375 C 475.98859,555.35227 592.0994,559.0212 703.625,554.125 C 704.23189,554.09831 704.7389,553.85345 705.125,553.46875 C 705.51099,553.08407 705.77705,552.58775 705.96875,552.03125 C 706.35225,550.91827 706.4845,549.5384 706.625,548.1875 C 706.76539,546.83673 706.89815,545.498 707.21875,544.5625 C 707.37905,544.09483 707.5822,543.7308 707.8125,543.5 C 708.04292,543.26911 708.3087,543.1422 708.6875,543.125 C 803.84052,538.79991 903.5117,542.05145 1000.9375,540.59375 C 1016.421,540.36207 1032.4125,541.2237 1047.5,538.0625 C 1062.1172,534.99993 1077.0408,529.4891 1089.9062,521.9375 C 1103.0668,514.21293 1114.7991,503.2914 1125.4688,492.3125 C 1134.2681,483.2582 1142.324,472.85335 1148.375,461.78125 C 1155.6027,448.55604 1161.5903,434.0937 1165.3125,419.4375 C 1170.6194,398.5421 1174.53,376.7173 1175.4688,355.125 C 1175.8672,345.96101 1175.8232,336.76126 1175.5312,327.5625 z"
       transform="translate(1250.3446,768.22325)"
       id="path4209" />
    <g
       id="g4796">
      <path
         transform="matrix(0.8125598,0,0,0.8125598,273.81302,251.74582)"
         d="M 1465.5566,1356.2091 A 23.14555,23.14555 0 1 1 1419.2655,1356.2091 A 23.14555,23.14555 0 1 1 1465.5566,1356.2091 z"
         sodipodi:ry="23.14555"
         sodipodi:rx="23.14555"
         sodipodi:cy="1356.2091"
         sodipodi:cx="1442.411"
         id="path4794"
         style="opacity:1;fill:#ffffff;fill-opacity:1;fill-rule:nonzero;stroke:#1b1b1b;stroke-width:1;stroke-linecap:round;stroke-linejoin:round;stroke-miterlimit:4;stroke-dasharray:none;stroke-dashoffset:0;stroke-opacity:1"
         sodipodi:type="arc" />
      <text
         id="text4724"
         y="1364.5593"
         x="1437.9364"
         style="font-size:32px;font-style:normal;font-weight:normal;fill:#000000;fill-opacity:1;stroke:none;stroke-width:1px;stroke-linecap:butt;stroke-linejoin:miter;stroke-opacity:1;font-family:Times New Roman"
         xml:space="preserve"><tspan
           y="1364.5593"
           x="1437.9364"
           id="tspan4726"
           sodipodi:role="line">1</tspan></text>
    </g>
    <g
       id="g4809">
      <path
         transform="matrix(0.8125598,0,0,0.8125598,249.19009,174.92227)"
         d="M 1465.5566,1356.2091 A 23.14555,23.14555 0 1 1 1419.2655,1356.2091 A 23.14555,23.14555 0 1 1 1465.5566,1356.2091 z"
         sodipodi:ry="23.14555"
         sodipodi:rx="23.14555"
         sodipodi:cy="1356.2091"
         sodipodi:cx="1442.411"
         id="path4807"
         style="opacity:1;fill:#ffffff;fill-opacity:1;fill-rule:nonzero;stroke:#1b1b1b;stroke-width:1;stroke-linecap:round;stroke-linejoin:round;stroke-miterlimit:4;stroke-dasharray:none;stroke-dashoffset:0;stroke-opacity:1;display:inline"
         sodipodi:type="arc" />
      <text
         id="text4728"
         y="1287.7357"
         x="1413.5557"
         style="font-size:32px;font-style:normal;font-weight:normal;fill:#000000;fill-opacity:1;stroke:none;stroke-width:1px;stroke-linecap:butt;stroke-linejoin:miter;stroke-opacity:1;font-family:Times New Roman"
         xml:space="preserve"><tspan
           y="1287.7357"
           x="1413.5557"
           id="tspan4730"
           sodipodi:role="line">2</tspan></text>
    </g>
    <g
       id="g4816">
      <path
         transform="matrix(0.8125598,0,0,0.8125598,132.96989,151.28426)"
         d="M 1465.5566,1356.2091 A 23.14555,23.14555 0 1 1 1419.2655,1356.2091 A 23.14555,23.14555 0 1 1 1465.5566,1356.2091 z"
         sodipodi:ry="23.14555"
         sodipodi:rx="23.14555"
         sodipodi:cy="1356.2091"
         sodipodi:cx="1442.411"
         id="path4814"
         style="opacity:1;fill:#ffffff;fill-opacity:1;fill-rule:nonzero;stroke:#1b1b1b;stroke-width:1;stroke-linecap:round;stroke-linejoin:round;stroke-miterlimit:4;stroke-dasharray:none;stroke-dashoffset:0;stroke-opacity:1;display:inline"
         sodipodi:type="arc" />
      <text
         id="text4732"
         y="1263.9103"
         x="1297.6948"
         style="font-size:32px;font-style:normal;font-weight:normal;fill:#000000;fill-opacity:1;stroke:none;stroke-width:1px;stroke-linecap:butt;stroke-linejoin:miter;stroke-opacity:1;font-family:Times New Roman"
         xml:space="preserve"><tspan
           y="1263.9103"
           x="1297.6948"
           id="tspan4734"
           sodipodi:role="line">3</tspan></text>
    </g>
    <g
       id="g4823">
      <path
         transform="matrix(0.8125598,0,0,0.8125598,97.512869,-13.196884)"
         d="M 1465.5566,1356.2091 A 23.14555,23.14555 0 1 1 1419.2655,1356.2091 A 23.14555,23.14555 0 1 1 1465.5566,1356.2091 z"
         sodipodi:ry="23.14555"
         sodipodi:rx="23.14555"
         sodipodi:cy="1356.2091"
         sodipodi:cx="1442.411"
         id="path4821"
         style="opacity:1;fill:#ffffff;fill-opacity:1;fill-rule:nonzero;stroke:#1b1b1b;stroke-width:1;stroke-linecap:round;stroke-linejoin:round;stroke-miterlimit:4;stroke-dasharray:none;stroke-dashoffset:0;stroke-opacity:1;display:inline"
         sodipodi:type="arc" />
      <text
         id="text4736"
         y="1099.6166"
         x="1261.8628"
         style="font-size:32px;font-style:normal;font-weight:normal;fill:#000000;fill-opacity:1;stroke:none;stroke-width:1px;stroke-linecap:butt;stroke-linejoin:miter;stroke-opacity:1;font-family:Times New Roman"
         xml:space="preserve"><tspan
           y="1099.6166"
           x="1261.8628"
           id="tspan4738"
           sodipodi:role="line">4</tspan></text>
    </g>
    <g
       id="g4830">
      <path
         transform="matrix(0.8125598,0,0,0.8125598,284.64711,-39.789643)"
         d="M 1465.5566,1356.2091 A 23.14555,23.14555 0 1 1 1419.2655,1356.2091 A 23.14555,23.14555 0 1 1 1465.5566,1356.2091 z"
         sodipodi:ry="23.14555"
         sodipodi:rx="23.14555"
         sodipodi:cy="1356.2091"
         sodipodi:cx="1442.411"
         id="path4828"
         style="opacity:1;fill:#ffffff;fill-opacity:1;fill-rule:nonzero;stroke:#1b1b1b;stroke-width:1;stroke-linecap:round;stroke-linejoin:round;stroke-miterlimit:4;stroke-dasharray:none;stroke-dashoffset:0;stroke-opacity:1;display:inline"
         sodipodi:type="arc" />
      <text
         id="text4740"
         y="1072.6176"
         x="1448.9813"
         style="font-size:32px;font-style:normal;font-weight:normal;fill:#000000;fill-opacity:1;stroke:none;stroke-width:1px;stroke-linecap:butt;stroke-linejoin:miter;stroke-opacity:1;font-family:Times New Roman"
         xml:space="preserve"><tspan
           y="1072.6176"
           x="1448.9813"
           id="tspan4742"
           sodipodi:role="line">5</tspan></text>
    </g>
    <g
       id="g4837"
       transform="translate(-24.622926,22.653092)">
      <path
         transform="matrix(0.8125598,0,0,0.8125598,440.264,120.75183)"
         d="M 1465.5566,1356.2091 A 23.14555,23.14555 0 1 1 1419.2655,1356.2091 A 23.14555,23.14555 0 1 1 1465.5566,1356.2091 z"
         sodipodi:ry="23.14555"
         sodipodi:rx="23.14555"
         sodipodi:cy="1356.2091"
         sodipodi:cx="1442.411"
         id="path4835"
         style="opacity:1;fill:#ffffff;fill-opacity:1;fill-rule:nonzero;stroke:#1b1b1b;stroke-width:1;stroke-linecap:round;stroke-linejoin:round;stroke-miterlimit:4;stroke-dasharray:none;stroke-dashoffset:0;stroke-opacity:1;display:inline"
         sodipodi:type="arc" />
      <text
         id="text4744"
         y="1233.3778"
         x="1604.2389"
         style="font-size:32px;font-style:normal;font-weight:normal;fill:#000000;fill-opacity:1;stroke:none;stroke-width:1px;stroke-linecap:butt;stroke-linejoin:miter;stroke-opacity:1;font-family:Times New Roman"
         xml:space="preserve"><tspan
           y="1233.3778"
           x="1604.2389"
           id="tspan4746"
           sodipodi:role="line">6</tspan></text>
    </g>
    <g
       id="g4844"
       transform="translate(1.9698341,36.441931)">
      <path
         transform="matrix(0.8125598,0,0,0.8125598,389.51612,-87.509338)"
         d="M 1465.5566,1356.2091 A 23.14555,23.14555 0 1 1 1419.2655,1356.2091 A 23.14555,23.14555 0 1 1 1465.5566,1356.2091 z"
         sodipodi:ry="23.14555"
         sodipodi:rx="23.14555"
         sodipodi:cy="1356.2091"
         sodipodi:cx="1442.411"
         id="path4842"
         style="opacity:1;fill:#ffffff;fill-opacity:1;fill-rule:nonzero;stroke:#1b1b1b;stroke-width:1;stroke-linecap:round;stroke-linejoin:round;stroke-miterlimit:4;stroke-dasharray:none;stroke-dashoffset:0;stroke-opacity:1;display:inline"
         sodipodi:type="arc" />
      <text
         id="text4748"
         y="1024.8667"
         x="1553.6785"
         style="font-size:32px;font-style:normal;font-weight:normal;fill:#000000;fill-opacity:1;stroke:none;stroke-width:1px;stroke-linecap:butt;stroke-linejoin:miter;stroke-opacity:1;font-family:Times New Roman"
         xml:space="preserve"><tspan
           y="1024.8667"
           x="1553.6785"
           id="tspan4750"
           sodipodi:role="line">7</tspan></text>
    </g>
    <g
       id="g4851"
       transform="translate(-10.348653,15.522979)">
      <path
         transform="matrix(0.8125598,0,0,0.8125598,918.38269,-35.150702)"
         d="M 1465.5566,1356.2091 A 23.14555,23.14555 0 1 1 1419.2655,1356.2091 A 23.14555,23.14555 0 1 1 1465.5566,1356.2091 z"
         sodipodi:ry="23.14555"
         sodipodi:rx="23.14555"
         sodipodi:cy="1356.2091"
         sodipodi:cx="1442.411"
         id="path4849"
         style="opacity:1;fill:#ffffff;fill-opacity:1;fill-rule:nonzero;stroke:#1b1b1b;stroke-width:1;stroke-linecap:round;stroke-linejoin:round;stroke-miterlimit:4;stroke-dasharray:none;stroke-dashoffset:0;stroke-opacity:1;display:inline"
         sodipodi:type="arc" />
      <text
         id="text4752"
         y="1077.4753"
         x="2082.3811"
         style="font-size:32px;font-style:normal;font-weight:normal;fill:#000000;fill-opacity:1;stroke:none;stroke-width:1px;stroke-linecap:butt;stroke-linejoin:miter;stroke-opacity:1;font-family:Times New Roman"
         xml:space="preserve"><tspan
           y="1077.4753"
           x="2082.3811"
           id="tspan4754"
           sodipodi:role="line">8</tspan></text>
    </g>
    <g
       id="g4858"
       transform="translate(-13.453249,30.011094)">
      <path
         transform="matrix(0.8125598,0,0,0.8125598,893.54593,-202.79888)"
         d="M 1465.5566,1356.2091 A 23.14555,23.14555 0 1 1 1419.2655,1356.2091 A 23.14555,23.14555 0 1 1 1465.5566,1356.2091 z"
         sodipodi:ry="23.14555"
         sodipodi:rx="23.14555"
         sodipodi:cy="1356.2091"
         sodipodi:cx="1442.411"
         id="path4856"
         style="opacity:1;fill:#ffffff;fill-opacity:1;fill-rule:nonzero;stroke:#1b1b1b;stroke-width:1;stroke-linecap:round;stroke-linejoin:round;stroke-miterlimit:4;stroke-dasharray:none;stroke-dashoffset:0;stroke-opacity:1;display:inline"
         sodipodi:type="arc" />
      <text
         id="text4756"
         y="909.7959"
         x="2057.6458"
         style="font-size:32px;font-style:normal;font-weight:normal;fill:#000000;fill-opacity:1;stroke:none;stroke-width:1px;stroke-linecap:butt;stroke-linejoin:miter;stroke-opacity:1;font-family:Times New Roman"
         xml:space="preserve"><tspan
           y="909.7959"
           x="2057.6458"
           id="tspan4758"
           sodipodi:role="line">9</tspan></text>
    </g>
    <g
       id="g4865"
       transform="translate(-20.697306,2.0697306)">
      <path
         transform="matrix(0.8125598,0,0,0.8125598,1008.416,-88.963696)"
         d="M 1465.5566,1356.2091 A 23.14555,23.14555 0 1 1 1419.2655,1356.2091 A 23.14555,23.14555 0 1 1 1465.5566,1356.2091 z"
         sodipodi:ry="23.14555"
         sodipodi:rx="23.14555"
         sodipodi:cy="1356.2091"
         sodipodi:cx="1442.411"
         id="path4863"
         style="opacity:1;fill:#ffffff;fill-opacity:1;fill-rule:nonzero;stroke:#1b1b1b;stroke-width:1;stroke-linecap:round;stroke-linejoin:round;stroke-miterlimit:4;stroke-dasharray:none;stroke-dashoffset:0;stroke-opacity:1;display:inline"
         sodipodi:type="arc" />
      <text
         id="text4760"
         y="1023.6623"
         x="2163.1565"
         style="font-size:32px;font-style:normal;font-weight:normal;fill:#000000;fill-opacity:1;stroke:none;stroke-width:1px;stroke-linecap:butt;stroke-linejoin:miter;stroke-opacity:1;font-family:Times New Roman"
         xml:space="preserve"><tspan
           y="1023.6623"
           x="2163.1565"
           id="tspan4762"
           sodipodi:role="line">10</tspan></text>
    </g>
    <g
       id="g4872"
       transform="translate(-3.1045959,30.011094)">
      <path
         transform="matrix(0.8125598,0,0,0.8125598,946.32405,-344.57542)"
         d="M 1465.5566,1356.2091 A 23.14555,23.14555 0 1 1 1419.2655,1356.2091 A 23.14555,23.14555 0 1 1 1465.5566,1356.2091 z"
         sodipodi:ry="23.14555"
         sodipodi:rx="23.14555"
         sodipodi:cy="1356.2091"
         sodipodi:cx="1442.411"
         id="path4870"
         style="opacity:1;fill:#ffffff;fill-opacity:1;fill-rule:nonzero;stroke:#1b1b1b;stroke-width:1;stroke-linecap:round;stroke-linejoin:round;stroke-miterlimit:4;stroke-dasharray:none;stroke-dashoffset:0;stroke-opacity:1;display:inline"
         sodipodi:type="arc" />
      <text
         id="text4764"
         y="768.2381"
         x="2102.4473"
         style="font-size:32px;font-style:normal;font-weight:normal;fill:#000000;fill-opacity:1;stroke:none;stroke-width:1px;stroke-linecap:butt;stroke-linejoin:miter;stroke-opacity:1;font-family:Times New Roman"
         xml:space="preserve"><tspan
           y="768.2381"
           x="2102.4473"
           id="tspan4766"
           sodipodi:role="line">11</tspan></text>
    </g>
    <g
       id="g4879"
       transform="translate(-14.488114,27.941363)">
      <path
         transform="matrix(0.8125598,0,0,0.8125598,1243.3304,-303.18081)"
         d="M 1465.5566,1356.2091 A 23.14555,23.14555 0 1 1 1419.2655,1356.2091 A 23.14555,23.14555 0 1 1 1465.5566,1356.2091 z"
         sodipodi:ry="23.14555"
         sodipodi:rx="23.14555"
         sodipodi:cy="1356.2091"
         sodipodi:cx="1442.411"
         id="path4877"
         style="opacity:1;fill:#ffffff;fill-opacity:1;fill-rule:nonzero;stroke:#1b1b1b;stroke-width:1;stroke-linecap:round;stroke-linejoin:round;stroke-miterlimit:4;stroke-dasharray:none;stroke-dashoffset:0;stroke-opacity:1;display:inline"
         sodipodi:type="arc" />
      <text
         id="text4768"
         y="809.63269"
         x="2398.1646"
         style="font-size:32px;font-style:normal;font-weight:normal;fill:#000000;fill-opacity:1;stroke:none;stroke-width:1px;stroke-linecap:butt;stroke-linejoin:miter;stroke-opacity:1;font-family:Times New Roman"
         xml:space="preserve"><tspan
           y="809.63269"
           x="2398.1646"
           id="tspan4770"
           sodipodi:role="line">12</tspan></text>
    </g>
    <g
       id="g4886"
       transform="translate(-32.080824,20.697306)">
      <path
         transform="matrix(0.8125598,0,0,0.8125598,1275.4112,165.61316)"
         d="M 1465.5566,1356.2091 A 23.14555,23.14555 0 1 1 1419.2655,1356.2091 A 23.14555,23.14555 0 1 1 1465.5566,1356.2091 z"
         sodipodi:ry="23.14555"
         sodipodi:rx="23.14555"
         sodipodi:cy="1356.2091"
         sodipodi:cx="1442.411"
         id="path4884"
         style="opacity:1;fill:#ffffff;fill-opacity:1;fill-rule:nonzero;stroke:#1b1b1b;stroke-width:1;stroke-linecap:round;stroke-linejoin:round;stroke-miterlimit:4;stroke-dasharray:none;stroke-dashoffset:0;stroke-opacity:1;display:inline"
         sodipodi:type="arc" />
      <text
         id="text4772"
         y="1278.2391"
         x="2430.9094"
         style="font-size:32px;font-style:normal;font-weight:normal;fill:#000000;fill-opacity:1;stroke:none;stroke-width:1px;stroke-linecap:butt;stroke-linejoin:miter;stroke-opacity:1;font-family:Times New Roman"
         xml:space="preserve"><tspan
           y="1278.2391"
           x="2430.9094"
           id="tspan4774"
           sodipodi:role="line">13</tspan></text>
    </g>
    <path
       sodipodi:type="star"
       style="opacity:1;fill:#ff0000;fill-opacity:1;stroke:#ffffff;stroke-width:1;stroke-linecap:round;stroke-linejoin:miter;stroke-miterlimit:4;stroke-dasharray:none;stroke-dashoffset:0;stroke-opacity:1;display:inline"
       id="path3463"
       sodipodi:sides="3"
       sodipodi:cx="1683.6964"
       sodipodi:cy="1391.4535"
       sodipodi:r1="14.134234"
       sodipodi:r2="7.0671172"
       sodipodi:arg1="0.52359878"
       sodipodi:arg2="1.5707963"
       inkscape:flatsided="true"
       inkscape:rounded="0"
       inkscape:randomized="0"
       d="M 1695.937,1398.5206 L 1671.4558,1398.5206 L 1683.6964,1377.3193 L 1695.937,1398.5206 z"
       transform="matrix(0,0.5534491,1.6774585,0,-322.16294,417.99755)" />
    <rect
       style="opacity:1;fill:url(#pattern4792);fill-opacity:1;stroke:#000000;stroke-width:0.82265073;stroke-linecap:round;stroke-linejoin:round;stroke-miterlimit:4;stroke-dasharray:none;stroke-dashoffset:0;stroke-opacity:1;display:inline"
       id="rect3457"
       width="12.740053"
       height="53.4804"
       x="1970.0654"
       y="-1353.0085"
       transform="matrix(0.999999,-1.4065773e-3,-1.4065773e-3,-0.999999,0,0)"
       ry="0" />
  </g>
</svg>
