<?xml version="1.0" encoding="UTF-8" standalone="no"?>
<svg xmlns="http://www.w3.org/2000/svg" xmlns:xlink="http://www.w3.org/1999/xlink" clip-rule="evenodd" stroke-miterlimit="10" viewBox="0 0 453.54 623.62">
    <desc>SVG generated by Lineform</desc>
    <defs/>
    <g>
        <path d="M 121.22 462.53 L 106.94 487.64 C 103.44 493.98 106.57 497.66 112.03 498.55 C 114.36 498.92 119.48 499.92 124.14 500.97 C 134.57 503.32 133.92 509.54 133.09 511.45 C 129.41 519.90 123.70 529.17 119.24 537.24 C 109.30 555.27 102.87 566.25 93.18 584.71 C 92.49 586.03 90.56 585.63 89.26 584.89 C 70.33 574.20 61.93 569.84 46.11 560.80 C 45.44 560.40 43.31 559.41 44.25 557.56 C 51.71 542.83 58.13 530.53 65.19 516.12 C 69.15 508.02 70.16 498.72 71.50 489.82 C 72.93 480.28 72.12 470.66 73.03 461.06 C 73.57 455.35 79.52 441.19 81.87 431.08 C 83.00 426.20 83.17 421.06 82.63 415.75 C 82.26 412.17 81.02 412.63 78.54 412.33 C 76.64 412.10 72.81 410.68 74.70 405.67 C 76.70 400.39 78.90 396.01 82.36 390.68 C 87.94 382.08 97.27 376.73 104.48 369.45 C 108.03 365.86 110.63 361.64 113.35 357.19 C 117.24 350.82 120.68 344.44 123.07 337.19 C 125.45 329.95 126.58 322.68 126.67 314.66 C 126.74 309.14 126.51 305.34 127.79 298.38 C 128.44 294.91 130.55 291.21 132.19 288.09 C 134.91 282.93 137.90 278.50 139.69 273.00 C 140.88 269.34 141.96 265.36 141.61 261.55 C 141.28 257.96 141.10 254.88 141.40 250.82 C 141.67 247.02 142.41 243.80 143.67 240.00 C 144.88 236.37 147.51 232.34 149.95 229.05 C 168.24 204.40 187.35 177.59 205.73 152.84 C 207.38 150.62 208.57 149.46 210.93 150.88 C 226.70 160.38 239.94 168.44 255.89 177.97 C 260.99 181.01 270.38 181.01 273.59 180.26 C 279.67 178.83 284.65 176.83 289.30 172.65 C 303.64 159.75 324.38 140.57 330.05 134.04 C 337.88 125.03 349.35 108.60 353.16 102.90 C 363.22 87.86 369.93 75.52 379.22 59.99 C 381.93 55.47 384.92 51.13 387.84 46.74 C 389.37 44.44 391.64 41.42 394.21 40.40 C 398.59 38.64 400.41 38.22 406.29 37.93 C 410.35 37.73 412.25 41.87 410.27 45.41 C 407.19 50.91 405.14 54.72 401.40 59.78 C 393.72 70.17 379.51 87.33 376.72 91.77 C 369.85 102.71 366.74 108.09 361.21 116.98 C 354.31 128.08 347.95 138.26 340.75 149.17 C 337.53 154.06 326.78 166.38 319.72 174.24 C 316.07 178.29 308.72 185.78 303.93 188.47 C 280.89 201.44 261.67 211.24 238.16 224.10 C 217.75 235.27 213.66 239.39 211.78 242.55 C 190.31 278.62 176.61 298.92 156.35 336.14 C 153.22 341.88 148.92 350.22 145.61 354.48 C 144.49 355.93 147.58 357.90 149.28 358.60 C 159.08 362.61 161.14 363.21 173.37 369.29 C 175.22 370.21 175.68 372.38 174.51 374.43 Z M 134.50 439.79 " stroke="#000000" stroke-width="8.24" fill="none"/>
        <path d="M 144.35 356.98 C 148.04 360.65 148.74 361.96 152.81 364.93 C 156.28 367.47 167.30 371.83 165.09 375.51 C 91.26 498.70 113.40 461.25 87.51 504.63 C 83.38 511.55 91.04 513.25 95.48 512.51 C 105.58 510.81 108.07 510.61 121.37 508.07 C 122.96 507.77 125.28 509.35 125.29 512.13 C 125.30 516.88 119.62 530.33 116.12 537.55 " stroke="#000000" stroke-width="3.18" fill="none"/>
        <path d="M 167.30 426.64 L 178.91 434.06 L 159.73 451.58 Z M 167.30 426.64 " fill-rule="non-zero" fill="#FF0000"/>
        <g>
            <path d="M 124.47 434.76 L 132.13 439.41 L 127.49 447.07 L 119.83 442.42 Z M 124.47 434.76 " fill-rule="non-zero" fill="#000000"/>
            <path d="M 119.83 442.42 L 127.49 447.07 L 122.84 454.73 L 115.18 450.08 Z M 119.83 442.42 " fill-rule="non-zero" fill="#FFFFFF"/>
            <path d="M 115.18 450.08 L 122.84 454.73 L 118.20 462.39 L 110.54 457.74 Z M 115.18 450.08 " fill-rule="non-zero" fill="#000000"/>
            <path d="M 132.06 439.36 L 139.72 444.01 L 135.08 451.67 L 127.42 447.02 Z M 132.06 439.36 " fill-rule="non-zero" fill="#FFFFFF"/>
            <path d="M 122.78 454.68 L 130.44 459.33 L 125.80 466.99 L 118.14 462.34 Z M 122.78 454.68 " fill-rule="non-zero" fill="#FFFFFF"/>
            <path d="M 127.35 446.98 L 135.01 451.62 L 130.37 459.28 L 122.71 454.64 Z M 127.35 446.98 " fill-rule="non-zero" fill="#000000"/>
            <path d="M 139.65 443.96 L 147.31 448.60 L 142.67 456.27 L 135.01 451.62 Z M 139.65 443.96 " fill-rule="non-zero" fill="#000000"/>
            <path d="M 135.01 451.62 L 142.67 456.26 L 138.03 463.92 L 130.37 459.28 Z M 135.01 451.62 " fill-rule="non-zero" fill="#FFFFFF"/>
            <path d="M 130.37 459.28 L 138.03 463.93 L 133.39 471.59 L 125.73 466.94 Z M 130.37 459.28 " fill-rule="non-zero" fill="#000000"/>
            <path d="M 147.24 448.56 L 154.90 453.20 L 150.26 460.86 L 142.60 456.22 Z M 147.24 448.56 " fill-rule="non-zero" fill="#FFFFFF"/>
            <path d="M 137.96 463.88 L 145.62 468.52 L 140.98 476.18 L 133.32 471.54 Z M 137.96 463.88 " fill-rule="non-zero" fill="#FFFFFF"/>
            <path d="M 142.54 456.18 L 150.20 460.82 L 145.56 468.48 L 137.90 463.84 Z M 142.54 456.18 " fill-rule="non-zero" fill="#000000"/>
            <path d="M 154.87 452.81 L 162.53 457.45 L 157.89 465.11 L 150.23 460.47 Z M 154.87 452.81 " fill-rule="non-zero" fill="#000000"/>
            <path d="M 150.23 460.47 L 157.89 465.11 L 153.24 472.77 L 145.58 468.13 Z M 150.23 460.47 " fill-rule="non-zero" fill="#FFFFFF"/>
            <path d="M 145.58 468.13 L 153.24 472.77 L 148.60 480.43 L 140.94 475.79 Z M 145.58 468.13 " fill-rule="non-zero" fill="#000000"/>
        </g>
        <ellipse cx="126.74" cy="484.43" rx="10.50" ry="10.50" fill="#FFFFFF" stroke="#000000" stroke-width="0.61"/>
        <text xml:space="preserve" font-family="Liberation Sans" font-size="10.00" transform="matrix(0.981308, 0, 0, 0.981308, 0, 0)">
            <tspan x="126.16" y="497.37">1</tspan>
        </text>
        <ellipse cx="152.21" cy="508.44" rx="10.50" ry="10.50" fill="#FFFFFF" stroke="#000000" stroke-width="0.61"/>
        <text xml:space="preserve" font-family="Liberation Sans" font-size="10.00" transform="matrix(0.981308, 0, 0, 0.981308, 0, 0)">
            <tspan x="152.11" y="521.84">2</tspan>
        </text>
        <ellipse cx="99.88" cy="601.01" rx="10.50" ry="10.50" fill="#FFFFFF" stroke="#000000" stroke-width="0.61"/>
        <text xml:space="preserve" font-family="Liberation Sans" font-size="10.00" transform="matrix(0.981308, 0, 0, 0.981308, 0, 0)">
            <tspan x="98.78" y="616.18">3</tspan>
        </text>
        <ellipse cx="26.20" cy="567.69" rx="10.50" ry="10.50" fill="#FFFFFF" stroke="#000000" stroke-width="0.61"/>
        <text xml:space="preserve" font-family="Liberation Sans" font-size="10.00" transform="matrix(0.981308, 0, 0, 0.981308, 0, 0)">
            <tspan x="23.70" y="582.21">4</tspan>
        </text>
        <ellipse cx="98.73" cy="407.18" rx="10.50" ry="10.50" fill="#FFFFFF" stroke="#000000" stroke-width="0.61"/>
        <text xml:space="preserve" font-family="Liberation Sans" font-size="10.00" transform="matrix(0.981308, 0, 0, 0.981308, 0, 0)">
            <tspan x="97.61" y="418.65">5</tspan>
        </text>
        <ellipse cx="52.01" cy="409.97" rx="10.50" ry="10.50" fill="#FFFFFF" stroke="#000000" stroke-width="0.61"/>
        <text xml:space="preserve" font-family="Liberation Sans" font-size="10.00" transform="matrix(0.981308, 0, 0, 0.981308, 0, 0)">
            <tspan x="50.00" y="421.49">6</tspan>
        </text>
        <ellipse cx="79.59" cy="366.17" rx="10.50" ry="10.50" fill="#FFFFFF" stroke="#000000" stroke-width="0.61"/>
        <text xml:space="preserve" font-family="Liberation Sans" font-size="10.00" transform="matrix(0.981308, 0, 0, 0.981308, 0, 0)">
            <tspan x="78.10" y="376.86">7</tspan>
        </text>
        <ellipse cx="104.15" cy="336.89" rx="10.50" ry="10.50" fill="#FFFFFF" stroke="#000000" stroke-width="0.61"/>
        <text xml:space="preserve" font-family="Liberation Sans" font-size="10.00" transform="matrix(0.981308, 0, 0, 0.981308, 0, 0)">
            <tspan x="103.13" y="347.02">8</tspan>
        </text>
        <ellipse cx="121.67" cy="264.97" rx="10.50" ry="10.50" fill="#FFFFFF" stroke="#000000" stroke-width="0.61"/>
        <text xml:space="preserve" font-family="Liberation Sans" font-size="10.00" transform="matrix(0.981308, 0, 0, 0.981308, 0, 0)">
            <tspan x="117.98" y="273.73">10</tspan>
        </text>
        <ellipse cx="108.54" cy="295.72" rx="10.50" ry="10.50" fill="#FFFFFF" stroke="#000000" stroke-width="0.61"/>
        <text xml:space="preserve" font-family="Liberation Sans" font-size="10.00" transform="matrix(0.981308, 0, 0, 0.981308, 0, 0)">
            <tspan x="107.61" y="305.07">9</tspan>
        </text>
        <ellipse cx="126.74" cy="231.43" rx="10.50" ry="10.50" fill="#FFFFFF" stroke="#000000" stroke-width="0.61"/>
        <text xml:space="preserve" font-family="Liberation Sans" font-size="10.00" transform="matrix(0.981308, 0, 0, 0.981308, 0, 0)">
            <tspan x="123.16" y="239.55">11</tspan>
        </text>
        <ellipse cx="199.35" cy="131.97" rx="10.50" ry="10.50" fill="#FFFFFF" stroke="#000000" stroke-width="0.61"/>
        <text xml:space="preserve" font-family="Liberation Sans" font-size="10.00" transform="matrix(0.981308, 0, 0, 0.981308, 0, 0)">
            <tspan x="197.15" y="138.20">12</tspan>
        </text>
        <ellipse cx="269.88" cy="161.97" rx="10.50" ry="10.50" fill="#FFFFFF" stroke="#000000" stroke-width="0.61"/>
        <text xml:space="preserve" font-family="Liberation Sans" font-size="10.00" transform="matrix(0.981308, 0, 0, 0.981308, 0, 0)">
            <tspan x="269.02" y="168.77">13</tspan>
        </text>
        <ellipse cx="379.74" cy="23.43" rx="10.50" ry="10.50" fill="#FFFFFF" stroke="#000000" stroke-width="0.61"/>
        <text xml:space="preserve" font-family="Liberation Sans" font-size="10.00" transform="matrix(0.981308, 0, 0, 0.981308, 0, 0)">
            <tspan x="380.98" y="27.59">14</tspan>
        </text>
        <ellipse cx="422.14" cy="25.16" rx="10.50" ry="10.50" fill="#FFFFFF" stroke="#000000" stroke-width="0.61"/>
        <text xml:space="preserve" font-family="Liberation Sans" font-size="10.00" transform="matrix(0.981308, 0, 0, 0.981308, 0, 0)">
            <tspan x="424.18" y="29.35">15</tspan>
        </text>
        <ellipse cx="321.74" cy="198.43" rx="10.50" ry="10.50" fill="#FFFFFF" stroke="#000000" stroke-width="0.61"/>
        <text xml:space="preserve" font-family="Liberation Sans" font-size="10.00" transform="matrix(0.981308, 0, 0, 0.981308, 0, 0)">
            <tspan x="321.87" y="205.92">16</tspan>
        </text>
        <ellipse cx="205.74" cy="225.43" rx="10.50" ry="10.50" fill="#FFFFFF" stroke="#000000" stroke-width="0.61"/>
        <text xml:space="preserve" font-family="Liberation Sans" font-size="10.00" transform="matrix(0.981308, 0, 0, 0.981308, 0, 0)">
            <tspan x="203.66" y="233.44">17</tspan>
        </text>
        <ellipse cx="169.41" cy="346.31" rx="10.50" ry="10.50" fill="#FFFFFF" stroke="#000000" stroke-width="0.61"/>
        <text xml:space="preserve" font-family="Liberation Sans" font-size="10.00" transform="matrix(0.981308, 0, 0, 0.981308, 0, 0)">
            <tspan x="166.63" y="356.63">18</tspan>
        </text>
        <ellipse cx="194.74" cy="366.43" rx="10.50" ry="10.50" fill="#FFFFFF" stroke="#000000" stroke-width="0.61"/>
        <text xml:space="preserve" font-family="Liberation Sans" font-size="10.00" transform="matrix(0.981308, 0, 0, 0.981308, 0, 0)">
            <tspan x="192.45" y="377.12">19</tspan>
        </text>
        <ellipse cx="105.67" cy="493.55" rx="3.63" ry="3.63" fill="#FFFFFF" stroke="#000000" stroke-width="0.81"/>
        <ellipse cx="133.32" cy="508.41" rx="3.63" ry="3.63" fill="#FFFFFF" stroke="#000000" stroke-width="0.81"/>
        <ellipse cx="91.67" cy="585.11" rx="3.63" ry="3.63" fill="#FFFFFF" stroke="#000000" stroke-width="0.81"/>
        <ellipse cx="44.54" cy="558.47" rx="3.63" ry="3.63" fill="#FFFFFF" stroke="#000000" stroke-width="0.81"/>
        <ellipse cx="82.32" cy="413.76" rx="3.63" ry="3.63" fill="#FFFFFF" stroke="#000000" stroke-width="0.81"/>
        <ellipse cx="74.19" cy="408.55" rx="3.63" ry="3.63" fill="#FFFFFF" stroke="#000000" stroke-width="0.81"/>
        <ellipse cx="89.75" cy="382.11" rx="3.63" ry="3.63" fill="#FFFFFF" stroke="#000000" stroke-width="0.81"/>
        <ellipse cx="120.89" cy="342.55" rx="3.63" ry="3.63" fill="#FFFFFF" stroke="#000000" stroke-width="0.81"/>
        <ellipse cx="128.67" cy="295.55" rx="3.63" ry="3.63" fill="#FFFFFF" stroke="#000000" stroke-width="0.81"/>
        <ellipse cx="141.54" cy="264.76" rx="3.63" ry="3.63" fill="#FFFFFF" stroke="#000000" stroke-width="0.81"/>
        <ellipse cx="144.54" cy="237.55" rx="3.63" ry="3.63" fill="#FFFFFF" stroke="#000000" stroke-width="0.81"/>
        <ellipse cx="208.67" cy="150.55" rx="3.63" ry="3.63" fill="#FFFFFF" stroke="#000000" stroke-width="0.81"/>
        <ellipse cx="271.67" cy="180.55" rx="3.63" ry="3.63" fill="#FFFFFF" stroke="#000000" stroke-width="0.81"/>
        <ellipse cx="392.54" cy="41.33" rx="3.63" ry="3.63" fill="#FFFFFF" stroke="#000000" stroke-width="0.81"/>
        <ellipse cx="410.59" cy="40.47" rx="3.63" ry="3.63" fill="#FFFFFF" stroke="#000000" stroke-width="0.81"/>
        <ellipse cx="307.46" cy="185.90" rx="3.63" ry="3.63" fill="#FFFFFF" stroke="#000000" stroke-width="0.81"/>
        <ellipse cx="213.89" cy="239.55" rx="3.63" ry="3.63" fill="#FFFFFF" stroke="#000000" stroke-width="0.81"/>
        <ellipse cx="146.32" cy="355.11" rx="3.63" ry="3.63" fill="#FFFFFF" stroke="#000000" stroke-width="0.81"/>
        <ellipse cx="174.54" cy="371.55" rx="3.63" ry="3.63" fill="#FFFFFF" stroke="#000000" stroke-width="0.81"/>
    </g>
</svg>