<?xml version="1.0" encoding="UTF-8" standalone="no"?>
<!-- Created with Inkscape (http://www.inkscape.org/) -->
<svg
   xmlns:dc="http://purl.org/dc/elements/1.1/"
   xmlns:cc="http://creativecommons.org/ns#"
   xmlns:rdf="http://www.w3.org/1999/02/22-rdf-syntax-ns#"
   xmlns:svg="http://www.w3.org/2000/svg"
   xmlns="http://www.w3.org/2000/svg"
   xmlns:xlink="http://www.w3.org/1999/xlink"
   xmlns:sodipodi="http://sodipodi.sourceforge.net/DTD/sodipodi-0.dtd"
   xmlns:inkscape="http://www.inkscape.org/namespaces/inkscape"
   width="596.55792"
   height="851.51367"
   id="svg2383"
   sodipodi:version="0.32"
   inkscape:version="0.46"
   sodipodi:docname="Circuit Mont-Tremblant Track Map.svg"
   inkscape:output_extension="org.inkscape.output.svg.inkscape"
   inkscape:export-filename="D:\Images\Race Tracks\Circuit Mont-Tremblant Track Map.png"
   inkscape:export-xdpi="200"
   inkscape:export-ydpi="200"
   version="1.0">
  <defs
     id="defs2385">
    <pattern
       inkscape:collect="always"
       xlink:href="#pattern4912"
       id="pattern4166"
       patternTransform="matrix(0.1737876,0,0,0.1737876,768.88273,1694.793)" />
    <pattern
       patternUnits="userSpaceOnUse"
       width="18.181098"
       height="18.137641"
       patternTransform="matrix(0.1737876,0,0,0.1737876,763.47719,1693.9071)"
       id="pattern4912">
      <g
         id="g4907"
         transform="translate(-1025.5348,-1215.2814)">
        <rect
           style="opacity:1;fill:#000000;fill-opacity:1;stroke:none;stroke-width:0.5;stroke-linecap:round;stroke-linejoin:round;stroke-miterlimit:4;stroke-dasharray:none;stroke-dashoffset:0;stroke-opacity:1"
           id="rect4899"
           width="18.172573"
           height="18.095789"
           x="1025.5348"
           y="1215.2814" />
        <rect
           style="opacity:1;fill:#ffffff;fill-opacity:1;stroke:none;stroke-width:0.5;stroke-linecap:round;stroke-linejoin:round;stroke-miterlimit:4;stroke-dasharray:none;stroke-dashoffset:0;stroke-opacity:1"
           id="rect4903"
           width="9.0746527"
           height="9.0746527"
           x="1025.5348"
           y="1215.2814" />
        <rect
           style="opacity:1;fill:#ffffff;fill-opacity:1;stroke:none;stroke-width:0.5;stroke-linecap:round;stroke-linejoin:round;stroke-miterlimit:4;stroke-dasharray:none;stroke-dashoffset:0;stroke-opacity:1"
           id="rect4905"
           width="9.0746527"
           height="9.0746527"
           x="1034.6412"
           y="1224.3444" />
      </g>
    </pattern>
    <inkscape:perspective
       sodipodi:type="inkscape:persp3d"
       inkscape:vp_x="0 : 526.18109 : 1"
       inkscape:vp_y="0 : 1000 : 0"
       inkscape:vp_z="744.09448 : 526.18109 : 1"
       inkscape:persp3d-origin="372.04724 : 350.78739 : 1"
       id="perspective2391" />
    <inkscape:perspective
       id="perspective2457"
       inkscape:persp3d-origin="372.04724 : 350.78739 : 1"
       inkscape:vp_z="744.09448 : 526.18109 : 1"
       inkscape:vp_y="0 : 1000 : 0"
       inkscape:vp_x="0 : 526.18109 : 1"
       sodipodi:type="inkscape:persp3d" />
  </defs>
  <sodipodi:namedview
     id="base"
     pagecolor="#ffffff"
     bordercolor="#ffffff"
     borderopacity="0.0"
     inkscape:pageopacity="0.0"
     inkscape:pageshadow="0"
     inkscape:zoom="0.96886289"
     inkscape:cx="162.03677"
     inkscape:cy="425.75683"
     inkscape:document-units="px"
     inkscape:current-layer="g2487"
     showgrid="false"
     inkscape:window-width="1677"
     inkscape:window-height="1031"
     inkscape:window-x="1276"
     inkscape:window-y="-4" />
  <metadata
     id="metadata2388">
    <rdf:RDF>
      <cc:Work
         rdf:about="">
        <dc:format>image/svg+xml</dc:format>
        <dc:type
           rdf:resource="http://purl.org/dc/dcmitype/StillImage" />
        <dc:title>Circuit Mont-Tremblant</dc:title>
        <dc:date>6-6-2008</dc:date>
        <dc:creator>
          <cc:Agent>
            <dc:title>Will Pittenger</dc:title>
          </cc:Agent>
        </dc:creator>
        <dc:publisher>
          <cc:Agent>
            <dc:title>Will Pittenger</dc:title>
          </cc:Agent>
        </dc:publisher>
        <dc:subject>
          <rdf:Bag>
            <rdf:li>Circuit Mont-Tremblant</rdf:li>
            <rdf:li>Racing</rdf:li>
          </rdf:Bag>
        </dc:subject>
        <cc:license
           rdf:resource="http://creativecommons.org/licenses/publicdomain/" />
      </cc:Work>
      <cc:License
         rdf:about="http://creativecommons.org/licenses/publicdomain/">
        <cc:permits
           rdf:resource="http://creativecommons.org/ns#Reproduction" />
        <cc:permits
           rdf:resource="http://creativecommons.org/ns#Distribution" />
        <cc:permits
           rdf:resource="http://creativecommons.org/ns#DerivativeWorks" />
      </cc:License>
    </rdf:RDF>
  </metadata>
  <g
     inkscape:groupmode="layer"
     id="layer2"
     inkscape:label="Background"
     style="display:none"
     transform="translate(-821.95727,-780.09219)" />
  <g
     inkscape:label="Layer 1"
     inkscape:groupmode="layer"
     id="layer1"
     style="display:inline"
     transform="translate(-821.95727,-780.09219)">
    <path
       style="fill:#bdbdbd;fill-opacity:1;fill-rule:evenodd;stroke:#ffffff;stroke-width:0.25;stroke-linecap:round;stroke-linejoin:round;stroke-miterlimit:4;stroke-dasharray:none;stroke-opacity:1"
       d="M 1137.7812,1161.4062 C 1136.7947,1161.487 1135.8885,1161.9817 1135.2871,1162.7678 C 1134.6856,1163.5539 1134.4451,1164.5579 1134.625,1165.5312 C 1135.4083,1170.1708 1136.2864,1174.6995 1136.9062,1179.1562 C 1137.5241,1183.5987 1138.2422,1187.8517 1138.3125,1191.9062 C 1138.4117,1197.6309 1138.1486,1203.4352 1137.4375,1209.0625 C 1136.8338,1213.8392 1135.7998,1218.6403 1134.375,1223.25 C 1132.9046,1228.007 1130.8592,1232.7429 1128.6562,1237.4062 C 1126.3711,1242.2437 1123.8507,1246.9858 1121.0312,1251.4688 C 1118.0435,1256.2192 1114.8997,1260.858 1111.375,1264.9375 C 1108.8822,1267.8226 1105.8935,1270.4571 1102.7188,1272.75 C 1097.7972,1276.3044 1092.1345,1279.3096 1086.5312,1282.7812 C 1085.3918,1283.4025 1084.6897,1284.6033 1084.707,1285.9009 C 1084.7243,1287.1986 1085.4582,1288.3802 1086.6137,1288.971 C 1087.7692,1289.5617 1089.1568,1289.4647 1090.2188,1288.7188 C 1095.5424,1285.4203 1101.3536,1282.3801 1106.8125,1278.4375 C 1110.3605,1275.875 1113.7364,1272.8795 1116.6562,1269.5 C 1120.5463,1264.9977 1123.8967,1260.0721 1126.9688,1255.1875 C 1129.9667,1250.4209 1132.6166,1245.4205 1135,1240.375 C 1137.2738,1235.5616 1139.4437,1230.5499 1141.0625,1225.3125 C 1142.6058,1220.3193 1143.7493,1215.1352 1144.4062,1209.9375 C 1145.1663,1203.9228 1145.4167,1197.8234 1145.3125,1191.8125 C 1145.23,1187.0551 1144.4431,1182.4972 1143.8438,1178.1875 C 1143.1865,1173.4619 1142.292,1168.8808 1141.5312,1164.375 C 1141.2576,1162.5525 1139.6178,1161.2543 1137.7812,1161.4062 z"
       id="path3235" />
    <path
       style="fill:#bdbdbd;fill-opacity:1;fill-rule:evenodd;stroke:#ffffff;stroke-width:0.25;stroke-linecap:round;stroke-linejoin:round;stroke-miterlimit:4;stroke-dasharray:none;stroke-opacity:1"
       d="M 1241.0938,1178.2812 C 1240.9028,1178.3205 1240.7347,1178.4325 1240.625,1178.5938 C 1235.9258,1185.1138 1229.8373,1191.0537 1226.2812,1198.5 C 1217.7266,1216.4139 1212.2117,1235.9007 1204.5312,1254.0938 C 1203.9308,1255.516 1202.7099,1256.9841 1201.5,1257.6562 C 1200.5049,1258.2091 1198.7414,1258.2617 1197.3125,1258.0938 C 1195.9518,1257.9337 1194.4929,1257.309 1193.125,1256.5938 C 1191.1629,1255.5677 1189.2431,1254.4616 1187.3125,1253.3438 C 1182.1286,1248.8293 1177.074,1244.0204 1172.25,1239.25 C 1171.5668,1238.5744 1170.8601,1236.7056 1170.3438,1234.5312 C 1169.9278,1232.7796 1170.0788,1230.2396 1169.875,1227.25 C 1169.7776,1225.4263 1168.2944,1223.984 1166.4688,1223.9375 C 1165.4789,1223.9167 1164.5227,1224.3106 1163.8438,1225.0312 C 1163.1647,1225.7519 1162.8265,1226.7318 1162.9062,1227.7188 C 1163.0587,1229.9549 1162.7555,1232.8579 1163.5312,1236.125 C 1164.0796,1238.4338 1164.7098,1241.6449 1167.3125,1244.2188 C 1176.4136,1253.2187 1186.4233,1262.5377 1197,1269.9062 C 1198.7859,1271.1504 1200.7954,1271.7298 1202.8125,1271.9375 C 1204.8296,1272.1452 1206.8549,1272.0148 1208.8125,1271.125 C 1211.2204,1270.0305 1212.7321,1268.214 1214,1266.5625 C 1215.2679,1264.911 1216.3095,1263.3136 1217.25,1262.2812 C 1218.1791,1261.3749 1218.5239,1260.026 1218.1562,1258.7812 C 1217.7885,1257.5365 1216.7724,1256.6 1215.5,1256.3438 C 1214.2276,1256.0877 1212.9143,1256.5569 1212.0938,1257.5625 C 1210.5995,1259.2026 1209.4776,1260.9266 1208.4375,1262.2812 C 1207.3974,1263.636 1206.4715,1264.5073 1205.9375,1264.75 C 1205.611,1264.8984 1204.5695,1265.0755 1203.5312,1264.9688 C 1202.4931,1264.8619 1201.4558,1264.4739 1201,1264.1562 C 1198.4293,1262.3653 1195.8734,1260.4341 1193.3438,1258.4062 C 1194.5172,1258.9697 1195.7993,1259.4377 1197.125,1259.5938 C 1198.7019,1259.7793 1200.6816,1259.8227 1202.2188,1258.9688 C 1203.8213,1258.0785 1205.2008,1256.4326 1205.9375,1254.6875 C 1213.667,1236.3781 1219.1764,1216.8824 1227.6562,1199.125 C 1231.0577,1192.0021 1237.0411,1186.1322 1241.8438,1179.4688 C 1242.0327,1179.2197 1242.0419,1178.8894 1241.875,1178.625 C 1241.7081,1178.3607 1241.3998,1178.2178 1241.0938,1178.2812 z"
       id="path3241" />
    <path
       style="fill:#bdbdbd;fill-opacity:1;fill-rule:evenodd;stroke:#ffffff;stroke-width:0.25;stroke-linecap:round;stroke-linejoin:round;stroke-miterlimit:4;stroke-dasharray:none;stroke-opacity:1"
       d="M 1136.4688,1258.2188 C 1131.0083,1258.7733 1126.5041,1261.3778 1122.5625,1262.6562 C 1121.3341,1263.0096 1120.396,1264.0045 1120.1153,1265.2516 C 1119.8347,1266.4986 1120.2561,1267.7995 1121.2147,1268.6451 C 1122.1732,1269.4907 1123.5165,1269.7465 1124.7188,1269.3125 C 1129.5661,1267.7403 1133.7491,1265.5367 1137.1875,1265.1875 C 1139.4851,1264.9542 1142.6611,1265.6145 1144.8125,1266.75 C 1147.8279,1268.3414 1150.8769,1271.1187 1153.375,1274.0938 C 1162.4473,1284.8984 1171.3535,1296.2199 1178.9688,1307.8125 C 1179.9325,1309.2796 1180.4212,1311.9215 1180.5312,1314.5625 C 1180.6265,1316.8469 1180.1763,1319.5492 1179.3438,1321.7188 C 1178.7624,1323.2339 1176.9717,1325.1791 1175.2188,1327.8438 C 1174.1574,1329.4661 1174.6121,1331.6417 1176.2344,1332.7032 C 1177.8568,1333.7646 1180.0324,1333.3098 1181.0938,1331.6875 C 1182.31,1329.8387 1184.5628,1327.6698 1185.875,1324.25 C 1187.0683,1321.1402 1187.6717,1317.6504 1187.5312,1314.2812 C 1187.4017,1311.1739 1187.038,1307.3567 1184.8125,1303.9688 C 1176.9699,1292.03 1167.9178,1280.5121 1158.75,1269.5938 C 1155.8525,1266.143 1152.2662,1262.7811 1148.0625,1260.5625 C 1144.6055,1258.738 1140.475,1257.8119 1136.4688,1258.2188 z"
       id="path3239" />
    <path
       style="fill:#bdbdbd;fill-opacity:1;fill-rule:evenodd;stroke:#ffffff;stroke-width:0.25;stroke-linecap:round;stroke-linejoin:round;stroke-miterlimit:4;stroke-dasharray:none;stroke-opacity:1"
       d="M 864.53125,1481.5625 C 863.42394,1481.5796 862.39001,1482.1196 861.74342,1483.0187 C 861.09682,1483.9178 860.91382,1485.0698 861.25,1486.125 C 862.23761,1489.3512 863.81452,1493.0035 864.65625,1495.625 C 865.74964,1499.0301 866.63451,1502.8434 868.34375,1506.6562 C 869.98181,1510.3103 871.99038,1513.9563 874.4375,1517.2812 C 878.08917,1522.2428 883.67614,1526.8166 886.90625,1530.5312 C 887.71945,1531.5011 888.99288,1531.9564 890.23668,1531.7221 C 891.48048,1531.4877 892.50088,1530.6001 892.90535,1529.4008 C 893.30981,1528.2015 893.03533,1526.8773 892.1875,1525.9375 C 888.29136,1521.457 882.81823,1516.9005 880.0625,1513.1562 C 877.99005,1510.3404 876.23028,1507.1146 874.75,1503.8125 C 873.40147,1500.8043 872.51549,1497.2152 871.3125,1493.4688 C 870.29367,1490.2956 868.73147,1486.6874 867.9375,1484.0938 C 867.50134,1482.5795 866.10702,1481.5433 864.53125,1481.5625 z"
       id="path3243" />
    <path
       style="fill:#000000;fill-opacity:1;fill-rule:evenodd;stroke:#ffffff;stroke-width:0.25;stroke-linecap:butt;stroke-linejoin:miter;stroke-miterlimit:4;stroke-dasharray:none;stroke-opacity:1"
       d="M 1373.9688,780.21875 C 1373.3363,780.21357 1372.7182,780.22061 1372.0938,780.25 C 1366.9461,780.49225 1360.9825,781.33013 1356,784.375 C 1349.472,788.36432 1344.7967,794.51363 1340.1875,799.40625 C 1311.1431,830.23647 1282.8786,861.75851 1253.9375,892.53125 C 1248.4168,898.40136 1242.7766,904.12521 1236.8125,909.34375 C 1231.7233,913.79681 1226.0519,917.83796 1220.3438,921.9375 C 1213.983,926.5057 1207.8079,931.09796 1201.3125,934.84375 C 1190.394,941.14032 1178.8521,946.66719 1167.375,952.46875 C 1159.1281,956.6375 1150.0847,960.09629 1141.5938,965.03125 C 1136.7344,967.85549 1132.0005,971.32201 1128.0312,975.46875 C 1123.9932,979.6876 1121.1036,984.67102 1118.375,989.21875 C 1115.8241,993.47022 1113.2988,998.01964 1111.5312,1002.9688 C 1109.2795,1009.2735 1107.4351,1015.9393 1106.4375,1022.6562 C 1105.7152,1027.5198 1105.4499,1032.7923 1106.4688,1037.9688 C 1114.9729,1081.1816 1124.4648,1124.4674 1134.6875,1167.2812 C 1135.6655,1171.3771 1137.7349,1175.2012 1140.375,1178.2812 C 1143.8297,1182.3117 1148.1727,1185.0179 1151.75,1187.6875 C 1155.5505,1190.5237 1159.4845,1192.8143 1163,1195.2812 C 1165.9232,1197.3326 1168.672,1198.7809 1169.8125,1200.1875 C 1170.85,1201.467 1171.4278,1203.5978 1171.4375,1203.5625 C 1168.659,1213.7212 1163.4646,1224.3441 1158.8438,1234.9062 C 1157.0601,1238.9832 1155.9914,1242.5337 1154.5,1243.5625 C 1137.5101,1255.2828 1117.6863,1264.6441 1098.9688,1275.5312 C 1068.6317,1293.177 1038.4864,1311.1021 1008.1562,1328.6562 C 1004.335,1330.868 1000.9197,1333.1895 997.6875,1334.25 C 995.18154,1335.0723 992.03169,1335.3749 989.3125,1335.0938 C 986.70458,1334.824 983.76128,1333.8764 981.5625,1332.5938 C 979.52448,1331.4049 977.4434,1329.4906 976.1875,1327.5312 C 972.67571,1322.0528 970.39216,1314.9486 966.40625,1308.2812 C 964.09807,1304.4203 961.51617,1299.8826 957.40625,1296.5312 C 953.12926,1293.0439 947.94084,1290.9575 943.21875,1289.3438 C 939.05398,1287.9203 934.09087,1286.3448 928.90625,1286.875 C 922.99803,1287.4793 916.55336,1289.2827 911.28125,1292.6875 C 904.66813,1296.9585 899.96059,1303.2568 895.21875,1308.3125 C 885.4134,1318.7668 874.07114,1328.9029 865.6875,1341.2188 C 860.91365,1348.2316 858.64304,1356.7437 857.25,1364.5625 C 855.12919,1376.4665 855.42168,1388.5481 854.90625,1400.0938 C 854.34058,1412.7648 853.15055,1425.77 853.90625,1438.8438 C 854.6156,1451.1155 857.41564,1462.9648 859.1875,1474.5625 C 859.70837,1477.9718 859.25785,1482.7596 861.46875,1487.375 C 863.32779,1491.2556 866.91374,1492.4029 868.8125,1493.5 C 872.20727,1495.4614 875.49902,1496.2355 877.71875,1497.4688 C 879.74442,1498.5941 881.60646,1499.8078 882.71875,1501.0312 C 884.35603,1502.8322 885.69778,1505.1229 885.71875,1505.4375 C 885.73205,1505.6369 885.55268,1506.4923 884.96875,1507.7188 C 884.38482,1508.9451 883.48842,1510.4493 882.90625,1512.375 C 882.45863,1513.8556 881.1503,1516.3776 881.43663,1519.875 C 881.69875,1523.0766 882.10894,1526.3724 883.375,1529.3125 C 885.13565,1533.4011 888.81136,1536.8083 891.84375,1540.125 C 894.48924,1543.0185 897.14905,1546.2698 900.6875,1548.25 C 916.68327,1557.2018 933.27396,1566.1779 950.28125,1572.875 C 956.33935,1575.2605 963.24153,1575.6469 969.71875,1575.4062 C 1000.0579,1574.2789 1030.4475,1571.022 1060.7812,1568.8125 C 1078.5647,1567.5172 1096.3462,1564.8088 1114.0312,1564.875 C 1127.9428,1564.9272 1141.8686,1567.648 1155.8438,1569.1562 C 1160.6529,1569.6754 1165.6422,1569.5035 1170,1570.9062 C 1174.1185,1572.2321 1178.1191,1574.6836 1181.5938,1577.4375 C 1194.087,1587.3396 1205.489,1598.8699 1217.9375,1608.9688 C 1220.3666,1610.9393 1223.2396,1612.3288 1226.0625,1613.5 C 1228.87,1614.6649 1231.8807,1615.5639 1234.9062,1616 C 1238.5752,1616.5288 1242.3852,1616.522 1246.0625,1616.375 C 1248.351,1616.2835 1250.7648,1616.0919 1252.9688,1615.2812 C 1256.0352,1614.1534 1261.1578,1611.6781 1263.8103,1609.6593 C 1266.3264,1607.7444 1267.4077,1607.3598 1269.375,1604.4688 C 1271.7918,1600.9172 1272.3785,1596.1337 1270.625,1591.75 C 1267.1194,1582.9861 1261.0476,1575.2659 1256.2188,1567.8438 C 1249.3837,1557.3379 1242.6238,1546.5179 1234.7188,1536.4375 C 1226.178,1525.5466 1217.3111,1514.2799 1206.75,1504.8438 C 1198.0339,1497.0561 1187.5736,1491.9483 1178.4062,1486.125 C 1170.5087,1481.1083 1162.5746,1475.5365 1153.8125,1471.1875 C 1146.9541,1467.7833 1139.6558,1465.4424 1132.5625,1463.4062 C 1127.7706,1462.0308 1122.4339,1460.4569 1116.7188,1460.6562 C 1102.5147,1461.1517 1088.5181,1463.7745 1074.8125,1465.2812 C 1067.4377,1466.0921 1060.4749,1467.916 1054.4062,1467.5625 C 1050.9544,1467.3614 1046.8679,1465.605 1043.0312,1463.6562 C 1040.4978,1462.3694 1037.9368,1460.4158 1036.3125,1458.375 C 1034.4894,1456.0844 1033.0048,1452.8605 1032,1449.6875 C 1031.0267,1446.6138 1030.3419,1443.6255 1030.7812,1441.7188 C 1035.8044,1419.9204 1042.3279,1397.9143 1049.375,1376.4375 C 1051.3664,1370.3684 1054.4348,1364.4258 1057.875,1358.8438 C 1059.9315,1355.5068 1062.6652,1352.3234 1065.625,1349.9062 C 1068.9299,1347.2073 1072.264,1344.668 1074.8438,1344.4375 C 1102.0051,1342.0107 1131.0134,1344.8798 1159.1562,1342.1562 C 1166.4089,1341.4543 1172.9653,1337.7434 1178.25,1333.9688 C 1183.9,1329.933 1187.6715,1324.1999 1191.4062,1319.5312 C 1194.8193,1315.2649 1199.4195,1310.7427 1201.8125,1304.4688 C 1220.9195,1254.3747 1237.2522,1203.0342 1255.2812,1152.5938 C 1265.8717,1122.9648 1276.0334,1093.218 1287.6875,1064.1875 C 1294.2221,1047.9097 1301.106,1031.6996 1309.75,1016.75 C 1323.4588,993.04104 1339.8367,970.61032 1355.2188,947.4375 C 1373.4991,919.89818 1393.2118,892.94633 1410.6875,864.6875 C 1414.1657,859.06308 1416.2767,852.61971 1417.4062,846.40625 C 1418.5986,839.84804 1418.7,832.84447 1417.75,826.25 C 1416.737,819.21808 1414.6877,811.9756 1411.5312,805.53125 C 1408.9487,800.25854 1404.93,795.76337 1400.9062,792.03125 C 1396.9576,788.3687 1392.236,784.94659 1387.0625,782.8125 C 1382.9847,781.13036 1378.396,780.25504 1373.9688,780.21875 z M 1373.9062,787.3125 C 1377.415,787.35249 1381.2272,788.08942 1384.3438,789.375 C 1388.4361,791.06309 1392.6227,793.9993 1396.0938,797.21875 C 1399.7339,800.5951 1403.1644,804.58972 1405.1562,808.65625 C 1407.9183,814.29554 1409.8023,820.92043 1410.7188,827.28125 C 1411.5554,833.08898 1411.451,839.41078 1410.4062,845.15625 C 1409.401,850.68519 1407.5195,856.33885 1404.6562,860.96875 C 1387.3767,888.91036 1367.7139,915.77834 1349.3125,943.5 C 1334.0473,966.49702 1317.5868,989.07232 1303.625,1013.2188 C 1294.6892,1028.6729 1287.6647,1045.1628 1281.0938,1061.5312 C 1269.3471,1090.7923 1259.1618,1120.6207 1248.5938,1150.1875 C 1230.5082,1200.7857 1214.1677,1252.0943 1195.1562,1301.9375 C 1193.4777,1306.3383 1189.6075,1310.428 1185.875,1315.0938 C 1181.8908,1320.0741 1178.3226,1325.1892 1174.125,1328.1875 C 1169.3646,1331.5878 1163.6504,1334.5922 1158.4688,1335.0938 C 1131.2798,1337.7249 1102.3012,1334.866 1074.2188,1337.375 C 1068.4291,1337.8923 1064.3155,1341.8007 1061.125,1344.4062 C 1057.4641,1347.3959 1054.3023,1351.1355 1051.8438,1355.125 C 1048.213,1361.0164 1044.8596,1367.4399 1042.625,1374.25 C 1035.5356,1395.8558 1028.9345,1418.0325 1023.8438,1440.125 C 1022.8112,1444.6055 1024.2533,1448.696 1025.25,1451.8438 C 1026.4286,1455.5656 1028.147,1459.5027 1030.7812,1462.8125 C 1033.2248,1465.8827 1036.4681,1468.3013 1039.8125,1470 C 1043.87,1472.0609 1048.6774,1474.3149 1054,1474.625 C 1061.6731,1475.0719 1068.9477,1473.0398 1075.5625,1472.3125 C 1089.6202,1470.7669 1103.4797,1468.2205 1116.9688,1467.75 C 1121.1597,1467.6038 1125.8172,1468.879 1130.5938,1470.25 C 1137.5408,1472.2441 1144.4447,1474.4793 1150.6562,1477.5625 C 1158.7724,1481.5909 1166.5128,1486.9919 1174.5938,1492.125 C 1184.2056,1498.2308 1194.2974,1503.2148 1202.0312,1510.125 C 1211.9637,1518.9995 1220.5922,1529.9629 1229.125,1540.8438 C 1236.7178,1550.5259 1243.3679,1561.1405 1250.25,1571.7188 C 1255.3127,1579.5004 1261.0658,1586.9611 1264.0312,1594.375 C 1264.5507,1595.6735 1264.0795,1599.5156 1263.3438,1600.6875 C 1262.9529,1601.31 1260.0414,1603.0051 1257.5,1603.75 C 1254.63,1604.5912 1251.018,1604.7423 1247.5,1604.5938 C 1243.7904,1604.4371 1239.892,1603.7267 1236.0938,1602.75 C 1232.1032,1601.7239 1228.5048,1601.039 1226.625,1599.5 C 1209.9736,1585.8677 1194.9627,1568.9169 1177.8125,1554.5938 C 1174.1741,1551.555 1169.6797,1549.8213 1165.4375,1548.9375 C 1160.5375,1547.9167 1155.7761,1548.616 1151.6875,1548.875 C 1107.6082,1551.6674 1063.5689,1554.8726 1019.5312,1558.0625 C 1009.1091,1558.8175 998.88262,1560.1349 988.78125,1560.6562 C 982.16426,1560.9978 975.55979,1561.2509 969.25,1560.6875 C 963.85001,1560.2053 958.42247,1559.1827 953.3125,1557.5625 C 945.54005,1555.0981 937.84474,1551.5934 930.03125,1548.1875 C 925.14749,1546.0587 920.33124,1543.5855 915.5,1541.0625 C 910.44194,1538.4211 905.44364,1536.0001 901.09375,1533.0625 C 897.42418,1530.5844 893.82899,1527.8597 891.3125,1524.875 C 889.9913,1523.308 888.83324,1520.7181 888.5,1518.7188 C 888.46455,1518.5061 889.00217,1516.7766 889.71875,1514.4062 C 889.97538,1513.5574 890.64941,1512.2739 891.375,1510.75 C 892.10059,1509.2261 892.97382,1507.3885 892.8125,1504.9688 C 892.52691,1500.6849 889.69119,1498.1446 887.96875,1496.25 C 885.88271,1493.9553 883.3512,1492.5008 881.15625,1491.2812 C 877.75953,1489.3942 874.50104,1488.6214 872.34375,1487.375 C 869.95749,1485.9963 868.0301,1484.6363 867.875,1484.3125 C 866.85368,1482.1804 866.906,1477.967 866.21875,1473.4688 C 864.38956,1461.4957 861.66155,1449.8823 861,1438.4375 C 860.28479,1426.0643 861.42485,1413.3207 862,1400.4375 C 862.52978,1388.5705 862.29761,1376.7711 864.25,1365.8125 C 865.56043,1358.4574 867.69978,1350.8472 871.53125,1345.2188 C 879.24414,1333.8883 890.28109,1323.9494 900.375,1313.1875 C 905.4636,1307.7621 909.97348,1301.9834 915.125,1298.6562 C 919.07391,1296.106 924.6569,1294.4456 929.625,1293.9375 C 932.80098,1293.6127 936.9582,1294.7131 940.90625,1296.0625 C 945.34087,1297.5781 949.83601,1299.5025 952.9375,1302.0312 C 955.65817,1304.2497 957.9942,1308.0285 960.3125,1311.9062 C 963.72322,1317.6114 966.01582,1324.7871 970.21875,1331.3438 C 972.17823,1334.4006 974.92831,1336.9764 977.96875,1338.75 C 981.18438,1340.6258 984.94087,1341.7785 988.59375,1342.1562 C 992.2926,1342.5389 996.26525,1342.1947 999.90625,1341 C 1004.5176,1339.487 1008.2621,1336.8131 1011.7188,1334.8125 C 1042.0956,1317.2311 1072.2634,1299.3112 1102.5625,1281.6875 C 1120.9235,1271.0077 1140.8839,1261.5803 1158.5312,1249.4062 C 1163.2809,1246.1299 1164.0337,1240.7443 1165.3438,1237.75 C 1169.8708,1227.4024 1175.2434,1216.5448 1178.2812,1205.4375 C 1179.4697,1201.0919 1177.0972,1197.8813 1175.3438,1195.7188 C 1172.7172,1192.4795 1169.2559,1191.0079 1167.0625,1189.4688 C 1163.2345,1186.7824 1159.3835,1184.525 1156,1182 C 1152.1152,1179.1009 1148.2377,1176.5587 1145.75,1173.6562 C 1143.8397,1171.4276 1142.2693,1168.4861 1141.5938,1165.6562 C 1131.3914,1122.9275 1121.9217,1079.705 1113.4375,1036.5938 C 1112.6447,1032.5657 1112.8208,1028.0496 1113.4688,1023.6875 C 1114.3801,1017.5512 1116.0896,1011.3051 1118.2188,1005.3438 C 1119.7214,1001.136 1122.0033,996.98391 1124.4688,992.875 C 1127.2167,988.29498 1129.8994,983.77771 1133.1562,980.375 C 1136.5386,976.84126 1140.7913,973.71129 1145.1875,971.15625 C 1153.0173,966.6056 1161.8838,963.19955 1170.5625,958.8125 C 1181.9453,953.05859 1193.6069,947.48009 1204.8438,941 C 1211.8252,936.97393 1218.2096,932.20518 1224.5,927.6875 C 1230.1866,923.60347 1236.0155,919.45902 1241.4688,914.6875 C 1247.6969,909.23793 1253.4963,903.35788 1259.0938,897.40625 C 1288.1126,866.55085 1316.3798,835.02595 1345.3438,804.28125 C 1350.2741,799.04771 1354.7269,793.46896 1359.6875,790.4375 C 1362.8906,788.48004 1367.8928,787.55762 1372.4375,787.34375 C 1372.9241,787.32085 1373.405,787.30679 1373.9062,787.3125 z M 883.8125,1526.375 C 884.41574,1527.4522 885.10855,1528.4914 885.90625,1529.4375 C 889.15454,1533.2902 893.24482,1536.3483 897.125,1538.9688 C 902.05763,1542.2999 907.30533,1544.8091 912.21875,1547.375 C 917.09009,1549.919 922.03983,1552.4436 927.1875,1554.6875 C 934.91895,1558.0576 942.82382,1561.6705 951.15625,1564.3125 C 956.82932,1566.1113 962.76173,1567.2265 968.625,1567.75 C 975.53525,1568.367 982.43647,1568.0952 989.125,1567.75 C 999.60129,1567.2092 1009.8853,1565.86 1020.0312,1565.125 C 1064.07,1561.9351 1108.1209,1558.7583 1152.1562,1555.9688 C 1156.5745,1555.6889 1160.7113,1555.1964 1163.9688,1555.875 C 1167.3086,1556.5708 1170.8457,1558.0545 1173.25,1560.0625 C 1189.8424,1573.9198 1204.8727,1590.8758 1222.125,1605 C 1226.1268,1608.2762 1230.9017,1608.748 1234.3125,1609.625 C 1238.4149,1610.6799 1242.7735,1611.501 1247.1875,1611.6875 C 1251.0667,1611.8514 1255.3809,1611.801 1259.5,1610.5938 C 1259.87,1610.4853 1260.292,1610.3398 1260.6875,1610.2188 C 1258.4192,1612.046 1255.4523,1613.3038 1252.625,1614.3438 C 1250.5973,1615.0896 1248.2579,1615.2847 1246,1615.375 C 1242.3466,1615.5211 1238.6313,1615.5457 1235.0625,1615.0312 C 1232.1421,1614.6103 1229.184,1613.702 1226.4375,1612.5625 C 1223.6501,1611.406 1220.8678,1610.0577 1218.5625,1608.1875 C 1206.1714,1598.1353 1194.7758,1586.6091 1182.2188,1576.6562 C 1178.6754,1573.8478 1174.5581,1571.3454 1170.2812,1569.9688 C 1165.6936,1568.4919 1160.6484,1568.6648 1155.9375,1568.1562 C 1142.0194,1566.6541 1128.07,1563.9276 1114.0312,1563.875 C 1096.2424,1563.8084 1078.45,1566.521 1060.7188,1567.8125 C 1030.3621,1570.0236 999.97996,1573.2807 969.6875,1574.4062 C 963.27668,1574.6444 956.50639,1574.2412 950.65625,1571.9375 C 933.72588,1565.2707 917.17449,1556.3218 901.1875,1547.375 C 897.87039,1545.5187 895.26236,1542.3874 892.59375,1539.4688 C 889.53821,1536.1267 886.08625,1532.7006 884.28125,1528.9062 C 883.93085,1528.1697 883.82474,1527.3009 883.8125,1526.375 z"
       id="path3245"
       sodipodi:nodetypes="cssssssssssssssssssssssssssssssssssssssssssssssssssssssssssssssssssssssssssssssssssssssssssssssssccssssssssscsssssssssssssssssssssssssssssssssssssssssssssssssssssssssssssssssssssssssssssssssssssccssssssssssssssscsssssssssssssssc" />
    <g
       id="g4330">
      <path
         transform="matrix(1.0661159,0,0,1.0661159,-246.78878,-8.9134666)"
         d="M 1157.1076,1444.5167 A 13.162147,13.162147 0 1 1 1130.7833,1444.5167 A 13.162147,13.162147 0 1 1 1157.1076,1444.5167 z"
         sodipodi:ry="13.162147"
         sodipodi:rx="13.162147"
         sodipodi:cy="1444.5167"
         sodipodi:cx="1143.9454"
         id="path4328"
         style="opacity:1;fill:#ffffff;fill-opacity:1;stroke:#151515;stroke-width:1;stroke-linecap:round;stroke-linejoin:round;stroke-miterlimit:4;stroke-dasharray:none;stroke-dashoffset:0;stroke-opacity:1;display:inline"
         sodipodi:type="arc" />
      <text
         id="text3281"
         y="1540.5697"
         x="965.85797"
         style="font-size:28px;font-style:normal;font-weight:normal;fill:#000000;fill-opacity:1;stroke:none;stroke-width:1px;stroke-linecap:butt;stroke-linejoin:miter;stroke-opacity:1;font-family:Times New Roman"
         xml:space="preserve"><tspan
           y="1540.5697"
           x="965.85797"
           id="tspan3283"
           sodipodi:role="line">1</tspan></text>
    </g>
    <g
       id="g4323">
      <path
         transform="matrix(1.0661159,0,0,1.0661159,-382.02339,-71.885305)"
         d="M 1157.1076,1444.5167 A 13.162147,13.162147 0 1 1 1130.7833,1444.5167 A 13.162147,13.162147 0 1 1 1157.1076,1444.5167 z"
         sodipodi:ry="13.162147"
         sodipodi:rx="13.162147"
         sodipodi:cy="1444.5167"
         sodipodi:cx="1143.9454"
         id="path4321"
         style="opacity:1;fill:#ffffff;fill-opacity:1;stroke:#151515;stroke-width:1;stroke-linecap:round;stroke-linejoin:round;stroke-miterlimit:4;stroke-dasharray:none;stroke-dashoffset:0;stroke-opacity:1;display:inline"
         sodipodi:type="arc" />
      <text
         id="text3285"
         y="1477.5979"
         x="830.83533"
         style="font-size:28px;font-style:normal;font-weight:normal;fill:#000000;fill-opacity:1;stroke:none;stroke-width:1px;stroke-linecap:butt;stroke-linejoin:miter;stroke-opacity:1;font-family:Times New Roman"
         xml:space="preserve"><tspan
           y="1477.5979"
           x="830.83533"
           id="tspan3287"
           sodipodi:role="line">2</tspan></text>
    </g>
    <g
       id="g4316">
      <path
         transform="matrix(1.0661159,0,0,1.0661159,-383.05571,-212.28153)"
         d="M 1157.1076,1444.5167 A 13.162147,13.162147 0 1 1 1130.7833,1444.5167 A 13.162147,13.162147 0 1 1 1157.1076,1444.5167 z"
         sodipodi:ry="13.162147"
         sodipodi:rx="13.162147"
         sodipodi:cy="1444.5167"
         sodipodi:cx="1143.9454"
         id="path4309"
         style="opacity:1;fill:#ffffff;fill-opacity:1;stroke:#151515;stroke-width:1;stroke-linecap:round;stroke-linejoin:round;stroke-miterlimit:4;stroke-dasharray:none;stroke-dashoffset:0;stroke-opacity:1;display:inline"
         sodipodi:type="arc" />
      <text
         id="text3289"
         y="1337.0376"
         x="830.11743"
         style="font-size:28px;font-style:normal;font-weight:normal;fill:#000000;fill-opacity:1;stroke:none;stroke-width:1px;stroke-linecap:butt;stroke-linejoin:miter;stroke-opacity:1;font-family:Times New Roman"
         xml:space="preserve"><tspan
           y="1337.0376"
           x="830.11743"
           id="tspan3291"
           sodipodi:role="line">3</tspan></text>
    </g>
    <g
       id="g4311"
       transform="translate(-58.831854,-21.674893)">
      <path
         transform="matrix(1.0661159,0,0,1.0661159,-224.07763,-251.50989)"
         d="M 1157.1076,1444.5167 A 13.162147,13.162147 0 1 1 1130.7833,1444.5167 A 13.162147,13.162147 0 1 1 1157.1076,1444.5167 z"
         sodipodi:ry="13.162147"
         sodipodi:rx="13.162147"
         sodipodi:cy="1444.5167"
         sodipodi:cx="1143.9454"
         id="path4307"
         style="opacity:1;fill:#ffffff;fill-opacity:1;stroke:#151515;stroke-width:1;stroke-linecap:round;stroke-linejoin:round;stroke-miterlimit:4;stroke-dasharray:none;stroke-dashoffset:0;stroke-opacity:1;display:inline"
         sodipodi:type="arc" />
      <text
         id="text3293"
         y="1297.9733"
         x="988.7674"
         style="font-size:28px;font-style:normal;font-weight:normal;fill:#000000;fill-opacity:1;stroke:none;stroke-width:1px;stroke-linecap:butt;stroke-linejoin:miter;stroke-opacity:1;font-family:Times New Roman"
         xml:space="preserve"><tspan
           y="1297.9733"
           x="988.7674"
           id="tspan3295"
           sodipodi:role="line">4</tspan></text>
    </g>
    <g
       id="g4302">
      <path
         transform="matrix(1.0661159,0,0,1.0661159,-98.133951,-348.54846)"
         d="M 1157.1076,1444.5167 A 13.162147,13.162147 0 1 1 1130.7833,1444.5167 A 13.162147,13.162147 0 1 1 1157.1076,1444.5167 z"
         sodipodi:ry="13.162147"
         sodipodi:rx="13.162147"
         sodipodi:cy="1444.5167"
         sodipodi:cx="1143.9454"
         id="path4300"
         style="opacity:1;fill:#ffffff;fill-opacity:1;stroke:#151515;stroke-width:1;stroke-linecap:round;stroke-linejoin:round;stroke-miterlimit:4;stroke-dasharray:none;stroke-dashoffset:0;stroke-opacity:1;display:inline"
         sodipodi:type="arc" />
      <text
         id="text3297"
         y="1200.7706"
         x="1114.3829"
         style="font-size:28px;font-style:normal;font-weight:normal;fill:#000000;fill-opacity:1;stroke:none;stroke-width:1px;stroke-linecap:butt;stroke-linejoin:miter;stroke-opacity:1;font-family:Times New Roman"
         xml:space="preserve"><tspan
           y="1200.7706"
           x="1114.3829"
           id="tspan3299"
           sodipodi:role="line">6</tspan></text>
    </g>
    <g
       id="g4295">
      <path
         transform="matrix(1.0661159,0,0,1.0661159,-126.00673,-559.14281)"
         d="M 1157.1076,1444.5167 A 13.162147,13.162147 0 1 1 1130.7833,1444.5167 A 13.162147,13.162147 0 1 1 1157.1076,1444.5167 z"
         sodipodi:ry="13.162147"
         sodipodi:rx="13.162147"
         sodipodi:cy="1444.5167"
         sodipodi:cx="1143.9454"
         id="path4293"
         style="opacity:1;fill:#ffffff;fill-opacity:1;stroke:#151515;stroke-width:1;stroke-linecap:round;stroke-linejoin:round;stroke-miterlimit:4;stroke-dasharray:none;stroke-dashoffset:0;stroke-opacity:1;display:inline"
         sodipodi:type="arc" />
      <text
         id="text3301"
         y="989.95758"
         x="1086.6742"
         style="font-size:28px;font-style:normal;font-weight:normal;fill:#000000;fill-opacity:1;stroke:none;stroke-width:1px;stroke-linecap:butt;stroke-linejoin:miter;stroke-opacity:1;font-family:Times New Roman"
         xml:space="preserve"><tspan
           y="989.95758"
           x="1086.6742"
           id="tspan3303"
           sodipodi:role="line">7</tspan></text>
    </g>
    <g
       id="g4288">
      <path
         transform="matrix(1.0661159,0,0,1.0661159,159.94735,-730.50879)"
         d="M 1157.1076,1444.5167 A 13.162147,13.162147 0 1 1 1130.7833,1444.5167 A 13.162147,13.162147 0 1 1 1157.1076,1444.5167 z"
         sodipodi:ry="13.162147"
         sodipodi:rx="13.162147"
         sodipodi:cy="1444.5167"
         sodipodi:cx="1143.9454"
         id="path4286"
         style="opacity:1;fill:#ffffff;fill-opacity:1;stroke:#151515;stroke-width:1;stroke-linecap:round;stroke-linejoin:round;stroke-miterlimit:4;stroke-dasharray:none;stroke-dashoffset:0;stroke-opacity:1;display:inline"
         sodipodi:type="arc" />
      <text
         id="text3305"
         y="818.8103"
         x="1372.4847"
         style="font-size:28px;font-style:normal;font-weight:normal;fill:#000000;fill-opacity:1;stroke:none;stroke-width:1px;stroke-linecap:butt;stroke-linejoin:miter;stroke-opacity:1;font-family:Times New Roman"
         xml:space="preserve"><tspan
           y="818.8103"
           x="1372.4847"
           id="tspan3307"
           sodipodi:role="line">8</tspan></text>
    </g>
    <g
       id="g4281">
      <path
         transform="matrix(1.0661159,0,0,1.0661159,108.33109,-507.52655)"
         d="M 1157.1076,1444.5167 A 13.162147,13.162147 0 1 1 1130.7833,1444.5167 A 13.162147,13.162147 0 1 1 1157.1076,1444.5167 z"
         sodipodi:ry="13.162147"
         sodipodi:rx="13.162147"
         sodipodi:cy="1444.5167"
         sodipodi:cx="1143.9454"
         id="path4279"
         style="opacity:1;fill:#ffffff;fill-opacity:1;stroke:#151515;stroke-width:1;stroke-linecap:round;stroke-linejoin:round;stroke-miterlimit:4;stroke-dasharray:none;stroke-dashoffset:0;stroke-opacity:1;display:inline"
         sodipodi:type="arc" />
      <text
         id="text3309"
         y="1041.7653"
         x="1320.9574"
         style="font-size:28px;font-style:normal;font-weight:normal;fill:#000000;fill-opacity:1;stroke:none;stroke-width:1px;stroke-linecap:butt;stroke-linejoin:miter;stroke-opacity:1;font-family:Times New Roman"
         xml:space="preserve"><tspan
           y="1041.7653"
           x="1320.9574"
           id="tspan3311"
           sodipodi:role="line">9</tspan></text>
    </g>
    <g
       id="g4274"
       transform="translate(-42.325334,47.48696)">
      <path
         transform="matrix(1.0661159,0,0,1.0661159,9.2278712,-240.15432)"
         d="M 1157.1076,1444.5167 A 13.162147,13.162147 0 1 1 1130.7833,1444.5167 A 13.162147,13.162147 0 1 1 1157.1076,1444.5167 z"
         sodipodi:ry="13.162147"
         sodipodi:rx="13.162147"
         sodipodi:cy="1444.5167"
         sodipodi:cx="1143.9454"
         id="path4272"
         style="opacity:1;fill:#ffffff;fill-opacity:1;stroke:#151515;stroke-width:1;stroke-linecap:round;stroke-linejoin:round;stroke-miterlimit:4;stroke-dasharray:none;stroke-dashoffset:0;stroke-opacity:1;display:inline"
         sodipodi:type="arc" />
      <text
         id="text3313"
         y="1309.1648"
         x="1213.6647"
         style="font-size:28px;font-style:normal;font-weight:normal;fill:#000000;fill-opacity:1;stroke:none;stroke-width:1px;stroke-linecap:butt;stroke-linejoin:miter;stroke-opacity:1;font-family:Times New Roman"
         xml:space="preserve"><tspan
           y="1309.1648"
           x="1213.6647"
           id="tspan3315"
           sodipodi:role="line">10</tspan></text>
    </g>
    <g
       id="g4267"
       transform="translate(-15.484878,-9.290927)">
      <path
         transform="matrix(1.0661159,0,0,1.0661159,-107.42488,-152.40667)"
         d="M 1157.1076,1444.5167 A 13.162147,13.162147 0 1 1 1130.7833,1444.5167 A 13.162147,13.162147 0 1 1 1157.1076,1444.5167 z"
         sodipodi:ry="13.162147"
         sodipodi:rx="13.162147"
         sodipodi:cy="1444.5167"
         sodipodi:cx="1143.9454"
         id="path4265"
         style="opacity:1;fill:#ffffff;fill-opacity:1;stroke:#151515;stroke-width:1;stroke-linecap:round;stroke-linejoin:round;stroke-miterlimit:4;stroke-dasharray:none;stroke-dashoffset:0;stroke-opacity:1;display:inline"
         sodipodi:type="arc" />
      <text
         id="text3317"
         y="1397.0765"
         x="1098.2219"
         style="font-size:28px;font-style:normal;font-weight:normal;fill:#000000;fill-opacity:1;stroke:none;stroke-width:1px;stroke-linecap:butt;stroke-linejoin:miter;stroke-opacity:1;font-family:Times New Roman"
         xml:space="preserve"><tspan
           y="1397.0765"
           x="1098.2219"
           id="tspan3319"
           sodipodi:role="line">11</tspan></text>
    </g>
    <g
       id="g4260">
      <path
         transform="matrix(1.0661159,0,0,1.0661159,-164.20277,-95.628785)"
         d="M 1157.1076,1444.5167 A 13.162147,13.162147 0 1 1 1130.7833,1444.5167 A 13.162147,13.162147 0 1 1 1157.1076,1444.5167 z"
         sodipodi:ry="13.162147"
         sodipodi:rx="13.162147"
         sodipodi:cy="1444.5167"
         sodipodi:cx="1143.9454"
         id="path4258"
         style="opacity:1;fill:#ffffff;fill-opacity:1;stroke:#151515;stroke-width:1;stroke-linecap:round;stroke-linejoin:round;stroke-miterlimit:4;stroke-dasharray:none;stroke-dashoffset:0;stroke-opacity:1;display:inline"
         sodipodi:type="arc" />
      <text
         id="text3321"
         y="1453.8544"
         x="1040.316"
         style="font-size:28px;font-style:normal;font-weight:normal;fill:#000000;fill-opacity:1;stroke:none;stroke-width:1px;stroke-linecap:butt;stroke-linejoin:miter;stroke-opacity:1;font-family:Times New Roman"
         xml:space="preserve"><tspan
           y="1453.8544"
           x="1040.316"
           id="tspan3323"
           sodipodi:role="line">12</tspan></text>
    </g>
    <g
       id="g4239">
      <path
         transform="matrix(1.0661159,0,0,1.0661159,-75.632936,-96.924913)"
         d="M 1157.1076,1444.5167 A 13.162147,13.162147 0 1 1 1130.7833,1444.5167 A 13.162147,13.162147 0 1 1 1157.1076,1444.5167 z"
         sodipodi:ry="13.162147"
         sodipodi:rx="13.162147"
         sodipodi:cy="1444.5167"
         sodipodi:cx="1143.9454"
         id="path4227"
         style="opacity:1;fill:#ffffff;fill-opacity:1;stroke:#151515;stroke-width:1;stroke-linecap:round;stroke-linejoin:round;stroke-miterlimit:4;stroke-dasharray:none;stroke-dashoffset:0;stroke-opacity:1"
         sodipodi:type="arc" />
      <text
         id="text3325"
         y="1452.3942"
         x="1129.4669"
         style="font-size:28px;font-style:normal;font-weight:normal;fill:#000000;fill-opacity:1;stroke:none;stroke-width:1px;stroke-linecap:butt;stroke-linejoin:miter;stroke-opacity:1;font-family:Times New Roman"
         xml:space="preserve"><tspan
           y="1452.3942"
           x="1129.4669"
           id="tspan3327"
           sodipodi:role="line">13</tspan></text>
    </g>
    <g
       id="g4246"
       transform="translate(-16.517203,8.2586017)">
      <path
         transform="matrix(1.0661159,0,0,1.0661159,85.619937,32.379542)"
         d="M 1157.1076,1444.5167 A 13.162147,13.162147 0 1 1 1130.7833,1444.5167 A 13.162147,13.162147 0 1 1 1157.1076,1444.5167 z"
         sodipodi:ry="13.162147"
         sodipodi:rx="13.162147"
         sodipodi:cy="1444.5167"
         sodipodi:cx="1143.9454"
         id="path4244"
         style="opacity:1;fill:#ffffff;fill-opacity:1;stroke:#151515;stroke-width:1;stroke-linecap:round;stroke-linejoin:round;stroke-miterlimit:4;stroke-dasharray:none;stroke-dashoffset:0;stroke-opacity:1;display:inline"
         sodipodi:type="arc" />
      <text
         id="text3329"
         y="1581.8627"
         x="1290.0431"
         style="font-size:28px;font-style:normal;font-weight:normal;fill:#000000;fill-opacity:1;stroke:none;stroke-width:1px;stroke-linecap:butt;stroke-linejoin:miter;stroke-opacity:1;font-family:Times New Roman"
         xml:space="preserve"><tspan
           y="1581.8627"
           x="1290.0431"
           id="tspan3331"
           sodipodi:role="line">14</tspan></text>
    </g>
    <g
       id="g4253">
      <path
         transform="matrix(1.0661159,0,0,1.0661159,-41.356064,-9.9457918)"
         d="M 1157.1076,1444.5167 A 13.162147,13.162147 0 1 1 1130.7833,1444.5167 A 13.162147,13.162147 0 1 1 1157.1076,1444.5167 z"
         sodipodi:ry="13.162147"
         sodipodi:rx="13.162147"
         sodipodi:cy="1444.5167"
         sodipodi:cx="1143.9454"
         id="path4251"
         style="opacity:1;fill:#ffffff;fill-opacity:1;stroke:#151515;stroke-width:1;stroke-linecap:round;stroke-linejoin:round;stroke-miterlimit:4;stroke-dasharray:none;stroke-dashoffset:0;stroke-opacity:1;display:inline"
         sodipodi:type="arc" />
      <text
         id="text3333"
         y="1539.3733"
         x="1163.5046"
         style="font-size:28px;font-style:normal;font-weight:normal;fill:#000000;fill-opacity:1;stroke:none;stroke-width:1px;stroke-linecap:butt;stroke-linejoin:miter;stroke-opacity:1;font-family:Times New Roman"
         xml:space="preserve"><tspan
           y="1539.3733"
           x="1163.5046"
           id="tspan3335"
           sodipodi:role="line">15</tspan></text>
    </g>
    <text
       xml:space="preserve"
       style="font-size:28px;font-style:normal;font-weight:normal;fill:#000000;fill-opacity:1;stroke:#ffffff;stroke-width:0.25;stroke-linecap:round;stroke-linejoin:round;stroke-miterlimit:4;stroke-dasharray:none;stroke-opacity:1;font-family:Times New Roman"
       x="823.84308"
       y="1713.7041"
       id="text3337"
       transform="matrix(0.9954343,-9.5449125e-2,9.5449125e-2,0.9954343,0,0)"><tspan
         sodipodi:role="line"
         id="tspan3339"
         x="823.84308"
         y="1713.7041">Paddocks</tspan></text>
    <path
       sodipodi:type="star"
       style="opacity:1;fill:#ea1212;fill-opacity:1;stroke:#ffffff;stroke-width:0.25;stroke-linecap:round;stroke-linejoin:round;stroke-miterlimit:4;stroke-dasharray:none;stroke-dashoffset:0;stroke-opacity:1;display:inline"
       id="path3429"
       sodipodi:sides="3"
       sodipodi:cx="1219.3722"
       sodipodi:cy="1308.9064"
       sodipodi:r1="7.1260953"
       sodipodi:r2="3.5630479"
       sodipodi:arg1="0"
       sodipodi:arg2="1.0471976"
       inkscape:flatsided="true"
       inkscape:rounded="0"
       inkscape:randomized="0"
       d="M 1226.4983,1308.9064 L 1215.8091,1315.0778 L 1215.8091,1302.735 L 1226.4983,1308.9064 z"
       transform="matrix(-1.0062671,6.7111093e-2,2.6728976e-2,0.4007752,2207.1753,946.46345)" />
    <rect
       style="opacity:1;fill:url(#pattern4166);fill-opacity:1;stroke:#000000;stroke-width:0.5;stroke-linecap:round;stroke-linejoin:round;stroke-miterlimit:4;stroke-dasharray:none;stroke-dashoffset:0;stroke-opacity:1;display:inline"
       id="rect3457"
       width="7.0942688"
       height="32.505844"
       x="872.79987"
       y="1642.4324"
       transform="matrix(0.9953552,-9.6270536e-2,9.6270536e-2,0.9953552,0,0)"
       ry="0" />
    <text
       xml:space="preserve"
       style="font-size:24px;font-style:normal;font-variant:normal;font-weight:normal;font-stretch:normal;text-align:start;line-height:125%;writing-mode:lr-tb;text-anchor:start;fill:#000000;fill-opacity:1;stroke:#ffffff;stroke-width:0.25;stroke-linecap:round;stroke-linejoin:round;stroke-miterlimit:4;stroke-dasharray:none;stroke-opacity:1;font-family:Times New Roman;-inkscape-font-specification:Times New Roman"
       x="1673.1162"
       y="37.487984"
       id="text4168"
       sodipodi:linespacing="125%"
       transform="matrix(0.5718718,0.820343,-0.820343,0.5718718,0,0)"><tspan
         sodipodi:role="line"
         id="tspan4170"
         x="1673.1162"
         y="37.487984"
         style="stroke-width:0.25">North Loop</tspan><tspan
         sodipodi:role="line"
         x="1673.1162"
         y="67.487984"
         id="tspan4172"
         style="stroke-width:0.25">(short track)</tspan></text>
    <text
       xml:space="preserve"
       style="font-size:28px;font-style:normal;font-weight:normal;fill:#000000;fill-opacity:1;stroke:#ffffff;stroke-width:0.25;stroke-linecap:round;stroke-linejoin:round;stroke-miterlimit:4;stroke-dasharray:none;stroke-opacity:1;font-family:Times New Roman"
       x="-395.64182"
       y="1567.1957"
       id="text4174"
       transform="matrix(0.4707793,-0.882251,0.882251,0.4707793,0,0)"><tspan
         sodipodi:role="line"
         id="tspan4176"
         x="-395.64182"
         y="1567.1957">South Loop</tspan></text>
    <text
       xml:space="preserve"
       style="font-size:12.5714283px;font-style:normal;font-variant:normal;font-weight:bold;font-stretch:normal;text-align:start;line-height:125%;writing-mode:lr-tb;text-anchor:start;fill:#000000;fill-opacity:1;stroke:#ffffff;stroke-width:0.25;stroke-linecap:round;stroke-linejoin:round;stroke-miterlimit:4;stroke-dasharray:none;stroke-opacity:1;font-family:Times New Roman;-inkscape-font-specification:Times New Roman Bold"
       x="-721.08789"
       y="1565.2129"
       id="text4178"
       transform="matrix(0.3589221,-0.9333675,0.9333675,0.3589221,0,0)"
       sodipodi:linespacing="125%"><tspan
         sodipodi:role="line"
         id="tspan4180"
         x="-721.08789"
         y="1565.2129">Paddock for South Loop</tspan></text>
    <text
       xml:space="preserve"
       style="font-size:12.57142925px;font-style:normal;font-variant:normal;font-weight:bold;font-stretch:normal;text-align:start;line-height:125%;writing-mode:lr-tb;text-anchor:start;fill:#000000;fill-opacity:1;stroke:#ffffff;stroke-width:0.25;stroke-linecap:round;stroke-linejoin:round;stroke-miterlimit:4;stroke-dasharray:none;stroke-opacity:1;font-family:Times New Roman;-inkscape-font-specification:Times New Roman Bold"
       x="1610.037"
       y="141.1768"
       id="text4182"
       transform="matrix(0.6503004,0.7596771,-0.7596771,0.6503004,0,0)"
       sodipodi:linespacing="125%"><tspan
         sodipodi:role="line"
         id="tspan4184"
         x="1610.037"
         y="141.1768">The Esses</tspan></text>
    <text
       xml:space="preserve"
       style="font-size:12.5714283px;font-style:normal;font-variant:normal;font-weight:bold;font-stretch:normal;text-align:start;line-height:125%;writing-mode:lr-tb;text-anchor:start;fill:#000000;fill-opacity:1;stroke:#ffffff;stroke-width:0.25;stroke-linecap:round;stroke-linejoin:round;stroke-miterlimit:4;stroke-dasharray:none;stroke-opacity:1;font-family:Times New Roman;-inkscape-font-specification:Times New Roman Bold"
       x="-500.32358"
       y="1574.5685"
       id="text4186"
       transform="matrix(0.3629556,-0.9318064,0.9318064,0.3629556,0,0)"
       sodipodi:linespacing="125%"><tspan
         sodipodi:role="line"
         id="tspan4188"
         x="-500.32358"
         y="1574.5685">Hump</tspan></text>
    <path
       style="font-size:12.5714283px;font-style:normal;font-variant:normal;font-weight:bold;font-stretch:normal;text-align:start;line-height:125%;writing-mode:lr-tb;text-anchor:start;fill:#000000;fill-opacity:1;stroke:#ffffff;stroke-width:0.25;stroke-linecap:round;stroke-linejoin:round;stroke-miterlimit:4;stroke-opacity:1;font-family:Times New Roman;-inkscape-font-specification:Times New Roman Bold"
       d="M 1062.4433,1367.0635 L 1064.5308,1367.9106 L 1064.4477,1368.1154 C 1063.9169,1368.0413 1063.5162,1368.0355 1063.2458,1368.098 C 1062.9753,1368.1605 1062.7252,1368.2952 1062.4954,1368.5023 C 1062.3687,1368.6187 1062.2323,1368.857 1062.0861,1369.2173 L 1061.8529,1369.7917 L 1067.8025,1372.206 C 1068.1969,1372.3661 1068.4522,1372.4443 1068.5685,1372.4407 C 1068.6848,1372.4371 1068.8057,1372.3868 1068.9312,1372.2897 C 1069.0566,1372.1927 1069.164,1372.0342 1069.2533,1371.8143 L 1069.3571,1371.5583 L 1069.5676,1371.6437 L 1067.9288,1375.6822 L 1067.7184,1375.5968 L 1067.8222,1375.3408 C 1067.913,1375.1171 1067.9463,1374.9208 1067.9221,1374.752 C 1067.909,1374.6319 1067.8495,1374.5172 1067.7437,1374.408 C 1067.6696,1374.3294 1067.4392,1374.2116 1067.0524,1374.0546 L 1061.1028,1371.6403 L 1060.8766,1372.1977 C 1060.6658,1372.7172 1060.6227,1373.1392 1060.7472,1373.4635 C 1060.9205,1373.918 1061.2738,1374.3043 1061.8072,1374.6223 L 1061.7195,1374.8385 L 1059.632,1373.9914 L 1062.4433,1367.0635 z M 1064.9623,1362.7426 L 1067.709,1364.6092 C 1067.6119,1364.1623 1067.5803,1363.792 1067.6141,1363.4983 C 1067.648,1363.2046 1067.7443,1362.941 1067.903,1362.7075 C 1068.1054,1362.4097 1068.3631,1362.2125 1068.6761,1362.1159 C 1068.9891,1362.0194 1069.2834,1362.0141 1069.559,1362.1 C 1069.8346,1362.1859 1070.2432,1362.4128 1070.7847,1362.7808 L 1072.6378,1364.0402 C 1073,1364.2864 1073.2489,1364.406 1073.3846,1364.3993 C 1073.5203,1364.3926 1073.6701,1364.294 1073.8341,1364.1037 L 1074.0169,1364.2279 L 1072.3814,1366.6343 L 1072.1987,1366.5101 C 1072.29,1366.3248 1072.3086,1366.1519 1072.2544,1365.9913 C 1072.2078,1365.8706 1072.0135,1365.6941 1071.6717,1365.4618 L 1069.5546,1364.023 C 1069.162,1363.7561 1068.9054,1363.604 1068.7849,1363.5666 C 1068.6643,1363.5292 1068.5514,1363.528 1068.4461,1363.5628 C 1068.3408,1363.5976 1068.2571,1363.6607 1068.195,1363.7521 C 1068.103,1363.8875 1068.0598,1364.0511 1068.0655,1364.2429 C 1068.0712,1364.4348 1068.1402,1364.6846 1068.2725,1364.9922 L 1070.816,1366.7208 C 1071.1545,1366.9509 1071.3833,1367.0692 1071.5024,1367.076 C 1071.6612,1367.0899 1071.822,1367.0062 1071.9847,1366.8249 L 1072.1675,1366.9491 L 1070.5321,1369.3556 L 1070.3493,1369.2313 C 1070.4647,1369.0178 1070.497,1368.832 1070.4462,1368.6738 C 1070.4108,1368.5656 1070.2121,1368.3885 1069.8499,1368.1424 L 1065.0269,1364.8645 C 1064.6681,1364.6207 1064.4223,1364.5019 1064.2894,1364.5081 C 1064.1566,1364.5143 1064.0053,1364.6131 1063.8356,1364.8046 L 1063.6478,1364.6769 L 1064.9623,1362.7426 z M 1076.1015,1358.1211 L 1073.7913,1360.261 C 1074.3356,1360.7944 1074.893,1361.098 1075.4635,1361.172 C 1075.9015,1361.2293 1076.2661,1361.1231 1076.5573,1360.8533 C 1076.7374,1360.6865 1076.8545,1360.4846 1076.9084,1360.2478 C 1076.9624,1360.011 1076.9524,1359.6841 1076.8786,1359.2672 L 1077.1235,1359.2244 C 1077.3264,1359.9011 1077.3794,1360.4642 1077.2825,1360.9137 C 1077.1857,1361.3632 1076.9556,1361.7561 1076.5924,1362.0926 C 1075.9679,1362.671 1075.2726,1362.8689 1074.5064,1362.686 C 1073.8895,1362.5379 1073.3155,1362.1771 1072.7843,1361.6037 C 1072.1336,1360.9012 1071.8055,1360.1661 1071.8002,1359.3985 C 1071.7948,1358.6309 1072.0473,1358.0108 1072.5577,1357.538 C 1072.984,1357.1432 1073.516,1356.9753 1074.1537,1357.0344 C 1074.7914,1357.0936 1075.4407,1357.4558 1076.1015,1358.1211 L 1076.1015,1358.1211 z M 1074.7142,1358.8455 C 1074.2665,1358.3621 1073.933,1358.0547 1073.7136,1357.9233 C 1073.4942,1357.7918 1073.2858,1357.731 1073.0886,1357.7408 C 1072.9755,1357.7452 1072.8664,1357.796 1072.7613,1357.8933 C 1072.6052,1358.0379 1072.5485,1358.2327 1072.5912,1358.4775 C 1072.6616,1358.9088 1072.9123,1359.3571 1073.3433,1359.8225 L 1073.4893,1359.9801 L 1074.7142,1358.8455 z M 1086.4917,1347.1788 L 1087.3803,1349.9751 L 1087.1639,1350.0439 C 1086.6597,1349.3626 1086.0831,1348.906 1085.434,1348.6742 C 1084.785,1348.4425 1084.1504,1348.4252 1083.5303,1348.6222 C 1082.9375,1348.8106 1082.4971,1349.1341 1082.2092,1349.5927 C 1081.9212,1350.0514 1081.7902,1350.6051 1081.816,1351.2538 C 1081.8418,1351.9026 1081.9545,1352.5409 1082.154,1353.1688 C 1082.3957,1353.9294 1082.6973,1354.5678 1083.0589,1355.0841 C 1083.4205,1355.6004 1083.8439,1355.9296 1084.3292,1356.0716 C 1084.8145,1356.2137 1085.3321,1356.1974 1085.882,1356.0226 C 1086.0731,1355.9619 1086.2625,1355.8792 1086.4504,1355.7744 C 1086.6382,1355.6696 1086.8251,1355.5447 1087.0109,1355.3998 L 1086.4866,1353.7501 C 1086.3875,1353.4381 1086.3019,1353.2431 1086.2299,1353.165 C 1086.1578,1353.087 1086.0428,1353.0324 1085.8847,1353.001 C 1085.7266,1352.9697 1085.552,1352.9844 1085.3609,1353.0451 L 1085.1561,1353.1101 L 1085.0873,1352.8937 L 1088.9426,1351.6686 L 1089.0114,1351.8851 C 1088.725,1351.9975 1088.534,1352.1022 1088.4381,1352.1993 C 1088.3423,1352.2963 1088.2855,1352.4249 1088.2677,1352.5851 C 1088.2561,1352.6704 1088.2962,1352.8573 1088.3879,1353.1459 L 1088.9122,1354.7956 C 1088.477,1355.183 1088.0038,1355.5212 1087.4924,1355.8104 C 1086.981,1356.0996 1086.4308,1356.3377 1085.8419,1356.5249 C 1085.0892,1356.7641 1084.4317,1356.8603 1083.8693,1356.8135 C 1083.307,1356.7668 1082.7827,1356.6371 1082.2965,1356.4245 C 1081.8103,1356.2119 1081.3936,1355.931 1081.0465,1355.5819 C 1080.6025,1355.1304 1080.2745,1354.5712 1080.0626,1353.9043 C 1079.6833,1352.7109 1079.7822,1351.5695 1080.3592,1350.4801 C 1080.9363,1349.3907 1081.8605,1348.644 1083.1319,1348.24 C 1083.5258,1348.1148 1083.8906,1348.0333 1084.2264,1347.9953 C 1084.4079,1347.9719 1084.714,1347.9724 1085.1446,1347.9965 C 1085.5752,1348.0207 1085.8257,1348.0217 1085.8959,1347.9993 C 1086.0051,1347.9646 1086.0938,1347.8925 1086.162,1347.7827 C 1086.2301,1347.6731 1086.2679,1347.4947 1086.2753,1347.2476 L 1086.4917,1347.1788 z M 1095.6907,1349.1801 L 1096.0783,1353.6566 C 1096.116,1354.0929 1096.1803,1354.3615 1096.2712,1354.4625 C 1096.3621,1354.5634 1096.5332,1354.6174 1096.7843,1354.6245 L 1096.8034,1354.8446 L 1094.4734,1355.0463 L 1094.4072,1354.2819 C 1094.1623,1354.6317 1093.9097,1354.8928 1093.6494,1355.0653 C 1093.3891,1355.2378 1093.0898,1355.3386 1092.7514,1355.3679 C 1092.4293,1355.3958 1092.1344,1355.3217 1091.8665,1355.1457 C 1091.5986,1354.9697 1091.4104,1354.7529 1091.3019,1354.4953 C 1091.1933,1354.2377 1091.1104,1353.7787 1091.0533,1353.1182 L 1090.8568,1350.8493 C 1090.8194,1350.4172 1090.7564,1350.1515 1090.6677,1350.0524 C 1090.579,1349.9533 1090.4069,1349.8984 1090.1513,1349.8876 L 1090.1317,1349.6614 L 1092.4617,1349.4596 L 1092.8,1353.3674 C 1092.8353,1353.7751 1092.8775,1354.0364 1092.9264,1354.1513 C 1092.9754,1354.2662 1093.0443,1354.3506 1093.1332,1354.4045 C 1093.2221,1354.4584 1093.3215,1354.4806 1093.4316,1354.4711 C 1093.5784,1354.4584 1093.7075,1354.4082 1093.8191,1354.3205 C 1093.973,1354.2004 1094.1501,1353.9694 1094.3506,1353.6275 L 1094.0858,1350.5698 C 1094.0484,1350.1376 1093.9854,1349.872 1093.8967,1349.7729 C 1093.808,1349.6737 1093.6359,1349.6188 1093.3803,1349.6081 L 1093.3607,1349.3818 L 1095.6907,1349.1801 z M 1099.6181,1346.469 L 1099.8502,1353.598 C 1099.8634,1354.0029 1099.9189,1354.2601 1100.0166,1354.3695 C 1100.1144,1354.4789 1100.3005,1354.5373 1100.5751,1354.5448 L 1100.5823,1354.7656 L 1097.484,1354.8665 L 1097.4768,1354.6457 C 1097.7302,1354.6292 1097.9159,1354.5495 1098.0341,1354.4064 C 1098.1128,1354.3097 1098.1456,1354.0589 1098.1324,1353.6539 L 1097.939,1347.7151 C 1097.926,1347.3143 1097.8706,1347.0592 1097.7728,1346.9498 C 1097.6751,1346.8404 1097.491,1346.7819 1097.2205,1346.7743 L 1097.2131,1346.5473 L 1099.6181,1346.469 z M 1105.8078,1353.251 L 1105.9988,1353.3975 C 1105.731,1353.9061 1105.3962,1354.2852 1104.9942,1354.5346 C 1104.5923,1354.7841 1104.1642,1354.9098 1103.71,1354.9119 C 1102.9447,1354.9155 1102.3316,1354.6298 1101.8706,1354.0549 C 1101.4096,1353.48 1101.1772,1352.7874 1101.1735,1351.9772 C 1101.1699,1351.1956 1101.3754,1350.5071 1101.7901,1349.9118 C 1102.2901,1349.1934 1102.9821,1348.8321 1103.866,1348.828 C 1104.4594,1348.8253 1104.9317,1348.9725 1105.283,1349.2696 C 1105.6343,1349.5667 1105.8107,1349.8994 1105.8124,1350.2677 C 1105.8135,1350.501 1105.7438,1350.6875 1105.6032,1350.8273 C 1105.4627,1350.9671 1105.2778,1351.0375 1105.0487,1351.0385 C 1104.8072,1351.0396 1104.6074,1350.9608 1104.4491,1350.8019 C 1104.2908,1350.643 1104.1923,1350.3591 1104.1536,1349.95 C 1104.1278,1349.6923 1104.0677,1349.5125 1103.9731,1349.4107 C 1103.8785,1349.3088 1103.7678,1349.2582 1103.6409,1349.2587 C 1103.4445,1349.2596 1103.2772,1349.3648 1103.139,1349.5741 C 1102.9277,1349.8902 1102.8235,1350.3736 1102.8265,1351.0242 C 1102.829,1351.5644 1102.9173,1352.0806 1103.0915,1352.573 C 1103.2656,1353.0653 1103.5026,1353.4315 1103.8024,1353.6715 C 1104.0283,1353.8465 1104.2947,1353.9332 1104.6016,1353.9318 C 1104.8022,1353.9309 1104.9922,1353.8829 1105.1719,1353.788 C 1105.3515,1353.693 1105.5635,1353.514 1105.8078,1353.251 L 1105.8078,1353.251 z M 1109.1491,1346.4586 L 1109.1195,1349.7793 C 1109.4375,1349.4507 1109.7281,1349.219 1109.9912,1349.0842 C 1110.2543,1348.9495 1110.5271,1348.8834 1110.8094,1348.8859 C 1111.1695,1348.8891 1111.4765,1348.9941 1111.7305,1349.201 C 1111.9844,1349.4079 1112.1521,1349.6498 1112.2335,1349.9268 C 1112.3149,1350.2038 1112.3527,1350.6696 1112.3469,1351.3243 L 1112.3269,1353.5648 C 1112.323,1354.0026 1112.3615,1354.2761 1112.4423,1354.3853 C 1112.5232,1354.4945 1112.6883,1354.5645 1112.9377,1354.5954 L 1112.9357,1354.8163 L 1110.0262,1354.7904 L 1110.0282,1354.5694 C 1110.2331,1354.5426 1110.3872,1354.4621 1110.4908,1354.328 C 1110.5654,1354.2223 1110.6045,1353.9627 1110.6082,1353.5494 L 1110.631,1350.9898 C 1110.6353,1350.5152 1110.6195,1350.2173 1110.5838,1350.0962 C 1110.548,1349.9752 1110.4864,1349.8805 1110.3991,1349.8122 C 1110.3117,1349.7439 1110.2128,1349.7093 1110.1023,1349.7083 C 1109.9386,1349.7068 1109.7785,1349.7617 1109.622,1349.8728 C 1109.4655,1349.984 1109.2959,1350.1799 1109.1134,1350.4606 L 1109.0859,1353.5359 C 1109.0823,1353.9451 1109.1107,1354.2011 1109.1712,1354.3039 C 1109.2477,1354.4438 1109.4065,1354.5311 1109.6476,1354.566 L 1109.6457,1354.787 L 1106.7362,1354.761 L 1106.7382,1354.5401 C 1106.9798,1354.5177 1107.1524,1354.4414 1107.2558,1354.3114 C 1107.3262,1354.222 1107.3634,1353.9584 1107.3673,1353.5205 L 1107.4193,1347.6893 C 1107.4232,1347.2555 1107.3857,1346.9851 1107.3068,1346.878 C 1107.228,1346.7709 1107.0618,1346.6998 1106.8084,1346.6648 L 1106.8104,1346.4377 L 1109.1491,1346.4586 z"
       id="text4190" />
    <path
       style="fill:none;fill-rule:evenodd;stroke:none;stroke-width:1px;stroke-linecap:butt;stroke-linejoin:miter;stroke-opacity:1"
       d="M 1067.3253,1377.6026 C 1070.616,1367.6621 1073.9293,1363.2186 1081.3849,1358.1752 C 1087.9964,1353.7028 1107.9684,1354.9277 1113.5416,1354.8052"
       id="path4194"
       sodipodi:nodetypes="css" />
    <path
       style="font-size:12.5714283px;font-style:normal;font-variant:normal;font-weight:bold;font-stretch:normal;text-align:start;line-height:125%;writing-mode:lr-tb;text-anchor:start;fill:#000000;fill-opacity:1;stroke:#ffffff;stroke-width:0.25;stroke-linecap:round;stroke-linejoin:round;stroke-miterlimit:4;stroke-opacity:1;font-family:Times New Roman;-inkscape-font-specification:Times New Roman Bold"
       d="M 1015.6457,1438.3521 C 1015.4523,1439.1397 1015.2229,1439.6915 1014.9572,1440.0077 C 1014.5795,1440.4616 1014.094,1440.6851 1013.5007,1440.6782 C 1012.8746,1440.6709 1012.3599,1440.4132 1011.9566,1439.9051 C 1011.4686,1439.2814 1011.2316,1438.3803 1011.2453,1437.2019 L 1011.2947,1432.9728 L 1011.5218,1432.9754 C 1011.5173,1433.3601 1011.5501,1433.6214 1011.6201,1433.7593 C 1011.6901,1433.8972 1011.7821,1433.9945 1011.896,1434.051 C 1012.0099,1434.1076 1012.292,1434.1385 1012.7421,1434.1438 L 1018.1435,1434.2069 C 1018.5936,1434.2121 1018.8773,1434.1878 1018.9946,1434.1339 C 1019.1118,1434.08 1019.2061,1433.9839 1019.2772,1433.8456 C 1019.3484,1433.7073 1019.3862,1433.4479 1019.3907,1433.0673 L 1019.6178,1433.07 L 1019.5712,1437.0597 C 1019.5601,1438.0131 1019.4673,1438.6873 1019.2928,1439.0822 C 1019.1184,1439.4772 1018.861,1439.7872 1018.5208,1440.0124 C 1018.1805,1440.2376 1017.8201,1440.348 1017.4395,1440.3436 C 1017.0385,1440.3389 1016.6832,1440.1895 1016.3735,1439.8953 C 1016.0639,1439.6011 1015.8213,1439.0867 1015.6457,1438.3521 L 1015.6457,1438.3521 z M 1015.8375,1436.1198 C 1015.8307,1436.7009 1015.8912,1437.1303 1016.0189,1437.408 C 1016.1466,1437.6857 1016.3283,1437.8996 1016.5639,1438.0497 C 1016.7995,1438.1998 1017.1015,1438.277 1017.4698,1438.2813 C 1017.838,1438.2856 1018.1407,1438.2165 1018.3777,1438.074 C 1018.6146,1437.9315 1018.7961,1437.7259 1018.922,1437.4572 C 1019.0479,1437.1886 1019.1123,1436.7555 1019.1152,1436.1581 L 1015.8375,1436.1198 z M 1015.3588,1436.1142 L 1012.6887,1436.083 L 1012.3819,1436.0733 C 1012.1609,1436.0707 1011.9935,1436.125 1011.8797,1436.2363 C 1011.7658,1436.3475 1011.7076,1436.5136 1011.7051,1436.7345 C 1011.7012,1437.0619 1011.7703,1437.3645 1011.9124,1437.6424 C 1012.0544,1437.9203 1012.2627,1438.1346 1012.5372,1438.2851 C 1012.8117,1438.4356 1013.1187,1438.5129 1013.4584,1438.5169 C 1013.8471,1438.5214 1014.197,1438.4354 1014.508,1438.259 C 1014.8191,1438.0826 1015.0378,1437.8375 1015.1643,1437.5239 C 1015.2907,1437.2102 1015.3555,1436.7403 1015.3588,1436.1142 L 1015.3588,1436.1142 z M 1017.4946,1443.1094 L 1016.2051,1443.2849 C 1016.8444,1443.582 1017.2797,1443.8594 1017.5109,1444.117 C 1017.7421,1444.3746 1017.8757,1444.6352 1017.9115,1444.8988 C 1017.9424,1445.1259 1017.8972,1445.3168 1017.7758,1445.4717 C 1017.6544,1445.6266 1017.4659,1445.7214 1017.2105,1445.7562 C 1016.9388,1445.7931 1016.719,1445.7559 1016.551,1445.6446 C 1016.383,1445.5332 1016.2864,1445.3843 1016.261,1445.1977 C 1016.2317,1444.9828 1016.2753,1444.7869 1016.3916,1444.61 C 1016.508,1444.4331 1016.5723,1444.3294 1016.5847,1444.2988 C 1016.6035,1444.2549 1016.6093,1444.2066 1016.6022,1444.1539 C 1016.5862,1444.0363 1016.5264,1443.9309 1016.4228,1443.8376 C 1016.2623,1443.6901 1016.0486,1443.5912 1015.7815,1443.5408 C 1015.3705,1443.4645 1014.9278,1443.4587 1014.4534,1443.5233 L 1013.1457,1443.7012 L 1012.8059,1443.7536 C 1012.5748,1443.7851 1012.4287,1443.8194 1012.3677,1443.8566 C 1012.2649,1443.9202 1012.1946,1444.003 1012.1568,1444.1052 C 1012.1191,1444.2074 1012.1096,1444.3729 1012.1284,1444.6016 L 1011.9094,1444.6314 L 1011.4915,1441.5598 L 1011.7104,1441.53 C 1011.7643,1441.7746 1011.855,1441.9326 1011.9825,1442.0041 C 1012.1099,1442.0755 1012.4209,1442.0776 1012.9156,1442.0103 L 1016.0602,1441.5824 C 1016.3846,1441.5383 1016.5892,1441.4939 1016.674,1441.4493 C 1016.782,1441.3933 1016.8571,1441.3232 1016.8994,1441.239 C 1016.9416,1441.1548 1016.9596,1441.014 1016.9534,1440.8166 L 1017.1784,1440.786 L 1017.4946,1443.1094 z M 1020.9229,1446.8311 C 1020.9717,1447.0926 1020.9216,1447.331 1020.7724,1447.5462 C 1020.6232,1447.7614 1020.4198,1447.8931 1020.1624,1447.9412 C 1019.905,1447.9893 1019.6686,1447.9388 1019.4534,1447.7896 C 1019.2382,1447.6404 1019.1065,1447.4371 1019.0584,1447.1796 C 1019.0103,1446.9222 1019.0598,1446.686 1019.207,1446.4712 C 1019.3542,1446.2563 1019.5565,1446.1248 1019.8139,1446.0767 C 1020.0714,1446.0286 1020.3085,1446.078 1020.5254,1446.2248 C 1020.7423,1446.3716 1020.8747,1446.5737 1020.9229,1446.8311 L 1020.9229,1446.8311 z M 1018.3474,1448.1867 L 1013.8763,1449.0224 C 1013.478,1449.0968 1013.2322,1449.1906 1013.1389,1449.3038 C 1013.0456,1449.417 1013.016,1449.6099 1013.0503,1449.8824 L 1012.8331,1449.923 L 1012.2636,1446.8759 L 1012.4808,1446.8353 C 1012.5355,1447.0832 1012.6425,1447.2547 1012.8018,1447.3498 C 1012.9094,1447.4129 1013.1623,1447.4073 1013.5605,1447.3329 L 1016.855,1446.7172 C 1017.2532,1446.6427 1017.499,1446.5489 1017.5924,1446.4357 C 1017.6857,1446.3225 1017.7156,1446.1317 1017.6821,1445.8632 L 1017.9053,1445.8215 L 1018.3474,1448.1867 z M 1022.2877,1454.0336 L 1015.8521,1455.5196 C 1015.4175,1455.62 1015.1631,1455.6913 1015.0888,1455.7337 C 1014.9646,1455.7959 1014.881,1455.8793 1014.8379,1455.9837 C 1014.7948,1456.0882 1014.7911,1456.2539 1014.8267,1456.4809 L 1014.6293,1456.5265 L 1013.6232,1454.2703 L 1014.5084,1454.0659 C 1014.1002,1453.862 1013.8087,1453.6636 1013.634,1453.4709 C 1013.4592,1453.2781 1013.3397,1453.0422 1013.2752,1452.7631 C 1013.1104,1452.0493 1013.2991,1451.4115 1013.8413,1450.8495 C 1014.2823,1450.3949 1014.8797,1450.0805 1015.6333,1449.9065 C 1016.2353,1449.7675 1016.7986,1449.7466 1017.3229,1449.8439 C 1017.8473,1449.9413 1018.2728,1450.1423 1018.5993,1450.447 C 1018.9259,1450.7516 1019.137,1451.1113 1019.2328,1451.526 C 1019.2945,1451.7932 1019.2974,1452.0424 1019.2416,1452.2737 C 1019.1858,1452.5049 1019.0555,1452.7681 1018.8506,1453.0632 L 1020.5373,1452.6738 C 1020.9639,1452.5753 1021.217,1452.4979 1021.2964,1452.4418 C 1021.401,1452.3672 1021.4701,1452.2757 1021.5039,1452.1671 C 1021.5376,1452.0585 1021.5241,1451.8726 1021.4633,1451.6095 L 1021.7145,1451.5514 L 1022.2877,1454.0336 z M 1018.109,1453.2345 C 1018.6071,1452.8087 1018.8068,1452.3825 1018.7083,1451.9558 C 1018.6743,1451.8083 1018.6063,1451.6959 1018.5045,1451.6186 C 1018.3468,1451.4996 1018.1016,1451.4292 1017.769,1451.4073 C 1017.4363,1451.3854 1016.949,1451.4486 1016.3071,1451.5968 C 1015.6013,1451.7598 1015.0909,1451.9322 1014.7759,1452.1142 C 1014.461,1452.2961 1014.2484,1452.4943 1014.1383,1452.7087 C 1014.0838,1452.8179 1014.0749,1452.9522 1014.1117,1453.1117 C 1014.1927,1453.4626 1014.5443,1453.73 1015.1663,1453.914 L 1018.109,1453.2345 z M 1020.9827,1459.3007 L 1021.5045,1461.1625 L 1020.8543,1461.3448 L 1020.5578,1460.2868 C 1020.4188,1460.5339 1020.281,1460.7171 1020.1444,1460.8361 C 1019.9581,1460.9903 1019.7487,1461.1 1019.5163,1461.1652 C 1019.1222,1461.2756 1018.7497,1461.2621 1018.3988,1461.1246 C 1018.0479,1460.987 1017.7379,1460.753 1017.469,1460.4226 C 1017.1999,1460.0921 1017.0246,1459.7811 1016.9429,1459.4895 C 1016.9362,1459.4658 1016.8798,1459.2266 1016.7736,1458.7719 C 1016.7239,1458.5946 1016.6241,1458.4621 1016.4742,1458.3745 C 1016.3243,1458.2869 1016.1685,1458.2658 1016.007,1458.311 C 1015.8651,1458.3508 1015.764,1458.4376 1015.7038,1458.5713 C 1015.6435,1458.7051 1015.6476,1458.8941 1015.7161,1459.1384 L 1016.0145,1460.1577 C 1016.2465,1460.9851 1016.3154,1461.5799 1016.2214,1461.942 C 1016.094,1462.458 1015.7683,1462.7894 1015.2442,1462.9363 C 1014.9093,1463.0302 1014.5762,1463.013 1014.2449,1462.8849 C 1013.9136,1462.7567 1013.636,1462.5434 1013.4121,1462.2449 C 1013.0765,1461.7907 1012.816,1461.2326 1012.6304,1460.5706 C 1012.4913,1460.0742 1012.4125,1459.6075 1012.3942,1459.1706 C 1012.3759,1458.7338 1012.4276,1458.4026 1012.5493,1458.1773 C 1012.671,1457.9519 1012.8264,1457.8127 1013.0156,1457.7597 C 1013.1968,1457.7089 1013.3784,1457.7313 1013.5604,1457.827 C 1013.7423,1457.9226 1013.9344,1458.1418 1014.1367,1458.4846 C 1014.2454,1457.9017 1014.5243,1457.5472 1014.9735,1457.4213 C 1015.2454,1457.3451 1015.5386,1457.3756 1015.8533,1457.5126 C 1016.168,1457.6497 1016.4834,1457.9183 1016.7995,1458.3184 C 1016.8446,1457.7363 1016.9916,1457.2828 1017.2406,1456.958 C 1017.4896,1456.6333 1017.8209,1456.4129 1018.2347,1456.2969 C 1018.7745,1456.1456 1019.3043,1456.2351 1019.824,1456.5655 C 1020.3437,1456.8958 1020.7007,1457.4077 1020.8951,1458.1012 C 1020.9978,1458.4677 1021.027,1458.8675 1020.9827,1459.3007 L 1020.9827,1459.3007 z M 1020.5601,1458.3162 C 1020.4961,1458.0877 1020.3267,1457.9269 1020.052,1457.8339 C 1019.7773,1457.7409 1019.2774,1457.796 1018.5524,1457.9992 C 1017.9653,1458.1638 1017.5842,1458.3545 1017.4091,1458.5715 C 1017.2341,1458.7884 1017.1763,1459.0033 1017.236,1459.2161 C 1017.3022,1459.4525 1017.4658,1459.6191 1017.7267,1459.716 C 1017.9876,1459.8129 1018.4313,1459.7735 1019.0579,1459.5979 C 1019.7632,1459.4002 1020.2191,1459.1768 1020.4255,1458.9277 C 1020.5793,1458.7486 1020.6242,1458.5448 1020.5601,1458.3162 L 1020.5601,1458.3162 z M 1014.3212,1459.6888 C 1014.2086,1459.2868 1014.1006,1459.0302 1013.9971,1458.919 C 1013.812,1458.7286 1013.615,1458.6627 1013.4062,1458.7212 C 1013.2052,1458.7776 1013.0556,1458.9449 1012.9572,1459.2232 C 1012.8588,1459.5015 1012.8997,1459.9618 1013.0797,1460.6041 C 1013.2332,1461.1518 1013.4268,1461.5619 1013.6604,1461.8343 C 1013.894,1462.1067 1014.1428,1462.2059 1014.4068,1462.1319 C 1014.5053,1462.1043 1014.5797,1462.0515 1014.6302,1461.9736 C 1014.7186,1461.8341 1014.7543,1461.6509 1014.7375,1461.424 C 1014.7206,1461.1971 1014.5819,1460.6187 1014.3212,1459.6888 L 1014.3212,1459.6888 z M 1020.6845,1466.9822 L 1019.6973,1463.9919 C 1018.9861,1464.2655 1018.4783,1464.6465 1018.1741,1465.1348 C 1017.9401,1465.5094 1017.8853,1465.8852 1018.0098,1466.2621 C 1018.0867,1466.4953 1018.2217,1466.6856 1018.4148,1466.833 C 1018.6078,1466.9804 1018.9093,1467.1072 1019.3192,1467.2132 L 1019.2564,1467.4537 C 1018.5566,1467.3572 1018.0224,1467.1716 1017.6537,1466.8968 C 1017.285,1466.6221 1017.023,1466.2496 1016.8678,1465.7794 C 1016.601,1464.9711 1016.7098,1464.2564 1017.1942,1463.6354 C 1017.5852,1463.1357 1018.1518,1462.7633 1018.894,1462.5183 C 1019.8033,1462.2181 1020.6082,1462.2249 1021.3087,1462.5388 C 1022.0092,1462.8527 1022.4685,1463.3399 1022.6866,1464.0005 C 1022.8688,1464.5523 1022.8006,1465.106 1022.4819,1465.6615 C 1022.1633,1466.2171 1021.5641,1466.6573 1020.6845,1466.9822 L 1020.6845,1466.9822 z M 1020.6017,1465.4193 C 1021.2273,1465.2128 1021.6455,1465.037 1021.8562,1464.892 C 1022.0669,1464.747 1022.2087,1464.5828 1022.2817,1464.3992 C 1022.3247,1464.2945 1022.3238,1464.1742 1022.2789,1464.0382 C 1022.2122,1463.8361 1022.0585,1463.7037 1021.818,1463.6409 C 1021.3965,1463.5258 1020.8845,1463.5677 1020.2822,1463.7665 L 1020.0782,1463.8339 L 1020.6017,1465.4193 z M 1030.0449,1472.6165 L 1028.2585,1473.9889 L 1028.1238,1473.8137 C 1028.4562,1473.3932 1028.6638,1473.0505 1028.7467,1472.7856 C 1028.8296,1472.5206 1028.8398,1472.2367 1028.7774,1471.9338 C 1028.741,1471.7656 1028.6044,1471.5273 1028.3676,1471.219 L 1027.9899,1470.7274 L 1022.8982,1474.639 C 1022.5607,1474.8983 1022.3641,1475.079 1022.3084,1475.1811 C 1022.2527,1475.2833 1022.235,1475.413 1022.2552,1475.5703 C 1022.2754,1475.7277 1022.3579,1475.9004 1022.5025,1476.0887 L 1022.6707,1476.3077 L 1022.4906,1476.4461 L 1019.8355,1472.99 L 1020.0156,1472.8516 L 1020.1839,1473.0706 C 1020.331,1473.2621 1020.4835,1473.3901 1020.6414,1473.4546 C 1020.7516,1473.504 1020.8806,1473.5107 1021.0284,1473.4746 C 1021.1337,1473.4505 1021.3518,1473.3113 1021.6828,1473.057 L 1026.7745,1469.1454 L 1026.4081,1468.6683 C 1026.0665,1468.2237 1025.7243,1467.9731 1025.3816,1467.9165 C 1024.9018,1467.8361 1024.3899,1467.9456 1023.8457,1468.2449 L 1023.7036,1468.0599 L 1025.4901,1466.6875 L 1030.0449,1472.6165 z M 1032.2698,1476.9876 L 1029.4924,1480.5197 C 1029.2218,1480.8639 1029.0851,1481.104 1029.0824,1481.2398 C 1029.0797,1481.3756 1029.1676,1481.532 1029.3461,1481.7088 L 1029.2095,1481.8825 L 1027.3711,1480.4369 L 1027.8454,1479.8337 C 1027.4275,1479.9216 1027.0646,1479.9395 1026.7568,1479.8874 C 1026.4489,1479.8354 1026.1615,1479.7044 1025.8945,1479.4944 C 1025.6403,1479.2946 1025.4757,1479.0389 1025.4005,1478.7273 C 1025.3254,1478.4157 1025.3362,1478.1288 1025.4331,1477.8666 C 1025.53,1477.6044 1025.7833,1477.2127 1026.1931,1476.6916 L 1027.6007,1474.9014 C 1027.8688,1474.5604 1028.0044,1474.3234 1028.0075,1474.1905 C 1028.0105,1474.0575 1027.9224,1473.8998 1027.7432,1473.7172 L 1027.8836,1473.5386 L 1029.722,1474.9843 L 1027.2975,1478.0676 C 1027.0446,1478.3893 1026.8967,1478.6088 1026.8539,1478.7261 C 1026.8111,1478.8435 1026.8037,1478.9522 1026.8317,1479.0523 C 1026.8597,1479.1524 1026.9171,1479.2366 1027.004,1479.3049 C 1027.1198,1479.3959 1027.2484,1479.4476 1027.3897,1479.4598 C 1027.5842,1479.4774 1027.8714,1479.4299 1028.2514,1479.3174 L 1030.1485,1476.9048 C 1030.4166,1476.5638 1030.5522,1476.3268 1030.5552,1476.1938 C 1030.5583,1476.0609 1030.4702,1475.9031 1030.291,1475.7205 L 1030.4314,1475.542 L 1032.2698,1476.9876 z M 1035.1236,1478.9094 L 1034.3922,1479.9858 C 1035.0405,1479.7089 1035.5377,1479.5705 1035.8839,1479.5707 C 1036.2301,1479.5709 1036.5132,1479.6458 1036.7332,1479.7953 C 1036.9228,1479.9241 1037.0346,1480.0854 1037.0686,1480.2792 C 1037.1027,1480.473 1037.0473,1480.6765 1036.9024,1480.8898 C 1036.7483,1481.1166 1036.5737,1481.2552 1036.3786,1481.3057 C 1036.1835,1481.3562 1036.0081,1481.3286 1035.8524,1481.2228 C 1035.673,1481.1009 1035.5564,1480.9376 1035.5026,1480.7328 C 1035.4487,1480.528 1035.4146,1480.4108 1035.4001,1480.3812 C 1035.38,1480.3378 1035.348,1480.3012 1035.304,1480.2713 C 1035.2058,1480.2047 1035.0875,1480.1786 1034.9489,1480.1933 C 1034.7319,1480.2141 1034.5154,1480.307 1034.2994,1480.4719 C 1033.968,1480.7267 1033.6678,1481.0521 1033.3987,1481.4481 L 1032.657,1482.5397 L 1032.4689,1482.8275 C 1032.3378,1483.0204 1032.2657,1483.152 1032.2526,1483.2223 C 1032.2312,1483.3413 1032.2458,1483.4489 1032.2966,1483.5453 C 1032.3474,1483.6417 1032.4641,1483.7593 1032.6468,1483.8983 L 1032.5226,1484.081 L 1029.9586,1482.3389 L 1030.0827,1482.1561 C 1030.3007,1482.2795 1030.4789,1482.3177 1030.6172,1482.2707 C 1030.7555,1482.2236 1030.965,1481.9936 1031.2455,1481.5807 L 1033.029,1478.9557 C 1033.213,1478.6849 1033.3168,1478.5031 1033.3403,1478.4102 C 1033.3708,1478.2925 1033.3689,1478.1897 1033.3345,1478.102 C 1033.3001,1478.0143 1033.2074,1477.9068 1033.0564,1477.7795 L 1033.184,1477.5916 L 1035.1236,1478.9094 z M 1039.709,1481.9293 L 1039.2982,1482.5481 C 1039.7202,1482.4452 1040.0839,1482.4079 1040.3892,1482.4362 C 1040.6946,1482.4646 1040.9768,1482.5648 1041.2359,1482.7368 C 1041.5462,1482.9428 1041.7464,1483.1998 1041.8367,1483.5078 C 1041.9269,1483.8158 1041.9213,1484.1202 1041.8197,1484.4212 C 1041.7452,1484.6517 1041.5246,1485.0432 1041.1579,1485.5955 L 1039.9221,1487.4569 C 1039.6776,1487.8251 1039.5586,1488.0765 1039.5651,1488.2109 C 1039.5716,1488.3454 1039.6726,1488.4948 1039.8682,1488.659 L 1039.7459,1488.8431 L 1037.327,1487.2371 L 1037.4493,1487.053 C 1037.6458,1487.1491 1037.8252,1487.1601 1037.9873,1487.086 C 1038.0985,1487.037 1038.2661,1486.8438 1038.4902,1486.5062 L 1039.9026,1484.3789 C 1040.1629,1483.9868 1040.3117,1483.7294 1040.3489,1483.6068 C 1040.3861,1483.4841 1040.3867,1483.3704 1040.3508,1483.2654 C 1040.3148,1483.1605 1040.2525,1483.0786 1040.1639,1483.0198 C 1039.8707,1482.8251 1039.4588,1482.8537 1038.9281,1483.1055 L 1037.227,1485.6676 C 1036.9894,1486.0256 1036.8721,1486.2744 1036.8752,1486.414 C 1036.8783,1486.5536 1036.9623,1486.6953 1037.1271,1486.8391 L 1037.0049,1487.0232 L 1034.586,1485.4172 L 1034.7082,1485.2331 C 1034.923,1485.3462 1035.1092,1485.3765 1035.2668,1485.324 C 1035.3746,1485.2875 1035.5507,1485.0851 1035.7951,1484.7169 L 1037.5878,1482.0168 C 1037.8278,1481.6554 1037.9439,1481.4083 1037.9363,1481.2755 C 1037.9287,1481.1428 1037.8282,1480.9926 1037.635,1480.825 L 1037.7606,1480.6357 L 1039.709,1481.9293 z"
       id="text4199" />
    <path
       style="fill:none;fill-rule:evenodd;stroke:none;stroke-width:1px;stroke-linecap:butt;stroke-linejoin:miter;stroke-opacity:1"
       d="M 1011.5762,1432.7279 C 1009.7181,1442.3464 1016.2235,1465.2017 1019.4459,1472.0761 C 1022.7249,1479.0714 1037.3355,1486.7047 1041.4152,1490.1107"
       id="path4203"
       sodipodi:nodetypes="czs" />
    <text
       xml:space="preserve"
       style="font-size:12.5714283px;font-style:normal;font-variant:normal;font-weight:bold;font-stretch:normal;text-align:start;line-height:125%;writing-mode:lr-tb;text-anchor:start;fill:#000000;fill-opacity:1;stroke:#ffffff;stroke-width:0.25;stroke-linecap:round;stroke-linejoin:round;stroke-miterlimit:4;stroke-dasharray:none;stroke-opacity:1;font-family:Times New Roman;-inkscape-font-specification:Times New Roman Bold"
       x="11.540386"
       y="2058.3606"
       id="text4208"
       transform="matrix(0.7959843,-0.6053173,0.6053173,0.7959843,0,0)"
       sodipodi:linespacing="125%"><tspan
         sodipodi:role="line"
         id="tspan4210"
         x="11.540386"
         y="2058.3606">Namerow</tspan></text>
    <g
       id="g4220">
      <text
         transform="matrix(0.9958932,-9.0535526e-2,9.0535526e-2,0.9958932,0,0)"
         id="text3341"
         y="1679.2017"
         x="979.87354"
         style="font-size:12px;font-style:normal;font-variant:normal;font-weight:bold;font-stretch:normal;text-align:center;line-height:125%;writing-mode:lr-tb;text-anchor:middle;fill:#000000;fill-opacity:1;stroke:#ffffff;stroke-width:0.25;stroke-linecap:round;stroke-linejoin:round;stroke-miterlimit:4;stroke-dasharray:none;stroke-opacity:1;font-family:Times New Roman;-inkscape-font-specification:Times New Roman Bold"
         xml:space="preserve"
         sodipodi:linespacing="125%"><tspan
           y="1679.2017"
           x="979.87354"
           id="tspan3343"
           sodipodi:role="line">Control</tspan><tspan
           id="tspan3345"
           y="1694.2017"
           x="979.87354"
           sodipodi:role="line">Tower</tspan></text>
      <path
         d="M 1076.542,1576.3114 A 3.0417953,3.0417953 0 1 1 1070.4584,1576.3114 A 3.0417953,3.0417953 0 1 1 1076.542,1576.3114 z"
         sodipodi:ry="3.0417953"
         sodipodi:rx="3.0417953"
         sodipodi:cy="1576.3114"
         sodipodi:cx="1073.5002"
         id="path3347"
         style="opacity:1;fill:#313dc8;fill-opacity:1;stroke:#ffffff;stroke-width:0.25;stroke-linecap:round;stroke-linejoin:round;stroke-miterlimit:4;stroke-dasharray:none;stroke-dashoffset:0;stroke-opacity:1"
         sodipodi:type="arc" />
      <path
         id="path3351"
         d="M 1076.9375,1578.7812 L 1081.7812,1585.9688 L 1082.7188,1585 C 1087.0821,1588.7212 1093.9461,1590.0379 1099.7188,1590.4688 C 1105.5354,1590.9028 1110.2812,1590.4062 1110.2812,1590.4062 L 1110.1875,1589.4062 C 1110.1875,1589.4062 1105.5024,1589.8956 1099.7812,1589.4688 C 1094.1317,1589.0471 1087.4982,1587.6995 1083.4375,1584.2812 L 1084.1875,1583.5 L 1076.9375,1578.7812 z"
         style="fill:#000000;fill-opacity:1;fill-rule:evenodd;stroke:#ffffff;stroke-width:0.25;stroke-linecap:butt;stroke-linejoin:miter;stroke-miterlimit:4;stroke-dasharray:none;stroke-opacity:1;display:inline" />
    </g>
    <text
       xml:space="preserve"
       style="font-size:12.5714283px;font-style:normal;font-variant:normal;font-weight:bold;font-stretch:normal;text-align:start;line-height:125%;writing-mode:lr-tb;text-anchor:start;fill:#000000;fill-opacity:1;stroke:#ffffff;stroke-width:0.24999999;stroke-linecap:round;stroke-linejoin:round;stroke-miterlimit:4;stroke-dasharray:none;stroke-opacity:1;font-family:Times New Roman;-inkscape-font-specification:Times New Roman Bold"
       x="1404.9054"
       y="1201.809"
       id="text4355"
       transform="matrix(0.9755851,0.2196219,-0.2196219,0.9755851,0,0)"
       sodipodi:linespacing="125%"><tspan
         sodipodi:role="line"
         id="tspan4357"
         x="1404.9054"
         y="1201.809">The Kink</tspan></text>
    <g
       transform="translate(-2.0642759,21.674894)"
       id="g2487">
      <path
         sodipodi:type="arc"
         style="opacity:1;fill:#ffffff;fill-opacity:1;stroke:#151515;stroke-width:1;stroke-linecap:round;stroke-linejoin:round;stroke-miterlimit:4;stroke-dasharray:none;stroke-dashoffset:0;stroke-opacity:1;display:inline"
         id="path2489"
         sodipodi:cx="1143.9454"
         sodipodi:cy="1444.5167"
         sodipodi:rx="13.162147"
         sodipodi:ry="13.162147"
         d="M 1157.1076,1444.5167 A 13.162147,13.162147 0 1 1 1130.7833,1444.5167 A 13.162147,13.162147 0 1 1 1157.1076,1444.5167 z"
         transform="matrix(1.0661159,0,0,1.0661159,-224.07763,-251.50989)" />
      <text
         xml:space="preserve"
         style="font-size:28px;font-style:normal;font-weight:normal;fill:#000000;fill-opacity:1;stroke:none;stroke-width:1px;stroke-linecap:butt;stroke-linejoin:miter;stroke-opacity:1;font-family:Times New Roman"
         x="988.75372"
         y="1297.6178"
         id="text2491"><tspan
           sodipodi:role="line"
           id="tspan2493"
           x="988.75372"
           y="1297.6178">5</tspan></text>
    </g>
  </g>
</svg>
