<?xml version="1.0" encoding="UTF-8" standalone="no"?>
<!-- Created with Inkscape (http://www.inkscape.org/) -->

<svg
   xmlns:dc="http://purl.org/dc/elements/1.1/"
   xmlns:cc="http://creativecommons.org/ns#"
   xmlns:rdf="http://www.w3.org/1999/02/22-rdf-syntax-ns#"
   xmlns:svg="http://www.w3.org/2000/svg"
   xmlns="http://www.w3.org/2000/svg"
   xmlns:sodipodi="http://sodipodi.sourceforge.net/DTD/sodipodi-0.dtd"
   xmlns:inkscape="http://www.inkscape.org/namespaces/inkscape"
   version="1.0"
   width="454.82318"
   height="223.2357"
   id="svg2"
   sodipodi:version="0.32"
   inkscape:version="0.48.0 r9654"
   sodipodi:docname="Circuit_Valensia_street.svg"
   inkscape:output_extension="org.inkscape.output.svg.inkscape">
  <metadata
     id="metadata33">
    <rdf:RDF>
      <cc:Work
         rdf:about="">
        <dc:format>image/svg+xml</dc:format>
        <dc:type
           rdf:resource="http://purl.org/dc/dcmitype/StillImage" />
      </cc:Work>
    </rdf:RDF>
  </metadata>
  <sodipodi:namedview
     inkscape:window-height="838"
     inkscape:window-width="1440"
     inkscape:pageshadow="2"
     inkscape:pageopacity="0.0"
     guidetolerance="10.0"
     gridtolerance="10.0"
     objecttolerance="10.0"
     borderopacity="1.0"
     bordercolor="#666666"
     pagecolor="#ffffff"
     id="base"
     showgrid="false"
     inkscape:zoom="3.6203868"
     inkscape:cx="219.43561"
     inkscape:cy="115.9958"
     inkscape:window-x="-8"
     inkscape:window-y="-8"
     inkscape:current-layer="svg2"
     inkscape:window-maximized="1" />
  <defs
     id="defs4">
    <inkscape:perspective
       sodipodi:type="inkscape:persp3d"
       inkscape:vp_x="0 : 111.61785 : 1"
       inkscape:vp_y="0 : 1000 : 0"
       inkscape:vp_z="424.63339 : 111.61785 : 1"
       inkscape:persp3d-origin="212.3167 : 74.411901 : 1"
       id="perspective35" />
  </defs>
  <path
     style="opacity:0.95999995;fill:none;stroke:#000000;stroke-width:7;stroke-linejoin:round;stroke-miterlimit:4;stroke-dasharray:none"
     id="path2909"
     d="m 422.77448,60.111392 c -38.85489,-12.10522 -74.50391,1.703979 -88.16919,17.431164 -34.28871,39.462404 -57.4009,87.025154 -92.46735,123.270104 l -9.46152,-8.87018 -10.05287,0 c -5.21252,8.14007 -10.831,16.55078 -20.69708,27.79323 -19.72757,-13.77664 -40.66723,-32.42406 -67.41337,-29.56727 -37.92635,4.05096 -75.217349,21.66029 -109.398886,26.61055 -5.529656,0.74701 -7.868309,-3.11679 -7.096143,-7.09615 l 22.471122,-16.55767 3.548072,-21.87978 20.697086,-15.96632 51.447049,12.41825 c 0,0 11.42976,6.61731 17.74036,8.27884 9.75141,2.56747 20.1495,3.58994 30.15861,2.36538 7.42463,-0.90837 13.81612,-6.75731 21.28843,-7.09615 8.85358,-0.40148 25.88108,6.09048 25.88108,6.09048 -18.00268,-31.34125 -38.76348,-61.01635 -45.45574,-97.079825 0.0693,-1.196135 -0.6046,-6.801322 3.64541,-14.519018 4.25001,-7.717696 13.42392,-17.547901 18.82571,-23.327082 l 16.76982,-16.355499 c 2.55988,-1.985964 9.21118,-5.784506 12.13893,-3.723889 l 2.74768,9.672468 59.47101,1.458904 5.32211,-12.41825 37.25476,0.59135 c 30.6694,-14.4711796 61.32236,-28.9705496 113.5383,-6.5048 l -11.41259,11.292047 z"
     inkscape:connector-curvature="0"
     sodipodi:nodetypes="csccccsccccccsssccscccccccccc" />
  <path
     style="opacity:0.95999995;fill:none;stroke:#000000;stroke-width:3.9000001;stroke-linejoin:round;stroke-miterlimit:4;stroke-opacity:1;stroke-dasharray:none"
     id="path3683"
     d="m 205.59514,176.91424 c 12.32932,6.34539 11.87761,-3.35066 11.39388,-4.65549 -3.19131,-8.60834 -34.42739,-47.85406 -42.10302,-86.960942 0,0 -1.08645,-6.255865 -0.68272,-10.206474 0.4037,-3.95061 10.78013,-27.055504 10.78013,-27.055504"
     inkscape:connector-curvature="0"
     sodipodi:nodetypes="csczc" />
  <path
     style="opacity:0.95999995;fill:#ffffff;fill-opacity:1;fill-rule:nonzero;stroke:none"
     id="path2907"
     d="M 176.509,139.97282 L 202.64302,126.17405 L 206.92899,135.26869 L 181.00405,149.06745 L 176.509,139.97282 L 176.509,139.97282 z" />
  <path
     d="m 166.67536,128.15722 -2.58748,-16.0688 10.32315,11.99189 -8.4262,4.21502 z"
     id="path2832"
     style="opacity:0.95999995;fill:#d2232a;fill-opacity:1;fill-rule:nonzero;stroke:none"
     inkscape:connector-curvature="0"
     sodipodi:nodetypes="ccccc" />
  <rect
     width="3.361836"
     height="3.4947603"
     x="97.283943"
     y="208.48334"
     transform="matrix(0.87311188,-0.48751989,0.43821009,0.89887258,0,0)"
     id="rect2842"
     style="opacity:0.95999995;fill:#000000;fill-opacity:1;fill-rule:nonzero;stroke:none" />
  <rect
     width="3.361836"
     height="3.4947603"
     x="103.88446"
     y="208.84428"
     transform="matrix(0.8731119,-0.4875199,0.4382101,0.8988726,0,0)"
     id="rect2850"
     style="opacity:0.95999995;fill:#000000;fill-opacity:1;fill-rule:nonzero;stroke:none" />
  <rect
     width="3.361836"
     height="3.4947603"
     x="110.67101"
     y="208.91988"
     transform="matrix(0.8731119,-0.4875199,0.4382101,0.8988726,0,0)"
     id="rect2858"
     style="opacity:0.95999995;fill:#000000;fill-opacity:1;fill-rule:nonzero;stroke:none" />
  <rect
     width="3.361836"
     height="3.4947603"
     x="117.36581"
     y="209.17833"
     transform="matrix(0.8731119,-0.4875199,0.4382101,0.8988726,0,0)"
     id="rect2866"
     style="opacity:0.95999995;fill:#000000;fill-opacity:1;fill-rule:nonzero;stroke:none" />
  <rect
     width="3.361836"
     height="3.4947603"
     x="123.77828"
     y="209.28363"
     transform="matrix(0.8731119,-0.4875199,0.4382101,0.8988726,0,0)"
     id="rect2874"
     style="opacity:0.95999995;fill:#000000;fill-opacity:1;fill-rule:nonzero;stroke:none" />
  <rect
     width="3.361836"
     height="3.4947603"
     x="123.77828"
     y="209.28363"
     transform="matrix(0.8731119,-0.4875199,0.4382101,0.8988726,0,0)"
     id="rect2836"
     style="opacity:0.95999995;fill:#000000;fill-opacity:1;fill-rule:nonzero;stroke:none" />
  <rect
     width="3.361836"
     height="3.4947603"
     x="100.63996"
     y="211.96904"
     transform="matrix(0.8731119,-0.4875199,0.4382101,0.8988726,0,0)"
     id="rect2844"
     style="opacity:0.95999995;fill:#000000;fill-opacity:1;fill-rule:nonzero;stroke:none" />
  <rect
     width="3.361836"
     height="3.4947603"
     x="107.05243"
     y="212.07434"
     transform="matrix(0.8731119,-0.4875199,0.4382101,0.8988726,0,0)"
     id="rect2852"
     style="opacity:0.95999995;fill:#000000;fill-opacity:1;fill-rule:nonzero;stroke:none" />
  <rect
     width="3.361836"
     height="3.4947603"
     x="113.83898"
     y="212.14995"
     transform="matrix(0.8731119,-0.4875199,0.4382101,0.8988726,0,0)"
     id="rect2860"
     style="opacity:0.95999995;fill:#000000;fill-opacity:1;fill-rule:nonzero;stroke:none" />
  <rect
     width="3.361836"
     height="3.4947603"
     x="120.53378"
     y="212.40839"
     transform="matrix(0.8731119,-0.4875199,0.4382101,0.8988726,0,0)"
     id="rect2868"
     style="opacity:0.95999995;fill:#000000;fill-opacity:1;fill-rule:nonzero;stroke:none" />
  <rect
     width="3.361836"
     height="3.4947603"
     x="97.39782"
     y="215.32765"
     transform="matrix(0.8731119,-0.4875199,0.4382101,0.8988726,0,0)"
     id="rect2846"
     style="opacity:0.95999995;fill:#000000;fill-opacity:1;fill-rule:nonzero;stroke:none" />
  <rect
     width="3.361836"
     height="3.4947603"
     x="103.81029"
     y="215.43297"
     transform="matrix(0.8731119,-0.4875199,0.4382101,0.8988726,0,0)"
     id="rect2854"
     style="opacity:0.95999995;fill:#000000;fill-opacity:1;fill-rule:nonzero;stroke:none" />
  <rect
     width="3.361836"
     height="3.4947603"
     x="110.59684"
     y="215.50858"
     transform="matrix(0.8731119,-0.4875199,0.4382101,0.8988726,0,0)"
     id="rect2862"
     style="opacity:0.95999995;fill:#000000;fill-opacity:1;fill-rule:nonzero;stroke:none" />
  <rect
     width="3.361836"
     height="3.4947603"
     x="117.29164"
     y="215.76701"
     transform="matrix(0.8731119,-0.4875199,0.4382101,0.8988726,0,0)"
     id="rect2870"
     style="opacity:0.95999995;fill:#000000;fill-opacity:1;fill-rule:nonzero;stroke:none" />
  <rect
     width="3.361836"
     height="3.4947603"
     x="123.70411"
     y="215.87231"
     transform="matrix(0.8731119,-0.4875199,0.4382101,0.8988726,0,0)"
     id="rect2878"
     style="opacity:0.95999995;fill:#000000;fill-opacity:1;fill-rule:nonzero;stroke:none" />
  <rect
     width="3.361836"
     height="3.4947603"
     x="123.70411"
     y="215.87231"
     transform="matrix(0.8731119,-0.4875199,0.4382101,0.8988726,0,0)"
     id="rect2840"
     style="opacity:0.95999995;fill:#000000;fill-opacity:1;fill-rule:nonzero;stroke:none" />
  <rect
     width="3.361836"
     height="3.4947603"
     x="97.39782"
     y="215.32765"
     transform="matrix(0.8731119,-0.4875199,0.4382101,0.8988726,0,0)"
     id="rect2848"
     style="opacity:0.95999995;fill:#000000;fill-opacity:1;fill-rule:nonzero;stroke:none" />
  <rect
     width="3.361836"
     height="3.4947603"
     x="103.81029"
     y="215.43297"
     transform="matrix(0.8731119,-0.4875199,0.4382101,0.8988726,0,0)"
     id="rect2856"
     style="opacity:0.95999995;fill:#000000;fill-opacity:1;fill-rule:nonzero;stroke:none" />
  <rect
     width="3.361836"
     height="3.4947603"
     x="110.59684"
     y="215.50858"
     transform="matrix(0.8731119,-0.4875199,0.4382101,0.8988726,0,0)"
     id="rect2864"
     style="opacity:0.95999995;fill:#000000;fill-opacity:1;fill-rule:nonzero;stroke:none" />
  <rect
     width="3.361836"
     height="3.4947603"
     x="117.29164"
     y="215.76701"
     transform="matrix(0.8731119,-0.4875199,0.4382101,0.8988726,0,0)"
     id="rect2872"
     style="opacity:0.95999995;fill:#000000;fill-opacity:1;fill-rule:nonzero;stroke:none" />
  <rect
     width="3.361836"
     height="3.4947603"
     x="123.70411"
     y="215.87231"
     transform="matrix(0.8731119,-0.4875199,0.4382101,0.8988726,0,0)"
     id="rect2880"
     style="opacity:0.95999995;fill:#000000;fill-opacity:1;fill-rule:nonzero;stroke:none" />
  <rect
     width="3.361836"
     height="3.4947603"
     x="123.70411"
     y="215.87231"
     transform="matrix(0.8731119,-0.4875199,0.4382101,0.8988726,0,0)"
     id="rect2834"
     style="opacity:0.95999995;fill:#000000;fill-opacity:1;fill-rule:nonzero;stroke:none" />
  <path
     d="M 169.56274,81.917473 C 169.55971,83.023923 168.66061,83.918583 167.55416,83.916123 C 166.44772,83.913673 165.55258,83.015023 165.55448,81.908573 C 165.55637,80.802123 166.45457,79.906543 167.56102,79.907873 C 168.66747,79.909193 169.5635,80.806923 169.56274,81.913373"
     id="path3293"
     style="fill:#ffffff;fill-opacity:1;fill-rule:nonzero;stroke:none;stroke-width:1.29999995;stroke-miterlimit:4;stroke-dasharray:none;stroke-opacity:1" />
  <path
     d="m 217.25871,21.631282 c -0.003,1.10645 -0.90213,2.00111 -2.00858,1.99865 -1.10644,-0.0024 -2.00158,-0.9011 -1.99968,-2.00755 0.002,-1.10645 0.90009,-2.00203 2.00654,-2.0007 1.10645,0.0013 2.00248,0.89905 2.00172,2.0055"
     id="path4131"
     style="fill:#ffffff;fill-opacity:1;fill-rule:nonzero;stroke:none"
     inkscape:connector-curvature="0" />
  <path
     d="m 222.20735,31.380152 c -0.003,1.10645 -0.90213,2.00111 -2.00858,1.99865 -1.10644,-0.0024 -2.00158,-0.9011 -1.99968,-2.00755 0.002,-1.10645 0.90009,-2.00203 2.00654,-2.0007 1.10645,0.0013 2.00248,0.89905 2.00172,2.0055"
     id="path4133"
     style="fill:#ffffff;fill-opacity:1;fill-rule:nonzero;stroke:none"
     inkscape:connector-curvature="0" />
  <path
     d="M 281.41768,32.909141 C 281.41465,34.015591 280.51555,34.910251 279.4091,34.907791 C 278.30266,34.905341 277.40752,34.006691 277.40942,32.900241 C 277.41131,31.793791 278.30951,30.898211 279.41596,30.899541 C 280.52241,30.900861 281.41844,31.798591 281.41768,32.905041"
     id="path4135"
     style="fill:#ffffff;fill-opacity:1;fill-rule:nonzero;stroke:none;stroke-width:1.29999995;stroke-miterlimit:4;stroke-dasharray:none;stroke-opacity:1" />
  <path
     d="M 286.69111,21.678673 C 286.68808,22.785123 285.78898,23.679783 284.68253,23.677323 C 283.57609,23.674873 282.68095,22.776223 282.68285,21.669773 C 282.68474,20.563323 283.58294,19.667743 284.68939,19.669073 C 285.79584,19.670393 286.69187,20.568123 286.69111,21.674573"
     id="path4137"
     style="fill:#ffffff;fill-opacity:1;fill-rule:nonzero;stroke:none;stroke-width:1.29999995;stroke-miterlimit:4;stroke-dasharray:none;stroke-opacity:1" />
  <path
     d="M 323.80049,21.48336 C 323.79746,22.58981 322.89836,23.48447 321.79191,23.48201 C 320.68547,23.47956 319.79033,22.58091 319.79223,21.47446 C 319.79412,20.36801 320.69232,19.47243 321.79877,19.47376 C 322.90522,19.47508 323.80125,20.37281 323.80049,21.47926"
     id="path4139"
     style="fill:#ffffff;fill-opacity:1;fill-rule:nonzero;stroke:none;stroke-width:1.29999995;stroke-miterlimit:4;stroke-dasharray:none;stroke-opacity:1" />
  <path
     d="M 436.00752,15.819297 C 436.00449,16.925747 435.10539,17.820407 433.99894,17.817947 C 432.8925,17.815497 431.99736,16.916847 431.99926,15.810397 C 432.00115,14.703947 432.89935,13.808367 434.0058,13.809697 C 435.11225,13.811017 436.00828,14.708747 436.00752,15.815197"
     id="path4141"
     style="fill:#ffffff;fill-opacity:1;fill-rule:nonzero;stroke:none;stroke-width:1.29999995;stroke-miterlimit:4;stroke-dasharray:none;stroke-opacity:1" />
  <path
     d="m 426.11074,27.574432 c -0.003,1.10645 -0.90213,2.00111 -2.00858,1.99865 -1.10644,-0.0024 -2.00158,-0.9011 -1.99968,-2.00755 0.002,-1.10645 0.90009,-2.00203 2.00654,-2.0007 1.10645,0.0013 2.00248,0.89905 2.00172,2.0055"
     id="path4143"
     style="fill:#ffffff;fill-opacity:1;fill-rule:nonzero;stroke:none"
     inkscape:connector-curvature="0" />
  <path
     d="M 423.9958,59.373985 C 423.99277,60.480435 423.09367,61.375095 421.98722,61.372635 C 420.88078,61.370185 419.98564,60.471535 419.98754,59.365085 C 419.98943,58.258635 420.88763,57.363055 421.99408,57.364385 C 423.10053,57.365705 423.99656,58.263435 423.9958,59.369885"
     id="path4145"
     style="fill:#ffffff;fill-opacity:1;fill-rule:nonzero;stroke:none;stroke-width:1.29999995;stroke-miterlimit:4;stroke-dasharray:none;stroke-opacity:1" />
  <path
     d="M 336.4958,76.952111 C 336.49277,78.058561 335.59367,78.953221 334.48722,78.950761 C 333.38078,78.948311 332.48564,78.049661 332.48754,76.943211 C 332.48943,75.836761 333.38763,74.941181 334.49408,74.942511 C 335.60053,74.943831 336.49656,75.841561 336.4958,76.948011"
     id="path4147"
     style="fill:#ffffff;fill-opacity:1;fill-rule:nonzero;stroke:none;stroke-width:1.29999995;stroke-miterlimit:4;stroke-dasharray:none;stroke-opacity:1" />
  <path
     d="M 244.01533,199.60836 C 244.0123,200.71481 243.1132,201.60947 242.00675,201.60701 C 240.90031,201.60456 240.00517,200.70591 240.00707,199.59946 C 240.00896,198.49301 240.90716,197.59743 242.01361,197.59876 C 243.12006,197.60008 244.01609,198.49781 244.01533,199.60426"
     id="path4149"
     style="fill:#ffffff;fill-opacity:1;fill-rule:nonzero;stroke:none;stroke-width:1.29999995;stroke-miterlimit:4;stroke-dasharray:none;stroke-opacity:1" />
  <path
     d="M 229.85518,191.99118 C 229.85215,193.09763 228.95305,193.99229 227.8466,193.98983 C 226.74016,193.98738 225.84502,193.08873 225.84692,191.98228 C 225.84881,190.87583 226.74701,189.98025 227.85346,189.98158 C 228.95991,189.9829 229.85594,190.88063 229.85518,191.98708"
     id="path4151"
     style="fill:#ffffff;fill-opacity:1;fill-rule:nonzero;stroke:none;stroke-width:1.29999995;stroke-miterlimit:4;stroke-dasharray:none;stroke-opacity:1" />
  <path
     d="M 203.87861,218.74899 C 203.87558,219.85544 202.97648,220.7501 201.87003,220.74764 C 200.76359,220.74519 199.86845,219.84654 199.87035,218.74009 C 199.87224,217.63364 200.77044,216.73806 201.87689,216.73939 C 202.98334,216.74071 203.87937,217.63844 203.87861,218.74489"
     id="path4153"
     style="fill:#ffffff;fill-opacity:1;fill-rule:nonzero;stroke:none;stroke-width:1.29999995;stroke-miterlimit:4;stroke-dasharray:none;stroke-opacity:1" />
  <path
     d="M 136.69111,190.23336 C 136.68808,191.33981 135.78898,192.23447 134.68253,192.23201 C 133.57609,192.22956 132.68095,191.33091 132.68285,190.22446 C 132.68474,189.11801 133.58294,188.22243 134.68939,188.22376 C 135.79584,188.22508 136.69187,189.12281 136.69111,190.22926"
     id="path4155"
     style="fill:#ffffff;fill-opacity:1;fill-rule:nonzero;stroke:none;stroke-width:1.29999995;stroke-miterlimit:4;stroke-dasharray:none;stroke-opacity:1" />
  <path
     d="M 21.066105,214.64743 C 21.063075,215.75388 20.163975,216.64854 19.057525,216.64608 C 17.951085,216.64363 17.055945,215.74498 17.057845,214.63853 C 17.059735,213.53208 17.957935,212.6365 19.064385,212.63783 C 20.170835,212.63915 21.066865,213.53688 21.066105,214.64333"
     id="path4157"
     style="fill:#ffffff;fill-opacity:1;fill-rule:nonzero;stroke:none;stroke-width:1.29999995;stroke-miterlimit:4;stroke-dasharray:none;stroke-opacity:1" />
  <path
     d="M 42.062199,192.87008 C 42.059169,193.97653 41.160069,194.87119 40.053619,194.86873 C 38.947179,194.86628 38.052039,193.96763 38.053939,192.86118 C 38.055829,191.75473 38.954029,190.85915 40.060479,190.86048 C 41.166929,190.8618 42.062959,191.75953 42.062199,192.86598"
     id="path4159"
     style="fill:#ffffff;fill-opacity:1;fill-rule:nonzero;stroke:none;stroke-width:1.29999995;stroke-miterlimit:4;stroke-dasharray:none;stroke-opacity:1" />
  <path
     d="M 46.261418,171.48336 C 46.258388,172.58981 45.359288,173.48447 44.252838,173.48201 C 43.146398,173.47956 42.251258,172.58091 42.253158,171.47446 C 42.255048,170.36801 43.153248,169.47243 44.259698,169.47376 C 45.366148,169.47508 46.262178,170.37281 46.261418,171.47926"
     id="path4161"
     style="fill:#ffffff;fill-opacity:1;fill-rule:nonzero;stroke:none;stroke-width:1.29999995;stroke-miterlimit:4;stroke-dasharray:none;stroke-opacity:1" />
  <path
     d="M 66.769231,155.46774 C 66.766201,156.57419 65.867101,157.46885 64.760651,157.46639 C 63.654211,157.46394 62.759071,156.56529 62.760971,155.45884 C 62.762861,154.35239 63.661061,153.45681 64.767511,153.45814 C 65.873961,153.45946 66.769991,154.35719 66.769231,155.46364"
     id="path4163"
     style="fill:#ffffff;fill-opacity:1;fill-rule:nonzero;stroke:none;stroke-width:1.29999995;stroke-miterlimit:4;stroke-dasharray:none;stroke-opacity:1" />
  <path
     d="M 118.03876,167.67477 C 118.03573,168.78122 117.13663,169.67588 116.03018,169.67342 C 114.92374,169.67097 114.0286,168.77232 114.0305,167.66587 C 114.03239,166.55942 114.93059,165.66384 116.03704,165.66517 C 117.14349,165.66649 118.03952,166.56422 118.03876,167.67067"
     id="path4165"
     style="fill:#ffffff;fill-opacity:1;fill-rule:nonzero;stroke:none;stroke-width:1.29999995;stroke-miterlimit:4;stroke-dasharray:none;stroke-opacity:1" />
  <path
     d="M 135.90986,175.97555 C 135.90683,177.082 135.00773,177.97666 133.90128,177.9742 C 132.79484,177.97175 131.8997,177.0731 131.9016,175.96665 C 131.90349,174.8602 132.80169,173.96462 133.90814,173.96595 C 135.01459,173.96727 135.91062,174.865 135.90986,175.97145"
     id="path4167"
     style="fill:#ffffff;fill-opacity:1;fill-rule:nonzero;stroke:none;stroke-width:1.29999995;stroke-miterlimit:4;stroke-dasharray:none;stroke-opacity:1" />
  <path
     d="M 166.47627,178.22165 C 166.47324,179.3281 165.57414,180.22276 164.46769,180.2203 C 163.36125,180.21785 162.46611,179.3192 162.46801,178.21275 C 162.4699,177.1063 163.3681,176.21072 164.47455,176.21205 C 165.581,176.21337 166.47703,177.1111 166.47627,178.21755"
     id="path4169"
     style="fill:#ffffff;fill-opacity:1;fill-rule:nonzero;stroke:none;stroke-width:1.29999995;stroke-miterlimit:4;stroke-dasharray:none;stroke-opacity:1" />
  <path
     d="M 187.08173,171.3857 C 187.0787,172.49215 186.1796,173.38681 185.07315,173.38435 C 183.96671,173.3819 183.07157,172.48325 183.07347,171.3768 C 183.07536,170.27035 183.97356,169.37477 185.08001,169.3761 C 186.18646,169.37742 187.08249,170.27515 187.08173,171.3816"
     id="path4171"
     style="fill:#ffffff;fill-opacity:1;fill-rule:nonzero;stroke:none;stroke-width:1.29999995;stroke-miterlimit:4;stroke-dasharray:none;stroke-opacity:1" />
  <path
     d="M 210.51924,174.70602 C 210.51621,175.81247 209.61711,176.70713 208.51066,176.70467 C 207.40422,176.70222 206.50908,175.80357 206.51098,174.69712 C 206.51287,173.59067 207.41107,172.69509 208.51752,172.69642 C 209.62397,172.69774 210.52,173.59547 210.51924,174.70192"
     id="path4173"
     style="fill:#ffffff;fill-opacity:1;fill-rule:nonzero;stroke:none;stroke-width:1.29999995;stroke-miterlimit:4;stroke-dasharray:none;stroke-opacity:1" />
  <path
     d="M 386.98447,3.3751585 C 386.98144,4.4816085 386.08234,5.3762685 384.97589,5.3738085 C 383.86945,5.3713585 382.97431,4.4727085 382.97621,3.3662585 C 382.9781,2.2598085 383.8763,1.3642285 384.98275,1.3655585 C 386.0892,1.3668785 386.98523,2.2646085 386.98447,3.3710585"
     id="path4177"
     style="fill:#ffffff;fill-opacity:1;fill-rule:nonzero;stroke:none;stroke-width:1.29999995;stroke-miterlimit:4;stroke-dasharray:none;stroke-opacity:1" />
  <circle
     cx="189.022"
     cy="265.32599"
     r="9.7150002"
     transform="matrix(0.6710664,0,0,0.6710664,26.496909,-96.026594)"
     id="circle4179"
     style="fill:#ffffff;stroke:#000000"
     sodipodi:cx="189.022"
     sodipodi:cy="265.32599"
     sodipodi:rx="9.7150002"
     sodipodi:ry="9.7150002" />
  <text
     x="150.57581"
     y="85.310509"
     id="text4181"
     style="font-size:9.41603088px;font-family:Arial-BoldMT">1</text>
  <circle
     cx="189.022"
     cy="265.32599"
     r="9.7150002"
     transform="matrix(0.6710664,0,0,0.6710664,78.568648,-166.04848)"
     id="circle4183"
     style="fill:#ffffff;stroke:#000000"
     sodipodi:cx="189.022"
     sodipodi:cy="265.32599"
     sodipodi:rx="9.7150002"
     sodipodi:ry="9.7150002" />
  <text
     x="202.92375"
     y="15.288615"
     id="text4185"
     style="font-size:9.41603088px;font-family:Arial-BoldMT">2</text>
  <circle
     cx="189.022"
     cy="265.32599"
     r="9.7150002"
     transform="matrix(0.6710664,0,0,0.6710664,102.31015,-157.83338)"
     id="circle4187"
     style="fill:#ffffff;stroke:#000000"
     sodipodi:cx="189.022"
     sodipodi:cy="265.32599"
     sodipodi:rx="9.7150002"
     sodipodi:ry="9.7150002" />
  <text
     x="226.66525"
     y="23.503714"
     id="text4189"
     style="font-size:9.41603088px;font-family:Arial-BoldMT">3</text>
  <circle
     cx="189.022"
     cy="265.32599"
     r="9.7150002"
     transform="matrix(0.6710664,0,0,0.6710664,144.83326,-156.69502)"
     id="circle4191"
     style="fill:#ffffff;stroke:#000000"
     sodipodi:cx="189.022"
     sodipodi:cy="265.32599"
     sodipodi:rx="9.7150002"
     sodipodi:ry="9.7150002" />
  <text
     x="268.63593"
     y="24.642078"
     id="text4193"
     style="font-size:9.41603088px;font-family:Arial-BoldMT">4</text>
  <circle
     cx="189.022"
     cy="265.32599"
     r="9.7150002"
     transform="matrix(0.6710664,0,0,0.6710664,160.83976,-168.40662)"
     id="circle4195"
     style="fill:#ffffff;stroke:#000000"
     sodipodi:cx="189.022"
     sodipodi:cy="265.32599"
     sodipodi:rx="9.7150002"
     sodipodi:ry="9.7150002" />
  <text
     x="284.64243"
     y="12.654256"
     id="text4197"
     style="font-size:9.41603088px;font-family:Arial-BoldMT">5</text>
  <circle
     cx="189.022"
     cy="265.32599"
     r="9.7150002"
     transform="matrix(0.6710664,0,0,0.6710664,196.21957,-144.46409)"
     id="circle4199"
     style="fill:#ffffff;stroke:#000000"
     sodipodi:cx="189.022"
     sodipodi:cy="265.32599"
     sodipodi:rx="9.7150002"
     sodipodi:ry="9.7150002" />
  <text
     x="320.29846"
     y="36.873009"
     id="text4201"
     style="font-size:9.41603088px;font-family:Arial-BoldMT">6</text>
  <circle
     cx="189.022"
     cy="265.32599"
     r="9.7150002"
     transform="matrix(0.6710664,0,0,0.6710664,258.62191,-163.21409)"
     id="circle4203"
     style="fill:#ffffff;stroke:#000000"
     sodipodi:cx="189.022"
     sodipodi:cy="265.32599"
     sodipodi:rx="9.7150002"
     sodipodi:ry="9.7150002" />
  <text
     x="382.70081"
     y="18.123009"
     id="text4205"
     style="font-size:9.41603088px;font-family:Arial-BoldMT">7</text>
  <circle
     cx="189.022"
     cy="265.32599"
     r="9.7150002"
     transform="matrix(0.6710664,0,0,0.6710664,321.12191,-162.62815)"
     id="circle4207"
     style="fill:#ffffff;stroke:#000000"
     sodipodi:cx="189.022"
     sodipodi:cy="265.32599"
     sodipodi:rx="9.7150002"
     sodipodi:ry="9.7150002" />
  <text
     x="445.20081"
     y="18.708946"
     id="text4209"
     style="font-size:9.41603088px;font-family:Arial-BoldMT">8</text>
  <circle
     cx="189.022"
     cy="265.32599"
     r="9.7150002"
     transform="matrix(0.6710664,0,0,0.6710664,309.40316,-144.46409)"
     id="circle4211"
     style="fill:#ffffff;stroke:#000000"
     sodipodi:cx="189.022"
     sodipodi:cy="265.32599"
     sodipodi:rx="9.7150002"
     sodipodi:ry="9.7150002" />
  <text
     x="433.48206"
     y="36.873009"
     id="text4213"
     style="font-size:9.41603088px;font-family:Arial-BoldMT">9</text>
  <circle
     cx="189.022"
     cy="265.32599"
     r="9.7150002"
     transform="matrix(0.6710664,0,0,0.6710664,302.46958,-108.13597)"
     id="circle4215"
     style="fill:#ffffff;stroke:#000000"
     sodipodi:cx="189.022"
     sodipodi:cy="265.32599"
     sodipodi:rx="9.7150002"
     sodipodi:ry="9.7150002" />
  <text
     x="423.12054"
     y="73.342949"
     id="text4217"
     style="font-size:9.41603088px;font-family:Arial-BoldMT">10</text>
  <circle
     cx="189.022"
     cy="265.32599"
     r="9.7150002"
     transform="matrix(0.6710664,0,0,0.6710664,216.62973,-92.315656)"
     id="circle4219"
     style="fill:#ffffff;stroke:#000000"
     sodipodi:cx="189.022"
     sodipodi:cy="265.32599"
     sodipodi:rx="9.7150002"
     sodipodi:ry="9.7150002" />
  <text
     x="337.83313"
     y="89.163261"
     id="text4221"
     style="font-size:9.41603088px;font-family:Arial-BoldMT">11</text>
  <circle
     cx="189.022"
     cy="265.32599"
     r="9.7150002"
     transform="matrix(0.6710664,0,0,0.6710664,124.44223,30.43825)"
     id="circle4223"
     style="fill:#ffffff;stroke:#000000"
     sodipodi:cx="189.022"
     sodipodi:cy="265.32599"
     sodipodi:rx="9.7150002"
     sodipodi:ry="9.7150002" />
  <text
     x="245.0932"
     y="211.91718"
     id="text4225"
     style="font-size:9.41603088px;font-family:Arial-BoldMT">12</text>
  <circle
     cx="189.022"
     cy="265.32599"
     r="9.7150002"
     transform="matrix(0.6710664,0,0,0.6710664,101.63754,25.946063)"
     id="circle4227"
     style="fill:#ffffff;stroke:#000000"
     sodipodi:cx="189.022"
     sodipodi:cy="265.32599"
     sodipodi:rx="9.7150002"
     sodipodi:ry="9.7150002" />
  <text
     x="222.28851"
     y="207.42499"
     id="text4229"
     style="font-size:9.41603088px;font-family:Arial-BoldMT">13</text>
  <circle
     cx="189.022"
     cy="265.32599"
     r="9.7150002"
     transform="matrix(0.6710664,0,0,0.6710664,72.782066,25.848407)"
     id="circle4231"
     style="fill:#ffffff;stroke:#000000"
     sodipodi:cx="189.022"
     sodipodi:cy="265.32599"
     sodipodi:rx="9.7150002"
     sodipodi:ry="9.7150002" />
  <text
     x="193.43304"
     y="207.32733"
     id="text4233"
     style="font-size:9.41603088px;font-family:Arial-BoldMT">14</text>
  <circle
     cx="189.022"
     cy="265.32599"
     r="9.7150002"
     transform="matrix(0.6710664,0,0,0.6710664,9.0125344,24.090594)"
     id="circle4235"
     style="fill:#ffffff;stroke:#000000"
     sodipodi:cx="189.022"
     sodipodi:cy="265.32599"
     sodipodi:rx="9.7150002"
     sodipodi:ry="9.7150002" />
  <text
     x="129.6635"
     y="205.56952"
     id="text4237"
     style="font-size:9.41603088px;font-family:Arial-BoldMT">16</text>
  <path
     d="M 169.41482,199.23428 C 169.41179,200.34073 168.51269,201.23539 167.40624,201.23293 C 166.2998,201.23048 165.40466,200.33183 165.40656,199.22538 C 165.40845,198.11893 166.30665,197.22335 167.4131,197.22468 C 168.51955,197.226 169.41558,198.12373 169.41482,199.23018"
     id="path4241"
     style="fill:#ffffff;fill-opacity:1;fill-rule:nonzero;stroke:none;stroke-width:1.29999995;stroke-miterlimit:4;stroke-dasharray:none;stroke-opacity:1" />
  <circle
     cx="189.022"
     cy="265.32599"
     r="9.7150002"
     transform="matrix(0.6710664,0,0,0.6710664,37.526017,32.364108)"
     id="circle4243"
     style="fill:#ffffff;stroke:#000000"
     sodipodi:cx="189.022"
     sodipodi:cy="265.32599"
     sodipodi:rx="9.7150002"
     sodipodi:ry="9.7150002" />
  <text
     x="158.177"
     y="213.84303"
     id="text4245"
     style="font-size:9.41603088px;font-family:Arial-BoldMT">15</text>
  <circle
     cx="189.022"
     cy="265.32599"
     r="9.7150002"
     transform="matrix(0.6710664,0,0,0.6710664,-119.99137,37.957782)"
     id="circle4247"
     style="fill:#ffffff;stroke:#000000"
     sodipodi:cx="189.022"
     sodipodi:cy="265.32599"
     sodipodi:rx="9.7150002"
     sodipodi:ry="9.7150002" />
  <text
     x="1.2120266"
     y="219.16049"
     id="text4249"
     style="font-size:9.41603088px;font-family:Arial-BoldMT">17</text>
  <circle
     cx="189.022"
     cy="265.32599"
     r="9.7150002"
     transform="matrix(0.6710664,0,0,0.6710664,-97.335125,8.3679387)"
     id="circle4251"
     style="fill:#ffffff;stroke:#000000"
     sodipodi:cx="189.022"
     sodipodi:cy="265.32599"
     sodipodi:rx="9.7150002"
     sodipodi:ry="9.7150002" />
  <text
     x="23.315849"
     y="189.84686"
     id="text4253"
     style="font-size:9.41603088px;font-family:Arial-BoldMT">18</text>
  <circle
     cx="189.022"
     cy="265.32599"
     r="9.7150002"
     transform="matrix(0.6710664,0,0,0.6710664,-93.038247,-12.432843)"
     id="circle4255"
     style="fill:#ffffff;stroke:#000000"
     sodipodi:cx="189.022"
     sodipodi:cy="265.32599"
     sodipodi:rx="9.7150002"
     sodipodi:ry="9.7150002" />
  <text
     x="27.888937"
     y="168.76987"
     id="text4257"
     style="font-size:9.41603088px;font-family:Arial-BoldMT">19</text>
  <circle
     cx="189.022"
     cy="265.32599"
     r="9.7150002"
     transform="matrix(0.6710664,0,0,0.6710664,-64.034341,-34.210187)"
     id="circle4259"
     style="fill:#ffffff;stroke:#000000"
     sodipodi:cx="189.022"
     sodipodi:cy="265.32599"
     sodipodi:rx="9.7150002"
     sodipodi:ry="9.7150002" />
  <text
     x="57.445274"
     y="146.99252"
     id="text4261"
     style="font-size:9.41603088px;font-family:Arial-BoldMT">20</text>
  <circle
     cx="189.022"
     cy="265.32599"
     r="9.7150002"
     transform="matrix(0.6710664,0,0,0.6710664,-13.741372,0.6530945)"
     id="circle4263"
     style="fill:#ffffff;stroke:#000000"
     sodipodi:cx="189.022"
     sodipodi:cy="265.32599"
     sodipodi:rx="9.7150002"
     sodipodi:ry="9.7150002" />
  <text
     x="108.01445"
     y="181.8558"
     id="text4265"
     style="font-size:9.41603088px;font-family:Arial-BoldMT">21</text>
  <circle
     cx="189.022"
     cy="265.32599"
     r="9.7150002"
     transform="matrix(0.6710664,0,0,0.6710664,10.282066,-14.190656)"
     id="circle4267"
     style="fill:#ffffff;stroke:#000000"
     sodipodi:cx="189.022"
     sodipodi:cy="265.32599"
     sodipodi:rx="9.7150002"
     sodipodi:ry="9.7150002" />
  <text
     x="131.76169"
     y="167.01205"
     id="text4269"
     style="font-size:9.41603088px;font-family:Arial-BoldMT">22</text>
  <circle
     cx="189.022"
     cy="265.32599"
     r="9.7150002"
     transform="matrix(0.6710664,0,0,0.6710664,36.45394,-11.944562)"
     id="circle4271"
     style="fill:#ffffff;stroke:#000000"
     sodipodi:cx="189.022"
     sodipodi:cy="265.32599"
     sodipodi:rx="9.7150002"
     sodipodi:ry="9.7150002" />
  <text
     x="157.65735"
     y="169.53436"
     id="text4273"
     style="font-size:9.41603088px;font-family:Arial-BoldMT">23</text>
  <circle
     cx="189.022"
     cy="265.32599"
     r="9.7150002"
     transform="matrix(0.6710664,0,0,0.6710664,59.207848,4.9499699)"
     id="circle4275"
     style="fill:#ffffff;stroke:#000000"
     sodipodi:cx="189.022"
     sodipodi:cy="265.32599"
     sodipodi:rx="9.7150002"
     sodipodi:ry="9.7150002" />
  <text
     x="180.68747"
     y="185.87646"
     id="text4277"
     style="font-size:9.41603088px;font-family:Arial-BoldMT">24</text>
  <circle
     cx="189.022"
     cy="265.32599"
     r="9.7150002"
     transform="matrix(0.6710664,0,0,0.6710664,80.008629,10.028094)"
     id="circle4279"
     style="fill:#ffffff;stroke:#000000"
     sodipodi:cx="189.022"
     sodipodi:cy="265.32599"
     sodipodi:rx="9.7150002"
     sodipodi:ry="9.7150002" />
  <text
     x="201.21204"
     y="191.0927"
     id="text4281"
     style="font-size:9.41603088px;font-family:Arial-BoldMT">25</text>
  <path
     d="m 315.90016,130.93553 -8.94039,7.27124 4.66077,-16.32 8.42283,5.73419 z"
     id="path2832-8"
     style="opacity:0.95999995;fill:#d2232a;fill-opacity:1;fill-rule:nonzero;stroke:none"
     inkscape:connector-curvature="0"
     sodipodi:nodetypes="ccccc" />
  <path
     style="fill:#009fff;stroke:#0099ff;stroke-width:1px;stroke-linecap:butt;stroke-linejoin:miter;stroke-opacity:1;fill-opacity:1"
     d="m 244.44902,155.28716 c -7.83373,-9.1729 -14.65891,-19.18788 -21.26845,-29.27864 -9.95311,-15.19539 -27.6258,-45.610972 -27.5237,-46.389999 0.0461,-0.351586 0.56212,-1.326748 1.03802,-1.299937 1.06844,0.06019 44.1466,1.626416 44.1466,1.626416 l 0.56918,16.475159 8.55926,0.195312 0.0167,-1.894235 -4.3045,-0.276213 -0.73098,-28.054117 3.55677,-0.0809 0.1144,-1.975136 c -2.69033,-0.239034 -5.80315,0.107869 -7.97332,-0.131166 l 0.0809,10.967642 c 0,0 -41.03267,0.521088 -44.34209,-1.367187 -3.30942,-1.888275 -2.4072,-3.052365 -2.20971,-4.419418 0.19749,-1.367053 11.56884,-20.014553 20.39241,-27.068931 1.7491,-1.398395 3.92046,-2.363529 6.12409,-2.762135 6.50082,-1.175906 63.80534,1.657281 63.80534,1.657281 0,0 9.65749,0.882778 14.3631,0 3.4954,-0.655742 9.94369,-3.86699 9.94369,-3.86699 l 6.62913,10.77233 -10.49612,7.73398 3.59078,4.971844 c 0,0 15.91973,-11.139715 24.30679,-16.020387 4.17616,-2.430231 8.46366,-4.702473 12.91503,-6.581736 5.84943,-2.469489 11.85365,-4.677952 18.03477,-6.129838 6.57107,-1.543482 13.33032,-2.308289 20.06881,-2.700865 7.47511,-0.435491 14.98053,0.03685 22.45995,0.390625 4.27945,0.202414 12.81449,0.990443 12.81449,0.990443 l -0.82864,22.761543 c 0,0 -4.56901,-1.28642 -6.89384,-1.752063 -3.87432,-0.775994 -7.78386,-1.474912 -11.72688,-1.730051 -5.32978,-0.34487 -10.70086,-0.201367 -16.02039,0.276213 -4.55291,0.408754 -9.11141,1.055294 -13.53446,2.209709 -6.25641,1.632921 -12.38576,3.862752 -18.2301,6.629126 -5.70886,2.702248 -11.20481,5.930246 -16.2966,9.667475 -2.89093,2.121858 -5.56458,4.55882 -8.01019,7.181553 -2.8637,3.071094 -5.13793,6.643251 -7.73398,9.943689 -19.20195,24.412004 -37.79041,49.339954 -58.00486,72.920384 -2.12031,2.47338 -6.62912,7.18155 -6.62912,7.18155 0,0 -7.4745,-6.91076 -10.77232,-10.77233 z"
     id="path3101"
     inkscape:connector-curvature="0"
     sodipodi:nodetypes="sssscccccccccczzsscsccccsssssccssssssssscs" />
</svg>
