<?xml version="1.0" encoding="UTF-8" standalone="no"?>
<!-- Created with Inkscape (http://www.inkscape.org/) -->
<svg
   xmlns:dc="http://purl.org/dc/elements/1.1/"
   xmlns:cc="http://creativecommons.org/ns#"
   xmlns:rdf="http://www.w3.org/1999/02/22-rdf-syntax-ns#"
   xmlns:svg="http://www.w3.org/2000/svg"
   xmlns="http://www.w3.org/2000/svg"
   xmlns:xlink="http://www.w3.org/1999/xlink"
   xmlns:sodipodi="http://sodipodi.sourceforge.net/DTD/sodipodi-0.dtd"
   xmlns:inkscape="http://www.inkscape.org/namespaces/inkscape"
   width="449.54431"
   height="229.1104"
   id="svg2383"
   sodipodi:version="0.32"
   inkscape:version="0.46"
   version="1.0"
   sodipodi:docname="20080606052921!Watkins_Glen_International_Track_Map.svg"
   inkscape:output_extension="org.inkscape.output.svg.inkscape"
   inkscape:export-filename="D:\Images\Race Tracks\Watkins Glen International Track Map.png"
   inkscape:export-xdpi="200"
   inkscape:export-ydpi="200">
  <defs
     id="defs2385">
    <inkscape:perspective
       sodipodi:type="inkscape:persp3d"
       inkscape:vp_x="0 : 526.18109 : 1"
       inkscape:vp_y="0 : 1000 : 0"
       inkscape:vp_z="744.09448 : 526.18109 : 1"
       inkscape:persp3d-origin="372.04724 : 350.78739 : 1"
       id="perspective2391" />
    <inkscape:perspective
       id="perspective2457"
       inkscape:persp3d-origin="372.04724 : 350.78739 : 1"
       inkscape:vp_z="744.09448 : 526.18109 : 1"
       inkscape:vp_y="0 : 1000 : 0"
       inkscape:vp_x="0 : 526.18109 : 1"
       sodipodi:type="inkscape:persp3d" />
    <pattern
       patternUnits="userSpaceOnUse"
       width="18.181098"
       height="18.137641"
       patternTransform="matrix(0.1737876,0,0,0.1737876,957.01205,1271.2694)"
       id="pattern4912">
      <g
         id="g4907"
         transform="translate(-1025.5348,-1215.2814)">
        <rect
           style="opacity:1;fill:#000000;fill-opacity:1;stroke:none;stroke-width:0.5;stroke-linecap:round;stroke-linejoin:round;stroke-miterlimit:4;stroke-dasharray:none;stroke-dashoffset:0;stroke-opacity:1"
           id="rect4899"
           width="18.172573"
           height="18.095789"
           x="1025.5348"
           y="1215.2814" />
        <rect
           style="opacity:1;fill:#ffffff;fill-opacity:1;stroke:none;stroke-width:0.5;stroke-linecap:round;stroke-linejoin:round;stroke-miterlimit:4;stroke-dasharray:none;stroke-dashoffset:0;stroke-opacity:1"
           id="rect4903"
           width="9.0746527"
           height="9.0746527"
           x="1025.5348"
           y="1215.2814" />
        <rect
           style="opacity:1;fill:#ffffff;fill-opacity:1;stroke:none;stroke-width:0.5;stroke-linecap:round;stroke-linejoin:round;stroke-miterlimit:4;stroke-dasharray:none;stroke-dashoffset:0;stroke-opacity:1"
           id="rect4905"
           width="9.0746527"
           height="9.0746527"
           x="1034.6412"
           y="1224.3444" />
      </g>
    </pattern>
  </defs>
  <sodipodi:namedview
     id="base"
     pagecolor="#ffffff"
     bordercolor="#ffffff"
     borderopacity="0.0"
     inkscape:pageopacity="0.0"
     inkscape:pageshadow="0"
     inkscape:zoom="2.0259483"
     inkscape:cx="242.71797"
     inkscape:cy="99.386967"
     inkscape:document-units="px"
     inkscape:current-layer="layer1"
     showgrid="false"
     inkscape:window-width="1440"
     inkscape:window-height="844"
     inkscape:window-x="-4"
     inkscape:window-y="-4" />
  <metadata
     id="metadata2388">
    <rdf:RDF>
      <cc:Work
         rdf:about="">
        <dc:format>image/svg+xml</dc:format>
        <dc:type
           rdf:resource="http://purl.org/dc/dcmitype/StillImage" />
        <dc:title>Watkins Glen International Track Map</dc:title>
        <dc:date>6-5-2008</dc:date>
        <dc:creator>
          <cc:Agent>
            <dc:title>Will Pittenger</dc:title>
          </cc:Agent>
        </dc:creator>
        <dc:publisher>
          <cc:Agent>
            <dc:title>Will Pittenger</dc:title>
          </cc:Agent>
        </dc:publisher>
        <dc:subject>
          <rdf:Bag>
            <rdf:li>Watkins Glen</rdf:li>
            <rdf:li>Watkins Glen International</rdf:li>
            <rdf:li>Watkins at the Glen</rdf:li>
          </rdf:Bag>
        </dc:subject>
        <cc:license
           rdf:resource="http://creativecommons.org/licenses/publicdomain/" />
      </cc:Work>
      <cc:License
         rdf:about="http://creativecommons.org/licenses/publicdomain/">
        <cc:permits
           rdf:resource="http://creativecommons.org/ns#Reproduction" />
        <cc:permits
           rdf:resource="http://creativecommons.org/ns#Distribution" />
        <cc:permits
           rdf:resource="http://creativecommons.org/ns#DerivativeWorks" />
      </cc:License>
    </rdf:RDF>
  </metadata>
  <g
     inkscape:label="Layer 1"
     inkscape:groupmode="layer"
     id="layer1"
     transform="translate(-912.46343,-1082.2633)">
    <path
       style="fill:#b7b7b7;fill-opacity:1;fill-rule:evenodd;stroke:#ffffff;stroke-width:0.5;stroke-linecap:round;stroke-linejoin:round;stroke-miterlimit:4;stroke-dasharray:none;stroke-opacity:1"
       d="M 1266.4062,1116.1562 L 1220.8125,1117.0625 C 1219.4318,1117.0884 1218.3335,1118.2286 1218.3593,1119.6094 C 1218.3852,1120.9901 1219.5255,1122.0884 1220.9062,1122.0625 L 1266.5,1121.1562 C 1267.8807,1121.1303 1268.979,1119.99 1268.9531,1118.6093 C 1268.9272,1117.2286 1267.7869,1116.1303 1266.4062,1116.1562 z"
       id="path3237" />
    <path
       style="fill:#b3b3b3;fill-opacity:1;fill-rule:evenodd;stroke:#ffffff;stroke-width:0.5;stroke-linecap:round;stroke-linejoin:round;stroke-miterlimit:4;stroke-dasharray:none;stroke-opacity:1"
       d="M 1280.0938,1166.3125 C 1279.9569,1166.3221 1279.821,1166.343 1279.6875,1166.375 L 1194.8438,1182.4688 C 1193.4804,1182.7277 1192.5849,1184.0428 1192.8438,1185.4062 C 1193.1027,1186.7696 1194.4178,1187.6651 1195.7812,1187.4062 L 1280.625,1171.2812 C 1281.9556,1171.0885 1282.8956,1169.8779 1282.7527,1168.541 C 1282.6097,1167.2041 1281.4351,1166.2196 1280.0938,1166.3125 z"
       id="path3239" />
    <path
       style="fill:#000000;fill-opacity:1;fill-rule:evenodd;stroke:#ffffff;stroke-width:0.25;stroke-linecap:round;stroke-linejoin:round;stroke-miterlimit:4;stroke-dasharray:none;stroke-opacity:1"
       d="M 1267.2812,1115.8438 C 1266.1741,1115.8247 1265.0541,1115.9264 1263.9688,1116.1562 C 1260.5621,1116.8776 1259.0263,1119.7032 1257.5312,1121.75 C 1256.7838,1122.7734 1256.0727,1123.6807 1255.4688,1124.25 C 1254.8647,1124.8193 1254.479,1124.9739 1254.1875,1125 C 1244.5113,1125.867 1241.5616,1126.0022 1235.8438,1125.625 C 1235.965,1125.633 1235.5655,1125.5399 1234.9062,1124.9062 C 1234.2471,1124.2727 1233.4188,1123.2708 1232.4688,1122.1875 C 1230.5684,1120.0209 1227.969,1117.2155 1224,1117.2812 C 1173.2047,1118.1242 1123.8291,1117.3269 1072.0312,1117.875 C 1067.6645,1117.9212 1062.8997,1117.9323 1058.3438,1119.1562 C 1055.2213,1119.9951 1052.5662,1121.9051 1050.4375,1123.9062 C 1035.7115,1137.7505 1022.4483,1153.192 1007.75,1166.3125 C 1005.5537,1168.273 1002.2863,1169.6326 999.1875,1170.1562 C 989.04973,1171.8696 977.78222,1171.0153 966.8125,1172.8438 C 963.11924,1173.4593 959.70844,1175.3004 957.03125,1177.5312 C 954.44801,1179.684 951.61023,1182.6332 950.5625,1186.5312 C 944.62797,1208.6112 939.68261,1231.7231 935.96875,1254.1875 C 935.38449,1257.7215 937.41794,1260.4841 938.8125,1262.3438 C 940.16661,1264.1492 942.1812,1266.2296 945.25,1266.5938 C 966.85552,1269.1572 988.96633,1270.0251 1010.6875,1271.6562 C 1038.8965,1273.7747 1067.6747,1277.609 1095.7812,1277.875 C 1100.588,1277.9205 1104.647,1274.7475 1107.0312,1271.5312 C 1109.8697,1267.7027 1110.6151,1262.6662 1111.0625,1258.4375 C 1112.639,1243.5401 1111.7509,1228.4343 1113.4375,1214.2188 C 1113.7031,1211.9796 1115.1777,1209.3654 1116.8438,1207.0625 C 1118.4629,1204.8242 1120.2692,1202.7375 1121.6875,1202.375 C 1145.6156,1196.26 1170.7622,1191.6849 1195.4062,1187.5625 C 1197.2732,1187.2502 1199.791,1187.7477 1201.75,1188.5938 C 1203.2437,1189.2388 1204.9943,1190.7668 1206.0312,1192.2188 C 1206.6166,1193.0382 1207.2629,1193.9275 1207.5938,1194.6562 C 1207.9245,1195.3851 1207.843,1195.7202 1207.8438,1195.7188 C 1198.9602,1216.447 1186.0459,1236.9613 1176.4062,1258.3125 C 1174.912,1261.622 1175.6547,1264.9446 1175.875,1267.3125 C 1176.0475,1269.1672 1176.2936,1271.5405 1177.875,1273.625 C 1178.5143,1274.4677 1179.3474,1275.5165 1180.4688,1276.4375 C 1181.59,1277.3585 1183.1,1278.259 1185,1278.1875 C 1227.7601,1276.5792 1268.4544,1273.6281 1311.2188,1270.7812 C 1313.1463,1270.652 1315.2532,1269.9723 1317.3438,1269.0625 C 1319.4342,1268.1527 1321.3958,1267.1191 1322.8125,1265.5 C 1324.0587,1264.0758 1324.7831,1262.3251 1325.4375,1260.5625 C 1326.0919,1258.7999 1326.5867,1257.0419 1326.9062,1255.8125 C 1327.6941,1252.7822 1327.7766,1249.313 1326.875,1246.1875 C 1325.9731,1243.061 1324.07,1240.0856 1321.7188,1237.9062 C 1319.4862,1235.8371 1316.4365,1233.3396 1312.4688,1233.0938 C 1289.5427,1231.672 1266.0242,1233.909 1243.5625,1232.5 C 1239.984,1232.2755 1235.6751,1230.7181 1233.5625,1228.7188 C 1231.561,1226.8244 1229.9466,1222.4256 1229.25,1218.7812 C 1228.86,1216.7411 1229.4614,1213.803 1230.3438,1211.1562 C 1231.4048,1207.973 1232.5782,1204.7855 1234.3125,1203.375 C 1246.3768,1193.5627 1260.575,1185.3978 1273.9375,1176.1875 C 1277.9615,1173.4139 1283.1431,1171.0792 1287.0938,1166.9375 C 1290.1877,1163.6939 1291.9499,1159.4605 1293.2812,1155.6562 C 1294.761,1151.4283 1296.7546,1146.2919 1296.0938,1141.125 C 1295.4409,1136.0206 1292.3443,1131.4869 1289.6875,1127.8125 C 1287.4588,1124.7304 1284.4451,1121.6092 1280.6875,1119.875 C 1277.1802,1118.2562 1272.7929,1116.2798 1268.375,1115.9062 C 1268.0068,1115.8751 1267.6503,1115.8501 1267.2812,1115.8438 z M 1266.3438,1120.875 C 1266.827,1120.8652 1267.3371,1120.9064 1267.875,1120.9688 C 1271.1027,1121.3424 1275.2458,1122.8612 1278.5938,1124.4062 C 1281.1382,1125.5806 1283.7415,1128.1451 1285.625,1130.75 C 1288.1609,1134.2571 1290.6923,1138.3979 1291.125,1141.7812 C 1291.5563,1145.1529 1290.0506,1149.7483 1288.5625,1154 C 1287.3184,1157.5547 1285.6735,1161.1884 1283.4688,1163.5 C 1280.4433,1166.6719 1275.6164,1168.9451 1271.0938,1172.0625 C 1257.9603,1181.1149 1243.6517,1189.3371 1231.1562,1199.5 C 1227.7531,1202.2678 1226.6274,1206.4612 1225.5938,1209.5625 C 1224.6112,1212.51 1223.6191,1216.0914 1224.3125,1219.7188 C 1225.106,1223.8698 1226.5935,1229.0327 1230.125,1232.375 C 1233.5662,1235.6319 1238.6403,1237.2109 1243.25,1237.5 C 1266.2527,1238.9429 1289.7708,1236.7054 1312.1562,1238.0938 C 1313.9557,1238.2053 1316.4314,1239.8214 1318.3438,1241.5938 C 1319.9648,1243.0962 1321.5027,1245.514 1322.0938,1247.5625 C 1322.6691,1249.5569 1322.6203,1252.4172 1322.0625,1254.5625 C 1321.7682,1255.6948 1321.3103,1257.3344 1320.75,1258.8438 C 1320.1897,1260.353 1319.4253,1261.7684 1319.0312,1262.2188 C 1318.6234,1262.6848 1317.0418,1263.761 1315.3438,1264.5 C 1313.6456,1265.239 1311.7247,1265.7244 1310.875,1265.7812 C 1268.0925,1268.6293 1227.4626,1271.5834 1184.8125,1273.1875 C 1184.6742,1273.1927 1184.2557,1273.086 1183.6562,1272.5938 C 1183.0569,1272.1014 1182.3805,1271.3013 1181.8438,1270.5938 C 1181.422,1270.0378 1181.0233,1268.438 1180.875,1266.8438 C 1180.6242,1264.1474 1180.3291,1261.7225 1180.9375,1260.375 C 1190.3791,1239.462 1203.3351,1218.9265 1212.4375,1197.6875 C 1213.2452,1195.803 1212.7416,1193.9525 1212.125,1192.5938 C 1211.5084,1191.2349 1210.6835,1190.1383 1210.0938,1189.3125 C 1208.5317,1187.1257 1206.3287,1185.1271 1203.7188,1184 C 1201.0704,1182.8563 1197.8367,1182.1139 1194.5938,1182.6562 C 1169.9034,1186.7864 1144.6014,1191.3561 1120.4375,1197.5312 C 1116.4933,1198.5393 1114.4139,1201.9113 1112.8125,1204.125 C 1110.9676,1206.6751 1108.9156,1209.8571 1108.4688,1213.625 C 1106.7105,1228.4447 1107.611,1243.568 1106.0938,1257.9062 C 1105.6754,1261.8599 1104.7739,1266.2121 1103.0312,1268.5625 C 1101.4835,1270.6502 1098.0103,1272.8955 1095.8438,1272.875 C 1091.6898,1272.8357 1087.5078,1272.7132 1083.3125,1272.5312 C 1083.2045,1272.3835 1083.0574,1272.2605 1082.875,1272.1875 C 1075.8372,1269.412 1069.0062,1264.5472 1061.0312,1263.625 C 1023.8657,1259.3269 985.21506,1260.4297 948.5,1256.625 C 947.7391,1256.5462 947.0181,1255.976 946.3125,1255.0625 C 945.6069,1254.149 944.99198,1252.9548 944.40625,1251.9375 C 943.82357,1250.9256 943.83928,1249.2258 943.625,1247.4688 C 943.41429,1245.7409 943.28077,1243.9694 943.15625,1242.1875 C 946.50623,1223.9896 950.60944,1205.5743 955.375,1187.8438 C 955.96673,1185.6421 958.05049,1183.1819 960.21875,1181.375 C 962.29311,1179.6464 965.13499,1178.2015 967.65625,1177.7812 C 977.79324,1176.0917 989.05411,1176.9489 1000.0312,1175.0938 C 1003.9308,1174.4347 1007.9482,1172.8114 1011.0625,1170.0312 C 1026.096,1156.6115 1039.4112,1141.1291 1053.875,1127.5312 C 1055.6192,1125.8914 1057.756,1124.4792 1059.6562,1123.9688 C 1063.3421,1122.9785 1067.7162,1122.9214 1072.0938,1122.875 C 1123.8065,1122.3278 1173.1612,1123.126 1224.0625,1122.2812 C 1225.4722,1122.2578 1226.9865,1123.4939 1228.7188,1125.4688 C 1229.5848,1126.4561 1230.4622,1127.5327 1231.4688,1128.5 C 1232.4752,1129.4673 1233.7046,1130.5045 1235.5312,1130.625 C 1241.4511,1131.0156 1244.9008,1130.8714 1254.625,1130 C 1256.4094,1129.8401 1257.8379,1128.8819 1258.9062,1127.875 C 1259.9747,1126.8681 1260.7927,1125.7415 1261.5625,1124.6875 C 1263.1022,1122.5794 1264.503,1121.1366 1265,1121.0312 C 1265.4041,1120.9457 1265.8605,1120.8848 1266.3438,1120.875 z M 941.8125,1249.7812 C 941.90701,1250.8244 942.07328,1251.925 942.65625,1252.9375 C 943.20514,1253.8908 943.85488,1255.1629 944.71875,1256.2812 C 945.58262,1257.3997 946.75561,1258.4323 948.3125,1258.5938 C 985.20976,1262.4173 1023.8124,1261.3184 1060.7812,1265.5938 C 1066.7005,1266.2782 1072.2526,1269.5009 1078.0625,1272.25 C 1055.9754,1271.0381 1033.428,1268.336 1011.0625,1266.6562 C 989.221,1265.016 967.18255,1264.1568 945.84375,1261.625 C 945.13368,1261.5408 943.66085,1260.4748 942.8125,1259.3438 C 941.65803,1257.8044 940.77433,1255.798 940.90625,1255 C 941.19354,1253.2622 941.51066,1251.526 941.8125,1249.7812 z"
       id="path3235" />
    <g
       id="g3420">
      <path
         transform="matrix(0.9428842,0,0,0.9428842,-80.585115,17.172075)"
         d="M 1123.7584,1296.1185 A 16.722593,16.722593 0 1 1 1090.3132,1296.1185 A 16.722593,16.722593 0 1 1 1123.7584,1296.1185 z"
         sodipodi:ry="16.722593"
         sodipodi:rx="16.722593"
         sodipodi:cy="1296.1185"
         sodipodi:cx="1107.0358"
         id="path3418"
         style="opacity:1;fill:#ffffff;fill-opacity:1;stroke:#161616;stroke-width:1;stroke-linecap:round;stroke-linejoin:round;stroke-miterlimit:4;stroke-dasharray:none;stroke-dashoffset:0;stroke-opacity:1"
         sodipodi:type="arc" />
      <text
         id="text3241"
         y="1248.7227"
         x="956.28979"
         style="font-size:28px;font-style:normal;font-weight:normal;fill:#000000;fill-opacity:1;stroke:none;stroke-width:1px;stroke-linecap:butt;stroke-linejoin:miter;stroke-opacity:1;font-family:Times New Roman"
         xml:space="preserve"><tspan
           y="1248.7227"
           x="956.28979"
           id="tspan3243"
           sodipodi:role="line">1</tspan></text>
    </g>
    <g
       id="g3413"
       transform="translate(0,7.6785521)">
      <path
         transform="matrix(0.9428842,0,0,0.9428842,-105.67552,-63.868459)"
         d="M 1123.7584,1296.1185 A 16.722593,16.722593 0 1 1 1090.3132,1296.1185 A 16.722593,16.722593 0 1 1 1123.7584,1296.1185 z"
         sodipodi:ry="16.722593"
         sodipodi:rx="16.722593"
         sodipodi:cy="1296.1185"
         sodipodi:cx="1107.0358"
         id="path3411"
         style="opacity:1;fill:#ffffff;fill-opacity:1;stroke:#161616;stroke-width:1;stroke-linecap:round;stroke-linejoin:round;stroke-miterlimit:4;stroke-dasharray:none;stroke-dashoffset:0;stroke-opacity:1"
         sodipodi:type="arc" />
      <text
         id="text3245"
         y="1167.6821"
         x="931.41132"
         style="font-size:28px;font-style:normal;font-weight:normal;fill:#000000;fill-opacity:1;stroke:none;stroke-width:1px;stroke-linecap:butt;stroke-linejoin:miter;stroke-opacity:1;font-family:Times New Roman"
         xml:space="preserve"><tspan
           y="1167.6821"
           x="931.41132"
           id="tspan3247"
           sodipodi:role="line">2</tspan></text>
    </g>
    <g
       id="g3406"
       transform="translate(-6.6890376,13.771548)">
      <path
         transform="matrix(0.9428842,0,0,0.9428842,-43.506812,-84.722517)"
         d="M 1123.7584,1296.1185 A 16.722593,16.722593 0 1 1 1090.3132,1296.1185 A 16.722593,16.722593 0 1 1 1123.7584,1296.1185 z"
         sodipodi:ry="16.722593"
         sodipodi:rx="16.722593"
         sodipodi:cy="1296.1185"
         sodipodi:cx="1107.0358"
         id="path3404"
         style="opacity:1;fill:#ffffff;fill-opacity:1;stroke:#161616;stroke-width:1;stroke-linecap:round;stroke-linejoin:round;stroke-miterlimit:4;stroke-dasharray:none;stroke-dashoffset:0;stroke-opacity:1"
         sodipodi:type="arc" />
      <text
         id="text3249"
         y="1146.6641"
         x="993.89447"
         style="font-size:28px;font-style:normal;font-weight:normal;fill:#000000;fill-opacity:1;stroke:none;stroke-width:1px;stroke-linecap:butt;stroke-linejoin:miter;stroke-opacity:1;font-family:Times New Roman"
         xml:space="preserve"><tspan
           y="1146.6641"
           x="993.89447"
           id="tspan3251"
           sodipodi:role="line">3</tspan></text>
    </g>
    <g
       id="g3399"
       transform="translate(0,11.581945)">
      <path
         transform="matrix(0.9428842,0,0,0.9428842,5.2838151,-132.33273)"
         d="M 1123.7584,1296.1185 A 16.722593,16.722593 0 1 1 1090.3132,1296.1185 A 16.722593,16.722593 0 1 1 1123.7584,1296.1185 z"
         sodipodi:ry="16.722593"
         sodipodi:rx="16.722593"
         sodipodi:cy="1296.1185"
         sodipodi:cx="1107.0358"
         id="path3397"
         style="opacity:1;fill:#ffffff;fill-opacity:1;stroke:#161616;stroke-width:1;stroke-linecap:round;stroke-linejoin:round;stroke-miterlimit:4;stroke-dasharray:none;stroke-dashoffset:0;stroke-opacity:1"
         sodipodi:type="arc" />
      <text
         id="text3253"
         y="1099.2179"
         x="1042.3569"
         style="font-size:28px;font-style:normal;font-weight:normal;fill:#000000;fill-opacity:1;stroke:none;stroke-width:1px;stroke-linecap:butt;stroke-linejoin:miter;stroke-opacity:1;font-family:Times New Roman"
         xml:space="preserve"><tspan
           y="1099.2179"
           x="1042.3569"
           id="tspan3255"
           sodipodi:role="line">4</tspan></text>
    </g>
    <g
       id="g3385"
       transform="translate(8.3766023,17.10223)">
      <g
         id="g2493">
        <path
           sodipodi:type="arc"
           style="opacity:1;fill:#ffffff;fill-opacity:1;stroke:#161616;stroke-width:1;stroke-linecap:round;stroke-linejoin:round;stroke-miterlimit:4;stroke-dasharray:none;stroke-dashoffset:0;stroke-opacity:1"
           id="path3383"
           sodipodi:cx="1107.0358"
           sodipodi:cy="1296.1185"
           sodipodi:rx="16.722593"
           sodipodi:ry="16.722593"
           d="M 1123.7584,1296.1185 A 16.722593,16.722593 0 1 1 1090.3132,1296.1185 A 16.722593,16.722593 0 1 1 1123.7584,1296.1185 z"
           transform="matrix(0.9428842,0,0,0.9428842,270.09101,-122.10243)" />
        <text
           sodipodi:linespacing="125%"
           xml:space="preserve"
           style="font-size:28px;font-style:normal;font-weight:normal;fill:#000000;fill-opacity:1;stroke:none;stroke-width:1px;stroke-linecap:butt;stroke-linejoin:miter;stroke-opacity:1;font-family:Times New Roman;-inkscape-font-specification:Times New Roman;font-stretch:normal;font-variant:normal;text-anchor:start;text-align:start;writing-mode:lr;line-height:125%"
           x="1306.8361"
           y="1109.2842"
           id="text3261"><tspan
             id="tspan2491"
             sodipodi:role="line">5</tspan></text>
      </g>
    </g>
    <g
       id="g3378"
       transform="translate(64.136067,-25.575732)">
      <g
         id="g2486">
        <path
           sodipodi:type="arc"
           style="opacity:1;fill:#ffffff;fill-opacity:1;stroke:#161616;stroke-width:1;stroke-linecap:round;stroke-linejoin:round;stroke-miterlimit:4;stroke-dasharray:none;stroke-dashoffset:0;stroke-opacity:1"
           id="path3376"
           sodipodi:cx="1107.0358"
           sodipodi:cy="1296.1185"
           sodipodi:rx="16.722593"
           sodipodi:ry="16.722593"
           d="M 1123.7584,1296.1185 A 16.722593,16.722593 0 1 1 1090.3132,1296.1185 A 16.722593,16.722593 0 1 1 1123.7584,1296.1185 z"
           transform="matrix(0.9428842,0,0,0.9428842,174.87059,16.793465)" />
        <text
           sodipodi:linespacing="125%"
           xml:space="preserve"
           style="font-size:28px;font-style:normal;font-weight:normal;fill:#000000;fill-opacity:1;stroke:none;stroke-width:1px;stroke-linecap:butt;stroke-linejoin:miter;stroke-opacity:1;font-family:Times New Roman;-inkscape-font-specification:Times New Roman;font-stretch:normal;font-variant:normal;text-anchor:start;text-align:start;writing-mode:lr;line-height:125%"
           x="1211.7797"
           y="1247.9613"
           id="text3265"><tspan
             id="tspan2484"
             sodipodi:role="line">6</tspan></text>
      </g>
    </g>
    <g
       id="g3371">
      <g
         id="g2479">
        <path
           sodipodi:type="arc"
           style="opacity:1;fill:#ffffff;fill-opacity:1;stroke:#161616;stroke-width:1;stroke-linecap:round;stroke-linejoin:round;stroke-miterlimit:4;stroke-dasharray:none;stroke-dashoffset:0;stroke-opacity:1"
           id="path3369"
           sodipodi:cx="1107.0358"
           sodipodi:cy="1296.1185"
           sodipodi:rx="16.722593"
           sodipodi:ry="16.722593"
           d="M 1123.7584,1296.1185 A 16.722593,16.722593 0 1 1 1090.3132,1296.1185 A 16.722593,16.722593 0 1 1 1123.7584,1296.1185 z"
           transform="matrix(0.9428842,0,0,0.9428842,301.96231,25.449867)" />
        <text
           sodipodi:linespacing="125%"
           xml:space="preserve"
           style="font-size:28px;font-style:normal;font-weight:normal;fill:#000000;fill-opacity:1;stroke:none;stroke-width:1px;stroke-linecap:butt;stroke-linejoin:miter;stroke-opacity:1;font-family:Times New Roman;-inkscape-font-specification:Times New Roman;font-stretch:normal;font-variant:normal;text-anchor:start;text-align:start;writing-mode:lr;line-height:125%"
           x="1338.7278"
           y="1256.8364"
           id="text3269"><tspan
             id="tspan2477"
             sodipodi:role="line">7</tspan></text>
      </g>
    </g>
    <g
       id="g3364"
       transform="translate(-1.0470753,2.7922008)">
      <g
         id="g2472">
        <path
           sodipodi:type="arc"
           style="opacity:1;fill:#ffffff;fill-opacity:1;stroke:#161616;stroke-width:1;stroke-linecap:round;stroke-linejoin:round;stroke-miterlimit:4;stroke-dasharray:none;stroke-dashoffset:0;stroke-opacity:1"
           id="path3362"
           sodipodi:cx="1107.0358"
           sodipodi:cy="1296.1185"
           sodipodi:rx="16.722593"
           sodipodi:ry="16.722593"
           d="M 1123.7584,1296.1185 A 16.722593,16.722593 0 1 1 1090.3132,1296.1185 A 16.722593,16.722593 0 1 1 1123.7584,1296.1185 z"
           transform="matrix(0.9428842,0,0,0.9428842,120.17787,58.501582)" />
        <text
           sodipodi:linespacing="125%"
           xml:space="preserve"
           style="font-size:28px;font-style:normal;font-weight:normal;fill:#000000;fill-opacity:1;stroke:none;stroke-width:1px;stroke-linecap:butt;stroke-linejoin:miter;stroke-opacity:1;font-family:Times New Roman;-inkscape-font-specification:Times New Roman;font-stretch:normal;font-variant:normal;text-anchor:start;text-align:start;writing-mode:lr;line-height:125%"
           x="1157.0322"
           y="1289.8608"
           id="text3273"><tspan
             id="tspan2470"
             sodipodi:role="line">8</tspan></text>
      </g>
    </g>
    <g
       id="g3357"
       transform="translate(-5.1151464,0.7869456)">
      <g
         id="g2467">
        <path
           sodipodi:type="arc"
           style="opacity:1;fill:#ffffff;fill-opacity:1;stroke:#161616;stroke-width:1;stroke-linecap:round;stroke-linejoin:round;stroke-miterlimit:4;stroke-dasharray:none;stroke-dashoffset:0;stroke-opacity:1"
           id="path3355"
           sodipodi:cx="1107.0358"
           sodipodi:cy="1296.1185"
           sodipodi:rx="16.722593"
           sodipodi:ry="16.722593"
           d="M 1123.7584,1296.1185 A 16.722593,16.722593 0 1 1 1090.3132,1296.1185 A 16.722593,16.722593 0 1 1 1123.7584,1296.1185 z"
           transform="matrix(0.9428842,0,0,0.9428842,141.33355,-14.305747)" />
      </g>
      <text
         id="text3277"
         y="1217.0808"
         x="1178.026"
         style="font-size:28px;font-style:normal;font-weight:normal;fill:#000000;fill-opacity:1;stroke:none;stroke-width:1px;stroke-linecap:butt;stroke-linejoin:miter;stroke-opacity:1;font-family:Times New Roman"
         xml:space="preserve"><tspan
           y="1217.0808"
           x="1178.026"
           id="tspan3279"
           sodipodi:role="line">9</tspan></text>
    </g>
    <g
       id="g3350">
      <path
         transform="matrix(0.9428842,0,0,0.9428842,90.575554,-3.681976)"
         d="M 1123.7584,1296.1185 A 16.722593,16.722593 0 1 1 1090.3132,1296.1185 A 16.722593,16.722593 0 1 1 1123.7584,1296.1185 z"
         sodipodi:ry="16.722593"
         sodipodi:rx="16.722593"
         sodipodi:cy="1296.1185"
         sodipodi:cx="1107.0358"
         id="path3348"
         style="opacity:1;fill:#ffffff;fill-opacity:1;stroke:#161616;stroke-width:1;stroke-linecap:round;stroke-linejoin:round;stroke-miterlimit:4;stroke-dasharray:none;stroke-dashoffset:0;stroke-opacity:1"
         sodipodi:type="arc" />
      <text
         id="text3281"
         y="1227.8687"
         x="1120.4504"
         style="font-size:28px;font-style:normal;font-weight:normal;fill:#000000;fill-opacity:1;stroke:none;stroke-width:1px;stroke-linecap:butt;stroke-linejoin:miter;stroke-opacity:1;font-family:Times New Roman;-inkscape-font-specification:Times New Roman;font-stretch:normal;font-variant:normal;text-anchor:start;text-align:start;writing-mode:lr;line-height:125%"
         xml:space="preserve"
         sodipodi:linespacing="125%"><tspan
           sodipodi:role="line"
           id="tspan2465">10</tspan></text>
    </g>
    <g
       id="g3343">
      <path
         transform="matrix(0.9428842,0,0,0.9428842,64.212903,73.04515)"
         d="M 1123.7584,1296.1185 A 16.722593,16.722593 0 1 1 1090.3132,1296.1185 A 16.722593,16.722593 0 1 1 1123.7584,1296.1185 z"
         sodipodi:ry="16.722593"
         sodipodi:rx="16.722593"
         sodipodi:cy="1296.1185"
         sodipodi:cx="1107.0358"
         id="path3341"
         style="opacity:1;fill:#ffffff;fill-opacity:1;stroke:#161616;stroke-width:1;stroke-linecap:round;stroke-linejoin:round;stroke-miterlimit:4;stroke-dasharray:none;stroke-dashoffset:0;stroke-opacity:1"
         sodipodi:type="arc" />
      <text
         id="text3285"
         y="1304.5958"
         x="1092.9598"
         style="font-size:28px;font-style:normal;font-weight:normal;fill:#000000;fill-opacity:1;stroke:none;stroke-width:1px;stroke-linecap:butt;stroke-linejoin:miter;stroke-opacity:1;font-family:Times New Roman;-inkscape-font-specification:Times New Roman;font-stretch:normal;font-variant:normal;text-anchor:start;text-align:start;writing-mode:lr;line-height:125%"
         xml:space="preserve"
         sodipodi:linespacing="125%"><tspan
           sodipodi:role="line"
           id="tspan2463">11</tspan></text>
    </g>
    <text
       xml:space="preserve"
       style="font-size:18px;font-style:normal;font-variant:normal;font-weight:normal;font-stretch:normal;text-align:start;line-height:125%;writing-mode:lr-tb;text-anchor:start;fill:#000000;fill-opacity:1;stroke:#ffffff;stroke-width:0.25;stroke-linecap:butt;stroke-linejoin:miter;stroke-miterlimit:4;stroke-dasharray:none;stroke-opacity:1;font-family:Times New Roman;-inkscape-font-specification:Times New Roman"
       id="text3289"
       sodipodi:linespacing="125%"><textPath
         xlink:href="#path3336"
         id="textPath3338"><tspan
   id="tspan3291"
   style="stroke:#ffffff;stroke-width:0.25;stroke-miterlimit:4;stroke-dasharray:none;stroke-opacity:1">The 90</tspan></textPath></text>
    <text
       xml:space="preserve"
       style="font-size:18px;font-style:normal;font-variant:normal;font-weight:normal;font-stretch:normal;text-align:start;line-height:125%;writing-mode:lr-tb;text-anchor:start;fill:#000000;fill-opacity:1;stroke:#ffffff;stroke-width:0.25;stroke-linecap:butt;stroke-linejoin:miter;stroke-miterlimit:4;stroke-dasharray:none;stroke-opacity:1;font-family:Times New Roman;-inkscape-font-specification:Times New Roman"
       id="text3293"
       sodipodi:linespacing="125%"><textPath
         xlink:href="#path3331"
         id="textPath3333"><tspan
   id="tspan3295"
   style="stroke:#ffffff;stroke-width:0.25;stroke-miterlimit:4;stroke-dasharray:none;stroke-opacity:1">The Esses</tspan></textPath></text>
    <text
       xml:space="preserve"
       style="font-size:18px;font-style:normal;font-variant:normal;font-weight:normal;font-stretch:normal;text-align:start;line-height:125%;writing-mode:lr-tb;text-anchor:start;fill:#000000;fill-opacity:1;stroke:#ffffff;stroke-width:0.25;stroke-linecap:butt;stroke-linejoin:miter;stroke-miterlimit:4;stroke-dasharray:none;stroke-opacity:1;font-family:Times New Roman;-inkscape-font-specification:Times New Roman"
       x="1104.3958"
       y="1109.6301"
       id="text3297"
       sodipodi:linespacing="125%"><tspan
         sodipodi:role="line"
         id="tspan3299"
         x="1104.3958"
         y="1109.6301">Back Straight</tspan></text>
    <path
       transform="translate(3.839276,0)"
       style="font-size:18px;font-style:normal;font-variant:normal;font-weight:normal;font-stretch:normal;text-align:start;line-height:125%;writing-mode:lr-tb;text-anchor:start;fill:#000000;fill-opacity:1;stroke:#ffffff;stroke-width:0.25;stroke-linecap:butt;stroke-linejoin:miter;stroke-miterlimit:4;stroke-opacity:1;font-family:Times New Roman;-inkscape-font-specification:Times New Roman"
       d="M 1189.1414,1135.2861 L 1189.1512,1135.6112 L 1184.047,1135.7649 L 1184.0372,1135.4399 L 1184.4589,1135.4272 C 1184.9509,1135.4124 1185.3038,1135.2581 1185.5177,1134.9644 C 1185.6527,1134.7728 1185.7093,1134.3197 1185.6878,1133.6052 L 1185.456,1125.9095 C 1185.4378,1125.3062 1185.3877,1124.9091 1185.3058,1124.7181 C 1185.2428,1124.5735 1185.1189,1124.4512 1184.9342,1124.3512 C 1184.6723,1124.2184 1184.4007,1124.1563 1184.1196,1124.1647 L 1183.6979,1124.1774 L 1183.6881,1123.8524 L 1188.7923,1123.6986 L 1188.8021,1124.0237 L 1188.3716,1124.0366 C 1187.8855,1124.0513 1187.5355,1124.2054 1187.3216,1124.4991 C 1187.1808,1124.691 1187.1212,1125.1441 1187.1427,1125.8586 L 1187.3746,1133.5544 C 1187.3927,1134.1576 1187.4428,1134.5547 1187.5248,1134.7457 C 1187.5877,1134.8903 1187.7145,1135.0126 1187.9051,1135.1123 C 1188.1612,1135.2453 1188.4298,1135.3076 1188.7109,1135.2991 L 1189.1414,1135.2861 z M 1192.3177,1128.9298 C 1193.2264,1127.7652 1194.1082,1127.17 1194.9633,1127.1442 C 1195.4026,1127.131 1195.7836,1127.2294 1196.1065,1127.4395 C 1196.4294,1127.6496 1196.6921,1128.0037 1196.8947,1128.5017 C 1197.0342,1128.8492 1197.1148,1129.3861 1197.1367,1130.1124 L 1197.2402,1133.5473 C 1197.2555,1134.0569 1197.3069,1134.4012 1197.3944,1134.5802 C 1197.4632,1134.7247 1197.5706,1134.8358 1197.7166,1134.9135 C 1197.8626,1134.9911 1198.1288,1135.0242 1198.5154,1135.0125 L 1198.5249,1135.3288 L 1194.5452,1135.4487 L 1194.5357,1135.1324 L 1194.7026,1135.1274 C 1195.0775,1135.1161 1195.3378,1135.0511 1195.4837,1134.9324 C 1195.6296,1134.8137 1195.7285,1134.6422 1195.7804,1134.4178 C 1195.8012,1134.3293 1195.8046,1134.0537 1195.7906,1133.591 L 1195.6914,1130.2966 C 1195.6693,1129.5645 1195.5582,1129.0359 1195.3578,1128.7107 C 1195.1575,1128.3855 1194.8319,1128.2297 1194.3809,1128.2433 C 1193.684,1128.2643 1193.0014,1128.6659 1192.3333,1129.4481 L 1192.4611,1133.6913 C 1192.4775,1134.236 1192.5199,1134.5718 1192.5882,1134.6987 C 1192.6753,1134.866 1192.7918,1134.9871 1192.9377,1135.0618 C 1193.0835,1135.1366 1193.3761,1135.1673 1193.8153,1135.1541 L 1193.8249,1135.4704 L 1189.8452,1135.5903 L 1189.8357,1135.274 L 1190.0114,1135.2687 C 1190.4214,1135.2564 1190.695,1135.1441 1190.8322,1134.9318 C 1190.9694,1134.7196 1191.0292,1134.3206 1191.0116,1133.735 L 1190.9216,1130.748 C 1190.8925,1129.7817 1190.8528,1129.1937 1190.8025,1128.9842 C 1190.7522,1128.7747 1190.6805,1128.6333 1190.5875,1128.5598 C 1190.4944,1128.4864 1190.3717,1128.452 1190.2194,1128.4566 C 1190.0555,1128.4616 1189.8606,1128.5114 1189.6348,1128.6061 L 1189.4935,1128.2938 L 1191.8886,1127.2369 L 1192.2663,1127.2255 L 1192.3177,1128.9298 z M 1201.3135,1128.6588 C 1202.2222,1127.4942 1203.1041,1126.899 1203.9592,1126.8732 C 1204.3984,1126.86 1204.7795,1126.9584 1205.1024,1127.1685 C 1205.4252,1127.3786 1205.688,1127.7327 1205.8906,1128.2307 C 1206.03,1128.5783 1206.1107,1129.1151 1206.1326,1129.8414 L 1206.236,1133.2763 C 1206.2514,1133.7859 1206.3028,1134.1302 1206.3903,1134.3093 C 1206.4591,1134.4537 1206.5665,1134.5648 1206.7125,1134.6425 C 1206.8584,1134.7201 1207.1247,1134.7532 1207.5112,1134.7415 L 1207.5207,1135.0578 L 1203.5411,1135.1777 L 1203.5316,1134.8614 L 1203.6985,1134.8564 C 1204.0733,1134.8451 1204.3337,1134.7801 1204.4796,1134.6614 C 1204.6255,1134.5427 1204.7244,1134.3712 1204.7762,1134.1468 C 1204.797,1134.0583 1204.8004,1133.7827 1204.7865,1133.32 L 1204.6872,1130.0256 C 1204.6652,1129.2935 1204.554,1128.7649 1204.3537,1128.4397 C 1204.1534,1128.1145 1203.8277,1127.9587 1203.3768,1127.9723 C 1202.6798,1127.9933 1201.9973,1128.3949 1201.3291,1129.1771 L 1201.457,1133.4203 C 1201.4734,1133.965 1201.5157,1134.3008 1201.584,1134.4277 C 1201.6711,1134.595 1201.7876,1134.7161 1201.9335,1134.7908 C 1202.0794,1134.8656 1202.3719,1134.8963 1202.8112,1134.8831 L 1202.8207,1135.1994 L 1198.8411,1135.3193 L 1198.8316,1135.003 L 1199.0073,1134.9977 C 1199.4172,1134.9854 1199.6908,1134.8731 1199.828,1134.6608 C 1199.9653,1134.4486 1200.0251,1134.0496 1200.0074,1133.464 L 1199.9174,1130.477 C 1199.8883,1129.5107 1199.8486,1128.9228 1199.7983,1128.7132 C 1199.7481,1128.5037 1199.6764,1128.3623 1199.5833,1128.2888 C 1199.4902,1128.2155 1199.3676,1128.181 1199.2153,1128.1856 C 1199.0513,1128.1906 1198.8564,1128.2404 1198.6307,1128.3351 L 1198.4894,1128.0228 L 1200.8844,1126.9659 L 1201.2622,1126.9545 L 1201.3135,1128.6588 z M 1211.3767,1130.5512 C 1210.9003,1131.6475 1210.7974,1132.6234 1211.0681,1133.479 C 1211.3388,1134.3346 1211.8376,1134.9182 1212.5646,1135.2299 C 1213.0493,1135.4378 1213.5278,1135.4852 1214.0002,1135.3721 C 1214.4726,1135.2591 1214.9686,1134.9315 1215.488,1134.3891 L 1215.6691,1134.6581 C 1215.2397,1135.3473 1214.6231,1135.8783 1213.8195,1136.2509 C 1213.0158,1136.6235 1212.2047,1136.6344 1211.3861,1136.2834 C 1210.4976,1135.9024 1209.8853,1135.2303 1209.5492,1134.2669 C 1209.2132,1133.3036 1209.2957,1132.2377 1209.7967,1131.0691 C 1210.3393,1129.8036 1211.0869,1128.9558 1212.0395,1128.5259 C 1212.992,1128.096 1213.9584,1128.0912 1214.9385,1128.5114 C 1215.7678,1128.867 1216.3319,1129.4324 1216.6306,1130.2076 C 1216.9294,1130.9828 1216.8825,1131.8281 1216.49,1132.7436 L 1211.3767,1130.5512 z M 1211.5776,1130.0827 L 1215.0026,1131.5512 C 1215.1789,1131.0658 1215.2655,1130.7076 1215.2625,1130.4768 C 1215.2571,1130.1175 1215.1581,1129.7946 1214.9654,1129.5079 C 1214.7728,1129.2213 1214.531,1129.0157 1214.2402,1128.891 C 1213.7932,1128.6993 1213.3189,1128.7016 1212.8173,1128.8977 C 1212.3156,1129.0938 1211.9024,1129.4888 1211.5776,1130.0827 L 1211.5776,1130.0827 z M 1221.5556,1132.6123 L 1220.5963,1134.1478 C 1221.8073,1133.4812 1222.7135,1133.3357 1223.3148,1133.7113 C 1223.5881,1133.8821 1223.7622,1134.1066 1223.8371,1134.3848 C 1223.9119,1134.6631 1223.8811,1134.9115 1223.7445,1135.1302 C 1223.6234,1135.324 1223.4563,1135.4476 1223.2433,1135.501 C 1223.0303,1135.5545 1222.8343,1135.5253 1222.6554,1135.4136 C 1222.4815,1135.3049 1222.34,1135.0973 1222.231,1134.7908 C 1222.1219,1134.4843 1222.0152,1134.2985 1221.9109,1134.2333 C 1221.8214,1134.1774 1221.6935,1134.1666 1221.527,1134.2008 C 1221.1761,1134.2648 1220.7355,1134.4559 1220.2051,1134.7739 L 1218.1607,1138.0462 C 1217.9248,1138.4239 1217.7935,1138.7391 1217.7668,1138.9919 C 1217.7476,1139.1664 1217.792,1139.3496 1217.9001,1139.5415 C 1218.0082,1139.7334 1218.2163,1139.9256 1218.5244,1140.1181 L 1218.3568,1140.3864 L 1214.8609,1138.2023 L 1215.0285,1137.934 C 1215.3764,1138.1513 1215.6689,1138.2581 1215.9062,1138.2543 C 1216.0801,1138.2524 1216.2462,1138.18 1216.4046,1138.0372 C 1216.4822,1137.9682 1216.6452,1137.735 1216.8936,1137.3374 L 1218.5468,1134.6913 C 1219.0435,1133.8962 1219.3231,1133.4128 1219.3855,1133.2411 C 1219.4479,1133.0693 1219.4573,1132.9215 1219.4138,1132.7976 C 1219.3703,1132.6737 1219.284,1132.5714 1219.1548,1132.4907 C 1219.0007,1132.3944 1218.8035,1132.323 1218.5632,1132.2765 L 1218.6563,1131.9616 L 1221.2426,1132.4167 L 1221.5556,1132.6123 z M 1234.2769,1138.3906 L 1234.5687,1138.4436 L 1233.644,1141.7064 L 1224.4194,1141.9758 L 1224.4099,1141.6508 L 1224.858,1141.6377 C 1225.3616,1141.623 1225.7171,1141.4484 1225.9242,1141.1141 C 1226.0417,1140.9231 1226.0905,1140.4879 1226.0707,1139.8085 L 1225.8462,1132.1214 C 1225.8245,1131.3775 1225.7289,1130.9143 1225.5594,1130.7317 C 1225.3235,1130.4807 1224.98,1130.3617 1224.529,1130.3749 L 1224.081,1130.388 L 1224.0715,1130.0629 L 1229.4657,1129.9054 L 1229.4751,1130.2304 C 1228.8424,1130.2431 1228.4005,1130.3146 1228.1493,1130.445 C 1227.8981,1130.5755 1227.7284,1130.7358 1227.6402,1130.9259 C 1227.5519,1131.1161 1227.5182,1131.5655 1227.5389,1132.2742 L 1227.7575,1139.7592 C 1227.7717,1140.2454 1227.8283,1140.5778 1227.9273,1140.7567 C 1228.0012,1140.8776 1228.1122,1140.9652 1228.2603,1141.0195 C 1228.4084,1141.0738 1228.8661,1141.0898 1229.6334,1141.0673 L 1230.5031,1141.0419 C 1231.4168,1141.0153 1232.0562,1140.9292 1232.4212,1140.7837 C 1232.7863,1140.6382 1233.1161,1140.3897 1233.4106,1140.0382 C 1233.7052,1139.6867 1233.9939,1139.1375 1234.2769,1138.3906 L 1234.2769,1138.3906 z M 1239.3145,1133.2491 C 1240.5327,1133.2135 1241.5243,1133.6477 1242.2893,1134.5515 C 1242.9391,1135.3239 1243.2789,1136.2225 1243.3089,1137.2475 C 1243.3299,1137.9679 1243.1784,1138.7021 1242.8544,1139.4502 C 1242.5304,1140.1982 1242.0708,1140.7685 1241.4756,1141.1611 C 1240.8803,1141.5536 1240.2108,1141.7608 1239.467,1141.7825 C 1238.2546,1141.8179 1237.277,1141.3628 1236.5343,1140.4173 C 1235.9072,1139.6208 1235.5789,1138.716 1235.5493,1137.7027 C 1235.5278,1136.9648 1235.6894,1136.2258 1236.0341,1135.486 C 1236.3789,1134.7461 1236.8449,1134.1932 1237.4321,1133.8273 C 1238.0193,1133.4613 1238.6468,1133.2686 1239.3145,1133.2491 L 1239.3145,1133.2491 z M 1239.0588,1133.8281 C 1238.7484,1133.8372 1238.4392,1133.9385 1238.1313,1134.1322 C 1237.8233,1134.3258 1237.5794,1134.6568 1237.3997,1135.1251 C 1237.2199,1135.5935 1237.1406,1136.1908 1237.1618,1136.917 C 1237.1961,1138.0884 1237.4584,1139.0919 1237.9488,1139.9276 C 1238.4392,1140.7632 1239.0651,1141.1699 1239.8265,1141.1477 C 1240.3946,1141.1311 1240.8563,1140.8831 1241.2117,1140.4038 C 1241.5669,1139.9245 1241.7279,1139.1138 1241.6946,1137.9717 C 1241.6528,1136.5426 1241.3125,1135.4271 1240.6736,1134.6251 C 1240.2413,1134.075 1239.7031,1133.8093 1239.0588,1133.8281 L 1239.0588,1133.8281 z M 1248.3107,1132.9864 C 1249.5289,1132.9508 1250.5205,1133.385 1251.2855,1134.2888 C 1251.9353,1135.0612 1252.2752,1135.9598 1252.3051,1136.9848 C 1252.3261,1137.7052 1252.1746,1138.4394 1251.8506,1139.1875 C 1251.5266,1139.9355 1251.067,1140.5058 1250.4718,1140.8984 C 1249.8765,1141.2909 1249.207,1141.4981 1248.4632,1141.5198 C 1247.2508,1141.5552 1246.2732,1141.1001 1245.5305,1140.1546 C 1244.9035,1139.3581 1244.5751,1138.4533 1244.5455,1137.44 C 1244.524,1136.7021 1244.6856,1135.9632 1245.0304,1135.2233 C 1245.3751,1134.4834 1245.8411,1133.9305 1246.4283,1133.5646 C 1247.0155,1133.1986 1247.643,1133.0059 1248.3107,1132.9864 L 1248.3107,1132.9864 z M 1248.055,1133.5654 C 1247.7446,1133.5745 1247.4354,1133.6758 1247.1275,1133.8695 C 1246.8195,1134.0631 1246.5756,1134.3941 1246.3959,1134.8625 C 1246.2161,1135.3308 1246.1368,1135.9281 1246.1581,1136.6543 C 1246.1923,1137.8257 1246.4546,1138.8292 1246.945,1139.6649 C 1247.4354,1140.5005 1248.0613,1140.9072 1248.8227,1140.885 C 1249.3909,1140.8684 1249.8526,1140.6204 1250.2079,1140.1411 C 1250.5632,1139.6618 1250.7241,1138.8511 1250.6908,1137.709 C 1250.649,1136.2799 1250.3087,1135.1644 1249.6698,1134.3624 C 1249.2375,1133.8123 1248.6993,1133.5466 1248.055,1133.5654 L 1248.055,1133.5654 z M 1252.8215,1133.8923 L 1255.2697,1132.8184 L 1255.6036,1132.8086 L 1255.6585,1134.6887 C 1256.0536,1133.9679 1256.4564,1133.4593 1256.8669,1133.163 C 1257.2774,1132.8667 1257.714,1132.7118 1258.1766,1132.6983 C 1258.9849,1132.6747 1259.6677,1132.9713 1260.225,1133.5881 C 1260.9094,1134.3419 1261.2697,1135.3396 1261.306,1136.5813 C 1261.3465,1137.9694 1260.9818,1139.1289 1260.2118,1140.06 C 1259.5775,1140.823 1258.7626,1141.219 1257.7669,1141.2481 C 1257.3335,1141.2608 1256.9568,1141.2102 1256.637,1141.0965 C 1256.4001,1141.0154 1256.1315,1140.8474 1255.8309,1140.5924 L 1255.9025,1143.0435 C 1255.9186,1143.5941 1255.9625,1143.943 1256.0342,1144.0904 C 1256.1059,1144.2378 1256.2265,1144.353 1256.396,1144.436 C 1256.5655,1144.5189 1256.8699,1144.554 1257.3091,1144.5412 L 1257.3186,1144.8663 L 1253.1017,1144.9894 L 1253.0922,1144.6644 L 1253.3118,1144.6579 C 1253.6341,1144.6544 1253.9076,1144.5849 1254.1322,1144.4493 C 1254.2416,1144.3817 1254.325,1144.2752 1254.3823,1144.1299 C 1254.4396,1143.9846 1254.4597,1143.6191 1254.4426,1143.0334 L 1254.2204,1135.4253 C 1254.2052,1134.9041 1254.1721,1134.5738 1254.1211,1134.4346 C 1254.0702,1134.2955 1253.9924,1134.1922 1253.8879,1134.1249 C 1253.7833,1134.0576 1253.6432,1134.0266 1253.4675,1134.0317 C 1253.3269,1134.0358 1253.1495,1134.082 1252.9352,1134.1703 L 1252.8215,1133.8923 z M 1255.6736,1135.207 L 1255.7614,1138.2116 C 1255.7804,1138.8617 1255.8192,1139.2885 1255.8779,1139.492 C 1255.9698,1139.8293 1256.1791,1140.1221 1256.5059,1140.3705 C 1256.8326,1140.6189 1257.239,1140.736 1257.7251,1140.7218 C 1258.3108,1140.7047 1258.7786,1140.4624 1259.1284,1139.9949 C 1259.5853,1139.3837 1259.798,1138.5363 1259.7663,1137.4528 C 1259.7304,1136.2228 1259.4334,1135.2848 1258.8752,1134.6387 C 1258.487,1134.1928 1258.0352,1133.9774 1257.5198,1133.9925 C 1257.2387,1134.0007 1256.9625,1134.0791 1256.6914,1134.2277 C 1256.4836,1134.3393 1256.1443,1134.6657 1255.6736,1135.207 L 1255.6736,1135.207 z"
       id="text3301" />
    <path
       style="font-size:18px;font-style:normal;font-variant:normal;font-weight:normal;font-stretch:normal;text-align:start;line-height:125%;writing-mode:lr-tb;text-anchor:start;fill:#000000;fill-opacity:1;stroke:#ffffff;stroke-width:0.25;stroke-linecap:butt;stroke-linejoin:miter;stroke-miterlimit:4;stroke-opacity:1;font-family:Times New Roman;-inkscape-font-specification:Times New Roman"
       d="M 1272.4465,1099.6306 C 1273.9452,1100.0139 1275.0981,1100.9152 1275.9054,1102.3343 C 1276.7126,1103.7535 1276.8984,1105.3145 1276.4628,1107.0175 C 1276.0141,1108.7716 1275.0881,1110.086 1273.685,1110.9609 C 1272.2818,1111.8357 1270.794,1112.072 1269.2216,1111.6698 C 1267.6322,1111.2632 1266.4412,1110.3568 1265.6488,1108.9505 C 1264.8564,1107.5442 1264.6896,1105.9442 1265.1485,1104.1504 C 1265.6176,1102.3169 1266.6246,1100.9808 1268.1697,1100.1422 C 1269.511,1099.4149 1270.9366,1099.2443 1272.4465,1099.6306 L 1272.4465,1099.6306 z M 1272.1258,1100.2108 C 1271.0926,1099.9465 1270.1658,1100.1176 1269.3454,1100.7242 C 1268.3237,1101.479 1267.5776,1102.7759 1267.1071,1104.6151 C 1266.625,1106.4998 1266.657,1108.0532 1267.2032,1109.2755 C 1267.6244,1110.2058 1268.3431,1110.8009 1269.3592,1111.0609 C 1270.4434,1111.3382 1271.4471,1111.1444 1272.3702,1110.4794 C 1273.2933,1109.8144 1273.9879,1108.5708 1274.4541,1106.7486 C 1274.9594,1104.7731 1274.9474,1103.2006 1274.418,1102.031 C 1273.9911,1101.0992 1273.227,1100.4925 1272.1258,1100.2108 L 1272.1258,1100.2108 z M 1286.415,1108.3847 L 1284.2163,1112.739 C 1283.7963,1113.5706 1283.5591,1114.0891 1283.5046,1114.2946 C 1283.45,1114.5001 1283.4474,1114.6613 1283.4968,1114.7781 C 1283.5461,1114.8949 1283.6283,1114.9823 1283.7434,1115.0404 C 1283.9055,1115.1223 1284.111,1115.1703 1284.3599,1115.1844 L 1284.3311,1115.5144 L 1281.7337,1115.3155 L 1281.3807,1115.1372 L 1282.1492,1113.6152 C 1281.194,1113.973 1280.5106,1114.1564 1280.0992,1114.1652 C 1279.6878,1114.1741 1279.3016,1114.0874 1278.9407,1113.9051 C 1278.538,1113.7018 1278.2476,1113.4091 1278.0696,1113.0271 C 1277.8916,1112.6452 1277.8375,1112.2421 1277.9073,1111.8178 C 1277.9771,1111.3936 1278.1811,1110.8467 1278.5191,1110.1773 L 1280.1394,1106.9684 C 1280.3111,1106.6284 1280.3933,1106.3746 1280.3862,1106.2068 C 1280.379,1106.0391 1280.3213,1105.8836 1280.2131,1105.7404 C 1280.1049,1105.5972 1279.8612,1105.4331 1279.482,1105.2481 L 1279.6286,1104.9578 L 1282.147,1106.2295 L 1279.7185,1111.0389 C 1279.3804,1111.7084 1279.275,1112.2065 1279.4021,1112.5332 C 1279.5292,1112.86 1279.7575,1113.1065 1280.087,1113.2729 C 1280.3119,1113.3865 1280.6026,1113.4446 1280.9589,1113.4473 C 1281.3153,1113.4501 1281.79,1113.3517 1282.383,1113.1523 L 1284.4391,1109.0804 C 1284.6451,1108.6725 1284.7098,1108.3589 1284.6334,1108.1398 C 1284.557,1107.9207 1284.286,1107.6871 1283.8206,1107.4389 L 1283.9672,1107.1486 L 1286.415,1108.3847 z M 1292.483,1110.5076 L 1290.8184,1112.5638 L 1292.2803,1113.7472 L 1291.8932,1114.2254 L 1290.4313,1113.0419 L 1287.1464,1117.0997 C 1286.8183,1117.505 1286.6552,1117.8253 1286.657,1118.0604 C 1286.6588,1118.2956 1286.7508,1118.487 1286.933,1118.6344 C 1287.0833,1118.7561 1287.2668,1118.8274 1287.4836,1118.8483 C 1287.7003,1118.8693 1287.9212,1118.82 1288.1461,1118.7005 L 1288.4125,1118.9162 C 1287.8918,1119.2334 1287.3944,1119.3868 1286.9205,1119.3763 C 1286.4465,1119.3658 1286.0547,1119.2351 1285.745,1118.9845 C 1285.5355,1118.8149 1285.3776,1118.5909 1285.2712,1118.3125 C 1285.1649,1118.0342 1285.1514,1117.7482 1285.2309,1117.4544 C 1285.3104,1117.1607 1285.5326,1116.7884 1285.8976,1116.3375 L 1289.3042,1112.1295 L 1288.3136,1111.3276 L 1288.4961,1111.1022 C 1288.8277,1111.2048 1289.2212,1111.2425 1289.6766,1111.2154 C 1290.132,1111.1883 1290.5949,1111.0937 1291.0653,1110.9317 C 1291.3102,1110.8435 1291.7121,1110.6449 1292.2712,1110.3361 L 1292.483,1110.5076 z M 1292.6474,1118.5413 C 1291.6871,1119.253 1291.1105,1120.0471 1290.9176,1120.9235 C 1290.7248,1121.7999 1290.8654,1122.5547 1291.3395,1123.1879 C 1291.6556,1123.61 1292.0465,1123.8901 1292.5122,1124.0282 C 1292.9779,1124.1662 1293.5712,1124.1301 1294.2921,1123.9197 L 1294.3147,1124.2431 C 1293.5984,1124.6258 1292.7991,1124.7778 1291.9167,1124.6992 C 1291.0343,1124.6206 1290.3262,1124.2248 1289.7924,1123.5119 C 1289.2129,1122.738 1289.0182,1121.8499 1289.2082,1120.8475 C 1289.3982,1119.8451 1290.0021,1118.9629 1291.0199,1118.2008 C 1292.1221,1117.3754 1293.1932,1117.0144 1294.2332,1117.1178 C 1295.2731,1117.2211 1296.1127,1117.6996 1296.7519,1118.5532 C 1297.2927,1119.2755 1297.499,1120.047 1297.3706,1120.8678 C 1297.2422,1121.6886 1296.7794,1122.3976 1295.9821,1122.9946 L 1292.6474,1118.5413 z M 1293.0554,1118.2357 L 1295.2891,1121.2187 C 1295.6843,1120.8862 1295.9382,1120.6192 1296.0508,1120.4177 C 1296.2257,1120.1038 1296.3012,1119.7745 1296.2775,1119.43 C 1296.2537,1119.0854 1296.147,1118.7865 1295.9574,1118.5333 C 1295.6659,1118.144 1295.2538,1117.909 1294.7213,1117.8283 C 1294.1887,1117.7476 1293.6334,1117.8834 1293.0554,1118.2357 L 1293.0554,1118.2357 z M 1300.6184,1124.1912 L 1299.1279,1125.2191 C 1300.5041,1125.0886 1301.3935,1125.3151 1301.796,1125.8987 C 1301.979,1126.164 1302.0495,1126.4392 1302.0077,1126.7243 C 1301.9659,1127.0094 1301.8388,1127.2251 1301.6266,1127.3715 C 1301.4385,1127.5012 1301.236,1127.5483 1301.0193,1127.5127 C 1300.8026,1127.4771 1300.6344,1127.3725 1300.5146,1127.1988 C 1300.3982,1127.03 1300.3508,1126.7833 1300.3725,1126.4587 C 1300.3942,1126.1341 1300.3702,1125.9212 1300.3003,1125.8199 C 1300.2404,1125.7331 1300.1273,1125.6723 1299.961,1125.6375 C 1299.6135,1125.5569 1299.1333,1125.5571 1298.5202,1125.6383 L 1295.3439,1127.8288 C 1294.9773,1128.0816 1294.7315,1128.3187 1294.6066,1128.5401 C 1294.5196,1128.6926 1294.4876,1128.8784 1294.5106,1129.0975 C 1294.5335,1129.3165 1294.6481,1129.5756 1294.8544,1129.8746 L 1294.5939,1130.0543 L 1292.2537,1126.6609 L 1292.5142,1126.4813 C 1292.747,1126.8189 1292.973,1127.0332 1293.1923,1127.124 C 1293.3526,1127.1913 1293.5338,1127.1909 1293.7359,1127.1227 C 1293.8345,1127.0903 1294.0768,1126.941 1294.4627,1126.6749 L 1297.0312,1124.9035 C 1297.803,1124.3713 1298.2516,1124.0387 1298.3771,1123.9059 C 1298.5026,1123.7731 1298.57,1123.6412 1298.5793,1123.5102 C 1298.5886,1123.3792 1298.55,1123.251 1298.4635,1123.1256 C 1298.3604,1122.9761 1298.2078,1122.8322 1298.0057,1122.694 L 1298.2163,1122.442 L 1300.4088,1123.8873 L 1300.6184,1124.1912 z M 1301.963,1145.3001 L 1301.9499,1145.5963 L 1298.5921,1145.1208 L 1297.079,1136.0172 L 1297.3998,1135.9639 L 1297.4733,1136.4061 C 1297.5559,1136.9032 1297.7768,1137.2317 1298.136,1137.3918 C 1298.3412,1137.4824 1298.779,1137.472 1299.4495,1137.3606 L 1307.0358,1136.0997 C 1307.7699,1135.9777 1308.216,1135.8204 1308.374,1135.6278 C 1308.5909,1135.3601 1308.6623,1135.0037 1308.5884,1134.5586 L 1308.5149,1134.1165 L 1308.8357,1134.0631 L 1309.7205,1139.3866 L 1309.3997,1139.4399 C 1309.3017,1138.8147 1309.1711,1138.3865 1309.008,1138.1552 C 1308.8448,1137.924 1308.663,1137.7775 1308.4627,1137.7157 C 1308.2624,1137.654 1307.8125,1137.6812 1307.1131,1137.7975 L 1299.7262,1139.0253 C 1299.2464,1139.105 1298.9246,1139.206 1298.7608,1139.3283 C 1298.651,1139.4178 1298.5792,1139.5396 1298.5454,1139.6937 C 1298.5116,1139.8478 1298.5576,1140.3035 1298.6835,1141.0607 L 1298.8261,1141.919 C 1298.976,1142.8207 1299.1477,1143.4426 1299.3412,1143.7846 C 1299.5346,1144.1267 1299.8254,1144.4199 1300.2135,1144.6642 C 1300.6016,1144.9086 1301.1847,1145.1205 1301.963,1145.3001 L 1301.963,1145.3001 z M 1305.246,1153.1509 C 1304.8958,1154.3183 1304.1713,1155.1225 1303.0724,1155.5636 C 1302.1346,1155.9368 1301.1746,1155.9761 1300.1925,1155.6815 C 1299.5022,1155.4744 1298.8531,1155.0992 1298.2453,1154.5559 C 1297.6375,1154.0126 1297.2411,1153.3967 1297.0562,1152.7081 C 1296.8713,1152.0194 1296.8857,1151.3188 1297.0996,1150.606 C 1297.4481,1149.4443 1298.1881,1148.66 1299.3195,1148.2531 C 1300.273,1147.909 1301.2353,1147.8827 1302.2062,1148.1739 C 1302.9133,1148.3861 1303.5636,1148.7724 1304.1571,1149.3327 C 1304.7506,1149.8931 1305.1285,1150.5096 1305.2907,1151.1823 C 1305.4529,1151.8549 1305.438,1152.5111 1305.246,1153.1509 L 1305.246,1153.1509 z M 1304.7771,1152.7258 C 1304.8664,1152.4283 1304.8676,1152.103 1304.7809,1151.7497 C 1304.6942,1151.3964 1304.457,1151.0606 1304.0692,1150.7424 C 1303.6814,1150.4242 1303.1395,1150.1607 1302.4436,1149.9519 C 1301.3211,1149.6152 1300.2861,1149.5478 1299.3384,1149.7499 C 1298.3908,1149.9519 1297.8076,1150.4177 1297.5887,1151.1473 C 1297.4254,1151.6917 1297.5152,1152.208 1297.8581,1152.6963 C 1298.201,1153.1846 1298.9196,1153.5928 1300.014,1153.9212 C 1301.3834,1154.332 1302.5493,1154.3606 1303.5119,1154.0071 C 1304.1702,1153.7702 1304.5919,1153.3431 1304.7771,1152.7258 L 1304.7771,1152.7258 z M 1302.66,1161.7713 C 1302.3098,1162.9386 1301.5852,1163.7428 1300.4863,1164.184 C 1299.5485,1164.5572 1298.5886,1164.5965 1297.6064,1164.3018 C 1296.9161,1164.0947 1296.2671,1163.7195 1295.6592,1163.1763 C 1295.0514,1162.633 1294.6551,1162.0171 1294.4702,1161.3284 C 1294.2852,1160.6398 1294.2997,1159.9391 1294.5135,1159.2264 C 1294.862,1158.0646 1295.602,1157.2803 1296.7335,1156.8734 C 1297.687,1156.5294 1298.6492,1156.503 1299.6201,1156.7943 C 1300.3273,1157.0065 1300.9776,1157.3927 1301.5711,1157.9531 C 1302.1646,1158.5135 1302.5424,1159.13 1302.7046,1159.8026 C 1302.8668,1160.4753 1302.8519,1161.1315 1302.66,1161.7713 L 1302.66,1161.7713 z M 1302.1911,1161.3461 C 1302.2803,1161.0487 1302.2816,1160.7233 1302.1949,1160.37 C 1302.1082,1160.0167 1301.8709,1159.681 1301.4831,1159.3628 C 1301.0953,1159.0445 1300.5534,1158.781 1299.8575,1158.5723 C 1298.7351,1158.2355 1297.7,1158.1682 1296.7524,1158.3702 C 1295.8048,1158.5723 1295.2215,1159.0381 1295.0026,1159.7677 C 1294.8393,1160.3121 1294.9291,1160.8284 1295.272,1161.3167 C 1295.6149,1161.8049 1296.3336,1162.2132 1297.428,1162.5415 C 1298.7973,1162.9524 1299.9633,1162.981 1300.9258,1162.6274 C 1301.5841,1162.3906 1302.0059,1161.9635 1302.1911,1161.3461 L 1302.1911,1161.3461 z M 1300.3786,1165.7667 L 1300.6261,1168.4286 L 1300.5301,1168.7485 L 1298.7286,1168.208 C 1299.2881,1168.8102 1299.6438,1169.3528 1299.7956,1169.8357 C 1299.9474,1170.3186 1299.9568,1170.7818 1299.8238,1171.2252 C 1299.5914,1171.9997 1299.0947,1172.5541 1298.3337,1172.8886 C 1297.4026,1173.3006 1296.3422,1173.3281 1295.1524,1172.9711 C 1293.8223,1172.5721 1292.8368,1171.8605 1292.1959,1170.8362 C 1291.6717,1169.9938 1291.5527,1169.0956 1291.8389,1168.1415 C 1291.9635,1167.7262 1292.1302,1167.3847 1292.339,1167.117 C 1292.4905,1166.9177 1292.7347,1166.7157 1293.0714,1166.5109 L 1290.7227,1165.8062 C 1290.1951,1165.648 1289.8501,1165.5796 1289.6876,1165.6012 C 1289.5252,1165.6228 1289.3778,1165.701 1289.2457,1165.8357 C 1289.1135,1165.9704 1288.9843,1166.2482 1288.858,1166.6691 L 1288.5465,1166.5757 L 1289.7588,1162.5348 L 1290.0703,1162.6283 L 1290.0071,1162.8387 C 1289.9089,1163.1457 1289.8887,1163.4272 1289.9465,1163.6831 C 1289.9762,1163.8083 1290.051,1163.9209 1290.1708,1164.0211 C 1290.2907,1164.1213 1290.6312,1164.2556 1291.1924,1164.4239 L 1298.4827,1166.611 C 1298.9822,1166.7609 1299.3061,1166.8336 1299.4542,1166.8291 C 1299.6024,1166.8246 1299.7249,1166.7833 1299.8217,1166.7053 C 1299.9185,1166.6273 1299.9922,1166.5041 1300.0427,1166.3358 C 1300.0831,1166.2011 1300.0951,1166.0181 1300.0789,1165.7869 L 1300.3786,1165.7667 z M 1298.2319,1168.059 L 1295.3528,1167.1953 C 1294.7298,1167.0084 1294.3125,1166.9107 1294.101,1166.9023 C 1293.7519,1166.8832 1293.408,1166.9896 1293.0693,1167.2214 C 1292.7306,1167.4531 1292.4914,1167.8019 1292.3516,1168.2678 C 1292.1832,1168.829 1292.2657,1169.3492 1292.5991,1169.8285 C 1293.0352,1170.4549 1293.7724,1170.9238 1294.8106,1171.2353 C 1295.9892,1171.5888 1296.973,1171.6026 1297.7621,1171.2765 C 1298.3076,1171.0487 1298.6545,1170.6878 1298.8026,1170.1939 C 1298.8834,1169.9245 1298.8961,1169.6377 1298.8405,1169.3336 C 1298.8001,1169.1012 1298.5972,1168.6764 1298.2319,1168.059 L 1298.2319,1168.059 z"
       id="text3305" />
    <text
       xml:space="preserve"
       style="font-size:18px;font-style:normal;font-variant:normal;font-weight:normal;font-stretch:normal;text-align:start;line-height:125%;writing-mode:lr-tb;text-anchor:start;fill:#000000;fill-opacity:1;stroke:#ffffff;stroke-width:0.24999999;stroke-linecap:butt;stroke-linejoin:miter;stroke-miterlimit:4;stroke-dasharray:none;stroke-opacity:1;font-family:Times New Roman;-inkscape-font-specification:Times New Roman"
       x="169.50896"
       y="1731.5569"
       id="text3309"
       sodipodi:linespacing="125%"
       transform="matrix(0.7651157,-0.6438929,0.6438929,0.7651157,0,0)"
       inkscape:transform-center-x="63.818338"
       inkscape:transform-center-y="92.905396"><tspan
         sodipodi:role="line"
         id="tspan3311"
         x="169.50896"
         y="1731.5569">Chute</tspan></text>
    <text
       xml:space="preserve"
       style="font-size:18px;font-style:normal;font-variant:normal;font-weight:normal;font-stretch:normal;text-align:start;line-height:125%;writing-mode:lr-tb;text-anchor:start;fill:#000000;fill-opacity:1;stroke:#ffffff;stroke-width:0.25;stroke-linecap:butt;stroke-linejoin:miter;stroke-miterlimit:4;stroke-dasharray:none;stroke-opacity:1;font-family:Times New Roman;-inkscape-font-specification:Times New Roman"
       x="1288.7872"
       y="1256.8518"
       id="text3313"
       sodipodi:linespacing="125%"><tspan
         sodipodi:role="line"
         id="tspan3315"
         x="1288.7872"
         y="1256.8518">Toe</tspan></text>
    <text
       xml:space="preserve"
       style="font-size:18px;font-style:normal;font-variant:normal;font-weight:normal;font-stretch:normal;text-align:start;line-height:125%;writing-mode:lr-tb;text-anchor:start;fill:#000000;fill-opacity:1;stroke:#ffffff;stroke-width:0.25;stroke-linecap:butt;stroke-linejoin:miter;stroke-miterlimit:4;stroke-dasharray:none;stroke-opacity:1;font-family:Times New Roman;-inkscape-font-specification:Times New Roman"
       x="1092.7697"
       y="1411.0656"
       id="text3317"
       sodipodi:linespacing="125%"
       transform="matrix(0.9948512,-0.1013463,0.1013463,0.9948512,0,0)"
       inkscape:transform-center-y="26.334392"
       inkscape:transform-center-x="23.583333"><tspan
         sodipodi:role="line"
         id="tspan3319"
         x="1092.7697"
         y="1411.0656">The Boot</tspan></text>
    <path
       style="fill:none;fill-rule:evenodd;stroke:none;stroke-width:1px;stroke-linecap:butt;stroke-linejoin:miter;stroke-opacity:1"
       d="M 1183.599,1135.7785 L 1209.7216,1134.9915 L 1221.0578,1142.074 L 1261.4738,1140.8936"
       id="path3321" />
    <path
       style="fill:none;fill-rule:evenodd;stroke:none;stroke-width:1px;stroke-linecap:butt;stroke-linejoin:miter;stroke-opacity:1"
       d="M 1263.0477,1109.8092 L 1279.9671,1114.1374 L 1288.23,1120.8265 L 1296.0994,1132.2372 L 1298.8538,1145.6152 L 1291.7712,1169.2236"
       id="path3326"
       sodipodi:nodetypes="cccccc" />
    <path
       style="fill:none;fill-rule:evenodd;stroke:none;stroke-width:1px;stroke-linecap:butt;stroke-linejoin:miter;stroke-opacity:1"
       d="M 979.74727,1190.8646 L 1007.2904,1189.2907 L 1015.1599,1185.356 L 1041.916,1159.3868"
       id="path3331" />
    <path
       style="fill:none;fill-rule:evenodd;stroke:none;stroke-width:1px;stroke-linecap:butt;stroke-linejoin:miter;stroke-opacity:1"
       d="M 912.46343,1246.7377 L 920.33289,1268.3786 L 930.56318,1279.0025 L 945.12167,1285.298"
       id="path3336"
       sodipodi:nodetypes="cccc" />
    <path
       style="opacity:1;fill:#000000;fill-opacity:1;stroke:#ffffff;stroke-width:0.5;stroke-linecap:round;stroke-linejoin:round;stroke-miterlimit:4;stroke-dasharray:none;stroke-dashoffset:0;stroke-opacity:1"
       d="M 1243,1216.625 L 1232.0625,1218.1562 L 1242.5625,1221.5625 L 1242.75,1219.4688 C 1252.9073,1220.3086 1258.804,1220.0848 1262.1875,1219.6562 C 1263.8974,1219.4397 1264.966,1219.1665 1265.625,1218.9375 C 1265.9545,1218.823 1266.1918,1218.7371 1266.3438,1218.6562 C 1266.4956,1218.5755 1266.5938,1218.4688 1266.5938,1218.4688 L 1265.9688,1217.7188 C 1265.9688,1217.7188 1265.9752,1217.6967 1265.875,1217.75 C 1265.7748,1217.8033 1265.5685,1217.9002 1265.2812,1218 C 1264.7069,1218.1995 1263.7198,1218.4465 1262.0625,1218.6562 C 1258.787,1219.071 1252.9347,1219.3012 1242.8438,1218.4688 L 1243,1216.625 z"
       id="path3427" />
    <path
       sodipodi:type="star"
       style="opacity:1;fill:#ea1212;fill-opacity:1;stroke:#ffffff;stroke-width:0.25;stroke-linecap:round;stroke-linejoin:round;stroke-miterlimit:4;stroke-dasharray:none;stroke-dashoffset:0;stroke-opacity:1"
       id="path3429"
       sodipodi:sides="3"
       sodipodi:cx="1219.3722"
       sodipodi:cy="1308.9064"
       sodipodi:r1="7.1260953"
       sodipodi:r2="3.5630479"
       sodipodi:arg1="0"
       sodipodi:arg2="1.0471976"
       inkscape:flatsided="true"
       inkscape:rounded="0"
       inkscape:randomized="0"
       d="M 1226.4983,1308.9064 L 1215.8091,1315.0778 L 1215.8091,1302.735 L 1226.4983,1308.9064 z"
       transform="matrix(-0.9812058,-0.2330507,-9.2819215e-2,0.3907938,2323.9722,1052.2207)" />
    <rect
       style="opacity:1;fill:url(#pattern4912);fill-opacity:1;stroke:#000000;stroke-width:0.5;stroke-linecap:round;stroke-linejoin:round;stroke-miterlimit:4;stroke-dasharray:none;stroke-dashoffset:0;stroke-opacity:1"
       id="rect3457"
       width="7.0942688"
       height="32.505844"
       x="1060.9292"
       y="1218.9086"
       transform="matrix(0.9994379,3.3525135e-2,-3.3525135e-2,0.9994379,0,0)"
       ry="0" />
    <text
       xml:space="preserve"
       style="font-size:18px;font-style:normal;font-variant:normal;font-weight:normal;font-stretch:normal;text-align:start;line-height:125%;writing-mode:lr;text-anchor:start;fill:#000000;fill-opacity:1;stroke:#ffffff;stroke-width:0.25000000000000000;stroke-linecap:butt;stroke-linejoin:miter;stroke-miterlimit:4;stroke-dasharray:none;stroke-opacity:1;font-family:Times New Roman;-inkscape-font-specification:Times New Roman"
       x="1186.046"
       y="1266.601"
       id="text2463"
       sodipodi:linespacing="125%"><tspan
         sodipodi:role="line"
         id="tspan2467">Heel</tspan></text>
  </g>
</svg>
